<svg xmlns="http://www.w3.org/2000/svg" version="1.1" xmlns:xlink="http://www.w3.org/1999/xlink" width="512" height="512" x="0" y="0" viewBox="0 0 500 500" style="enable-background:new 0 0 512 512" xml:space="preserve" class="">
    <g>
        <clipPath id="a">
            <path d="M0 0h500v500H0z" fill="#000000" opacity="1" data-original="#000000">
            </path>
        </clipPath>
        <g clip-path="url(#a)">
            <path fill="#000000" fill-rule="evenodd" d="M500 250c0 138.071-111.929 250-250 250S0 388.071 0 250 111.929 0 250 0s250 111.929 250 250zM250 139c-22.819 0-41 18.322-41 40.534 0 14.912-12.088 27-27 27s-27-12.088-27-27C155 127.149 197.708 85 250 85s95 42.149 95 94.534c0 32.393-16.389 60.909-41.143 77.882-8.585 5.886-15.846 11.797-20.801 17.76-4.851 5.836-6.056 9.954-6.056 12.892V313c0 14.912-12.088 27-27 27s-27-12.088-27-27v-24.932c0-19.706 8.751-35.646 18.526-47.407 9.67-11.635 21.703-20.862 31.794-27.781 10.782-7.393 17.68-19.607 17.68-33.346C291 157.322 272.819 139 250 139zm0 290c18.778 0 34-15.446 34-34.5S268.778 360 250 360s-34 15.446-34 34.5 15.222 34.5 34 34.5z" clip-rule="evenodd" opacity="1" data-original="#000000" class="">
            </path>
        </g>
    </g>
</svg>