<svg xmlns="http://www.w3.org/2000/svg" version="1.1" xmlns:xlink="http://www.w3.org/1999/xlink" width="512" height="512" x="0" y="0" viewBox="0 0 512 512" style="enable-background:new 0 0 512 512" xml:space="preserve" class="">
  <g>
    <path fill="#ffe177" d="M317.818 1h162.273v61.818H317.818z" opacity="1" data-original="#ffe177" class=""></path>
    <path fill="#fe7d43" d="M286.909 47.364v162.273L379.636 511H511V47.364H286.909z" opacity="1" data-original="#fe7d43" class=""></path>
    <path fill="#e0f2ff" d="M379.636 171v38.636l-29.192 7.728-24.899-7.728V171z" opacity="1" data-original="#e0f2ff" class=""></path>
    <path fill="#ffe177" d="M325.545 209.636H225.091l-7.676 158.409L225.091 511h154.545V209.636z" opacity="1" data-original="#ffe177" class=""></path>
    <g fill="#e0f2ff">
      <path d="M217.415 422.136h54.039V468.5h-54.039zM302.364 422.136h46.364V468.5h-46.364zM418.273 426h54.091v46.364h-54.091zM418.273 341h54.091v46.364h-54.091zM418.273 256h54.091v46.364h-54.091zM418.273 171h54.091v46.364h-54.091zM418.273 86h54.091v46.364h-54.091zM325.545 86h54.091v46.364h-54.091zM217.415 337.136h54.039V383.5h-54.039zM302.364 337.136h46.364V383.5h-46.364zM302.364 252.136h46.364V298.5h-46.364zM217.415 252.136h54.039V298.5h-54.039z" fill="#e0f2ff" opacity="1" data-original="#e0f2ff" class=""></path>
    </g><path fill="#62dbfb" d="M1 1v510h30.909l75.384-30.909L194.182 511h30.909V86z" opacity="1" data-original="#62dbfb" class=""></path>
    <path fill="#685e68" d="M39.636 348.727v153.687L47.364 511h57.955l7.727-6.869 7.727 6.869h57.955l7.727-7.384V348.727z" opacity="1" data-original="#685e68"></path>
    <path fill="#e0f2ff" d="M39.636 263.727h54.091v46.364H39.636zM132.364 263.727h54.091v46.364h-54.091zM132.364 186.455h54.091v46.364h-54.091zM39.636 186.455h54.091v46.364H39.636zM132.364 109.182h54.091v46.364h-54.091zM39.636 109.182h54.091v46.364H39.636z" opacity="1" data-original="#e0f2ff" class=""></path>
    <path fill="#554e56" d="M186.455 341H39.636a7.73 7.73 0 0 0-7.727 7.727V511h15.455V395.091h57.955V511h15.455V395.091h57.955V511h15.455V348.727a7.733 7.733 0 0 0-7.729-7.727zm-7.728 38.636H47.364v-23.182h131.364v23.182z" opacity="1" data-original="#554e56"></path>
  </g>
</svg>
