<svg width="77" height="19" viewBox="0 0 104 26" fill="none" xmlns="http://www.w3.org/2000/svg">
    <path d="M9.43945 15.5566H2.60156V12.7969H9.43945C10.7637 12.7969 11.8359 12.5859 12.6562 12.1641C13.4766 11.7422 14.0742 11.1562 14.4492 10.4062C14.8359 9.65625 15.0293 8.80078 15.0293 7.83984C15.0293 6.96094 14.8359 6.13477 14.4492 5.36133C14.0742 4.58789 13.4766 3.9668 12.6562 3.49805C11.8359 3.01758 10.7637 2.77734 9.43945 2.77734H3.39258V25.5938H0V0H9.43945C11.373 0 13.0078 0.333984 14.3438 1.00195C15.6797 1.66992 16.6934 2.5957 17.3848 3.7793C18.0762 4.95117 18.4219 6.29297 18.4219 7.80469C18.4219 9.44531 18.0762 10.8457 17.3848 12.0059C16.6934 13.166 15.6797 14.0508 14.3438 14.6602C13.0078 15.2578 11.373 15.5566 9.43945 15.5566ZM29.8652 25.9453C28.541 25.9453 27.3398 25.7227 26.2617 25.2773C25.1953 24.8203 24.2754 24.1816 23.502 23.3613C22.7402 22.541 22.1543 21.5684 21.7441 20.4434C21.334 19.3184 21.1289 18.0879 21.1289 16.752V16.0137C21.1289 14.4668 21.3574 13.0898 21.8145 11.8828C22.2715 10.6641 22.8926 9.63281 23.6777 8.78906C24.4629 7.94531 25.3535 7.30664 26.3496 6.87305C27.3457 6.43945 28.377 6.22266 29.4434 6.22266C30.8027 6.22266 31.9746 6.45703 32.959 6.92578C33.9551 7.39453 34.7695 8.05078 35.4023 8.89453C36.0352 9.72656 36.5039 10.7109 36.8086 11.8477C37.1133 12.9727 37.2656 14.2031 37.2656 15.5391V16.998H23.0625V14.3438H34.0137V14.0977C33.9668 13.2539 33.791 12.4336 33.4863 11.6367C33.1934 10.8398 32.7246 10.1836 32.0801 9.66797C31.4355 9.15234 30.5566 8.89453 29.4434 8.89453C28.7051 8.89453 28.0254 9.05273 27.4043 9.36914C26.7832 9.67383 26.25 10.1309 25.8047 10.7402C25.3594 11.3496 25.0137 12.0938 24.7676 12.9727C24.5215 13.8516 24.3984 14.8652 24.3984 16.0137V16.752C24.3984 17.6543 24.5215 18.5039 24.7676 19.3008C25.0254 20.0859 25.3945 20.7773 25.875 21.375C26.3672 21.9727 26.959 22.4414 27.6504 22.7812C28.3535 23.1211 29.1504 23.291 30.041 23.291C31.1895 23.291 32.1621 23.0566 32.959 22.5879C33.7559 22.1191 34.4531 21.4922 35.0508 20.707L37.0195 22.2715C36.6094 22.8926 36.0879 23.4844 35.4551 24.0469C34.8223 24.6094 34.043 25.0664 33.1172 25.418C32.2031 25.7695 31.1191 25.9453 29.8652 25.9453ZM51.9961 21.2695L58.4648 6.57422H61.5938L53.1211 25.5938H50.8711L42.4336 6.57422H45.5625L51.9961 21.2695ZM44.6133 6.57422V25.5938H41.3613V6.57422H44.6133ZM59.2734 25.5938V6.57422H62.543V25.5938H59.2734ZM66.9199 16.2949V15.8906C66.9199 14.5195 67.1191 13.248 67.5176 12.0762C67.916 10.8926 68.4902 9.86719 69.2402 9C69.9902 8.12109 70.8984 7.44141 71.9648 6.96094C73.0312 6.46875 74.2266 6.22266 75.5508 6.22266C76.8867 6.22266 78.0879 6.46875 79.1543 6.96094C80.2324 7.44141 81.1465 8.12109 81.8965 9C82.6582 9.86719 83.2383 10.8926 83.6367 12.0762C84.0352 13.248 84.2344 14.5195 84.2344 15.8906V16.2949C84.2344 17.666 84.0352 18.9375 83.6367 20.1094C83.2383 21.2812 82.6582 22.3066 81.8965 23.1855C81.1465 24.0527 80.2383 24.7324 79.1719 25.2246C78.1172 25.7051 76.9219 25.9453 75.5859 25.9453C74.25 25.9453 73.0488 25.7051 71.9824 25.2246C70.916 24.7324 70.002 24.0527 69.2402 23.1855C68.4902 22.3066 67.916 21.2812 67.5176 20.1094C67.1191 18.9375 66.9199 17.666 66.9199 16.2949ZM70.1719 15.8906V16.2949C70.1719 17.2441 70.2832 18.1406 70.5059 18.9844C70.7285 19.8164 71.0625 20.5547 71.5078 21.1992C71.9648 21.8438 72.5332 22.3535 73.2129 22.7285C73.8926 23.0918 74.6836 23.2734 75.5859 23.2734C76.4766 23.2734 77.2559 23.0918 77.9238 22.7285C78.6035 22.3535 79.166 21.8438 79.6113 21.1992C80.0566 20.5547 80.3906 19.8164 80.6133 18.9844C80.8477 18.1406 80.9648 17.2441 80.9648 16.2949V15.8906C80.9648 14.9531 80.8477 14.0684 80.6133 13.2363C80.3906 12.3926 80.0508 11.6484 79.5938 11.0039C79.1484 10.3477 78.5859 9.83203 77.9062 9.45703C77.2383 9.08203 76.4531 8.89453 75.5508 8.89453C74.6602 8.89453 73.875 9.08203 73.1953 9.45703C72.5273 9.83203 71.9648 10.3477 71.5078 11.0039C71.0625 11.6484 70.7285 12.3926 70.5059 13.2363C70.2832 14.0684 70.1719 14.9531 70.1719 15.8906ZM95.9238 23.2734C96.6973 23.2734 97.4121 23.1152 98.0684 22.7988C98.7246 22.4824 99.2637 22.0488 99.6855 21.498C100.107 20.9355 100.348 20.2969 100.406 19.582H103.5C103.441 20.707 103.061 21.7559 102.357 22.7285C101.666 23.6895 100.758 24.4688 99.6328 25.0664C98.5078 25.6523 97.2715 25.9453 95.9238 25.9453C94.4941 25.9453 93.2461 25.6934 92.1797 25.1895C91.125 24.6855 90.2461 23.9941 89.543 23.1152C88.8516 22.2363 88.3301 21.2285 87.9785 20.0918C87.6387 18.9434 87.4688 17.7305 87.4688 16.4531V15.7148C87.4688 14.4375 87.6387 13.2305 87.9785 12.0938C88.3301 10.9453 88.8516 9.93164 89.543 9.05273C90.2461 8.17383 91.125 7.48242 92.1797 6.97852C93.2461 6.47461 94.4941 6.22266 95.9238 6.22266C97.4121 6.22266 98.7129 6.52734 99.8262 7.13672C100.939 7.73438 101.812 8.55469 102.445 9.59766C103.09 10.6289 103.441 11.8008 103.5 13.1133H100.406C100.348 12.3281 100.125 11.6191 99.7383 10.9863C99.3633 10.3535 98.8477 9.84961 98.1914 9.47461C97.5469 9.08789 96.791 8.89453 95.9238 8.89453C94.9277 8.89453 94.0898 9.09375 93.4102 9.49219C92.7422 9.87891 92.209 10.4062 91.8105 11.0742C91.4238 11.7305 91.1426 12.4629 90.9668 13.2715C90.8027 14.0684 90.7207 14.8828 90.7207 15.7148V16.4531C90.7207 17.2852 90.8027 18.1055 90.9668 18.9141C91.1309 19.7227 91.4062 20.4551 91.793 21.1113C92.1914 21.7676 92.7246 22.2949 93.3926 22.6934C94.0723 23.0801 94.916 23.2734 95.9238 23.2734Z" fill="#20A052"/>
</svg>
