<svg width="109" height="27" viewBox="0 0 109 27" fill="none" xmlns="http://www.w3.org/2000/svg">
<path d="M0.970703 0.40625H9.44336C11.3652 0.40625 12.9883 0.699219 14.3125 1.28516C15.6484 1.87109 16.6621 2.73828 17.3535 3.88672C18.0566 5.02344 18.4082 6.42383 18.4082 8.08789C18.4082 9.25977 18.168 10.332 17.6875 11.3047C17.2188 12.2656 16.5391 13.0859 15.6484 13.7656C14.7695 14.4336 13.7148 14.9316 12.4844 15.2598L11.5352 15.6289H3.57227L3.53711 12.8691H9.54883C10.7676 12.8691 11.7812 12.6582 12.5898 12.2363C13.3984 11.8027 14.0078 11.2227 14.418 10.4961C14.8281 9.76953 15.0332 8.9668 15.0332 8.08789C15.0332 7.10352 14.8398 6.24219 14.4531 5.50391C14.0664 4.76562 13.457 4.19727 12.625 3.79883C11.8047 3.38867 10.7441 3.18359 9.44336 3.18359H4.36328V26H0.970703V0.40625ZM15.9297 26L9.70703 14.3984L13.2402 14.3809L19.5508 25.7891V26H15.9297ZM30.5547 26.3516C29.2305 26.3516 28.0293 26.1289 26.9512 25.6836C25.8848 25.2266 24.9648 24.5879 24.1914 23.7676C23.4297 22.9473 22.8438 21.9746 22.4336 20.8496C22.0234 19.7246 21.8184 18.4941 21.8184 17.1582V16.4199C21.8184 14.873 22.0469 13.4961 22.5039 12.2891C22.9609 11.0703 23.582 10.0391 24.3672 9.19531C25.1523 8.35156 26.043 7.71289 27.0391 7.2793C28.0352 6.8457 29.0664 6.62891 30.1328 6.62891C31.4922 6.62891 32.6641 6.86328 33.6484 7.33203C34.6445 7.80078 35.459 8.45703 36.0918 9.30078C36.7246 10.1328 37.1934 11.1172 37.498 12.2539C37.8027 13.3789 37.9551 14.6094 37.9551 15.9453V17.4043H23.752V14.75H34.7031V14.5039C34.6562 13.6602 34.4805 12.8398 34.1758 12.043C33.8828 11.2461 33.4141 10.5898 32.7695 10.0742C32.125 9.55859 31.2461 9.30078 30.1328 9.30078C29.3945 9.30078 28.7148 9.45898 28.0938 9.77539C27.4727 10.0801 26.9395 10.5371 26.4941 11.1465C26.0488 11.7559 25.7031 12.5 25.457 13.3789C25.2109 14.2578 25.0879 15.2715 25.0879 16.4199V17.1582C25.0879 18.0605 25.2109 18.9102 25.457 19.707C25.7148 20.4922 26.084 21.1836 26.5645 21.7812C27.0566 22.3789 27.6484 22.8477 28.3398 23.1875C29.043 23.5273 29.8398 23.6973 30.7305 23.6973C31.8789 23.6973 32.8516 23.4629 33.6484 22.9941C34.4453 22.5254 35.1426 21.8984 35.7402 21.1133L37.709 22.6777C37.2988 23.2988 36.7773 23.8906 36.1445 24.4531C35.5117 25.0156 34.7324 25.4727 33.8066 25.8242C32.8926 26.1758 31.8086 26.3516 30.5547 26.3516ZM44.9863 10.7598V26H41.7168V6.98047H44.8105L44.9863 10.7598ZM44.3184 15.7695L42.8066 15.7168C42.8184 14.416 42.9883 13.2148 43.3164 12.1133C43.6445 11 44.1309 10.0332 44.7754 9.21289C45.4199 8.39258 46.2227 7.75977 47.1836 7.31445C48.1445 6.85742 49.2578 6.62891 50.5234 6.62891C51.4141 6.62891 52.2344 6.75781 52.9844 7.01562C53.7344 7.26172 54.3848 7.6543 54.9355 8.19336C55.4863 8.73242 55.9141 9.42383 56.2188 10.2676C56.5234 11.1113 56.6758 12.1309 56.6758 13.3262V26H53.4238V13.4844C53.4238 12.4883 53.2539 11.6914 52.9141 11.0938C52.5859 10.4961 52.1172 10.0625 51.5078 9.79297C50.8984 9.51172 50.1836 9.37109 49.3633 9.37109C48.4023 9.37109 47.5996 9.54102 46.9551 9.88086C46.3105 10.2207 45.7949 10.6895 45.4082 11.2871C45.0215 11.8848 44.7402 12.5703 44.5645 13.3438C44.4004 14.1055 44.3184 14.9141 44.3184 15.7695ZM56.6406 13.9766L54.4609 14.6445C54.4727 13.6016 54.6426 12.5996 54.9707 11.6387C55.3105 10.6777 55.7969 9.82227 56.4297 9.07227C57.0742 8.32227 57.8652 7.73047 58.8027 7.29688C59.7402 6.85156 60.8125 6.62891 62.0195 6.62891C63.0391 6.62891 63.9414 6.76367 64.7266 7.0332C65.5234 7.30273 66.1914 7.71875 66.7305 8.28125C67.2812 8.83203 67.6973 9.54102 67.9785 10.4082C68.2598 11.2754 68.4004 12.3066 68.4004 13.502V26H65.1309V13.4668C65.1309 12.4004 64.9609 11.5742 64.6211 10.9883C64.293 10.3906 63.8242 9.97461 63.2148 9.74023C62.6172 9.49414 61.9023 9.37109 61.0703 9.37109C60.3555 9.37109 59.7227 9.49414 59.1719 9.74023C58.6211 9.98633 58.1582 10.3262 57.7832 10.7598C57.4082 11.1816 57.1211 11.668 56.9219 12.2188C56.7344 12.7695 56.6406 13.3555 56.6406 13.9766ZM72.4609 16.7012V16.2969C72.4609 14.9258 72.6602 13.6543 73.0586 12.4824C73.457 11.2988 74.0312 10.2734 74.7812 9.40625C75.5312 8.52734 76.4395 7.84766 77.5059 7.36719C78.5723 6.875 79.7676 6.62891 81.0918 6.62891C82.4277 6.62891 83.6289 6.875 84.6953 7.36719C85.7734 7.84766 86.6875 8.52734 87.4375 9.40625C88.1992 10.2734 88.7793 11.2988 89.1777 12.4824C89.5762 13.6543 89.7754 14.9258 89.7754 16.2969V16.7012C89.7754 18.0723 89.5762 19.3438 89.1777 20.5156C88.7793 21.6875 88.1992 22.7129 87.4375 23.5918C86.6875 24.459 85.7793 25.1387 84.7129 25.6309C83.6582 26.1113 82.4629 26.3516 81.127 26.3516C79.791 26.3516 78.5898 26.1113 77.5234 25.6309C76.457 25.1387 75.543 24.459 74.7812 23.5918C74.0312 22.7129 73.457 21.6875 73.0586 20.5156C72.6602 19.3438 72.4609 18.0723 72.4609 16.7012ZM75.7129 16.2969V16.7012C75.7129 17.6504 75.8242 18.5469 76.0469 19.3906C76.2695 20.2227 76.6035 20.9609 77.0488 21.6055C77.5059 22.25 78.0742 22.7598 78.7539 23.1348C79.4336 23.498 80.2246 23.6797 81.127 23.6797C82.0176 23.6797 82.7969 23.498 83.4648 23.1348C84.1445 22.7598 84.707 22.25 85.1523 21.6055C85.5977 20.9609 85.9316 20.2227 86.1543 19.3906C86.3887 18.5469 86.5059 17.6504 86.5059 16.7012V16.2969C86.5059 15.3594 86.3887 14.4746 86.1543 13.6426C85.9316 12.7988 85.5918 12.0547 85.1348 11.4102C84.6895 10.7539 84.127 10.2383 83.4473 9.86328C82.7793 9.48828 81.9941 9.30078 81.0918 9.30078C80.2012 9.30078 79.416 9.48828 78.7363 9.86328C78.0684 10.2383 77.5059 10.7539 77.0488 11.4102C76.6035 12.0547 76.2695 12.7988 76.0469 13.6426C75.8242 14.4746 75.7129 15.3594 75.7129 16.2969ZM104.928 20.9551C104.928 20.4863 104.822 20.0527 104.611 19.6543C104.412 19.2441 103.996 18.875 103.363 18.5469C102.742 18.207 101.805 17.9141 100.551 17.668C99.4961 17.4453 98.541 17.1816 97.6855 16.877C96.8418 16.5723 96.1211 16.2031 95.5234 15.7695C94.9375 15.3359 94.4863 14.8262 94.1699 14.2402C93.8535 13.6543 93.6953 12.9688 93.6953 12.1836C93.6953 11.4336 93.8594 10.7246 94.1875 10.0566C94.5273 9.38867 95.002 8.79688 95.6113 8.28125C96.2324 7.76563 96.9766 7.36133 97.8438 7.06836C98.7109 6.77539 99.6777 6.62891 100.744 6.62891C102.268 6.62891 103.568 6.89844 104.646 7.4375C105.725 7.97656 106.551 8.69727 107.125 9.59961C107.699 10.4902 107.986 11.4805 107.986 12.5703H104.734C104.734 12.043 104.576 11.5332 104.26 11.041C103.955 10.5371 103.504 10.1211 102.906 9.79297C102.32 9.46484 101.6 9.30078 100.744 9.30078C99.8418 9.30078 99.1094 9.44141 98.5469 9.72266C97.9961 9.99219 97.5918 10.3379 97.334 10.7598C97.0879 11.1816 96.9648 11.627 96.9648 12.0957C96.9648 12.4473 97.0234 12.7637 97.1406 13.0449C97.2695 13.3145 97.4922 13.5664 97.8086 13.8008C98.125 14.0234 98.5703 14.2344 99.1445 14.4336C99.7188 14.6328 100.451 14.832 101.342 15.0312C102.9 15.3828 104.184 15.8047 105.191 16.2969C106.199 16.7891 106.949 17.3926 107.441 18.1074C107.934 18.8223 108.18 19.6895 108.18 20.709C108.18 21.541 108.004 22.3027 107.652 22.9941C107.312 23.6855 106.814 24.2832 106.158 24.7871C105.514 25.2793 104.74 25.666 103.838 25.9473C102.947 26.2168 101.945 26.3516 100.832 26.3516C99.1562 26.3516 97.7383 26.0527 96.5781 25.4551C95.418 24.8574 94.5391 24.084 93.9414 23.1348C93.3438 22.1855 93.0449 21.1836 93.0449 20.1289H96.3145C96.3613 21.0195 96.6191 21.7285 97.0879 22.2559C97.5566 22.7715 98.1309 23.1406 98.8105 23.3633C99.4902 23.5742 100.164 23.6797 100.832 23.6797C101.723 23.6797 102.467 23.5625 103.064 23.3281C103.674 23.0938 104.137 22.7715 104.453 22.3613C104.77 21.9512 104.928 21.4824 104.928 20.9551Z" fill="#20A052"/>
</svg>
