<svg width="72" height="19" viewBox="0 0 72 19" fill="none" xmlns="http://www.w3.org/2000/svg">
<path d="M6.55518 10.8032H1.80664V8.88672H6.55518C7.47477 8.88672 8.2194 8.74023 8.78906 8.44727C9.35872 8.1543 9.77376 7.7474 10.0342 7.22656C10.3027 6.70573 10.437 6.11165 10.437 5.44434C10.437 4.83398 10.3027 4.26025 10.0342 3.72314C9.77376 3.18604 9.35872 2.75472 8.78906 2.4292C8.2194 2.09554 7.47477 1.92871 6.55518 1.92871H2.35596V17.7734H0V0H6.55518C7.89795 0 9.0332 0.231934 9.96094 0.695801C10.8887 1.15967 11.5926 1.80257 12.0728 2.62451C12.5529 3.43831 12.793 4.37012 12.793 5.41992C12.793 6.55924 12.5529 7.53174 12.0728 8.3374C11.5926 9.14307 10.8887 9.75749 9.96094 10.1807C9.0332 10.5957 7.89795 10.8032 6.55518 10.8032ZM20.7397 18.0176C19.8201 18.0176 18.986 17.863 18.2373 17.5537C17.4967 17.2363 16.8579 16.7928 16.3208 16.2231C15.7918 15.6535 15.3849 14.978 15.1001 14.1968C14.8153 13.4155 14.6729 12.561 14.6729 11.6333V11.1206C14.6729 10.0464 14.8315 9.09017 15.1489 8.25195C15.4663 7.4056 15.8976 6.68945 16.4429 6.10352C16.9881 5.51758 17.6066 5.07406 18.2983 4.77295C18.9901 4.47184 19.7062 4.32129 20.4468 4.32129C21.3908 4.32129 22.2046 4.48405 22.8882 4.80957C23.5799 5.13509 24.1455 5.59082 24.585 6.17676C25.0244 6.75456 25.3499 7.43815 25.5615 8.22754C25.7731 9.00879 25.8789 9.86328 25.8789 10.791V11.8042H16.0156V9.96094H23.6206V9.79004C23.5881 9.2041 23.466 8.63444 23.2544 8.08105C23.0509 7.52767 22.7254 7.07194 22.2778 6.71387C21.8302 6.35579 21.2199 6.17676 20.4468 6.17676C19.9341 6.17676 19.4621 6.28662 19.0308 6.50635C18.5994 6.71794 18.2292 7.03532 17.9199 7.4585C17.6107 7.88167 17.3706 8.39844 17.1997 9.00879C17.0288 9.61914 16.9434 10.3231 16.9434 11.1206V11.6333C16.9434 12.2599 17.0288 12.8499 17.1997 13.4033C17.3787 13.9486 17.6351 14.4287 17.9688 14.8438C18.3105 15.2588 18.7215 15.5843 19.2017 15.8203C19.6899 16.0563 20.2433 16.1743 20.8618 16.1743C21.6593 16.1743 22.3348 16.0116 22.8882 15.686C23.4416 15.3605 23.9258 14.9251 24.3408 14.3799L25.708 15.4663C25.4232 15.8976 25.061 16.3086 24.6216 16.6992C24.1821 17.0898 23.641 17.4072 22.998 17.6514C22.3633 17.8955 21.6105 18.0176 20.7397 18.0176ZM36.1084 14.7705L40.6006 4.56543H42.7734L36.8896 17.7734H35.3271L29.4678 4.56543H31.6406L36.1084 14.7705ZM30.9814 4.56543V17.7734H28.7231V4.56543H30.9814ZM41.1621 17.7734V4.56543H43.4326V17.7734H41.1621ZM46.4722 11.3159V11.0352C46.4722 10.083 46.6105 9.20003 46.8872 8.38623C47.1639 7.56429 47.5627 6.85221 48.0835 6.25C48.6043 5.63965 49.235 5.16764 49.9756 4.83398C50.7161 4.49219 51.5462 4.32129 52.4658 4.32129C53.3936 4.32129 54.2277 4.49219 54.9683 4.83398C55.717 5.16764 56.3517 5.63965 56.8726 6.25C57.4015 6.85221 57.8044 7.56429 58.0811 8.38623C58.3577 9.20003 58.4961 10.083 58.4961 11.0352V11.3159C58.4961 12.2681 58.3577 13.151 58.0811 13.9648C57.8044 14.7786 57.4015 15.4907 56.8726 16.1011C56.3517 16.7033 55.721 17.1753 54.9805 17.5171C54.248 17.8507 53.418 18.0176 52.4902 18.0176C51.5625 18.0176 50.7284 17.8507 49.9878 17.5171C49.2472 17.1753 48.6125 16.7033 48.0835 16.1011C47.5627 15.4907 47.1639 14.7786 46.8872 13.9648C46.6105 13.151 46.4722 12.2681 46.4722 11.3159ZM48.7305 11.0352V11.3159C48.7305 11.9751 48.8078 12.5977 48.9624 13.1836C49.117 13.7614 49.349 14.2741 49.6582 14.7217C49.9756 15.1693 50.3703 15.5233 50.8423 15.7837C51.3143 16.036 51.8636 16.1621 52.4902 16.1621C53.1087 16.1621 53.6499 16.036 54.1138 15.7837C54.5858 15.5233 54.9764 15.1693 55.2856 14.7217C55.5949 14.2741 55.8268 13.7614 55.9814 13.1836C56.1442 12.5977 56.2256 11.9751 56.2256 11.3159V11.0352C56.2256 10.3841 56.1442 9.76969 55.9814 9.19189C55.8268 8.60596 55.5908 8.08919 55.2734 7.6416C54.9642 7.18587 54.5736 6.8278 54.1016 6.56738C53.6377 6.30697 53.0924 6.17676 52.4658 6.17676C51.8473 6.17676 51.3021 6.30697 50.8301 6.56738C50.3662 6.8278 49.9756 7.18587 49.6582 7.6416C49.349 8.08919 49.117 8.60596 48.9624 9.19189C48.8078 9.76969 48.7305 10.3841 48.7305 11.0352ZM66.6138 16.1621C67.1509 16.1621 67.6473 16.0522 68.103 15.8325C68.5588 15.6128 68.9331 15.3117 69.2261 14.9292C69.519 14.5386 69.6859 14.0951 69.7266 13.5986H71.875C71.8343 14.3799 71.5698 15.1082 71.0815 15.7837C70.6014 16.451 69.9707 16.9922 69.1895 17.4072C68.4082 17.8141 67.5496 18.0176 66.6138 18.0176C65.6209 18.0176 64.7542 17.8426 64.0137 17.4927C63.2812 17.1427 62.6709 16.6626 62.1826 16.0522C61.7025 15.4419 61.3403 14.742 61.0962 13.9526C60.8602 13.1551 60.7422 12.3128 60.7422 11.4258V10.9131C60.7422 10.026 60.8602 9.18783 61.0962 8.39844C61.3403 7.60091 61.7025 6.89697 62.1826 6.28662C62.6709 5.67627 63.2812 5.19613 64.0137 4.84619C64.7542 4.49626 65.6209 4.32129 66.6138 4.32129C67.6473 4.32129 68.5506 4.53288 69.3237 4.95605C70.0968 5.37109 70.7031 5.94076 71.1426 6.66504C71.5902 7.38118 71.8343 8.19499 71.875 9.10645H69.7266C69.6859 8.5612 69.5312 8.06885 69.2627 7.62939C69.0023 7.18994 68.6442 6.84001 68.1885 6.57959C67.7409 6.31104 67.216 6.17676 66.6138 6.17676C65.922 6.17676 65.3402 6.3151 64.8682 6.5918C64.4043 6.86035 64.034 7.22656 63.7573 7.69043C63.4888 8.14616 63.2935 8.65479 63.1714 9.21631C63.0575 9.76969 63.0005 10.3353 63.0005 10.9131V11.4258C63.0005 12.0036 63.0575 12.5732 63.1714 13.1348C63.2853 13.6963 63.4766 14.2049 63.7451 14.6606C64.0218 15.1164 64.3921 15.4826 64.856 15.7593C65.328 16.0278 65.9139 16.1621 66.6138 16.1621Z" fill="#20A052"/>
</svg>
