<svg width="75" height="19" viewBox="0 0 75 19" fill="none" xmlns="http://www.w3.org/2000/svg">
<path d="M0.0629883 0.226562H5.94678C7.28141 0.226562 8.40853 0.430013 9.32812 0.836914C10.2559 1.24382 10.9598 1.84603 11.4399 2.64355C11.9282 3.43294 12.1724 4.40544 12.1724 5.56104C12.1724 6.37484 12.0055 7.11947 11.6719 7.79492C11.3464 8.46224 10.8743 9.0319 10.2559 9.50391C9.64551 9.96777 8.91309 10.3136 8.05859 10.5415L7.39941 10.7979H1.86963L1.84521 8.88135H6.02002C6.86637 8.88135 7.57031 8.73486 8.13184 8.44189C8.69336 8.14079 9.11654 7.73796 9.40137 7.2334C9.6862 6.72884 9.82861 6.17139 9.82861 5.56104C9.82861 4.87744 9.69434 4.2793 9.42578 3.7666C9.15723 3.25391 8.73405 2.85921 8.15625 2.58252C7.58659 2.29769 6.8501 2.15527 5.94678 2.15527H2.41895V18H0.0629883V0.226562ZM10.4512 18L6.12988 9.94336L8.5835 9.93115L12.9658 17.8535V18H10.4512ZM20.6074 18.2441C19.6878 18.2441 18.8537 18.0895 18.105 17.7803C17.3644 17.4629 16.7256 17.0194 16.1885 16.4497C15.6595 15.88 15.2526 15.2046 14.9678 14.4233C14.6829 13.6421 14.5405 12.7876 14.5405 11.8599V11.3472C14.5405 10.2729 14.6992 9.31673 15.0166 8.47852C15.334 7.63216 15.7653 6.91602 16.3105 6.33008C16.8558 5.74414 17.4743 5.30062 18.166 4.99951C18.8577 4.6984 19.5739 4.54785 20.3145 4.54785C21.2585 4.54785 22.0723 4.71061 22.7559 5.03613C23.4476 5.36165 24.0132 5.81738 24.4526 6.40332C24.8921 6.98112 25.2176 7.66471 25.4292 8.4541C25.6408 9.23535 25.7466 10.0898 25.7466 11.0176V12.0308H15.8833V10.1875H23.4883V10.0166C23.4557 9.43066 23.3337 8.861 23.1221 8.30762C22.9186 7.75423 22.5931 7.2985 22.1455 6.94043C21.6979 6.58236 21.0876 6.40332 20.3145 6.40332C19.8018 6.40332 19.3298 6.51318 18.8984 6.73291C18.4671 6.9445 18.0968 7.26188 17.7876 7.68506C17.4784 8.10824 17.2383 8.625 17.0674 9.23535C16.8965 9.8457 16.811 10.5496 16.811 11.3472V11.8599C16.811 12.4865 16.8965 13.0765 17.0674 13.6299C17.2464 14.1751 17.5028 14.6553 17.8364 15.0703C18.1782 15.4854 18.5892 15.8109 19.0693 16.0469C19.5576 16.2829 20.111 16.4009 20.7295 16.4009C21.527 16.4009 22.2025 16.2381 22.7559 15.9126C23.3092 15.5871 23.7935 15.1517 24.2085 14.6064L25.5757 15.6929C25.2909 16.1242 24.9287 16.5352 24.4893 16.9258C24.0498 17.3164 23.5086 17.6338 22.8657 17.8779C22.231 18.1221 21.4782 18.2441 20.6074 18.2441ZM30.6294 7.4165V18H28.3589V4.79199H30.5073L30.6294 7.4165ZM30.1655 10.8955L29.1157 10.8589C29.1239 9.95557 29.2419 9.12142 29.4697 8.35645C29.6976 7.58333 30.0353 6.91195 30.4829 6.34229C30.9305 5.77262 31.488 5.33317 32.1553 5.02393C32.8226 4.70654 33.5957 4.54785 34.4746 4.54785C35.0931 4.54785 35.6628 4.63737 36.1836 4.81641C36.7044 4.9873 37.1561 5.25993 37.5386 5.63428C37.9211 6.00863 38.2181 6.48877 38.4297 7.07471C38.6413 7.66064 38.7471 8.36865 38.7471 9.19873V18H36.4888V9.30859C36.4888 8.61686 36.3708 8.06348 36.1348 7.64844C35.9069 7.2334 35.5814 6.93229 35.1582 6.74512C34.735 6.5498 34.2386 6.45215 33.6689 6.45215C33.0016 6.45215 32.4442 6.57015 31.9966 6.80615C31.549 7.04215 31.1909 7.36768 30.9224 7.78271C30.6538 8.19775 30.4585 8.67383 30.3364 9.21094C30.2225 9.73991 30.1655 10.3014 30.1655 10.8955ZM38.7227 9.65039L37.209 10.1143C37.2171 9.38997 37.3351 8.69417 37.563 8.02686C37.799 7.35954 38.1367 6.76546 38.5762 6.24463C39.0238 5.7238 39.5731 5.31283 40.2241 5.01172C40.8752 4.70247 41.6198 4.54785 42.458 4.54785C43.166 4.54785 43.7926 4.64144 44.3379 4.82861C44.8913 5.01579 45.3551 5.30469 45.7295 5.69531C46.112 6.0778 46.4009 6.57015 46.5962 7.17236C46.7915 7.77458 46.8892 8.49072 46.8892 9.3208V18H44.6187V9.29639C44.6187 8.55583 44.5007 7.9821 44.2646 7.5752C44.0368 7.16016 43.7113 6.87126 43.2881 6.7085C42.873 6.5376 42.3766 6.45215 41.7988 6.45215C41.3024 6.45215 40.863 6.5376 40.4805 6.7085C40.098 6.87939 39.7765 7.1154 39.5161 7.4165C39.2557 7.70947 39.0563 8.0472 38.918 8.42969C38.7878 8.81217 38.7227 9.21908 38.7227 9.65039ZM49.709 11.5425V11.2617C49.709 10.3096 49.8473 9.4266 50.124 8.61279C50.4007 7.79085 50.7995 7.07878 51.3203 6.47656C51.8411 5.86621 52.4718 5.39421 53.2124 5.06055C53.953 4.71875 54.783 4.54785 55.7026 4.54785C56.6304 4.54785 57.4645 4.71875 58.2051 5.06055C58.9538 5.39421 59.5885 5.86621 60.1094 6.47656C60.6383 7.07878 61.0412 7.79085 61.3179 8.61279C61.5946 9.4266 61.7329 10.3096 61.7329 11.2617V11.5425C61.7329 12.4946 61.5946 13.3776 61.3179 14.1914C61.0412 15.0052 60.6383 15.7173 60.1094 16.3276C59.5885 16.9299 58.9578 17.4019 58.2173 17.7437C57.4849 18.0773 56.6548 18.2441 55.7271 18.2441C54.7993 18.2441 53.9652 18.0773 53.2246 17.7437C52.484 17.4019 51.8493 16.9299 51.3203 16.3276C50.7995 15.7173 50.4007 15.0052 50.124 14.1914C49.8473 13.3776 49.709 12.4946 49.709 11.5425ZM51.9673 11.2617V11.5425C51.9673 12.2017 52.0446 12.8242 52.1992 13.4102C52.3538 13.988 52.5858 14.5007 52.895 14.9482C53.2124 15.3958 53.6071 15.7498 54.0791 16.0103C54.5511 16.2625 55.1004 16.3887 55.7271 16.3887C56.3455 16.3887 56.8867 16.2625 57.3506 16.0103C57.8226 15.7498 58.2132 15.3958 58.5225 14.9482C58.8317 14.5007 59.0636 13.988 59.2183 13.4102C59.381 12.8242 59.4624 12.2017 59.4624 11.5425V11.2617C59.4624 10.6107 59.381 9.99626 59.2183 9.41846C59.0636 8.83252 58.8276 8.31576 58.5103 7.86816C58.201 7.41243 57.8104 7.05436 57.3384 6.79395C56.8745 6.53353 56.3293 6.40332 55.7026 6.40332C55.0841 6.40332 54.5389 6.53353 54.0669 6.79395C53.603 7.05436 53.2124 7.41243 52.895 7.86816C52.5858 8.31576 52.3538 8.83252 52.1992 9.41846C52.0446 9.99626 51.9673 10.6107 51.9673 11.2617ZM72.2554 14.4966C72.2554 14.1711 72.1821 13.87 72.0356 13.5933C71.8973 13.3084 71.6084 13.0521 71.1689 12.8242C70.7376 12.5882 70.0866 12.3848 69.2158 12.2139C68.4834 12.0592 67.8201 11.8761 67.2261 11.6646C66.6401 11.453 66.1396 11.1966 65.7246 10.8955C65.3177 10.5944 65.0044 10.2404 64.7847 9.8335C64.5649 9.4266 64.4551 8.95052 64.4551 8.40527C64.4551 7.88444 64.569 7.39209 64.7969 6.92822C65.0329 6.46436 65.3625 6.05339 65.7856 5.69531C66.217 5.33724 66.7337 5.05648 67.3359 4.85303C67.9382 4.64958 68.6095 4.54785 69.3501 4.54785C70.408 4.54785 71.3114 4.73503 72.0601 5.10938C72.8088 5.48372 73.3825 5.98421 73.7812 6.61084C74.18 7.22933 74.3794 7.91699 74.3794 8.67383H72.1211C72.1211 8.30762 72.0112 7.95361 71.7915 7.61182C71.5799 7.26188 71.2666 6.97298 70.8516 6.74512C70.4447 6.51725 69.9442 6.40332 69.3501 6.40332C68.7235 6.40332 68.2148 6.50098 67.8242 6.69629C67.4417 6.88346 67.161 7.12354 66.9819 7.4165C66.811 7.70947 66.7256 8.01872 66.7256 8.34424C66.7256 8.58838 66.7663 8.80811 66.8477 9.00342C66.9372 9.19059 67.0918 9.36556 67.3115 9.52832C67.5312 9.68294 67.8405 9.82943 68.2393 9.96777C68.638 10.1061 69.1466 10.2445 69.7651 10.3828C70.8475 10.627 71.7386 10.9199 72.4385 11.2617C73.1383 11.6035 73.6592 12.0226 74.001 12.519C74.3428 13.0155 74.5137 13.6177 74.5137 14.3257C74.5137 14.9035 74.3916 15.4325 74.1475 15.9126C73.9115 16.3927 73.5656 16.8078 73.1099 17.1577C72.6623 17.4995 72.1252 17.7681 71.4985 17.9634C70.88 18.1506 70.1842 18.2441 69.4111 18.2441C68.2474 18.2441 67.2627 18.0366 66.457 17.6216C65.6514 17.2065 65.041 16.6694 64.626 16.0103C64.2109 15.3511 64.0034 14.6553 64.0034 13.9229H66.2739C66.3065 14.5413 66.4855 15.0337 66.811 15.3999C67.1366 15.758 67.5353 16.0143 68.0073 16.1689C68.4793 16.3154 68.9473 16.3887 69.4111 16.3887C70.0296 16.3887 70.5464 16.3073 70.9614 16.1445C71.3846 15.9818 71.7061 15.758 71.9258 15.4731C72.1455 15.1883 72.2554 14.8628 72.2554 14.4966Z" fill="#20A052"/>
</svg>
