<?xml version="1.0" standalone="no"?>
<!DOCTYPE svg PUBLIC "-//W3C//DTD SVG 20010904//EN"
 "http://www.w3.org/TR/2001/REC-SVG-20010904/DTD/svg10.dtd">
<svg version="1.0" xmlns="http://www.w3.org/2000/svg"
 width="400.000000pt" height="400.000000pt" viewBox="0 0 400.000000 400.000000"
 preserveAspectRatio="xMidYMid meet">
<metadata>
Created by potrace 1.14, written by Peter Selinger 2001-2017
</metadata>
<g transform="translate(0.000000,400.000000) scale(0.100000,-0.100000)"
fill="#000000" stroke="none">
<path d="M0 2000 l0 -2000 2000 0 2000 0 0 2000 0 2000 -2000 0 -2000 0 0
-2000z m2275 1460 c303 -43 524 -172 649 -378 77 -127 126 -351 112 -515 -10
-121 -32 -201 -81 -302 -78 -162 -198 -279 -372 -366 -46 -23 -81 -44 -79 -48
1 -3 150 -271 329 -596 179 -324 329 -598 333 -608 6 -16 -6 -17 -200 -15
l-207 3 -307 572 -307 573 -332 0 -333 0 0 -575 0 -575 -190 0 -190 0 0 1420
0 1420 553 0 c311 0 582 -5 622 -10z"/>
<path d="M1480 2624 l0 -536 368 5 c311 3 376 6 427 21 192 56 336 204 374
384 15 74 13 205 -4 280 -34 144 -122 256 -249 317 -123 58 -182 65 -571 65
l-345 0 0 -536z"/>
</g>
</svg>
