<svg width="40" height="40" viewBox="0 0 40 40" fill="none" xmlns="http://www.w3.org/2000/svg">
<path d="M3 10.3096C2.99999 10.6585 3.08606 11.002 3.25056 11.3096C3.41507 11.6172 3.65292 11.8793 3.94297 12.0727C6.81881 13.9924 15.4843 19.7751 18.7426 21.9501C19.115 22.1987 19.5525 22.3313 20 22.3313C20.4476 22.3313 20.8851 22.1987 21.2574 21.9501C24.5157 19.7751 33.1813 13.9924 36.0571 12.0727C36.6465 11.6796 37 11.0181 37 10.3096M3 10.3096V9.26788C3 8.01538 4.01436 7 5.26559 7H34.7345C35.9856 7 37 8.01538 37 9.26788V10.3096M3 10.3096L3 29.7309C2.99992 30.0289 3.05854 30.324 3.1725 30.5992C3.28646 30.8745 3.45352 31.1246 3.66413 31.3352M37 10.3096L37 29.7309C37.0001 30.0289 36.9415 30.324 36.8275 30.5992C36.7135 30.8745 36.5465 31.1246 36.3359 31.3352M3.66413 31.3352C3.87447 31.546 4.12428 31.7132 4.39926 31.8273C4.67424 31.9414 4.96899 32.0001 5.26665 32H34.7333C35.031 32.0001 35.3258 31.9414 35.6007 31.8273C35.8757 31.7132 36.1255 31.546 36.3359 31.3352M3.66413 31.3352L13.303 23.6855M36.3359 31.3352L26.697 23.6855" stroke="black" stroke-width="1.6" stroke-miterlimit="10" stroke-linecap="round" stroke-linejoin="round"/>
</svg>
