<svg width="40" height="40" viewBox="0 0 40 40" fill="none" xmlns="http://www.w3.org/2000/svg">
<path d="M24 36V8C24 6.89543 23.1045 6 22 6H8.35712C7.25255 6 6.35712 6.89543 6.35712 8V36M24 36H6.35712M24 36H31.5C33.1569 36 34.5 34.6569 34.5 33V16.5M6.35712 36H2M34.5 16.5L31 20M34.5 16.5L38 20" stroke="black" stroke-width="1.6"/>
<path d="M13 28V25H10V28H13Z" stroke="black" stroke-width="1.6"/>
<path d="M13 21V18H10V21H13Z" stroke="black" stroke-width="1.6"/>
<path d="M13 14V11H10V14H13Z" stroke="black" stroke-width="1.6"/>
<path d="M20 28V25H17V28H20Z" stroke="black" stroke-width="1.6"/>
<path d="M20 21V18H17V21H20Z" stroke="black" stroke-width="1.6"/>
<path d="M20 14V11H17V14H20Z" stroke="black" stroke-width="1.6"/>
</svg>
