<svg fill="none" height="40" viewBox="0 0 40 40" width="40" xmlns="http://www.w3.org/2000/svg"><path d="m20.5357 35v-25c0-.92046-.7462-1.66666-1.6667-1.66666h-11.36902c-.92047 0-1.66667.74619-1.66667 1.66666v13.8158 11.1842zm0 0h4.3706m-15.62061-22.5h2.50001m-2.50001 3.3333h2.50001m-2.50001 3.3334h2.50001m2.9167-6.6667h2.5m-2.5 3.3333h2.5m-2.5 3.3334h2.5m-7.91671 3.3333h2.50001m2.9167 0h2.5m-7.91671 3.3333h2.50001m2.9167 0h2.5m16.0452 2.353v5.147c0 .9205-.7462 1.6667-1.6667 1.6667h-2.9622m-6.7271-11.2712 4.1554-3.4076c.2245-.1998.5204-.3212.8446-.3212s.6201.1214.8447.3212l8.322 7.5743m-11.152 7.1045h3.7124m-3.7124 0v-2.7573m3.7124 2.7573v-5.5147h-3.7124v2.7574m0 0h1.974" stroke="#000" stroke-width="1.6"/></svg>
