<svg width="40" height="40" viewBox="0 0 40 40" fill="none" xmlns="http://www.w3.org/2000/svg">
<path d="M27.5769 35H11.7436V26.25M27.5769 35V24.9375M27.5769 35H33C35.2091 35 37 33.2091 37 31V28.9375C37 26.7284 35.2091 24.9375 33 24.9375H31.6154M27.5769 16.1875V9C27.5769 7.89543 26.6815 7 25.5769 7H13.7436C12.639 7 11.7436 7.89543 11.7436 9V16.1875M27.5769 16.1875V24.9375M27.5769 16.1875H30.7564C32.9655 16.1875 34.7564 17.9784 34.7564 20.1875V20.9375C34.7564 23.1466 32.9655 24.9375 30.7564 24.9375H27.5769M11.7436 16.1875H8C4.68629 16.1875 2 18.8738 2 22.1875V26.25M11.7436 16.1875V26.25M2 35V26.25M2 26.25H11.7436" stroke="black" stroke-width="1.6"/>
<path d="M16 11H18.5263M16 14.5H18.5263M16 18H18.5263M21.4737 11H24M21.4737 14.5H24M21.4737 18H24M16 21.5H18.5263M21.4737 21.5H24M16 25H18.5263M21.4737 25H24" stroke="black" stroke-width="1.6"/>
</svg>
