<svg width="40" height="40" viewBox="0 0 40 40" fill="none" xmlns="http://www.w3.org/2000/svg">
<path d="M28.6355 13.1351V10.0105L25.0841 10.0105L21.5 10.0105L18 10.0105L13.0093 10.0105L9.45794 5H5.19626V10.0105L2.35514 10.0105V13.1351H5.19626L5.18692 31.5M28.6355 13.1351V18M28.6355 13.1351H25.0841H21.5H18H13.0093L13 31.5M19.271 24.5816V31.7684H38V24.5816M19.271 24.5816H38M19.271 24.5816L28.6355 18M38 24.5816L28.6355 18M26.6355 27.4737V29.2632M30.1869 27.4737V29.2632M15.8505 36.7562H13.0093M13.0093 36.7562H2H5.19626L5.18692 31.5M13.0093 36.7562L13 31.5M13 31.5H5.18692" stroke="black" stroke-width="1.6" stroke-miterlimit="10" stroke-linecap="round" stroke-linejoin="round"/>
</svg>
