<svg width="40" height="40" viewBox="0 0 40 40" fill="none" xmlns="http://www.w3.org/2000/svg">
<path d="M28.6355 13.1351V10.0105L25.0841 10.0105M28.6355 13.1351V18M28.6355 13.1351H25.0841M19.271 24.5816V31.7684H38V24.5816M19.271 24.5816H38M19.271 24.5816L28.6355 18M38 24.5816L28.6355 18M28.6355 27.4737V29.2632M25.0841 27.4737V29.2632M32.1869 27.4737V29.2632M5.19626 10.0105V5H9.45794L13.0093 10.0105M5.19626 10.0105L2.35514 10.0105V13.1351H5.19626M5.19626 10.0105L13.0093 10.0105M5.19626 10.0105V13.1351M5.19626 36.7562H2H13.0093M5.19626 36.7562V21.0088M5.19626 36.7562L13.0093 28.8825M15.8505 36.7562H13.0093M13.0093 36.7562V28.8825M13.0093 13.1351H5.19626M13.0093 13.1351L5.19626 21.0088M13.0093 13.1351V28.8825M13.0093 13.1351H18M13.0093 10.0105L18 10.0105M5.19626 13.1351V21.0088M5.19626 21.0088L13.0093 28.8825M25.0841 10.0105V13.1351M25.0841 10.0105L21.5 10.0105M25.0841 13.1351H21.5M21.5 13.1351V10.0105M21.5 13.1351H18M21.5 10.0105L18 10.0105M18 10.0105V13.1351" stroke="black" stroke-width="1.6" stroke-miterlimit="10" stroke-linecap="round" stroke-linejoin="round"/>
</svg>
