<svg width="40" height="40" viewBox="0 0 40 40" fill="none" xmlns="http://www.w3.org/2000/svg">
<path d="M4.85034 15.8131V34C4.85034 34.5523 5.29806 35 5.85034 35H22.1973M4.85034 15.8131H35.1497M4.85034 15.8131H3V11C3 10.4477 3.44772 10 4 10H36C36.5523 10 37 10.4477 37 11V15.8131H35.1497M35.1497 15.8131V34C35.1497 34.5523 34.7019 35 34.1497 35H30.0612M30.0612 35V21.9886C30.0612 21.4363 29.6135 20.9886 29.0612 20.9886H23.1973C22.645 20.9886 22.1973 21.4363 22.1973 21.9886V35M30.0612 35H22.1973M23.585 28.1968H25.2041M9.93878 26.7318V21.9886C9.93878 21.4363 10.3865 20.9886 10.9388 20.9886H15.8776C16.4298 20.9886 16.8776 21.4363 16.8776 21.9886V26.7318C16.8776 27.2841 16.4298 27.7318 15.8776 27.7318H10.9388C10.3865 27.7318 9.93878 27.2841 9.93878 26.7318Z" stroke="black" stroke-width="1.6"/>
</svg>
