<svg width="48" height="48" viewBox="0 0 48 48" fill="none" xmlns="http://www.w3.org/2000/svg">
<path d="M27 42V42.8H27.8V42H27ZM4 42H3.2V42.8H4V42ZM32 42H31.2V42.8H32V42ZM47 42.8C47.4418 42.8 47.8 42.4418 47.8 42C47.8 41.5582 47.4418 41.2 47 41.2V42.8ZM11.3571 10.8H25V9.2H11.3571V10.8ZM26.2 12V42H27.8V12H26.2ZM27 41.2H9.35714V42.8H27V41.2ZM10.1571 42V28.5789H8.55714V42H10.1571ZM10.1571 28.5789V12H8.55714V28.5789H10.1571ZM9.35714 41.2H4V42.8H9.35714V41.2ZM4.8 42V30.5789H3.2V42H4.8ZM6 29.3789H9.35714V27.7789H6V29.3789ZM4.8 30.5789C4.8 29.9162 5.33726 29.3789 6 29.3789V27.7789C4.4536 27.7789 3.2 29.0326 3.2 30.5789H4.8ZM25 10.8C25.6627 10.8 26.2 11.3373 26.2 12H27.8C27.8 10.4536 26.5464 9.2 25 9.2V10.8ZM11.3571 9.2C9.81075 9.2 8.55714 10.4536 8.55714 12H10.1571C10.1571 11.3373 10.6944 10.8 11.3571 10.8V9.2ZM34 22.8H42V21.2H34V22.8ZM43.2 24V42H44.8V24H43.2ZM44 41.2H32V42.8H44V41.2ZM32.8 42V24H31.2V42H32.8ZM44 42.8H47V41.2H44V42.8ZM42 22.8C42.6627 22.8 43.2 23.3373 43.2 24H44.8C44.8 22.4536 43.5464 21.2 42 21.2V22.8ZM34 21.2C32.4536 21.2 31.2 22.4536 31.2 24H32.8C32.8 23.3373 33.3373 22.8 34 22.8V21.2ZM35 27.8H37V26.2H35V27.8ZM35 31.8H37V30.2H35V31.8ZM39 27.8H41V26.2H39V27.8ZM39 31.8H41V30.2H39V31.8ZM13.5 15.8H16.5V14.2H13.5V15.8ZM13.5 19.8H16.5V18.2H13.5V19.8ZM13.5 23.8H16.5V22.2H13.5V23.8ZM20 15.8H23V14.2H20V15.8ZM20 19.8H23V18.2H20V19.8ZM20 23.8H23V22.2H20V23.8ZM13.5 27.8H16.5V26.2H13.5V27.8ZM20 27.8H23V26.2H20V27.8ZM13.5 31.8H16.5V30.2H13.5V31.8ZM20 31.8H23V30.2H20V31.8Z" fill="black"/>
</svg>
