<svg width="40" height="40" viewBox="0 0 40 40" fill="none" xmlns="http://www.w3.org/2000/svg">
<path d="M35 36H9.591C7.05546 36 5 33.9445 5 31.409V31.409M5 5H30C32.7614 5 35 7.23858 35 10V10.1135" stroke="black" stroke-width="1.6" stroke-linecap="round"/>
<path d="M13.611 25.8708C13.611 27.599 12.1898 29 10.4367 29C8.68361 29 7.26245 27.599 7.26245 25.8708C7.26245 24.1426 8.68361 22.7416 10.4367 22.7416C12.1898 22.7416 13.611 24.1426 13.611 25.8708ZM13.611 25.8708H28.3891M28.3891 25.8708C28.3891 27.599 29.8103 29 31.5634 29C33.3166 29 34.7377 27.599 34.7377 25.8708C34.7377 24.1426 33.3166 22.7416 31.5634 22.7416C29.8103 22.7416 28.3891 24.1426 28.3891 25.8708ZM7.26238 25.8708H6.2124C4.99051 25.8708 4 24.8944 4 23.6899V19.3996C4.00002 18.8212 4.2331 18.2665 4.64798 17.8575L9.96129 12.6197C11.0133 11.5826 12.4401 11 13.9278 11H23.0964C24.0281 11 24.9217 11.3649 25.5806 12.0144L31.1126 17.4678L36.7281 19.2683C37.0978 19.3869 37.42 19.6177 37.6485 19.9278C37.8769 20.2379 38 20.6114 38 20.9946V24.0555C38 25.0581 37.1755 25.8708 36.1585 25.8708H34.7376M11.6 11.4988V13.5495C11.6 15.7135 13.3797 17.4679 15.5749 17.4679H31.1126M21.0001 17.4679V11M23.0859 20.9448H24.9689" stroke="black" stroke-width="1.6" stroke-miterlimit="10" stroke-linecap="round" stroke-linejoin="round"/>
</svg>
