<svg width="40" height="40" viewBox="0 0 40 40" fill="none" xmlns="http://www.w3.org/2000/svg">
<path d="M30.46 10H34C35.6569 10 37 11.3431 37 13V32C37 33.6569 35.6569 35 34 35H6C4.34315 35 3 33.6569 3 32V13C3 11.3431 4.34315 10 6 10H24" stroke="black" stroke-width="1.6"/>
<path d="M21 6.5L24.5 10L21 13.5" stroke="black" stroke-width="1.6"/>
<path d="M24.9644 19.4286H27.5508C28.4932 19.4286 29.1846 20.2831 28.956 21.1653L28.4862 22.9787C28.1566 24.2506 26.9723 25.1429 25.6136 25.1429H23.8655M11 28H25.6044M18.3527 28H18.2516C14.6 28 11.6399 25.1437 11.6399 21.6202V18H24.9644V21.6202C24.9644 25.1437 22.0043 28 18.3527 28Z" stroke="black" stroke-width="1.6" stroke-miterlimit="10" stroke-linecap="round"/>
</svg>
