<svg width="48" height="48" viewBox="0 0 48 48" fill="none" xmlns="http://www.w3.org/2000/svg">
<path d="M43 42.8C43.4418 42.8 43.8 42.4418 43.8 42C43.8 41.5582 43.4418 41.2 43 41.2V42.8ZM5 41.2C4.55817 41.2 4.2 41.5582 4.2 42C4.2 42.4418 4.55817 42.8 5 42.8V41.2ZM34.247 10.0405L34.2471 9.24051L33.447 9.24046V10.0405H34.247ZM34.2585 13.4532L33.4585 13.4581L33.4634 14.2582L34.2636 14.2532L34.2585 13.4532ZM35.9136 10.0406L35.9136 10.8406H35.9136V10.0406ZM5 36.4392C4.55817 36.4392 4.2 36.7974 4.2 37.2392C4.2 37.6811 4.55817 38.0392 5 38.0392V36.4392ZM30.832 37.2392V38.0392H31.632V37.2392H30.832ZM22.0415 26.5341L21.3755 26.9773L21.6129 27.3341H22.0415V26.5341ZM17.0163 18.983L17.6823 18.5398L17.4449 18.183H17.0163V18.983ZM5 18.183C4.55817 18.183 4.2 18.5412 4.2 18.983C4.2 19.4248 4.55817 19.783 5 19.783V18.183ZM5 25.7341C4.55817 25.7341 4.2 26.0923 4.2 26.5341C4.2 26.9759 4.55817 27.3341 5 27.3341V25.7341ZM35.6772 19.7979V42H37.2772V19.7979H35.6772ZM43 41.2H5V42.8H43V41.2ZM40.7864 18.9979H31.0965V20.5979H40.7864V18.9979ZM29.8965 17.7979V8H28.2965V17.7979H29.8965ZM31.0965 6.8H40.7864V5.2H31.0965V6.8ZM41.9864 8V17.7979H43.5864V8H41.9864ZM33.447 10.0405V16.7161H35.047V10.0405H33.447ZM36.8359 11.7431C36.8359 12.2275 36.419 12.6457 35.9136 12.6457V14.2457C37.2741 14.2457 38.4359 13.1394 38.4359 11.7431H36.8359ZM35.9136 12.6457C35.6798 12.6457 35.2639 12.6476 34.9084 12.6494C34.7302 12.6504 34.5665 12.6513 34.4473 12.652C34.3878 12.6524 34.3393 12.6527 34.3058 12.6529C34.289 12.653 34.2759 12.6531 34.2671 12.6531C34.2626 12.6531 34.2592 12.6532 34.257 12.6532C34.2558 12.6532 34.255 12.6532 34.2544 12.6532C34.2541 12.6532 34.2539 12.6532 34.2537 12.6532C34.2536 12.6532 34.2536 12.6532 34.2535 12.6532C34.2535 12.6532 34.2535 12.6532 34.2535 12.6532C34.2535 12.6532 34.2535 12.6532 34.2585 13.4532C34.2636 14.2532 34.2636 14.2532 34.2636 14.2532C34.2636 14.2532 34.2636 14.2532 34.2636 14.2532C34.2637 14.2532 34.2637 14.2532 34.2638 14.2532C34.2639 14.2532 34.2641 14.2532 34.2644 14.2532C34.265 14.2532 34.2658 14.2532 34.267 14.2531C34.2692 14.2531 34.2726 14.2531 34.277 14.2531C34.2858 14.253 34.2988 14.2529 34.3156 14.2528C34.349 14.2526 34.3974 14.2523 34.4568 14.252C34.5757 14.2513 34.739 14.2504 34.9168 14.2494C35.2731 14.2475 35.6848 14.2457 35.9136 14.2457V12.6457ZM34.2585 13.4532C35.0585 13.4483 35.0585 13.4483 35.0585 13.4483C35.0585 13.4483 35.0585 13.4483 35.0585 13.4483C35.0585 13.4482 35.0585 13.4482 35.0585 13.4481C35.0585 13.4479 35.0585 13.4477 35.0585 13.4474C35.0585 13.4468 35.0585 13.446 35.0585 13.4448C35.0585 13.4424 35.0585 13.4389 35.0584 13.4344C35.0584 13.4252 35.0583 13.4117 35.0582 13.3944C35.058 13.3597 35.0577 13.3096 35.0573 13.2481C35.0566 13.1249 35.0557 12.9557 35.0548 12.7718C35.0529 12.4031 35.051 11.9777 35.051 11.7431H33.451C33.451 11.9825 33.4529 12.4121 33.4548 12.78C33.4557 12.9643 33.4567 13.1338 33.4574 13.2572C33.4577 13.3189 33.458 13.3691 33.4582 13.4039C33.4583 13.4213 33.4584 13.4348 33.4585 13.444C33.4585 13.4486 33.4585 13.4521 33.4585 13.4545C33.4585 13.4556 33.4585 13.4565 33.4585 13.4571C33.4585 13.4574 33.4585 13.4577 33.4585 13.4578C33.4585 13.4579 33.4585 13.458 33.4585 13.458C33.4585 13.458 33.4585 13.458 33.4585 13.458C33.4585 13.458 33.4585 13.4581 34.2585 13.4532ZM35.051 11.7431C35.051 11.5472 35.05 11.1204 35.049 10.7437C35.0485 10.5552 35.048 10.3788 35.0476 10.2495C35.0475 10.1849 35.0473 10.132 35.0472 10.0953C35.0471 10.077 35.0471 10.0627 35.0471 10.053C35.0471 10.0481 35.047 10.0444 35.047 10.0419C35.047 10.0406 35.047 10.0397 35.047 10.039C35.047 10.0387 35.047 10.0385 35.047 10.0383C35.047 10.0383 35.047 10.0382 35.047 10.0381C35.047 10.0381 35.047 10.0381 35.047 10.0381C35.047 10.0381 35.047 10.0381 34.247 10.0405C33.447 10.0429 33.447 10.0429 33.447 10.0429C33.447 10.043 33.447 10.043 33.447 10.043C33.447 10.043 33.447 10.0431 33.447 10.0432C33.447 10.0433 33.447 10.0436 33.447 10.0439C33.447 10.0445 33.447 10.0455 33.447 10.0467C33.447 10.0492 33.4471 10.0529 33.4471 10.0578C33.4471 10.0675 33.4471 10.0817 33.4472 10.1001C33.4473 10.1367 33.4475 10.1895 33.4476 10.2541C33.448 10.3833 33.4485 10.5595 33.449 10.748C33.45 11.1253 33.451 11.5498 33.451 11.7431H35.051ZM34.247 10.8405L35.9136 10.8406L35.9137 9.24061L34.2471 9.24051L34.247 10.8405ZM35.9136 10.8406C36.419 10.8406 36.8359 11.2588 36.8359 11.7431H38.4359C38.4359 10.3469 37.2741 9.24061 35.9136 9.24061V10.8406ZM5 38.0392H14.898V36.4392H5V38.0392ZM24.4742 38.0392H30.832V36.4392H24.4742V38.0392ZM31.632 37.2392V32.0743H30.032V37.2392H31.632ZM31.632 32.0743C31.632 28.5787 28.8187 25.7341 25.3351 25.7341V27.3341C27.9232 27.3341 30.032 29.4505 30.032 32.0743H31.632ZM25.3351 25.7341H22.0415V27.3341H25.3351V25.7341ZM22.7075 26.0909L17.6823 18.5398L16.3503 19.4262L21.3755 26.9773L22.7075 26.0909ZM17.0163 18.183H5V19.783H17.0163V18.183ZM5 27.3341H22.6004V25.7341H5V27.3341ZM23.6742 37.1742C23.6742 39.4035 21.8828 41.2 19.6861 41.2V42.8C22.7782 42.8 25.2742 40.2753 25.2742 37.1742H23.6742ZM19.6861 41.2C17.4894 41.2 15.698 39.4035 15.698 37.1742H14.098C14.098 40.2753 16.594 42.8 19.6861 42.8V41.2ZM15.698 37.1742C15.698 34.9448 17.4894 33.1483 19.6861 33.1483V31.5483C16.5939 31.5483 14.098 34.0731 14.098 37.1742H15.698ZM19.6861 33.1483C21.8827 33.1483 23.6742 34.9448 23.6742 37.1742H25.2742C25.2742 34.0731 22.7783 31.5483 19.6861 31.5483V33.1483ZM30.832 31.2743L26.6978 31.2743V32.8743L30.832 32.8743V31.2743ZM40.7864 6.8C41.4491 6.8 41.9864 7.33726 41.9864 8H43.5864C43.5864 6.4536 42.3328 5.2 40.7864 5.2V6.8ZM29.8965 8C29.8965 7.33726 30.4337 6.8 31.0965 6.8V5.2C29.5501 5.2 28.2965 6.4536 28.2965 8H29.8965ZM31.0965 18.9979C30.4337 18.9979 29.8965 18.4606 29.8965 17.7979H28.2965C28.2965 19.3443 29.5501 20.5979 31.0965 20.5979V18.9979ZM40.7864 20.5979C42.3328 20.5979 43.5864 19.3443 43.5864 17.7979H41.9864C41.9864 18.4606 41.4491 18.9979 40.7864 18.9979V20.5979Z" fill="black"/>
</svg>
