<svg width="48" height="48" viewBox="0 0 48 48" fill="none" xmlns="http://www.w3.org/2000/svg">
<path d="M36.4772 19.7979V42M43 42H5M34.247 10.0405V16.7161M34.247 10.0405L35.9136 10.0406C36.8466 10.0406 37.6359 10.8028 37.6359 11.7431C37.6359 12.6834 36.8466 13.4457 35.9136 13.4457C35.451 13.4457 34.2585 13.4532 34.2585 13.4532C34.2516 12.3156 34.2505 11.1781 34.247 10.0405ZM5 37.2392H14.898M24.4742 37.2392H30.832V32.0743M30.832 32.0743C30.832 29.0146 28.3709 26.5341 25.3351 26.5341H22.0415M30.832 32.0743L26.6978 32.0743M22.0415 26.5341L17.0163 18.983H5M22.0415 26.5341L5 26.5341M24.4742 37.1742C24.4742 39.8394 22.3305 42 19.6861 42C17.0417 42 14.898 39.8394 14.898 37.1742C14.898 34.509 17.0417 32.3483 19.6861 32.3483C22.3305 32.3483 24.4742 34.509 24.4742 37.1742ZM40.7864 6H31.0965C29.9919 6 29.0965 6.89543 29.0965 8V17.7979C29.0965 18.9024 29.9919 19.7979 31.0965 19.7979H40.7864C41.891 19.7979 42.7864 18.9024 42.7864 17.7979V8C42.7864 6.89543 41.891 6 40.7864 6Z" stroke="black" stroke-width="1.6" stroke-miterlimit="10"/>
</svg>
