<svg width="40" height="40" viewBox="0 0 40 40" fill="none" xmlns="http://www.w3.org/2000/svg">
<path d="M20 25.8333V36.0018M20 36.0018H23.3333M20 36.0018H16.6667" stroke="black" stroke-width="1.6" stroke-miterlimit="10"/>
<path d="M17.5 10.8333V20.8333M17.5 10.8333L19.9589 10.8335C21.3354 10.8335 22.5 11.9753 22.5 13.3839C22.5 14.7925 21.3354 15.9343 19.9589 15.9343C19.2763 15.9343 17.517 15.9455 17.517 15.9455C17.5068 14.2415 17.5051 12.5374 17.5 10.8333Z" stroke="black" stroke-width="1.6" stroke-miterlimit="10"/>
<path d="M12 25.8333H28C29.1046 25.8333 30 24.9379 30 23.8333V7.83334C30 6.72877 29.1046 5.83334 28 5.83334H12C10.8954 5.83334 10 6.72877 10 7.83334V23.8333C10 24.9379 10.8954 25.8333 12 25.8333Z" stroke="black" stroke-width="1.6" stroke-miterlimit="10"/>
</svg>
