<svg width="40" height="40" viewBox="0 0 40 40" fill="none" xmlns="http://www.w3.org/2000/svg">
<path d="M19.7343 34.8333H6.51418M19.7343 34.8333V16.2733C19.7343 15.6327 19.2088 15.1133 18.5605 15.1133H16.213M19.7343 34.8333H22.0817M6.51418 34.8333V16.2733C6.51418 15.6327 7.03968 15.1133 7.68792 15.1133H16.213M6.51418 34.8333H4.16669M9.35868 26.2194H11.1879M33.8192 34.8333H16.213H13.8655M33.8192 34.8333V6.99333C33.8192 6.35268 33.2937 5.83333 32.6455 5.83333H17.3868C16.7385 5.83333 16.213 6.35268 16.213 6.99333V15.1133M33.8192 34.8333H36.1667M28.4702 22.4324H31.1415" stroke="black" stroke-width="1.6" stroke-miterlimit="10" stroke-linecap="round"/>
</svg>
