<svg width="40" height="40" viewBox="0 0 40 40" fill="none" xmlns="http://www.w3.org/2000/svg">
<path d="M30.46 10H34C35.6569 10 37 11.3431 37 13V32C37 33.6569 35.6569 35 34 35H6C4.34315 35 3 33.6569 3 32V13C3 11.3431 4.34315 10 6 10H24M21 6.5L24.5 10L21 13.5" stroke="black" stroke-width="1.6"/>
<path d="M12.5 26.9872H14.7622C16.5504 26.9872 18 25.5376 18 23.7494V22.2615C18 21.295 17.2165 20.5115 16.25 20.5115V20.5115M12.5 26.9872H10.2378C8.44962 26.9872 7 25.5376 7 23.7494V22.2615C7 21.295 7.7835 20.5115 8.75 20.5115V20.5115M12.5 26.9872V31M12.5 26.9872V22.8516M14.5 20.5115H16.25M16.25 20.5115V19.75C16.25 17.6789 14.5711 16 12.5 16V16V16C10.4289 16 8.75 17.6789 8.75 19.75V20.5115M8.75 20.5115H10.5" stroke="black" stroke-width="1.6"/>
</svg>
