<svg width="40" height="40" viewBox="0 0 40 40" fill="none" xmlns="http://www.w3.org/2000/svg">
<path d="M30.46 10H34C35.6569 10 37 11.3431 37 13V32C37 33.6569 35.6569 35 34 35H6C4.34315 35 3 33.6569 3 32V13C3 11.3431 4.34315 10 6 10H24" stroke="black" stroke-width="1.6"/>
<path d="M21 6.5L24.5 10L21 13.5" stroke="black" stroke-width="1.6"/>
<path d="M13 24.5871C14.8515 24.5871 16.3522 23.1125 16.3522 21.2935C16.3522 19.4746 14.8515 18 13 18C11.1485 18 9.6478 19.4746 9.6478 21.2935C9.6478 23.1125 11.1485 24.5871 13 24.5871ZM13 24.5871C10.4043 24.5871 8.26811 26.5194 8 28.9999M13 24.5871C15.5958 24.5871 17.732 26.5196 18 29" stroke="black" stroke-width="1.6" stroke-miterlimit="10" stroke-linecap="round" stroke-linejoin="round"/>
</svg>
