<svg width="40" height="40" viewBox="0 0 40 40" fill="none" xmlns="http://www.w3.org/2000/svg">
<path d="M23.8533 19.2308H26.3574C28.9804 19.2308 31.1067 17.1045 31.1067 14.4815V12.0402C31.1067 10.7656 30.0734 9.73231 28.7988 9.73231V9.73231M23.8533 19.2308H21.3492C18.7263 19.2308 16.6 17.1045 16.6 14.4815V12.0402C16.6 10.7656 17.6333 9.73231 18.9079 9.73231V9.73231M23.8533 19.2308V25.6M23.8533 19.2308V13.9762M26.4909 9.73231H28.7988M28.7988 9.73231V8.94546C28.7988 6.21416 26.5846 4 23.8533 4V4V4C21.122 4 18.9079 6.21416 18.9079 8.94546V9.73231M18.9079 9.73231H21.2158M14.5 9.73231H8C5.23858 9.73231 3 11.9709 3 14.7323V30C3 32.7614 5.23858 35 8 35H32C34.7614 35 37 32.7614 37 30V13.7323C37 11.5232 35.2091 9.73231 33 9.73231V9.73231" stroke="black" stroke-width="1.6"/>
</svg>
