<svg width="48" height="48" viewBox="0 0 48 48" fill="none" xmlns="http://www.w3.org/2000/svg">
<path d="M9.35714 42H27V12C27 10.8954 26.1046 10 25 10H11.3571C10.2526 10 9.35714 10.8954 9.35714 12V28.5789M9.35714 42V28.5789M9.35714 42H4V30.5789C4 29.4744 4.89543 28.5789 6 28.5789H9.35714" stroke="black" stroke-width="1.6"/>
<path d="M44 42V24C44 22.8954 43.1046 22 42 22H34C32.8954 22 32 22.8954 32 24V42H44ZM44 42H47" stroke="black" stroke-width="1.6" stroke-linecap="round"/>
<path d="M35 27H37M35 31H37M39 27H41M39 31H41" stroke="black" stroke-width="1.6"/>
<path d="M13.5 15H16.5M13.5 19H16.5M13.5 23H16.5M20 15H23M20 19H23M20 23H23M13.5 27H16.5M20 27H23M13.5 31H16.5M20 31H23" stroke="black" stroke-width="1.6"/>
</svg>
