<svg width="18" height="18" viewBox="0 0 18 18" fill="none" xmlns="http://www.w3.org/2000/svg">
<path d="M17.3997 5.52001L15.6972 4.338L15.0463 2.41799C14.8522 1.84202 14.2952 1.452 13.663 1.452H11.56L9.85122 0.270018C9.34424 -0.0900059 8.65575 -0.0900059 8.14877 0.270018L6.44001 1.452H4.33697C3.70479 1.452 3.14776 1.84201 2.95373 2.41799L2.30276 4.338L0.600307 5.52001C0.0870548 5.88 -0.125767 6.50398 0.0745241 7.08L0.725495 9.00001L0.0745241 10.92C-0.125773 11.496 0.0870548 12.12 0.600307 12.48L2.30276 13.662L2.95373 15.582C3.14776 16.158 3.70479 16.548 4.33697 16.548H6.44002L8.1425 17.73C8.39911 17.91 8.69957 18 9 18C9.30042 18 9.60088 17.91 9.85123 17.73L11.56 16.548H13.663C14.2952 16.548 14.8522 16.158 15.0463 15.582L15.6972 13.662L17.3997 12.48C17.9129 12.12 18.1258 11.496 17.9255 10.92L17.2745 9.00001L17.9255 7.08C18.1258 6.50399 17.9129 5.88 17.3997 5.52001ZM6.50263 5.11198C7.36012 5.11198 8.06113 5.78402 8.06113 6.60601C8.06113 7.42801 7.36012 8.10001 6.50263 8.10001C5.64514 8.10001 4.94412 7.42801 4.94412 6.60601C4.94412 5.78402 5.64513 5.11198 6.50263 5.11198ZM6.70292 13.482C6.52765 13.71 6.25225 13.836 5.97058 13.836C5.78282 13.836 5.59505 13.782 5.43231 13.668C5.03172 13.386 4.94412 12.84 5.23828 12.45L11.2971 4.51799C11.5913 4.13402 12.1608 4.044 12.5677 4.33199C12.9683 4.61401 13.0559 5.15999 12.7617 5.55001L6.70292 13.482ZM11.4974 12.888C10.6399 12.888 9.93886 12.216 9.93886 11.394C9.93886 10.572 10.6399 9.90001 11.4974 9.90001C12.3549 9.90001 13.0559 10.572 13.0559 11.394C13.0559 12.216 12.3549 12.888 11.4974 12.888Z" fill="#A6D9BA"/>
</svg>
