<svg width="48" height="48" viewBox="0 0 48 48" fill="none" xmlns="http://www.w3.org/2000/svg">
<path d="M10.4 7C17.9034 7 22.5229 12.7562 23.2695 20.2224C23.7681 25.2088 26.7884 29.5913 31.2705 31.8324C34.8728 33.6335 37.9427 36.4141 40.1767 39.7651M40.9999 19.7676H23.2169M20.7861 13.4191H41M40.9999 32.4647H32.4488M25.1795 26.1162H40.9999M32.5352 7V13.4191M32.5352 19.7676V26.1162M36.7676 13.4191V19.7676M36.7676 26.1162V32.4647M28.3029 13.4191V19.7676M24.0705 7V13.4191M38.9999 7H9C7.89543 7 7 7.89543 7 9V39C7 40.1046 7.89543 41 9 41H38.9999C40.1045 41 40.9999 40.1046 40.9999 39V9C40.9999 7.89543 40.1045 7 38.9999 7Z" stroke="black" stroke-width="1.6" stroke-miterlimit="10"/>
</svg>
