<svg width="110" height="110" viewBox="0 0 110 110" fill="none" xmlns="http://www.w3.org/2000/svg">
<path fill-rule="evenodd" clip-rule="evenodd" d="M0.199997 37C0.199997 16.6758 16.676 0.199951 37.0001 0.199951C55.0522 0.199951 70.0652 13.1979 73.198 30.3445C73.2774 30.7791 72.9894 31.1959 72.5548 31.2753C72.1202 31.3547 71.7035 31.0667 71.6241 30.6321C68.6276 14.2318 54.2655 1.79995 37.0001 1.79995C17.5597 1.79995 1.8 17.5594 1.8 37C1.8 46.3341 5.43335 54.8166 11.363 61.1175C11.5714 61.3389 11.6362 61.6593 11.5303 61.9443C9.98931 66.0929 6.9803 69.5268 3.13175 71.6126C4.52868 71.9952 5.9995 72.1999 7.51911 72.1999C11.8701 72.1999 15.8277 70.5244 18.7865 67.783C19.0417 67.5465 19.4205 67.5021 19.7235 67.6731C23.1143 69.5875 26.8013 70.9214 30.632 71.6198C31.0667 71.6991 31.3548 72.1157 31.2756 72.5503C31.1963 72.985 30.7797 73.2731 30.3451 73.1939C26.5278 72.4979 22.847 71.1985 19.4405 69.3455C16.2492 72.119 12.0798 73.7999 7.51911 73.7999C5.10863 73.7999 2.80662 73.3295 0.699782 72.4765C0.397695 72.3542 0.199995 72.0609 0.199997 71.7349C0.199999 71.409 0.397701 71.1157 0.69979 70.9934C4.85336 69.3119 8.1694 65.9948 9.85342 61.843C3.85968 55.297 0.199997 46.5758 0.199997 37ZM28.4857 29.6847C28.4857 25.3291 32.2056 21.8986 36.6621 22.0628C40.7242 22.2123 44.0663 25.4227 44.2227 29.4146C44.3719 33.2209 41.6694 36.4122 38.0654 37.1881C37.5175 37.3061 37.1572 37.766 37.1572 38.2651V41.3891C37.1572 41.831 36.799 42.1891 36.3572 42.1891C35.9153 42.1891 35.5572 41.831 35.5572 41.3891V38.2651C35.5572 36.9778 36.4778 35.8934 37.7286 35.624C40.6259 35.0002 42.7406 32.4533 42.6239 29.4773C42.5019 26.3625 39.8712 23.782 36.6032 23.6617C32.9978 23.5289 30.0857 26.29 30.0857 29.6847C30.0857 30.1265 29.7275 30.4847 29.2857 30.4847C28.8439 30.4847 28.4857 30.1265 28.4857 29.6847ZM72.9999 37.8C53.5595 37.8 37.8001 53.5595 37.8001 72.9999C37.8001 92.4403 53.5595 108.2 72.9999 108.2C79.2803 108.2 85.1729 106.554 90.2763 103.673C90.5793 103.502 90.958 103.547 91.2132 103.783C94.1725 106.524 98.1299 108.2 102.481 108.2C104 108.2 105.471 107.995 106.868 107.613C103.02 105.527 100.01 102.093 98.4694 97.9444C98.3636 97.6594 98.4284 97.339 98.6368 97.1176C104.566 90.8167 108.2 82.3339 108.2 72.9999C108.2 53.5595 92.4403 37.8 72.9999 37.8ZM36.2001 72.9999C36.2001 52.6758 52.6759 36.2 72.9999 36.2C93.324 36.2 109.8 52.6758 109.8 72.9999C109.8 82.5756 106.14 91.2971 100.146 97.8431C101.83 101.995 105.147 105.312 109.3 106.993C109.602 107.116 109.8 107.409 109.8 107.735C109.8 108.061 109.602 108.354 109.3 108.477C107.193 109.33 104.891 109.8 102.481 109.8C97.9201 109.8 93.751 108.119 90.5593 105.346C85.3399 108.185 79.358 109.8 72.9999 109.8C52.6759 109.8 36.2001 93.3239 36.2001 72.9999ZM36.3572 47.6078C35.5638 47.6078 34.9473 48.2346 34.9473 48.9753C34.9473 49.7161 35.5638 50.3428 36.3572 50.3428C37.1505 50.3428 37.767 49.7161 37.767 48.9753C37.767 48.2346 37.1505 47.6078 36.3572 47.6078ZM33.3473 48.9753C33.3473 47.3219 34.7095 46.0078 36.3572 46.0078C38.0048 46.0078 39.367 47.3219 39.367 48.9753C39.367 50.6288 38.0048 51.9428 36.3572 51.9428C34.7095 51.9428 33.3473 50.6288 33.3473 48.9753ZM59.1617 66.4808C59.1617 66.0389 59.5199 65.6808 59.9617 65.6808H86.0382C86.48 65.6808 86.8382 66.0389 86.8382 66.4808C86.8382 66.9226 86.48 67.2808 86.0382 67.2808H59.9617C59.5199 67.2808 59.1617 66.9226 59.1617 66.4808ZM59.1617 72.9999C59.1617 72.5581 59.5199 72.1999 59.9617 72.1999H86.0382C86.48 72.1999 86.8382 72.5581 86.8382 72.9999C86.8382 73.4417 86.48 73.7999 86.0382 73.7999H59.9617C59.5199 73.7999 59.1617 73.4417 59.1617 72.9999ZM59.1617 79.519C59.1617 79.0772 59.5199 78.719 59.9617 78.719H86.0382C86.48 78.719 86.8382 79.0772 86.8382 79.519C86.8382 79.9608 86.48 80.319 86.0382 80.319H59.9617C59.5199 80.319 59.1617 79.9608 59.1617 79.519Z" fill="rgba(0, 0, 0, 0.6)"/>
</svg>
