<svg xmlns="http://www.w3.org/2000/svg" width="127" height="140" fill="none"><path stroke="#00103E" stroke-linecap="round" stroke-linejoin="round" stroke-width=".462" d="M100.209 47.537c-1.985-3.64-4.302-10.59-5.79-23.33-.575-4.908-3.227-8.075-6.275-9.674m3.872 18.785c0 .618-.386 5.87.695 9.422"/><path stroke="#00103E" stroke-linecap="round" stroke-linejoin="round" stroke-width=".462" d="M88.232 35.866c1.055 2.678 4.047 8.635 7.569 11.044m0 .303c-3.841-.099-12.155-2.924-14.682-13.443"/><path fill="#00103E" d="M19.408 69.994c-.58-1.056-1.284-2.036-1.864-3.092-2.276 1.33-4.217 2.853-6.097 4.668 0 0-1.62 1.386-1.4 1.97.222.583 2.088.364 2.088.364 3.094-.155 5.888-1.264 7.868-2.664l-.595-1.246Z"/><path stroke="#00103E" stroke-linecap="round" stroke-linejoin="round" stroke-width=".462" d="M73.002 39.267c-.628 1.452-2.924 4.852-7.08 6.83-5.196 2.471-7.585 1.173-8.716.419-1.131-.755-5.908-5.783-6.327-10.182-.419-4.4-.46-7.835 2.179-14.497 2.64-6.662 9.05-9.092 10.726-9.763 1.676-.67 6.956-1.927 12.612 1.215 5.656 3.143 6.327 8.715 6.494 9.805"/><path stroke="#00103E" stroke-linecap="round" stroke-linejoin="round" stroke-width=".462" d="M57.787 40.636c1.13.246 3.703.08 4.949-2.555m-2.214 3.372c.412.113 1.316.056 1.636-1.077m-12.642-14.07c5.845-1.149 9.46-5.595 10.537-7.675 2.143 4.384 7.758 9.828 17.43 8.121m-5.69-3.723 1.195 5.275m.564-4.81 1.137 4.81m-.064 1.629c.498-.546 1.857-1.405 3.314-.473 1.82 1.165.983 5.498-1.165 6.882-1.719 1.107-2.683.34-2.95-.182"/><path stroke="#00103E" stroke-linecap="round" stroke-linejoin="round" stroke-width=".462" d="M77.129 30.114a15.07 15.07 0 0 0-1.574 2.405m-.864 2.138c.191-.728.51-1.465.864-2.137m2.473-.987c-.276.35-1.157 1.037-2.473.986m-14.442-5.386c1.96-1.924 5.073-2.729 7.207 1.05m-10.766-.492c-1.622-1.924-4.13-2.637-6.378.195m10.551 1.881c1.491-1.492 3.632-1.838 4.864.39m-10.096.259c-1.405-1.968-2.702-2.357-4.259-.476m5.679-.328c-.733 3.637-2.777 5.209-3.618 5.958.365.365 1.155 1.143 1.398 1.338m1.159-16.332c-.844 1.1-3.133 3.235-5.536 2.984-2.403-.251-3.252-1.78-3.377-2.513"/><path fill="#00103E" d="M26.215 63.778c.595.673-.485 3.588-1.268 4.15l-2.215-3.506c.778-.874 2.89-1.317 3.483-.644Z"/><path stroke="#00103E" stroke-linecap="round" stroke-linejoin="round" stroke-width=".462" d="M16.283 56.703a2.973 2.973 0 0 1-.54-1.405 4.455 4.455 0 0 1 .532-2.404c.387-.712.917-1.21 1.436-1.435m-5.803-3.68a43.313 43.313 0 0 1-1.725-5.864c-.576-2.755-.71-5.332.469-6.032 1.356-.67 2.3 2.702 3.587 6.622.57 1.752 1.214 3.616 1.988 5.275m-8.402 9.084c.971 2.696 4.246 4.562 7.275 4.154"/><path stroke="#00103E" stroke-linecap="round" stroke-linejoin="round" stroke-width=".462" d="M19.302 59.043c4.142-1.584 5.261-8.936 1.133-10.408-4.129-1.472-9.293-.986-6.537 1.906 1.34 1.048 3.673.974 5.08.789m-4.952 9.858 5.739 10.035M19.48 58.98l5.215 8.777M11.903 47.888c-2.576-3.449-6.684-.792-3.212 4.581 2.344 2.645 4.814 2.688 3.462-.43-.23-.528-.863-2.431-1.635-3.798M6.32 53.046c-.503.315-.632 1.147-.35 1.912a3.565 3.565 0 0 0 1.743 1.889 2.855 2.855 0 0 0 2.108.16c.302-.089.61-.264.624-.64a1.402 1.402 0 0 0-.14-.568 4.25 4.25 0 0 0-.193-.39"/><path stroke="#00103E" stroke-linecap="round" stroke-linejoin="round" stroke-width=".462" d="M7.258 48.372c-1.412-.311-2.158 1.123-2.11 1.83.087 1 .466 1.952 1.088 2.74.584.742 1.336 1.284 2.086 1.733.55.33 1.127.632 1.687.724.56.092 1.109-.046 1.378-.497a.826.826 0 0 0 .082-.165M58.6 53.596c-1.643 3.536-2.746 10.359 5.99 9.36 6.077-.694 9.788-4.126 11.765-7.23m-13.251-8.372-.506 8.186"/><path stroke="#00103E" stroke-linecap="round" stroke-linejoin="round" stroke-width=".462" d="M58.7 53.624c1.062-.032 3.36-.343 4.045-1.333m5.037 11.928c1.544-.078 5.456-1.32 8.757-5.672M56.86 53.963c-3.67 1.572-7.664 2.716-11.076 5.785-4.109 3.695-8.457 16.17-8.344 19.694m3.376 3.991c-.851-1.33-2.26-3.406-3.782-3.93-.264 1.144.302 3.868 1.92 5.365m-1.505-5.441L26.22 64.035"/><path stroke="#00103E" stroke-linecap="round" stroke-linejoin="round" stroke-width=".462" d="M10.322 73.561c1.124 4.1 5.513 14.885 14.084 25.217 10.713 12.914 17.297 8.792 19.129 7.488 2.54-1.808 5.643-8.325 5.084-20.737"/><path stroke="#00103E" stroke-linecap="round" stroke-linejoin="round" stroke-width=".462" d="M10.346 73.522c1.225.6 5.208.804 11.343-3.176 5.005-3.248 4.865-5.75 4.41-6.457m-3.947 28.687 4.192 4.294M15.427 73.373l2.147 2.827M16.5 72.884l1.198 1.5m32.38 12.107.589 7.064m-1.987-2.078c-1.254 14.52-2.348 24.404-2.348 25.995.908 1.684 10.285 6.559 28.91 3.887 14.901-2.138 20.624-6.938 21.623-9.07l-2.929-20.737"/><path fill="#fff" d="M86.567 40.55c-.046.397-1.778 4.18-2.637 6.022l.36 3.404-.488 5.972-7.195 1.319-5.976-2.159c-.413-.247-1.237-.866-1.225-1.367.012-.5 2.064-4.426 3.088-6.326-.306-.249-.885-.85-.746-1.267.138-.417 1.208-.502 1.725-.492l.304-.365c-.554-.414-1.613-1.402-1.418-2.041.196-.64 1.577-.354 2.242-.131l1.454-2.61c.574-1.162 1.796-3.506 2.092-3.59.37-.105 5.199 1.994 6.56 2.285 1.36.291 1.919.851 1.86 1.347Z"/><path stroke="#00103E" stroke-linecap="round" stroke-linejoin="round" stroke-width=".462" d="M84.702 53.163c3.862-.148 8.425.55 14.195 3.938 5.841 3.431 18.995 13.163 24.91 24.086 3.153 5.824-1.437 19.14-13.835 17.075-14.448-2.406-25.52-13.813-28.705-21.086m7.46-14.079c.235.95-.218 4.52-3.348 9.905"/><path stroke="#00103E" stroke-linecap="round" stroke-linejoin="round" stroke-width=".462" d="m88.356 65.165-5.864-4.715c.691-1.227 2.03-4.804 1.854-9.293-.22-5.611-1.403-8.055-2.83-10.116-2.048-2.957-4.347-3.09-3.479-.514.504 1.496 2.983 3.646 3.2 6.432"/><path stroke="#00103E" stroke-linecap="round" stroke-linejoin="round" stroke-width=".462" d="M82.306 49.12c-.784-2.542-2.756-4.386-5.455-5.403-3.13-1.179-4.708-1.106-4.627-.066.046.6 1.262 1.487 2.633 2.13"/><path stroke="#00103E" stroke-linecap="round" stroke-linejoin="round" stroke-width=".462" d="M80.677 49.565c-.463-1.09-2.05-2.615-4.115-3.27-3.845-1.22-4.68-.39-4.766-.023-.213.915 2.118 1.523 2.492 1.68m5.059 2.922c-.417-.49-2.117-2.242-5.128-2.939-1.365-.316-2.296.045-1.01 1.37 1.288 1.325 4.358 2.439 4.465 3.801.079 1.02-1.053 1.897-1.06 5.312-.005 2.732 2.02 3.725 2.561 3.923l6.799 7.21m2.807-6.466c2.929 1.015 14.739 8.077 25.55 16.434M84.319 49.807l3.292-3.148c-.15-.585-1.682-1.626-3.637.009"/><path fill="#00103E" d="M84.396 74.717c1.7-2.022 2.62-4.308 2.75-4.619l-2.014-1.522c-.224.184-.864 1.107-2.358 3.565-1.494 2.459-2.154 4.719-1.698 5.078.165.13 1.833-.733 3.32-2.502Zm4.323-11.826c-.464-.04-1.112 1.183-1.422 1.697l1.236.85c.255-.832.649-2.506.186-2.547Z"/><path stroke="#00103E" stroke-linecap="round" stroke-linejoin="round" stroke-width=".462" d="M115.305 82.735c.054-2.458-.744-3.004-1.02-3.266 1.789-.14 3.998 1.057 5.768 3.34m-36.102-7.846 2.894 2.151"/><path fill="#00103E" fill-rule="evenodd" d="M70.162 53.64c-.088.175-.127.36-.123.542a.87.87 0 0 1-.092-.923l2.93-5.851c-.1-.047-.207-.098-.32-.154a3.029 3.029 0 0 1-.198-.105l-2.93 5.85a1.448 1.448 0 0 0 .511 1.866l.31.2c.1.065.21.117.323.155l1.9.638 4.072 1.483c.088-.889.371-1.717.626-2.462.108-.314.21-.613.29-.896.389-1.362.203-1.54-1.064-2.366a60.33 60.33 0 0 0-.598-.382c-1.22-.775-2.748-1.743-3.126-2.59l-2.51 4.996Zm2.928-5.825c.215-.05.46-.05.646-.03a11.191 11.191 0 0 1-.52-.22l-.126.25Zm1.09-2.167c.151.016.29.034.404.053a14.167 14.167 0 0 1-.329-.203l-.075.15Zm1.21-2.408 2.569-5.111c.263-.525.879-.77 1.43-.568l6.474 2.357c.088.032.17.074.244.123a.867.867 0 0 0-.427-.338l-6.839-2.49a.869.869 0 0 0-1.074.427l-2.747 5.49c-.209-.06-.398-.11-.572-.151l2.802-5.597c.33-.658 1.1-.964 1.79-.712l6.839 2.49c.628.229 1.018.858.943 1.523l-.01.095a1.475 1.475 0 0 1-.161.518l-.58 1.091-2.043 4.065a1.23 1.23 0 0 0-.221.165c-.076-.882-.613-3.179-2.153-5.31-1.926-2.664-3.097-2.81-3.481-2.5-.384.309-.533 1.437.19 2.455.725 1.018 1.913 2.773 2.225 3.457.248.548.484 1.631.571 2.104-.34-.61-1.625-2.06-4.033-2.973a31.59 31.59 0 0 0-1.736-.608Zm-1.934 1.718c.16.116.325.229.48.333l-.162.324a6.586 6.586 0 0 0-.644-.007l.326-.65Z" clip-rule="evenodd"/><path stroke="#00103E" stroke-linecap="round" stroke-linejoin="round" stroke-width=".462" d="m84.893 73.935 1.575 1.02"/><ellipse cx="53.95" cy="30.196" fill="#00103E" rx="1.124" ry="1.48"/><ellipse cx="63.86" cy="30.099" fill="#00103E" rx="1.124" ry="1.577"/><path stroke="#00103E" stroke-linecap="round" stroke-linejoin="round" stroke-width=".462" d="M82.126 29.065c-.02 1.356.134 3.625-3.071 7.997m-2.517-23.683c-.873-.613-2.473-2.259-1.891-3.935.581-1.677-.053-4.546-.378-5.444 1.3.378 4.15.735 6.063 4.535.54 1.073.8 3.37.342 4.094m1.132-1.839c4.232-2.313 8.156-.418 9.064 0-.637 2.296-2.85 4.219-4.832 4.97-2.26.856-4.985.609-6.098 0"/><path stroke="#00103E" stroke-linecap="round" stroke-linejoin="round" stroke-width=".543" d="M81.262 14.264c1.079.043 3.685-.301 5.48-2.019"/><path stroke="#00103E" stroke-linecap="round" stroke-linejoin="round" stroke-width=".462" d="M76.898 13.6a1.753 1.753 0 0 1 2.697 2.216"/><path fill="#00103E" d="M77.663 14.05c.53.4 1.495 1.357 1.91 1.786l.276-.724c.037-.55-.143-1.714-1.162-1.974s-1.623.2-1.798.462c.037-.016.245.05.774.45Z"/><path stroke="#00103E" stroke-linecap="round" stroke-linejoin="round" stroke-width=".462" d="M95.21 114.659c.492 4.334 1.422 14.664 1.207 21.313m-41.821-14.879 2.413 15.683m14.2-17.687c3.476-.068 12.472-1.195 20.653-5.163"/></svg>