<svg width="48" height="48" viewBox="0 0 48 48" fill="none" xmlns="http://www.w3.org/2000/svg">
<path d="M13.8 19.8C16.7804 19.8 19.2 17.3803 19.2 14.4C19.2 11.4197 16.7804 9 13.8 9C10.8197 9 8.40005 11.4197 8.40005 14.4C8.40005 17.3803 10.8197 19.8 13.8 19.8ZM13.8 19.8C9.49222 19.8 6 23.2922 6 27.6V42H18M13.8 19.8C17.3567 19.8 20.3573 22.1804 21.2956 25.435M34.2 19.8C31.2196 19.8 28.7999 17.3803 28.7999 14.4C28.7999 11.4197 31.2196 9 34.2 9C37.1803 9 39.5999 11.4197 39.5999 14.4C39.5999 17.3803 37.1803 19.8 34.2 19.8ZM34.2 19.8C38.5078 19.8 42 23.2922 42 27.6V42H30M34.2 19.8C30.6433 19.8 27.6427 22.1804 26.7044 25.435M24 34.2C26.6492 34.2 28.8 32.0492 28.8 29.4001C28.8 26.7508 26.6492 24.6 24 24.6C21.3508 24.6 19.2 26.7508 19.2 29.4001C19.2 32.0492 21.3508 34.2 24 34.2ZM24 34.2C27.3136 34.2 30 36.8863 30 40.2V42M24 34.2L23.9988 34.2C20.6858 34.2 18 36.8857 18 40.1988V42M18 42H30" stroke="black" stroke-width="1.6" stroke-miterlimit="10" stroke-linecap="round" stroke-linejoin="round"/>
</svg>
