<svg width="48" height="48" viewBox="0 0 48 48" fill="none" xmlns="http://www.w3.org/2000/svg">
<path fill-rule="evenodd" clip-rule="evenodd" d="M9.00001 6.20001C9.44184 6.20001 9.80001 6.55818 9.80001 7.00001V8.5667H22.6363C25.3394 8.5667 27.5273 10.7622 27.5273 13.4667V14.0333H41C41.4418 14.0333 41.8 14.3915 41.8 14.8333V31.3333C41.8 31.7751 41.4418 32.1333 41 32.1333L19.9091 32.1333C19.4672 32.1333 19.1091 31.7751 19.1091 31.3333V23.9334H9.80001V42C9.80001 42.4418 9.44184 42.8 9.00001 42.8C8.55818 42.8 8.20001 42.4418 8.20001 42V7.00001C8.20001 6.55818 8.55818 6.20001 9.00001 6.20001ZM9.80001 22.3334H22.6363C23.9042 22.3334 25.0587 22.8164 25.9273 23.6084V13.4667C25.9273 11.6425 24.4524 10.1667 22.6363 10.1667H9.80001V22.3334ZM27.5273 27.2334V15.6333H40.2V30.5333L26.2519 30.5333C27.0443 29.6623 27.5273 28.504 27.5273 27.2334ZM22.6363 30.5333C24.4524 30.5333 25.9273 29.0575 25.9273 27.2334C25.9273 25.4092 24.4524 23.9334 22.6363 23.9334H20.7091V30.5333H22.6363Z" fill="black"/>
</svg>
