<svg width="48" height="48" viewBox="0 0 48 48" fill="none" xmlns="http://www.w3.org/2000/svg">
<path fill-rule="evenodd" clip-rule="evenodd" d="M7.35469 10.8C6.53203 10.8 5.89368 11.4489 5.89368 12.2146V35.6802H19.3932C19.6768 35.6802 19.9521 35.7904 20.1576 35.9917C20.3637 36.1936 20.4826 36.4709 20.4826 36.7636V37.6176H28.4282V36.7636C28.4282 36.4709 28.5471 36.1936 28.7532 35.9917C28.9587 35.7904 29.2339 35.6802 29.5176 35.6802H43.1064V12.2146C43.1064 11.4489 42.4681 10.8 41.6454 10.8H7.35469ZM44.7064 35.6802V12.2146C44.7064 10.5342 43.3203 9.20001 41.6454 9.20001H7.35469C5.67985 9.20001 4.29368 10.5341 4.29368 12.2146V35.6802H3.39202C2.74944 35.6802 2.20001 36.1947 2.20001 36.8642V39.0346C2.20001 41.1298 3.92949 42.8 6.02766 42.8H42.9724C45.0706 42.8 46.8 41.1297 46.8 39.0346V36.8644C46.8 36.8643 46.8 36.8643 46.8 36.8642C46.8 36.7065 46.7683 36.5506 46.7071 36.4058C46.6458 36.2609 46.5565 36.1304 46.4451 36.0212C46.3337 35.9121 46.2023 35.8264 46.0589 35.7682C45.9155 35.71 45.7624 35.6802 45.6081 35.6802H44.7064ZM3.80001 37.2802V39.0346C3.80001 40.215 4.78164 41.2 6.02766 41.2H42.9724C44.2184 41.2 45.2 40.2149 45.2 39.0346V37.2802H30.0282V38.1342C30.0282 38.427 29.9093 38.7043 29.7033 38.9061C29.4978 39.1074 29.2225 39.2176 28.9389 39.2176H19.9719C19.6883 39.2176 19.413 39.1074 19.2075 38.9061C19.0014 38.7043 18.8826 38.427 18.8826 38.1342V37.2802H3.80001Z" fill="black"/>
<path fill-rule="evenodd" clip-rule="evenodd" d="M25.6472 17.2307C26.0721 17.352 26.3181 17.7948 26.1968 18.2196L23.3417 28.2196C23.2204 28.6445 22.7776 28.8905 22.3528 28.7692C21.9279 28.6479 21.6818 28.2052 21.8031 27.7803L24.6583 17.7803C24.7796 17.3555 25.2224 17.1094 25.6472 17.2307ZM18.5437 18.683C18.8568 18.9947 18.858 19.5012 18.5463 19.8144L16.1121 22.2596C15.6967 22.6766 15.696 23.3539 16.1103 23.7715L18.5424 26.1817C18.8563 26.4927 18.8585 26.9993 18.5475 27.3131C18.2365 27.6269 17.73 27.6292 17.4162 27.3182L14.9784 24.9023C13.9406 23.8605 13.9405 22.1727 14.9782 21.1308C14.9781 21.1309 14.9782 21.1308 14.9782 21.1308L17.4123 18.6856C17.724 18.3724 18.2306 18.3713 18.5437 18.683ZM29.4563 18.683C29.7694 18.3713 30.2759 18.3724 30.5876 18.6856L33.0216 21.1306C34.0595 22.1725 34.0595 23.8605 33.0216 24.9023L33.018 24.906L30.5838 27.3182C30.27 27.6292 29.7634 27.6269 29.4524 27.3131C29.1414 26.9993 29.1437 26.4927 29.4575 26.1817L31.888 23.7731C31.8886 23.7726 31.8891 23.7721 31.8896 23.7716C32.304 23.3539 32.3034 22.6768 31.888 22.2598L29.4537 19.8144C29.142 19.5012 29.1431 18.9947 29.4563 18.683Z" fill="black"/>
</svg>
