<svg width="60" height="60" viewBox="0 0 48 48" fill="none" xmlns="http://www.w3.org/2000/svg">
<path fill-rule="evenodd" clip-rule="evenodd" d="M24 7.80001C23.4687 7.80001 22.9854 7.99813 22.6172 8.32573L10.3932 19.1764V39C10.3932 39.6628 10.9305 40.2 11.5932 40.2H36.4068C37.0695 40.2 37.6068 39.6628 37.6068 39V26.5556C37.6068 26.1137 37.965 25.7556 38.4068 25.7556C38.8486 25.7556 39.2068 26.1137 39.2068 26.5556V39C39.2068 40.5464 37.9532 41.8 36.4068 41.8H11.5932C10.0468 41.8 8.79324 40.5464 8.79324 39V20.5966L7.5311 21.717C7.20067 22.0103 6.69503 21.9802 6.40173 21.6497C6.10842 21.3193 6.13851 20.8137 6.46894 20.5204L21.5537 7.13039C21.5536 7.13041 21.5537 7.13037 21.5537 7.13039C22.2034 6.55226 23.0616 6.20001 24 6.20001C24.9382 6.20001 25.7961 6.55205 26.4459 7.12994C26.4457 7.12979 26.4461 7.13009 26.4459 7.12994L41.5311 20.5204C41.8615 20.8137 41.8916 21.3193 41.5983 21.6497C41.305 21.9802 40.7994 22.0103 40.4689 21.717L25.3835 8.32635C25.0153 7.99876 24.5314 7.80001 24 7.80001Z" fill="black"/>
<path fill-rule="evenodd" clip-rule="evenodd" d="M29.8408 21.3815C30.1824 21.6618 30.2321 22.1659 29.9518 22.5074L19.2851 35.5074C19.0049 35.849 18.5008 35.8987 18.1592 35.6184C17.8177 35.3382 17.768 34.8341 18.0482 34.4925L28.7149 21.4925C28.9951 21.151 29.4992 21.1013 29.8408 21.3815ZM18.6667 22.8C17.6165 22.8 16.8 23.6248 16.8 24.6C16.8 25.5751 17.6165 26.4 18.6667 26.4C19.7168 26.4 20.5333 25.5751 20.5333 24.6C20.5333 23.6248 19.7168 22.8 18.6667 22.8ZM15.2 24.6C15.2 22.7032 16.7713 21.2 18.6667 21.2C20.5621 21.2 22.1333 22.7032 22.1333 24.6C22.1333 26.4967 20.5621 28 18.6667 28C16.7713 28 15.2 26.4967 15.2 24.6ZM29.3333 30.6C28.2832 30.6 27.4667 31.4248 27.4667 32.4C27.4667 33.3751 28.2832 34.2 29.3333 34.2C30.3835 34.2 31.2 33.3751 31.2 32.4C31.2 31.4248 30.3835 30.6 29.3333 30.6ZM25.8667 32.4C25.8667 30.5032 27.438 29 29.3333 29C31.2287 29 32.8 30.5032 32.8 32.4C32.8 34.2967 31.2287 35.8 29.3333 35.8C27.438 35.8 25.8667 34.2967 25.8667 32.4Z" fill="black"/>
</svg>
