<svg width="48" height="48" viewBox="0 0 48 48" fill="none" xmlns="http://www.w3.org/2000/svg">
<rect width="48" height="48" rx="24" fill="#FF5001"/>
<path d="M40.2447 15.0115C40.6037 14.981 40.9615 15.0172 41.3186 15.0501C42.2996 15.2151 43.2258 15.7061 43.8794 16.4497C44.139 16.7311 44.3515 17.0524 44.5287 17.3897C44.7051 17.7987 44.8884 18.2157 44.9279 18.6636C44.9598 18.9789 45.0438 19.2988 44.9713 19.6149C44.9318 19.7966 44.9337 19.9828 44.903 20.1652C44.7903 20.5889 44.6706 21.0191 44.437 21.3964C43.8249 22.5267 42.6609 23.3466 41.3799 23.5623C41.1993 23.5759 41.0202 23.5963 40.8422 23.6265C40.5074 23.6978 40.1749 23.5796 39.8404 23.5645C39.2379 23.4554 38.6481 23.2367 38.1445 22.8889C37.7046 22.6041 37.3345 22.2257 37.0154 21.8163C36.819 21.5195 36.6418 21.2079 36.5095 20.8782C36.4113 20.607 36.3323 20.3283 36.2721 20.0466C36.2399 19.667 36.1824 19.2837 36.2418 18.9034C36.345 17.4448 37.3065 16.0985 38.6297 15.4519C38.9384 15.3167 39.2556 15.1977 39.5831 15.1124C39.7975 15.0463 40.0245 15.0486 40.2447 15.0115Z" fill="#00F500"/>
<path d="M8.88482 19.0843C9.14907 19.0054 9.42713 19.0182 9.69713 18.9755C10.7376 18.9336 11.8085 19.1568 12.6963 19.7071C13.0177 19.8929 13.3134 20.1214 13.5708 20.3872C13.8339 20.6327 14.0544 20.9194 14.2385 21.226C14.2814 21.2914 14.3156 21.3673 14.3842 21.4107C14.5277 21.4315 14.6738 21.4175 14.818 21.4088C14.8199 20.6954 14.8199 19.982 14.818 19.2682C15.7085 19.2671 16.5991 19.2671 17.4897 19.2678C17.5698 19.252 17.5951 19.3407 17.5855 19.4008C17.584 23.4561 17.5867 27.5111 17.584 31.5665C17.5974 31.6337 17.5564 31.7059 17.4793 31.6945C16.5926 31.6968 15.7055 31.693 14.8188 31.696C14.818 30.9894 14.8215 30.2824 14.8168 29.5758C14.6397 29.5698 14.3693 29.4791 14.2757 29.6857C13.9796 30.191 13.5857 30.6405 13.1144 30.9947C12.2154 31.6851 11.0629 32.0212 9.92917 31.9989C8.80927 32.0114 7.70394 31.6281 6.7923 30.9955C5.65015 30.2114 4.80831 29.0411 4.36648 27.7464C4.23225 27.3627 4.15286 26.9639 4.07807 26.5658C4.02207 26.0231 3.95803 25.4729 4.03665 24.929C4.06311 24.3614 4.19159 23.8013 4.3753 23.2639C4.84206 21.8654 5.79512 20.6259 7.05501 19.8298C7.6142 19.4782 8.23589 19.221 8.88482 19.0843ZM10.3633 21.5482C10.0569 21.5965 9.75045 21.6543 9.4559 21.7536C8.57302 22.0554 7.81478 22.6827 7.34534 23.4769C6.83985 24.3297 6.69565 25.3645 6.88204 26.329C7.06537 27.1614 7.493 27.9556 8.15689 28.5112C8.74484 29.026 9.49808 29.3405 10.2747 29.444C10.9451 29.515 11.6347 29.4459 12.2645 29.2027C12.8451 28.9912 13.3587 28.6275 13.7825 28.1868C14.1955 27.7162 14.5238 27.1633 14.6746 26.5556C14.7655 26.2958 14.7743 26.0201 14.813 25.7505C14.8744 24.7451 14.5445 23.7167 13.886 22.9425C13.2567 22.1925 12.3274 21.6977 11.3482 21.5735C11.0238 21.518 10.6909 21.5263 10.3633 21.5482Z" fill="#FFFFFE"/>
<path d="M21.4883 19.2655C25.0639 19.2708 28.6403 19.2644 32.216 19.2689C32.3157 19.2466 32.3502 19.3626 32.3456 19.4392C32.3395 20.2021 32.3521 20.965 32.3391 21.7279C29.7138 21.732 27.089 21.7294 24.4637 21.729C24.3905 21.7294 24.318 21.7426 24.247 21.7577C24.2536 22.3846 24.2451 23.0116 24.2509 23.6381C24.2428 23.7091 24.3387 23.7227 24.3928 23.7223C25.9507 23.7238 27.5089 23.722 29.0672 23.7235C30.1162 23.7136 31.1854 24.0415 31.9908 24.7163C32.792 25.3648 33.2883 26.3539 33.347 27.3713C33.3489 27.6225 33.3497 27.874 33.3447 28.1255C33.2864 28.7355 33.0862 29.3352 32.7452 29.8499C32.1224 30.8122 31.0466 31.4445 29.9094 31.6136C29.6532 31.6325 29.4016 31.6975 29.1443 31.6952C26.6253 31.6937 24.1063 31.6967 21.5876 31.6941C21.5098 31.7081 21.4431 31.6405 21.4569 31.5649C21.4546 27.6244 21.4569 23.6838 21.4557 19.7436C21.4576 19.5839 21.44 19.4207 21.4883 19.2655ZM24.2536 26.1439C24.244 27.1595 24.2513 28.1754 24.2497 29.1909C24.4169 29.2385 24.5987 29.2038 24.7721 29.2132C25.0026 29.2038 25.2315 29.237 25.462 29.2321C26.4078 29.231 27.354 29.2317 28.2998 29.2317C28.564 29.2385 28.8275 29.2102 29.0921 29.206C29.4523 29.1566 29.8197 29.044 30.0939 28.7985C30.3957 28.5391 30.5423 28.1387 30.5403 27.7501C30.5572 27.3536 30.436 26.9359 30.1426 26.6534C29.8101 26.3041 29.3107 26.1726 28.8394 26.1515C27.311 26.1432 25.7819 26.1579 24.2536 26.1439Z" fill="#FFFFFE"/>
</svg>
