<svg width="30" height="30" viewBox="0 0 30 30" fill="none" xmlns="http://www.w3.org/2000/svg">
<g clip-path="url(#clip0_16640_6198)">
<path d="M20.625 0H9.375C4.21875 0 0 4.21875 0 9.375V20.625C0 25.7812 4.21875 30 9.375 30H20.625C25.7812 30 30 25.7812 30 20.625V9.375C30 4.21875 25.7812 0 20.625 0Z" fill="#FF5000"/>
<path d="M9.28125 11.9062V13.2188H9C8.48438 12.2813 7.5 11.7188 6.375 11.7188C4.54688 11.7188 2.8125 13.4531 2.8125 15.7031C2.8125 17.9531 4.5 19.6406 6.375 19.6406C7.5 19.6406 8.48438 19.0781 9 18.1406H9.28125V19.4531H10.9219V11.9062H9.28125ZM6.84375 18.0937C5.53125 18.0937 4.45313 17.0625 4.45313 15.6563C4.45313 14.2969 5.48438 13.2188 6.84375 13.2188C8.15625 13.2188 9.28125 14.25 9.28125 15.6563C9.28125 17.0625 8.20313 18.0937 6.84375 18.0937Z" fill="white"/>
<path d="M17.7656 14.6719H14.9063V13.4531H19.7344V11.9531H13.2656V19.5H17.7656C19.3125 19.5 20.3438 18.4688 20.3438 17.0625C20.3438 15.7031 19.2656 14.6719 17.7656 14.6719ZM17.5781 18H14.9063V16.125H17.5781C18.3281 16.125 18.7031 16.5 18.7031 17.0625C18.7031 17.625 18.3281 18 17.5781 18Z" fill="white"/>
<path d="M24.375 15C25.9219 15 27.1875 13.7344 27.1875 12.1875C27.1875 10.6406 25.9219 9.375 24.375 9.375C22.8281 9.375 21.5625 10.6406 21.5625 12.1875C21.5625 13.7344 22.8281 15 24.375 15Z" fill="#00F500"/>
</g>
<defs>
<clipPath id="clip0_16640_6198">
<rect width="30" height="30" fill="white"/>
</clipPath>
</defs>
</svg>
