<svg width="48" height="48" viewBox="0 0 48 48" fill="none" xmlns="http://www.w3.org/2000/svg">
<rect width="48" height="48" rx="24" fill="white"/>
<path d="M33.8819 12V12.0044L31.7647 14.1224V12H29.6468L26.1178 15.5293V24.7056H27.5294V16.2354L30.3529 13.4118V24.7056H31.7647V16.2354L34.5877 13.4118V24.7056H35.9995V12H33.8819Z" fill="#252628"/>
<path d="M12.0009 24.7056H17.6477V12H15.5298L12 15.5294L12.0009 15.5302V24.7056ZM16.2359 13.4118V23.2938H13.4126V16.2352L16.2359 13.4118Z" fill="#252628"/>
<path d="M24.7059 12.0001H19.0592V24.7056H24.7059V12.0001ZM20.4708 13.4118H23.2941V23.294H20.4708V13.4118Z" fill="#252628"/>
<path d="M12.0012 27.5298H35.9999V26.1179H12.0012V27.5298Z" fill="#252628"/>
<path d="M12.0012 28.9414V36H13.4129V34.5884H21.8831V28.9414H12.0012ZM20.4713 33.1766H13.4129V30.3532H20.4713V33.1766Z" fill="#252628"/>
<path d="M23.2947 28.9414V34.5884H28.9416V36H30.3532V34.5884H36V28.9414H23.2947ZM24.7063 30.3532H28.9414V33.1766H24.7063V30.3532ZM34.5882 33.1766H30.3532V30.3532H34.5882V33.1766Z" fill="#252628"/>
</svg>
