<svg width="48" height="48" viewBox="0 0 48 48" fill="none" xmlns="http://www.w3.org/2000/svg">
<rect width="48" height="48" rx="24" fill="#476BF0"/>
<path fill-rule="evenodd" clip-rule="evenodd" d="M15.9223 12.4256C20.5576 10.3587 26.2163 10.4932 29.2535 11.8491C30.2076 12.2943 30.8494 12.5634 31.1404 13.094C27.9891 12.2484 26.6352 12.0947 23.9978 12.1598C20.2452 12.2271 15.2539 13.7142 13.3467 14.8513L12.5077 15.8975C15.2539 14.2694 20.3806 13.2071 23.2217 13.1164C26.3932 13.0737 28.8548 13.3619 31.1191 14.184C30.9837 14.7605 30.6959 15.0498 30.2076 15.3402C21.1567 13.7612 15.8093 15.6274 10.9736 18.7833L10.6197 19.8263C16.0108 16.1174 22.6204 15.0968 28.988 16.2071C26.7045 17.0078 23.9754 17.184 21.6908 17.7146C19.7388 18.1609 18.6951 18.2943 16.0971 19.1634C13.4607 20.0303 11.9043 20.9185 10.9299 22.0523C10.464 22.5883 10.109 23.2086 10.0184 23.8737C9.97789 24.2719 9.99921 24.6317 10.1335 24.9872C10.2401 25.2979 10.4853 25.6086 10.7529 25.9192C10.4438 26.453 10.173 27.1438 10.6197 27.9445C10.819 28.3192 11.3286 28.6972 11.8201 29.057L11.6815 29.452C11.6154 29.9217 11.5514 30.4769 11.8627 30.9424C12.3925 31.7858 13.0354 32.3441 14.0567 32.878C14.2134 33.5666 14.4554 34.1207 14.9873 34.6128C16.1195 35.6548 18.6493 37.6555 23.1513 37.9683C26.5254 38.1925 28.9433 37.1676 29.8537 36.7224L30.9624 36.1459C29.0776 36.8997 25.906 37.3449 23.308 37.1228C19.5363 36.811 16.1675 34.3449 15.7453 33.6328C15.8764 33.7203 16.0545 33.7876 16.2069 33.8548C20.6237 35.989 26.325 37.1463 33.6244 34.1676L34.2256 33.589C27.5893 35.6538 21.7803 35.5897 15.5428 32.3228C15.6121 32.011 15.7453 31.7409 16.031 31.5221C17.6269 32.2299 19.1599 32.8118 21.0234 33.1876C23.1982 33.589 25.6822 33.6787 27.7247 33.589C29.7887 33.5004 33.8685 32.4776 35.7991 31.4559C35.975 31.3 36.0635 31.0352 36.2405 30.8559C32.473 32.2299 27.9891 32.878 25.2845 32.6751C22.6439 32.4776 20.2942 32.1648 17.1866 30.7427C17.7887 30.5028 18.4029 30.2947 19.0267 30.1192C21.0682 30.7427 23.1524 31.1185 25.615 31.2317C28.0574 31.3427 33.7576 30.4331 37.3503 28.2562C37.4633 27.9445 37.5731 27.6082 37.5731 27.6082C37.5731 27.6082 32.5807 30.2783 26.9263 30.2783C24.2845 30.2783 22.6662 29.8993 21.469 29.611C24.1289 29.121 27.4817 28.7196 31.2492 27.7651C33.1574 27.2751 35.5092 26.1637 36.5752 25.2317C37.4835 24.4064 38.1957 23.3388 37.9515 22.2541C37.9036 21.9616 37.5059 21.2762 37.0177 21.0306C37.4835 20.4295 37.4398 19.9182 37.3748 19.4772C37.329 19.1388 37.1733 18.7641 36.9772 18.431C36.6578 17.9919 36.2476 17.627 35.7746 17.3612C35.8652 16.8488 35.7991 16.4057 35.5977 15.984C35.1329 15.1833 34.2907 14.4957 32.8483 13.7612C32.7822 13.4708 32.6031 13.094 32.2939 12.7171C30.4763 10.916 27.5019 10.0491 24.9935 10.0043C24.8549 10.0013 24.7163 9.99991 24.5777 10C21.6439 10 19.29 10.6598 17.8306 11.3409C17.1587 11.6355 16.5192 11.999 15.9223 12.4256ZM32.6702 14.8513C33.2928 15.2516 34.0028 15.8516 34.0892 16.474C33.4261 16.2274 32.7161 15.9648 32.0285 15.7854C32.2523 15.5399 32.5818 15.163 32.6692 14.8513H32.6702ZM29.342 17.6303C30.0989 17.3388 30.6063 17.0292 31.053 16.6726C32.0477 16.9374 32.9794 17.2726 33.7384 17.6057C33.6073 17.7989 32.8472 18.5025 32.6159 18.5025C32.6038 18.5034 32.5917 18.5012 32.5807 18.4961C31.5189 18.2057 30.5871 17.8491 29.342 17.6303ZM35.312 18.5174C35.909 19.0288 36.0859 19.3844 35.7991 19.9406C35.4015 19.6523 34.9772 19.4954 34.5124 19.2733C34.8002 19.0513 35.0668 18.8089 35.312 18.5174ZM16.8764 20.563C19.6482 19.7388 22.8891 19.1196 25.8175 18.7641C27.8324 18.5174 28.9006 18.7427 30.8099 19.252C25.906 20.563 21.0682 20.9826 16.4532 22.3406C12.7326 23.4231 11.7465 24.7865 11.7305 24.7865C10.0866 22.5189 15.7869 20.8982 16.8764 20.563ZM19.4947 23.2961C23.5969 22.4078 27.4145 21.8527 28.9891 21.4534C30.8974 20.9836 32.2289 20.5406 33.1574 20.0975C33.2022 20.0303 34.7107 20.7626 34.8663 20.9377C34.3568 21.3626 33.6489 21.7203 32.8696 21.984C30.5413 22.8285 26.3047 23.7167 24.0639 24.0562C21.8017 24.432 19.9115 24.7182 17.4095 25.3833C15.9649 25.7634 14.9873 26.2075 14.2773 26.6751C13.7464 26.3644 13.4351 26.2769 12.948 25.8744C14.6782 24.4064 18.2069 23.5854 19.4947 23.2961ZM18.4713 26.8993C22.3763 25.9384 25.8175 25.7634 30.5647 24.4758C32.8483 23.8737 34.5124 23.2267 35.5561 22.4313C35.7107 22.2947 35.8652 22.1847 36.022 22.0523C37.3972 24.1854 32.2289 25.8306 28.6981 26.5897C26.7461 26.9858 24.0393 27.4737 23.1513 27.6328C20.8486 28.0096 20.0906 28.2103 18.4936 28.6769C17.6962 28.3651 16.8967 28.031 16.1675 27.652C16.8967 27.3424 17.6962 27.0968 18.4713 26.8993ZM13.0599 27.6082C12.9042 27.7416 12.7028 27.8762 12.5492 28.031C12.1964 27.8281 11.8382 27.3893 12.0162 26.9847C12.3712 27.21 12.6367 27.3893 13.0599 27.6082ZM14.6782 28.4335C15.3445 28.7452 16.031 29.0313 16.6739 29.3207C16.2418 29.4791 15.8267 29.6809 15.4351 29.9228C14.9021 29.6303 14.3903 29.3431 13.8584 29.0313C14.0812 28.8317 14.368 28.6331 14.6793 28.4335H14.6782ZM14.4138 30.7662C14.2582 30.9883 14.1452 31.1644 14.0812 31.3886C13.5258 30.921 13.2571 30.5431 13.2816 30.1192C13.658 30.3648 14.0343 30.5634 14.4138 30.7662Z" fill="white"/>
</svg>
