<svg width="30" height="30" viewBox="0 0 30 30" fill="none" xmlns="http://www.w3.org/2000/svg">
<g clip-path="url(#clip0_16640_6195)">
<path d="M30 24.33C30 27.975 27.975 30 24.33 30H5.67C2.025 30 0 27.975 0 24.33V5.67C0 2.025 2.025 0 5.67 0H24.3375C27.975 0 30 2.025 30 5.67V24.33Z" fill="#FFE600"/>
<path d="M19.29 13.5376V10.6726L20.325 9.63756V12.1201L21.225 13.0201L24.8475 9.39756L25.74 10.2901C25.7325 9.61506 25.5975 7.65756 23.94 6.03005C22.155 4.30505 20.22 5.08505 19.56 5.74505L15.945 9.36005L16.8675 10.2826L15 12.1651L13.1325 10.2976L14.055 9.37506L10.44 5.76005C9.78001 5.10005 7.84501 4.32006 6.06001 6.04506C4.40251 7.67256 4.26751 9.63006 4.26001 10.3051L5.15251 9.41256L8.77501 13.0351L9.67501 12.1351V9.65256L10.71 10.6876V13.5526L12.165 15.0001L4.99501 22.1701L7.83001 24.9976L15 17.8351L22.17 25.0051L25.005 22.1776L17.835 15.0001L19.29 13.5376Z" fill="#2B2D34"/>
</g>
<defs>
<clipPath id="clip0_16640_6195">
<rect width="30" height="30" fill="white"/>
</clipPath>
</defs>
</svg>
