<svg width="48" height="48" viewBox="0 0 48 48" fill="none" xmlns="http://www.w3.org/2000/svg">
<rect width="48" height="48" rx="24" fill="#FEE600"/>
<path d="M29.5922 22.108V18.3874L30.9413 17.0434V20.2672L32.1145 21.436L36.8366 16.7317L38 17.8907C37.9902 17.0141 37.8142 14.4721 35.6536 12.3586C33.3268 10.1185 30.8045 11.1314 29.9441 11.9885L25.2318 16.683L26.4344 17.881L24 20.3256L21.5656 17.9005L22.7682 16.7025L18.0559 12.0079C17.1955 11.1509 14.6732 10.1379 12.3464 12.378C10.1858 14.4916 10.0098 17.0336 10 17.9102L11.1634 16.7512L15.8855 21.4554L17.0587 20.2867V17.0628L18.4078 18.4069V22.1275L20.3045 24.0072L10.9581 33.3184L14.6536 36.9903L24 27.6889L33.3464 37L37.0419 33.3281L27.6955 24.0072L29.5922 22.108Z" fill="#2B2D33"/>
</svg>
