<svg width="48" height="48" viewBox="0 0 48 48" fill="none" xmlns="http://www.w3.org/2000/svg">
<rect width="48" height="48" rx="24" fill="#00234D"/>
<path d="M33 11L16.125 13.25V18.3125L33 16.625V11Z" fill="#E40038"/>
<path d="M29.9235 22.7289L16.1091 13.25V18.3691L20.4162 21.3298L21.263 21.8326C19.7199 21.8503 18.9753 22.1692 18.2308 22.6154C16.1091 23.9186 15 26.212 15 29.6013C15 35.3016 18.0996 38 23.9922 38C29.8849 38 33 35.3016 33 29.6013C33 26.3138 31.9391 24.0575 29.9235 22.7289ZM23.9922 33.8476C21.0624 33.8476 20.1481 32.7674 20.1481 29.6561C20.1481 26.5447 21.0624 25.4684 23.9922 25.4684C26.9222 25.4684 27.8191 26.5349 27.8191 29.66C27.8191 32.7851 26.9376 33.8476 23.9922 33.8476Z" fill="white"/>
</svg>
