<svg width="48" height="48" viewBox="0 0 48 48" fill="none" xmlns="http://www.w3.org/2000/svg">
<rect width="48" height="48" rx="24" fill="#42AB44"/>
<path fill-rule="evenodd" clip-rule="evenodd" d="M14.996 5.00319H15.5213C15.5213 6.18022 15.5213 7.35725 15.5213 8.53428L16.0046 9.00541C16.0143 7.67187 16.0046 6.33674 16.0046 5.00319H16.5443C16.5443 6.38784 16.5443 7.77249 16.5443 9.15554C16.4799 9.51008 16.7956 9.72888 16.9906 9.97323C17.0276 8.32028 17.0019 6.66253 17.0115 5.00319H17.5351C17.5351 6.82703 17.5351 8.6498 17.5351 10.4715L18.0426 10.9778C18.0426 8.98625 18.0426 6.99472 18.0426 5.00479H18.5872C18.5872 7.90611 18.5872 10.8085 18.5872 13.7119C17.4175 12.618 16.3123 11.4601 15.1442 10.3581C14.9557 10.2288 15.0202 9.98601 14.9992 9.79436C15.0057 8.1973 15.0057 6.60025 14.9992 5.00319H14.996ZM19.0464 5.00319H19.5893C19.6054 6.99632 19.57 8.99583 19.6054 10.9794C20.208 10.5466 20.0453 9.79436 20.0549 9.15554C20.0549 7.76929 20.0549 6.38465 20.0549 5.00319H20.5721C20.5721 6.66573 20.5721 8.32826 20.5721 9.9908C20.7332 9.77839 21.0554 9.62347 21.0409 9.32483C21.0651 7.88748 21.0409 6.45013 21.0409 5.0016H21.5855C21.5855 6.32875 21.5855 7.6575 21.5855 8.98465L22.0543 8.49595C22.0543 7.3301 22.0543 6.16425 22.0543 5H22.5989C22.5989 6.7344 22.5989 8.4704 22.5989 10.2048C21.4174 11.376 20.2305 12.5413 19.0383 13.7008C19.0383 10.8005 19.0383 7.90025 19.0383 5L19.0464 5.00319ZM23.2353 9.27053C23.2353 9.63146 23.2353 9.99399 23.2353 10.3549C26.5459 10.1159 29.8427 10.9761 32.6056 12.7999C35.3684 14.6237 37.4402 17.3073 38.4942 20.4276C39.4182 23.2074 39.4908 26.1963 38.7029 29.0171C37.9149 31.8378 36.3017 34.364 34.0668 36.2767C31.3818 38.5669 27.96 39.8316 24.4178 39.843C21.3928 39.9175 18.4159 39.0823 15.8789 37.4474C12.9319 35.5512 10.757 32.6822 9.73962 29.3486C8.72225 26.015 8.92805 22.4321 10.3206 19.2346C11.2131 17.1408 12.6776 15.3154 14.3757 13.803C14.3757 13.3574 14.3757 12.9134 14.3757 12.4694C11.6764 14.4842 9.68989 17.2943 8.70081 20.4971C7.71174 23.6998 7.77093 27.1307 8.8699 30.2981C9.96886 33.4654 12.0512 36.2066 14.8184 38.1287C17.5856 40.0507 20.8957 41.0551 24.2741 40.9977C27.6526 40.9403 30.926 39.8241 33.6251 37.8092C36.3243 35.7943 38.3107 32.984 39.2995 29.7812C40.2884 26.5784 40.2289 23.1475 39.1298 19.9802C38.0306 16.8129 35.9481 14.0719 33.1807 12.15C30.3194 10.0994 26.7443 9.16352 23.2353 9.27532V9.27053ZM19.1044 14.346C18.9626 15.0742 19.0802 15.8488 19.0496 16.5946C20.2311 15.4415 21.4126 14.2959 22.5941 13.1578C22.615 12.4087 22.6069 11.6581 22.6102 10.9091C21.4711 12.0845 20.2096 13.145 19.1028 14.346H19.1044ZM14.9976 10.9123C14.9976 11.6581 14.9976 12.4039 14.9976 13.1482C16.1818 14.306 17.4143 15.4144 18.563 16.6074C18.534 15.86 18.6227 15.103 18.5195 14.3619C17.4288 13.137 16.1319 12.1053 14.9976 10.9123ZM19.3992 16.9284C20.4948 15.9143 21.5259 14.8363 22.6118 13.811C22.6118 14.5456 22.6118 15.2808 22.6118 16.0165C21.4421 17.1967 20.2499 18.3514 19.0432 19.4965C19.056 18.8193 19.0238 18.1406 19.0528 17.4634C19.0254 17.2223 19.2607 17.0849 19.3992 16.9284ZM15.0009 13.87C16.1995 14.964 17.3547 16.1059 18.5228 17.235C18.6194 17.9777 18.5357 18.7331 18.5663 19.4805C17.4535 18.4392 16.3547 17.383 15.2699 16.3119C15.1507 16.181 14.988 16.0516 15.0057 15.8552C14.9735 15.194 15.0057 14.5312 15.0057 13.87H15.0009ZM19.048 20.1752C20.2295 19.0126 21.4185 17.8584 22.615 16.7128C22.5908 17.4331 22.6488 18.1502 22.5876 18.8736C22.4179 19.1167 22.22 19.3391 21.9979 19.5364C20.9974 20.4755 20.0437 21.4529 19.0512 22.4111C19.0415 21.6685 19.0512 20.9258 19.0512 20.1848L19.048 20.1752ZM14.9976 16.7463C16.1802 17.8914 17.3789 19.019 18.5566 20.1752C18.5646 20.9194 18.5566 21.6637 18.5566 22.4111C17.3595 21.2708 16.2221 20.0762 14.996 18.9726C14.996 18.23 14.996 17.489 14.996 16.7463H14.9976ZM24.3856 18.8752C24.9189 17.917 26.3576 17.6455 27.1809 18.3961C27.9156 18.9551 28.0026 19.9932 27.5982 20.7917C30.4611 20.7805 33.3273 20.7741 36.1903 20.7917C36.6833 20.7645 36.6897 21.3267 36.7397 21.6701C36.2402 22.1045 35.5394 21.9 34.9368 21.9495C34.9465 22.0454 34.9642 22.2386 34.9739 22.3344L35.5958 22.3488V22.8966C35.3767 22.8966 35.1592 22.8966 34.94 22.9062L34.9594 23.4508L35.5909 23.4683C35.5909 23.8101 35.5909 24.1535 35.5909 24.4968H34.9465C34.9465 24.3771 34.9465 24.1391 34.9465 24.0177H34.0088C34.0088 24.1375 34.0088 24.3755 34.0088 24.4968H33.3644C33.3644 24.1503 33.3644 23.8037 33.3644 23.4588H34.0088V22.8902H33.3644C33.3644 22.7513 33.3644 22.4734 33.3644 22.3344H34.0088C34.0088 22.2402 34.0169 22.0502 34.0201 21.9559C31.8902 21.9559 29.7587 21.9559 27.6288 21.9559C27.8866 22.6315 27.951 23.43 27.4822 24.0321C26.8845 24.8738 25.5231 25.0287 24.7658 24.3148C24.4868 24.0851 24.2863 23.7754 24.192 23.4283C24.0977 23.0811 24.1141 22.7135 24.239 22.376C24.5129 21.8777 24.1053 21.3283 24.4001 20.8364C24.1085 20.2263 23.9748 19.4773 24.3792 18.8816L24.3856 18.8752ZM25.2395 19.0876C25.7051 18.8225 26.3318 18.7283 26.7185 19.1818C27.1664 19.6865 26.8103 20.3477 26.6138 20.8779C26.1611 21.7371 27.3146 22.6059 26.7749 23.4444C26.4333 24.0832 25.3732 23.9842 25.1203 23.3214C24.8641 22.8615 25.1912 22.3951 25.4038 21.9943C25.1461 21.5822 25.2588 21.1335 25.3394 20.6927C25.0832 20.1784 24.9382 19.6194 25.2443 19.0956L25.2395 19.0876ZM19.0512 22.9844C20.2574 21.8569 21.4443 20.7076 22.6118 19.5364C22.5957 20.2822 22.6408 21.0296 22.5941 21.7723C22.5941 22.0086 22.3621 22.1476 22.2235 22.3121C21.1376 23.307 20.1033 24.3515 19.0496 25.38C19.0496 24.5815 19.0496 23.783 19.0496 22.9844H19.0512ZM11.7577 19.6578C12.2716 20.9945 13.2222 22.0933 14.2791 23.0435C15.2747 23.9783 16.257 24.9259 17.2258 25.8863C17.8161 26.4877 18.2015 27.2573 18.3278 28.087C18.4889 29.2401 18.3778 30.4076 18.4422 31.5654C18.1584 31.0123 17.7844 30.5094 17.3354 30.077C16.2173 29.0021 15.1523 27.8714 14.0068 26.8254C13.2222 26.1386 12.5165 25.3209 12.1798 24.3212C11.5853 22.8391 11.7899 21.2165 11.7577 19.661V19.6578ZM14.9928 19.554C15.916 20.426 16.7876 21.3538 17.743 22.1939C18.0255 22.4319 18.2844 22.6961 18.5163 22.9828C18.6291 23.7814 18.5308 24.5911 18.563 25.3944C17.4079 24.2078 16.1979 23.0755 14.996 21.9352C14.996 21.1366 14.996 20.3477 14.996 19.554H14.9928ZM11.7706 25.6228C12.4859 27.1368 13.7974 28.226 14.9541 29.3966C15.895 30.3293 16.9745 31.1534 17.7478 32.2314C18.7145 33.7869 18.3375 35.6858 18.4309 37.4154C18.1239 36.7195 17.6865 36.0876 17.142 35.5533C16.0143 34.4353 14.8317 33.3685 13.7152 32.2394C12.993 31.5736 12.4526 30.7373 12.1444 29.8087C11.6513 28.4687 11.7706 27.0202 11.7786 25.6228H11.7706ZM19.1817 26.6082C20.2982 26.6401 21.4228 26.5283 22.5312 26.6752C23.166 26.7551 23.6461 27.231 23.8701 27.8044C24.1327 27.3715 24.4533 26.9164 24.9785 26.7854C26.0692 26.5363 27.4403 26.5012 28.2185 27.4434C28.175 27.2837 28.0896 26.9723 28.0461 26.8158C31.3456 26.7902 34.6517 26.8158 37.9432 26.8014C37.9319 26.9962 37.9222 27.1911 37.9109 27.3859C36.4964 27.3859 35.0818 27.3859 33.6656 27.3859C33.6656 29.9955 33.6656 32.6051 33.6656 35.2115C33.2661 35.5581 32.8601 35.8934 32.4621 36.2432C32.4267 34.9081 32.5089 33.5713 32.417 32.2394C32.4009 31.7698 31.9933 31.4904 31.6485 31.2428C31.9031 29.9652 32.2044 28.6875 32.4541 27.3939C31.9514 27.3939 31.4487 27.3939 30.9461 27.4035C30.8204 28.8616 30.8478 30.3341 30.6367 31.7842C30.4756 31.3961 30.4756 30.9729 30.4563 30.5625C30.4176 29.5052 30.329 28.4528 30.2855 27.3971H28.8355C29.0369 28.6859 29.3189 29.9524 29.5347 31.246C29.1803 31.5047 28.7534 31.805 28.7727 32.2969C28.7147 34.266 28.7727 36.2384 28.7485 38.206C28.4601 38.2938 28.1734 38.3864 27.8882 38.4775C27.8769 36.446 27.8882 34.4146 27.8882 32.3831C27.4048 32.3831 26.936 32.3831 26.4623 32.3831C26.4495 34.5248 26.4623 36.6664 26.4511 38.8081L25.8324 38.8959C25.8324 35.4441 25.8324 31.9929 25.8324 28.5422L26.4575 28.5198C26.4575 29.6074 26.4575 30.695 26.4575 31.7826C26.9344 31.7826 27.4118 31.7826 27.8898 31.7826C27.8898 30.7349 27.9172 29.6873 27.8785 28.6396C27.8543 28.1829 27.7706 27.584 27.2663 27.4099C26.5612 27.2135 25.816 27.2069 25.1074 27.3907C24.4807 27.6095 24.4146 28.3729 24.4098 28.9335V39.0205L23.8072 39.046C23.8072 37.8977 23.7879 36.7511 23.8249 35.6044C23.456 36.3055 22.6746 36.5754 21.9222 36.6009C21.9093 37.3547 21.9125 38.107 21.9222 38.8608L21.2971 38.7873C21.2971 37.8562 21.2971 36.9267 21.2971 35.9956C21.8642 35.9669 22.5071 36.0452 22.9952 35.6906C23.3819 35.3712 23.3481 34.825 23.3738 34.3746C23.3738 32.4582 23.3738 30.5513 23.3738 28.6396C23.3883 28.095 23.1821 27.4147 22.5586 27.3141C21.6677 27.1384 20.7493 27.2486 19.8471 27.2182C19.8535 30.9362 19.8535 34.6541 19.8471 38.3721L19.1994 38.2219C19.1688 34.3491 19.1994 30.4746 19.1849 26.6002L19.1817 26.6082ZM32.9068 27.6415C33.0099 28.9894 32.9406 30.3453 32.9551 31.6964C32.7192 31.4931 32.4989 31.2726 32.2962 31.0368C32.4573 29.8981 32.7264 28.777 32.9068 27.6415ZM21.281 34.7499C21.281 32.6472 21.281 30.5444 21.281 28.4416H21.9061C21.9061 30.5444 21.9061 32.6482 21.9061 34.7531L21.281 34.7499ZM35.3203 28.5214C36.0904 28.5214 36.8621 28.5214 37.6338 28.5118C37.5484 28.8153 37.4614 29.1203 37.3857 29.427C36.7719 29.0261 36.0211 29.0692 35.3187 29.0724C35.3187 28.8888 35.3187 28.7051 35.3187 28.5214H35.3203ZM35.3203 30.2111L36.0243 30.2191C36.0098 30.9186 36.0678 31.6213 35.9969 32.3176C35.8358 32.6977 35.5539 33.0187 35.3251 33.3621C35.317 32.3128 35.3251 31.262 35.3251 30.2111H35.3203ZM30.263 32.4725L30.9074 32.447C30.8977 34.044 30.9203 35.6523 30.8945 37.2557L30.263 37.5656C30.2614 35.8647 30.2646 34.167 30.263 32.4725Z" fill="white"/>
</svg>
