<svg width="48" height="48" viewBox="0 0 48 48" fill="none" xmlns="http://www.w3.org/2000/svg">
<rect width="48" height="48" rx="24" fill="#21A038"/>
<path d="M30.054 15.1872L32.7845 13.1511C30.3847 11.2001 27.3234 10.0001 23.9858 10.0001V10.0285C20.3867 10.0358 17.1009 11.4236 14.6187 13.6943L14.606 13.6802C11.7758 16.2635 10.0141 19.9808 10.0001 24.1158L10 24.1371V24.1655C10.0071 27.8049 11.381 31.1266 13.6273 33.6347L13.614 33.6469C16.1792 36.5192 19.8758 38.3025 23.9858 38.3025C27.5918 38.2953 30.8852 36.9021 33.3674 34.6237L33.3916 34.6507C36.2072 32.0855 38 28.3203 38 24.1654C38 23.3009 37.9174 22.4647 37.778 21.6286L34.7711 23.8867V24.1654C34.7711 27.1802 33.5526 29.8987 31.5979 31.8581L31.5728 31.8327C29.6407 33.8405 26.9644 35.0404 23.9859 35.0404C23.8937 35.0404 23.8018 35.0393 23.7102 35.0369C23.6202 35.0334 23.5302 35.0263 23.4331 35.0121L23.4324 35.0262C20.6782 34.8845 18.2048 33.6914 16.3881 31.8435L16.3989 31.8327C14.4407 29.8816 13.2266 27.1771 13.2266 24.1654C13.2266 24.0724 13.2278 23.9796 13.2301 23.887C13.2337 23.7966 13.2407 23.7061 13.2549 23.608L13.2408 23.6072C13.3817 20.8442 14.5617 18.3271 16.388 16.4872L16.3989 16.4982C18.331 14.5188 21.0333 13.2905 23.9858 13.2905C24.1795 13.2905 24.3449 13.2905 24.5386 13.3189L24.5404 13.2826C26.5906 13.4085 28.4844 14.086 30.054 15.1872Z" fill="white"/>
<path d="M36.7576 18.3383C36.2899 17.3344 35.7372 16.3872 35.0758 15.5227L23.9858 23.7474L18.6617 20.3744V24.4443L24.0142 27.8456L36.7576 18.3383Z" fill="white"/>
</svg>
