<svg width="48" height="48" viewBox="0 0 48 48" fill="none" xmlns="http://www.w3.org/2000/svg">
<rect width="48" height="48" rx="24" fill="#003791"/>
<path d="M26.5907 11.271V17.9129H23.9773C20.676 17.9129 18.016 20.5337 18.016 23.7872C18.016 27.0395 20.676 29.6602 23.9761 29.6602H26.5907V36.3022C32.5508 35.1727 37 30.022 37 23.786C37 17.5965 32.552 12.4458 26.5907 11.271Z" fill="white"/>
<path d="M23.9773 31.7377C19.5293 31.7377 15.9054 28.169 15.9054 23.7872C15.9054 19.4054 19.5281 15.8355 23.9749 15.8355H24.4801V11H23.9761C16.824 11 11 16.7381 11 23.786C11 30.8805 16.824 36.6186 23.9773 36.6186H24.4813V31.7401H23.9773V31.7377Z" fill="#FC5055"/>
</svg>
