<svg width="48" height="48" viewBox="0 0 48 48" fill="none" xmlns="http://www.w3.org/2000/svg">
<rect width="48" height="48" rx="24" fill="#F10D30"/>
<path d="M32 17.875C32 22.2243 28.4183 25.75 24 25.75C19.5817 25.75 16 22.2243 16 17.875C16 13.5258 19.5817 10 24 10C28.4183 10 32 13.5258 32 17.875Z" fill="white"/>
<path d="M23.9999 36.25C19.5776 36.25 16 36.5366 16 36.8228V37.4275C16 37.7137 19.5776 38 23.9999 38C28.4222 38 31.9999 37.7137 31.9999 37.4275V36.8228C32.0247 36.5366 28.4222 36.25 23.9999 36.25Z" fill="white"/>
<path d="M16 31.4375V30.5625C16 29.1127 19.5817 27.9375 24 27.9375C28.4183 27.9375 32 29.1127 32 30.5625V31.4375C32 32.8873 28.4183 34.0625 24 34.0625C19.5817 34.0625 16 32.8873 16 31.4375Z" fill="white"/>
</svg>
