<svg width="30" height="30" viewBox="0 0 30 30" fill="none" xmlns="http://www.w3.org/2000/svg">
<path fill-rule="evenodd" clip-rule="evenodd" d="M15.1746 8.02469L15.1994 7.98922C15.409 7.68277 15.3215 7.45618 15.181 7.33423L12.9802 5.97884C12.8278 5.87637 12.7273 5.70266 12.7273 5.50409C12.7273 5.19119 12.9143 4.95484 13.34 4.8372C14.697 4.46496 19.4705 4.26967 21.0923 4.26967C21.6552 4.26967 22.6243 4.2675 23.4941 4.29105L23.4563 4.25437C21.0782 2.22469 17.9913 1 14.617 1C7.09596 1 1 7.08789 1 14.599C1 17.9009 2.1777 20.9275 4.13766 23.283C5.84802 20.8272 10.0705 14.7706 10.9964 13.534C12.0628 12.1086 14.4939 8.93732 14.9055 8.39997L14.926 8.37552L15.1746 8.02469Z" fill="#E2001A"/>
<path fill-rule="evenodd" clip-rule="evenodd" d="M6.31394 25.3805C8.61208 27.1479 11.4915 28.2 14.6173 28.2C22.1384 28.2 28.2343 22.1121 28.2343 14.601C28.2343 12.3275 27.6768 10.1855 26.6892 8.30263L26.6903 8.30371C27.1592 7.85267 27.6995 7.13836 27.344 6.24385C27.2338 5.97744 26.7044 5.37304 26.5682 5.22632L26.5866 5.27803C26.9183 6.27721 26.2625 6.90302 25.7914 7.32925C25.5332 7.56324 22.0757 10.8188 18.0207 14.3602C14.4466 17.4808 10.4489 20.6564 8.13343 22.3882C4.87585 24.8236 4.24162 25.1775 4.24162 25.1775C4.15626 25.224 4.01256 25.2638 3.90668 25.2638C3.70788 25.2638 3.53501 25.1742 3.42589 25.0329L3.4225 25.0268L3.41486 25.1313C3.76384 25.6957 4.34296 26.3506 4.68007 26.3506C4.78595 26.3506 4.92964 26.3109 5.01608 26.2653C5.01608 26.2653 5.27107 26.1228 6.31373 25.3795" fill="#E2001A"/>
<path fill-rule="evenodd" clip-rule="evenodd" d="M15.1932 7.98911C15.4028 7.68385 15.3153 7.45607 15.1748 7.33412L12.9739 5.97999C12.8216 5.87752 12.7211 5.70379 12.7211 5.50412C12.7211 5.19229 12.908 4.95595 13.3337 4.83728C14.6918 4.46501 19.4642 4.27078 21.086 4.27078C21.852 4.27078 23.3679 4.26466 24.3663 4.33103C25.4856 4.40444 26.336 4.63537 26.5466 5.177C26.9605 6.23662 26.2754 6.89049 25.7882 7.33076C25.5299 7.56597 22.0725 10.8214 18.0186 14.3617C14.4433 17.4823 10.4456 20.659 8.1302 22.3908C4.87262 24.8251 4.23946 25.179 4.23946 25.179C4.15303 25.2255 4.00933 25.2653 3.90452 25.2653C3.56633 25.2653 3.30164 25.0074 3.30164 24.6696C3.30164 24.5412 3.34053 24.4216 3.40751 24.3244C3.40751 24.3244 9.82328 15.0954 10.9902 13.5351C12.1571 11.9749 14.9598 8.32449 14.9598 8.32449C14.9598 8.32449 14.9922 8.28258 15.1932 7.98892" fill="white"/>
</svg>
