<svg width="48" height="48" viewBox="0 0 48 48" fill="none" xmlns="http://www.w3.org/2000/svg">
<rect width="48" height="48" rx="24" fill="#E2001A"/>
<path fill-rule="evenodd" clip-rule="evenodd" d="M24.5733 17.2305C24.5815 17.2188 24.5897 17.206 24.5991 17.1931C24.8155 16.8784 24.7254 16.6444 24.5804 16.5193C24.4891 16.4386 22.318 15.1237 22.318 15.1237C22.1612 15.0184 22.0571 14.8395 22.0571 14.6347C22.0571 14.313 22.2501 14.0697 22.6876 13.9492C24.0832 13.5655 28.9905 13.3643 30.6586 13.3643C31.2365 13.3643 32.2332 13.362 33.1281 13.3877L33.0883 13.3491C30.6434 11.261 27.4686 10 24.0013 10C16.2678 10 10 16.2666 10 24.0001C10 27.3996 11.2107 30.5147 13.2251 32.9409C14.9845 30.4106 19.3268 24.1768 20.2778 22.9029C21.3739 21.4348 23.875 18.171 24.2973 17.6177L24.3183 17.592L24.5733 17.2305Z" fill="white"/>
<path fill-rule="evenodd" clip-rule="evenodd" d="M15.4641 35.0977C17.8271 36.9179 20.7867 38 24.0013 38C31.7336 38 38.0014 31.7322 38.0014 23.9999C38.0014 21.6591 37.427 19.454 36.4128 17.5157L36.414 17.5169C36.8959 17.0524 37.4516 16.3178 37.0866 15.396C36.972 15.1223 36.428 14.4999 36.2877 14.349L36.3075 14.4029C36.6479 15.4311 35.9741 16.0757 35.4899 16.5132C35.2243 16.7553 31.6693 20.1068 27.5001 23.7519C23.8246 26.9653 19.7151 30.2349 17.3334 32.0177C13.9843 34.5234 13.3327 34.8883 13.3327 34.8883C13.2438 34.9363 13.0964 34.9772 12.9888 34.9772C12.7841 34.9772 12.6063 34.886 12.494 34.7386L12.4905 34.7351C12.4729 34.7784 12.4671 34.8158 12.4823 34.8415C12.8414 35.4241 13.4368 36.0967 13.7843 36.0967C13.8919 36.0967 14.0404 36.0558 14.1294 36.009C14.1294 36.009 14.3926 35.8628 15.4641 35.0977Z" fill="white"/>
</svg>
