<svg width="48" height="48" viewBox="0 0 48 48" fill="none" xmlns="http://www.w3.org/2000/svg">
<rect width="48" height="48" rx="24" fill="#0A2896"/>
<path d="M6.65479 17L5.99068 18.7592H15.1938L15.8579 17H6.65479ZM5.65842 19.6383L4.99431 21.3971H14.1974L14.8615 19.6383H5.65842ZM4.66411 22.2767L4 24.0354H13.2031L13.8668 22.2767H4.66411Z" fill="#00AAFF"/>
<path d="M23.5652 24.7057V24.7429C23.9858 24.8922 24.3875 25.1532 24.598 25.3208C25.2483 25.8429 25.5354 26.5326 25.5354 27.4276C25.5354 28.9008 24.7319 29.9633 23.412 30.299C23.0102 30.4108 22.5897 30.4483 21.805 30.4483H17.8076V19.6721H21.3463C22.0732 19.6721 22.5704 19.7092 23.0102 19.821C24.2921 20.1567 25.1337 21.0144 25.1337 22.3751C25.1337 23.1024 24.8658 23.7179 24.426 24.1278C24.2347 24.3142 23.9669 24.5381 23.5652 24.7057ZM20.0264 25.8429V28.6769H21.5568C22.0155 28.6769 22.4365 28.6397 22.7428 28.36C23.0488 28.0802 23.1827 27.7261 23.1827 27.2599C23.1827 26.9059 23.0868 26.5702 22.8956 26.3279C22.5704 25.9363 22.1686 25.8429 21.4803 25.8429H20.0264ZM20.0071 23.9785H21.2505C21.633 23.9785 21.8242 23.9785 22.0155 23.9226C22.5323 23.7733 22.8575 23.3263 22.8575 22.7108C22.8575 21.984 22.5131 21.6667 22.0155 21.5178C21.805 21.4619 21.5949 21.4431 21.1739 21.4431H20.0071V23.9785ZM28.8637 30.4483V21.4802H25.6694V19.6721H34.5452L33.9141 21.4802H31.0825V30.4483H28.8637ZM35.2336 30.4483V19.6721H42.4262L41.7951 21.4802H37.4336V23.8668H39.2126C40.6472 23.8668 41.3934 24.2024 41.9098 24.6311C42.3116 24.9668 43 25.7124 43 27.1857C43 28.6397 42.2923 29.4413 41.6993 29.8516C41.0109 30.3174 40.284 30.4483 38.8109 30.4483H35.2336ZM37.4336 28.6397H39.0979C39.729 28.6397 40.1115 28.4905 40.3794 28.1548C40.5133 27.9871 40.7045 27.6886 40.7045 27.1294C40.7045 26.5702 40.5133 26.1786 40.1308 25.8988C39.9015 25.7312 39.5951 25.6382 39.0787 25.6382H37.4336V28.6397Z" fill="white"/>
</svg>
