<svg width="48" height="48" viewBox="0 0 48 48" fill="none" xmlns="http://www.w3.org/2000/svg">
<path fill-rule="evenodd" clip-rule="evenodd" d="M13.2 9.24068C13.2 7.55827 14.5687 6.20001 16.25 6.20001H34.5003C34.7118 6.20001 34.9147 6.28378 35.0647 6.43299L41.5644 12.9021C41.7152 13.0522 41.8 13.2563 41.8 13.4691V40.7593C41.8 42.4418 40.4313 43.8 38.75 43.8H14C8.59077 43.8 4.20001 39.4322 4.20001 34.0374C4.20001 28.9111 8.16442 24.7122 13.2 24.3068V9.24068ZM14.8 24.3068C19.8356 24.7122 23.8 28.9111 23.8 34.0374C23.8 37.4521 22.0409 40.4554 19.3778 42.2H38.75C39.5539 42.2 40.2 41.5518 40.2 40.7593V14.2691L34.5 14.2689C34.2878 14.2689 34.0843 14.1846 33.9343 14.0345C33.7843 13.8845 33.7 13.681 33.7 13.4688L33.7003 7.80001H16.25C15.4461 7.80001 14.8 8.44819 14.8 9.24068V24.3068ZM35.3002 8.92487L39.0621 12.669L35.3 12.6689L35.3002 8.92487ZM14 42.2C18.5319 42.2 22.2 38.5423 22.2 34.0374C22.2 29.5324 18.5319 25.8747 14 25.8747C9.46815 25.8747 5.80001 29.5324 5.80001 34.0374C5.80001 38.5423 9.46815 42.2 14 42.2ZM27.0152 15.957C27.3016 15.7388 27.6985 15.7388 27.9848 15.957L33.2348 19.957C33.5863 20.2248 33.6541 20.7268 33.3864 21.0782C33.1186 21.4296 32.6166 21.4975 32.2652 21.2297L27.5 17.5991L22.7348 21.2297C22.3834 21.4975 21.8814 21.4296 21.6137 21.0782C21.3459 20.7268 21.4137 20.2248 21.7652 19.957L27.0152 15.957ZM23.9522 21.5154C24.394 21.5154 24.7522 21.8735 24.7522 22.3154V26.2374H30.2V22.3154C30.2 21.8735 30.5582 21.5154 31 21.5154C31.4418 21.5154 31.8 21.8735 31.8 22.3154V27.0374C31.8 27.4792 31.4418 27.8374 31 27.8374H23.9522C23.5103 27.8374 23.1522 27.4792 23.1522 27.0374V22.3154C23.1522 21.8735 23.5103 21.5154 23.9522 21.5154ZM18.2419 31.4562C18.5536 31.7693 18.5526 32.2758 18.2395 32.5876L12.9895 37.8158C12.6774 38.1267 12.1727 38.1267 11.8605 37.8158L9.6105 35.5752C9.29744 35.2634 9.29638 34.7569 9.60815 34.4438C9.91992 34.1307 10.4265 34.1297 10.7395 34.4414L12.425 36.1199L17.1105 31.4539C17.4236 31.1421 17.9301 31.1432 18.2419 31.4562Z" fill="black"/>
</svg>
