<svg width="48" height="48" viewBox="0 0 48 48" fill="none" xmlns="http://www.w3.org/2000/svg">
<path fill-rule="evenodd" clip-rule="evenodd" d="M13.6406 7.79995C12.9779 7.79995 12.4406 8.33721 12.4406 8.99995V40.2H15.4497V11.0319H32.5503V40.2H35.5594V8.99995C35.5594 8.33721 35.0221 7.79995 34.3594 7.79995H13.6406ZM37.1594 40.2V8.99995C37.1594 7.45355 35.9058 6.19995 34.3594 6.19995H13.6406C12.0942 6.19995 10.8406 7.45355 10.8406 8.99995V40.2H7V41.7999H41V40.2H37.1594ZM30.9503 40.2V26.8455H28.5208C27.5267 26.8455 26.7208 26.0397 26.7208 25.0455V22.8007H28.3208V25.0455C28.3208 25.156 28.4103 25.2455 28.5208 25.2455H30.9503V12.6319H17.0497V40.2H30.9503ZM26.7208 30.5248V28.4086H28.3208V30.5248H26.7208Z" fill="black"/>
</svg>
