<svg fill="none" height="48" viewBox="0 0 48 48" width="48" xmlns="http://www.w3.org/2000/svg"><g clip-rule="evenodd" fill="#000" fill-rule="evenodd"><path d="m11 7.79995c-.1104 0-.2.08954-.2.2v13.20005h8.4v-13.20005c0-.11046-.0895-.2-.2-.2zm9.8 13.40005v-13.20005c0-.99411-.8059-1.8-1.8-1.8h-8c-.9941 0-1.79999.80589-1.79999 1.8v13.20005h-1.2c-.44183 0-.8.3581-.8.8 0 .4418.35817.8.8.8h13.99999c.4418 0 .8-.3582.8-.8 0-.4419-.3582-.8-.8-.8zm-5.4397-5.8905c0-.4418.3582-.8.8-.8h1.5584c.4418 0 .8.3582.8.8s-.3582.8-.8.8h-1.5584c-.4418 0-.8-.3582-.8-.8z"/><path d="m11 27.8c-.1104 0-.2.0895-.2.2v13.2h8.4v-13.2c0-.1105-.0895-.2-.2-.2zm9.8 13.4v-13.2c0-.9942-.8059-1.8-1.8-1.8h-8c-.9941 0-1.79999.8058-1.79999 1.8v13.2h-1.2c-.44183 0-.8.3581-.8.8 0 .4418.35817.8.8.8h13.99999c.4418 0 .8-.3582.8-.8 0-.4419-.3582-.8-.8-.8zm-5.4397-5.8905c0-.4418.3582-.8.8-.8h1.5584c.4418 0 .8.3582.8.8s-.3582.8-.8.8h-1.5584c-.4418 0-.8-.3582-.8-.8z"/><path d="m30 7.79995c-.1104 0-.2.08954-.2.2v13.20005h8.4v-13.20005c0-.11046-.0895-.2-.2-.2zm9.8 13.40005v-13.20005c0-.99411-.8059-1.8-1.8-1.8h-8c-.9941 0-1.8.80589-1.8 1.8v13.20005h-1.2c-.4418 0-.8.3581-.8.8 0 .4418.3582.8.8.8h14c.4418 0 .8-.3582.8-.8 0-.4419-.3582-.8-.8-.8zm-5.4397-5.8905c0-.4418.3582-.8.8-.8h1.5584c.4418 0 .8.3582.8.8s-.3582.8-.8.8h-1.5584c-.4418 0-.8-.3582-.8-.8z"/><path d="m30 27.8c-.1104 0-.2.0895-.2.2v13.2h8.4v-13.2c0-.1105-.0895-.2-.2-.2zm9.8 13.4v-13.2c0-.9942-.8059-1.8-1.8-1.8h-8c-.9941 0-1.8.8058-1.8 1.8v13.2h-1.2c-.4418 0-.8.3581-.8.8 0 .4418.3582.8.8.8h14c.4418 0 .8-.3582.8-.8 0-.4419-.3582-.8-.8-.8zm-5.4397-5.8905c0-.4418.3582-.8.8-.8h1.5584c.4418 0 .8.3582.8.8s-.3582.8-.8.8h-1.5584c-.4418 0-.8-.3582-.8-.8z"/></g></svg>