<svg width="48" height="51" viewBox="0 0 48 51" fill="none" xmlns="http://www.w3.org/2000/svg">
<g filter="url(#filter0_d_19123_1218)">
<path fill-rule="evenodd" clip-rule="evenodd" d="M16.2433 10.8C15.5805 10.8 15.0433 11.3373 15.0433 12V32.883H18.0901V10.8H16.2433ZM19.6901 10.8V32.883H32.3179V12C32.3179 11.3373 31.7807 10.8 31.1179 10.8H19.6901ZM33.9179 32.883V12C33.9179 10.4536 32.6643 9.20001 31.1179 9.20001H16.2433C14.6969 9.20001 13.4433 10.4536 13.4433 12V32.883H9.84866V36.6407H4.20001V42.8H43.8V36.6407H37.6378V32.883H33.9179ZM21.6595 12.7593H30.4487V23.4949H21.6595V12.7593ZM23.2595 14.3593V21.8949H28.8487V14.3593H23.2595ZM11.4487 34.483V38.2407H5.80001V41.2H42.2V38.2407H36.0378V34.483H11.4487Z" fill="black"/>
</g>
<defs>
<filter id="filter0_d_19123_1218" x="-4" y="0" width="56" height="56" filterUnits="userSpaceOnUse" color-interpolation-filters="sRGB">
<feFlood flood-opacity="0" result="BackgroundImageFix"/>
<feColorMatrix in="SourceAlpha" type="matrix" values="0 0 0 0 0 0 0 0 0 0 0 0 0 0 0 0 0 0 127 0" result="hardAlpha"/>
<feOffset dy="4"/>
<feGaussianBlur stdDeviation="2"/>
<feComposite in2="hardAlpha" operator="out"/>
<feColorMatrix type="matrix" values="0 0 0 0 0 0 0 0 0 0 0 0 0 0 0 0 0 0 0.25 0"/>
<feBlend mode="normal" in2="BackgroundImageFix" result="effect1_dropShadow_19123_1218"/>
<feBlend mode="normal" in="SourceGraphic" in2="effect1_dropShadow_19123_1218" result="shape"/>
</filter>
</defs>
</svg>
