<svg width="48" height="48" viewBox="0 0 48 48" fill="none" xmlns="http://www.w3.org/2000/svg">
<path fill-rule="evenodd" clip-rule="evenodd" d="M6.20001 8.99995C6.20001 7.45355 7.45362 6.19995 9.00001 6.19995H39C40.5464 6.19995 41.8 7.45355 41.8 8.99995V17.5H40.2V8.99995C40.2 8.33721 39.6628 7.79995 39 7.79995H9.00001C8.33727 7.79995 7.80001 8.33721 7.80001 8.99995V17.5H6.20001V8.99995ZM7.80001 30.5V39C7.80001 39.6627 8.33727 40.2 9.00001 40.2H39C39.6628 40.2 40.2 39.6627 40.2 39V30.5H41.8V39C41.8 40.5463 40.5464 41.7999 39 41.7999H9.00001C7.45361 41.7999 6.20001 40.5463 6.20001 39V30.5H7.80001Z" fill="black"/>
<path fill-rule="evenodd" clip-rule="evenodd" d="M23.4343 10.4343C23.7467 10.1218 24.2533 10.1218 24.5657 10.4343L29.6569 15.5254C29.9693 15.8379 29.9693 16.3444 29.6569 16.6568C29.3444 16.9692 28.8379 16.9692 28.5255 16.6568L24.8 12.9313L24.8 35.0686L28.5255 31.3431C28.8379 31.0307 29.3444 31.0307 29.6569 31.3431C29.9693 31.6555 29.9693 32.162 29.6569 32.4745L24.5657 37.5656C24.2533 37.8781 23.7467 37.8781 23.4343 37.5656L18.3432 32.4745C18.0307 32.162 18.0307 31.6555 18.3432 31.3431C18.6556 31.0307 19.1621 31.0307 19.4745 31.3431L23.2 35.0686L23.2 12.9313L19.4745 16.6568C19.1621 16.9692 18.6556 16.9692 18.3432 16.6568C18.0307 16.3444 18.0307 15.8379 18.3432 15.5254L23.4343 10.4343Z" fill="black"/>
</svg>
