<svg width="48" height="48" viewBox="0 0 48 48" fill="none" xmlns="http://www.w3.org/2000/svg">
<path fill-rule="evenodd" clip-rule="evenodd" d="M26.257 11.9692C27.4745 9.17752 30.2244 7.19995 33.4606 7.19995C37.8213 7.19995 41.356 10.7733 41.356 15.1538C41.356 19.5343 37.8213 23.1076 33.4606 23.1076C30.2244 23.1076 27.4745 21.1301 26.257 18.3384H14.5394C14.0976 18.3384 13.7394 17.9802 13.7394 17.5384V12.7692C13.7394 12.3274 14.0976 11.9692 14.5394 11.9692H16.1046V10.3846C16.1046 9.94274 16.4628 9.58457 16.9046 9.58457H21.6349C22.0767 9.58457 22.4349 9.94274 22.4349 10.3846V11.9692H26.257ZM33.4606 8.79995C30.7406 8.79995 28.4286 10.5662 27.5552 13.0359C27.4422 13.3555 27.14 13.5692 26.801 13.5692H21.6349C21.193 13.5692 20.8349 13.211 20.8349 12.7692V11.1846H17.7046V12.7692C17.7046 13.211 17.3464 13.5692 16.9046 13.5692H15.3394V16.7384H26.801C27.14 16.7384 27.4422 16.9521 27.5552 17.2717C28.4286 19.7414 30.7406 21.5076 33.4606 21.5076C36.9253 21.5076 39.756 18.663 39.756 15.1538C39.756 11.6446 36.9253 8.79995 33.4606 8.79995ZM30.2954 15.1538C30.2954 13.4012 31.7064 11.9692 33.4606 11.9692C35.2148 11.9692 36.6257 13.4012 36.6257 15.1538C36.6257 16.9064 35.2148 18.3384 33.4606 18.3384C31.7064 18.3384 30.2954 16.9064 30.2954 15.1538ZM33.4606 13.5692C32.6024 13.5692 31.8954 14.2725 31.8954 15.1538C31.8954 16.0351 32.6024 16.7384 33.4606 16.7384C34.3188 16.7384 35.0257 16.0351 35.0257 15.1538C35.0257 14.2725 34.3188 13.5692 33.4606 13.5692ZM12.9743 27.4013V35.9896C21.0363 37.9579 27.2118 38.1888 30.7263 38.1995L41.6816 29.4878C39.7954 28.3726 37.3278 28.5301 35.6047 29.9761L33.9611 31.3553C33.9046 31.4027 33.8418 31.4421 33.7745 31.4723L31.4258 32.5268C31.3241 32.5725 31.2139 32.5964 31.1023 32.5969L21.639 32.6461C21.1972 32.6484 20.8372 32.2921 20.8349 31.8503C20.8326 31.4084 21.1889 31.0484 21.6307 31.0461L30.2186 31.0015C29.8529 29.2043 28.2694 27.8769 26.3652 27.8769C23.792 27.8769 21.2743 27.2382 18.9949 26.0571C18.3526 25.7242 17.6386 25.4923 16.9046 25.4923C15.8331 25.4923 14.8124 25.9871 14.017 26.5411C13.627 26.8127 13.3103 27.0851 13.0921 27.2889C13.0487 27.3295 13.0093 27.3671 12.9743 27.4013ZM31.7733 30.617L33.0178 30.0582L34.5762 28.7505C34.5761 28.7505 34.5762 28.7505 34.5762 28.7505C37.1585 26.5835 41.0012 26.6305 43.5294 28.8617C43.7068 29.0183 43.8058 29.2454 43.7997 29.482C43.7937 29.7186 43.6832 29.9403 43.4979 30.0876L31.503 39.6261C31.3615 39.7387 31.186 39.8 31.0051 39.8C27.5186 39.8 21.2316 39.6114 12.9743 37.6356V39C12.9743 39.4418 12.6161 39.8 12.1743 39.8H5.00001C4.55818 39.8 4.20001 39.4418 4.20001 39V27.0769C4.20001 26.8647 4.2843 26.6612 4.43433 26.5112C4.58436 26.3612 4.78784 26.2769 5.00001 26.2769L11.8357 26.2769C11.8842 26.2293 11.939 26.1765 12 26.1196C12.2605 25.8763 12.6365 25.5526 13.1026 25.2281C14.0191 24.5898 15.3636 23.8923 16.9046 23.8923C17.9713 23.8923 18.9406 24.2268 19.7311 24.6365C21.7921 25.7045 24.0583 26.2769 26.3652 26.2769C29.0126 26.2769 31.234 28.1157 31.7733 30.617ZM11.3743 27.8769L5.80001 27.8769V38.2H11.3743V27.8769Z" fill="black"/>
</svg>
