<svg width="48" height="48" viewBox="0 0 48 48" fill="none" xmlns="http://www.w3.org/2000/svg">
<path fill-rule="evenodd" clip-rule="evenodd" d="M7.00001 11.4348C6.33727 11.4348 5.80001 11.9721 5.80001 12.6348V42.2H10.1303V17.7684C10.1303 17.3266 10.4884 16.9684 10.9303 16.9684H29.0698C29.5116 16.9684 29.8698 17.3266 29.8698 17.7684V42.2H41.2V12.6348C41.2 11.9721 40.6628 11.4348 40 11.4348H7.00001ZM42 43.8C42.4418 43.8 42.8 43.4419 42.8 43V12.6348C42.8 11.0884 41.5464 9.83484 40 9.83484H7.00001C5.45361 9.83484 4.20001 11.0884 4.20001 12.6348V43C4.20001 43.4419 4.55818 43.8 5.00001 43.8H42ZM28.2698 42.2V18.5684H21.8V42.2H28.2698ZM20.2 42.2V18.5684H19.3V42.2H20.2ZM17.7 42.2V18.5684H11.7303V42.2H17.7ZM34.9696 24.6115C35.2602 24.3821 35.6702 24.3821 35.9609 24.6115L37.5833 25.8921C37.9301 26.1659 37.9893 26.6689 37.7156 27.0157C37.4418 27.3625 36.9388 27.4218 36.592 27.148L35.4652 26.2586L34.3384 27.148C33.9916 27.4218 33.4885 27.3625 33.2148 27.0157C32.941 26.6689 33.0003 26.1658 33.3471 25.8921L34.9696 24.6115ZM37.7853 29.7438C38.059 30.0906 37.9998 30.5937 37.6529 30.8674L36.0305 32.148C35.7398 32.3774 35.3298 32.3774 35.0392 32.148L33.4167 30.8674C33.0699 30.5937 33.0107 30.0906 33.2845 29.7438C33.5582 29.397 34.0613 29.3378 34.4081 29.6115L35.5348 30.5009L36.6616 29.6115C37.0085 29.3378 37.5115 29.397 37.7853 29.7438Z" fill="black"/>
</svg>
