<svg width="48" height="48" viewBox="0 0 48 48" fill="none" xmlns="http://www.w3.org/2000/svg">
<path fill-rule="evenodd" clip-rule="evenodd" d="M31.0965 6.80001C30.4337 6.80001 29.8965 7.33727 29.8965 8.00001V17.7979C29.8965 18.4606 30.4337 18.9979 31.0965 18.9979H40.7864C41.4491 18.9979 41.9864 18.4606 41.9864 17.7979V8.00001C41.9864 7.33727 41.4491 6.80001 40.7864 6.80001H31.0965ZM28.2965 8.00001C28.2965 6.45362 29.5501 5.20001 31.0965 5.20001H40.7864C42.3328 5.20001 43.5864 6.45362 43.5864 8.00001V17.7979C43.5864 19.3443 42.3328 20.5979 40.7864 20.5979H37.2772V41.2H43C43.4418 41.2 43.8 41.5582 43.8 42C43.8 42.4418 43.4418 42.8 43 42.8H5.00001C4.55818 42.8 4.20001 42.4418 4.20001 42C4.20001 41.5582 4.55818 41.2 5.00001 41.2H15.7827C14.9368 40.3683 14.3524 39.2688 14.1637 38.0392H5.00001C4.55818 38.0392 4.20001 37.6811 4.20001 37.2392C4.20001 36.7974 4.55818 36.4392 5.00001 36.4392H14.1453C14.5027 33.6839 16.8423 31.5483 19.6861 31.5483C22.53 31.5483 24.8695 33.6839 25.2269 36.4392H30.032V32.8743L26.6978 32.8743V31.2743L29.9655 31.2743C29.5884 29.0333 27.6542 27.3341 25.3351 27.3341L5.00001 27.3341C4.55818 27.3341 4.20001 26.9759 4.20001 26.5341C4.20001 26.0923 4.55818 25.7341 5.00001 25.7341H20.5482L16.5877 19.783H5.00001C4.55818 19.783 4.20001 19.4248 4.20001 18.983C4.20001 18.5412 4.55818 18.183 5.00001 18.183H17.4449L22.4701 25.7341L25.3351 25.7341C28.8187 25.7341 31.632 28.5787 31.632 32.0743V38.0392H25.2085C25.0199 39.2688 24.4354 40.3683 23.5895 41.2H35.6772V20.5979H31.0965C29.5501 20.5979 28.2965 19.3443 28.2965 17.7979V8.00001ZM19.6861 41.2C21.8828 41.2 23.6742 39.4035 23.6742 37.1742C23.6742 34.9449 21.8828 33.1483 19.6861 33.1483C17.4895 33.1483 15.698 34.9449 15.698 37.1742C15.698 39.4035 17.4894 41.2 19.6861 41.2ZM33.447 9.24047L35.9136 9.24063C35.9136 9.24063 35.9136 9.24063 35.9136 9.24063C37.2741 9.24065 38.4359 10.3469 38.4359 11.7432C38.4359 13.1394 37.2741 14.2457 35.9136 14.2457C35.7122 14.2457 35.3693 14.2471 35.047 14.2488V16.7161H33.447V9.24047ZM35.0541 12.6487C35.3722 12.6471 35.7112 12.6457 35.9136 12.6457C36.419 12.6457 36.8359 12.2275 36.8359 11.7432C36.8359 11.2588 36.419 10.8406 35.9136 10.8406L35.0493 10.8406C35.0502 11.1912 35.051 11.5639 35.051 11.7432C35.051 11.952 35.0525 12.3121 35.0541 12.6487Z" fill="black"/>
</svg>
