<svg width="48" height="48" viewBox="0 0 48 48" fill="none" xmlns="http://www.w3.org/2000/svg">
<path fill-rule="evenodd" clip-rule="evenodd" d="M7.20001 8.00001C7.20001 6.45362 8.45361 5.20001 10 5.20001H31.6C33.1464 5.20001 34.4 6.45361 34.4 8.00001V10.1111H36.8C39.0263 10.1111 40.8 11.9526 40.8 14.1852V19.0963C40.8 21.329 39.0263 23.1704 36.8 23.1704H21.6V28.1186H24.8V38.7259C24.8 40.9586 23.0263 42.8 20.8 42.8C18.5737 42.8 16.8 40.9586 16.8 38.7259V28.1186H20V21.5704H36.8C38.1083 21.5704 39.2 20.4801 39.2 19.0963V14.1852C39.2 12.8015 38.1083 11.7111 36.8 11.7111H34.4V13.8223C34.4 15.3686 33.1464 16.6223 31.6 16.6223H10C8.45362 16.6223 7.20001 15.3687 7.20001 13.8223V8.00001ZM10 6.80001C9.33727 6.80001 8.80001 7.33727 8.80001 8.00001V13.8223C8.80001 14.485 9.33727 15.0223 10 15.0223H31.6C32.2628 15.0223 32.8 14.485 32.8 13.8223V8.00001C32.8 7.33727 32.2628 6.80001 31.6 6.80001H10ZM18.4 29.7186V38.7259C18.4 40.1097 19.4917 41.2 20.8 41.2C22.1083 41.2 23.2 40.1097 23.2 38.7259V29.7186H18.4Z" fill="black"/>
</svg>
