<svg width="48" height="48" viewBox="0 0 48 48" fill="none" xmlns="http://www.w3.org/2000/svg">
<path fill-rule="evenodd" clip-rule="evenodd" d="M24 42.4C34.162 42.4 42.4 34.162 42.4 24C42.4 13.838 34.162 5.6 24 5.6C13.838 5.6 5.6 13.838 5.6 24C5.6 34.162 13.838 42.4 24 42.4ZM24 44C35.0457 44 44 35.0457 44 24C44 12.9543 35.0457 4 24 4C12.9543 4 4 12.9543 4 24C4 35.0457 12.9543 44 24 44Z" fill="black"/>
<path fill-rule="evenodd" clip-rule="evenodd" d="M24 16.1777L22.8275 19.7862C22.4795 20.8575 21.4812 21.5828 20.3548 21.5828H16.5606L19.6301 23.813C20.5414 24.4751 20.9227 25.6486 20.5747 26.7199L19.4022 30.3284L22.4718 28.0982C23.383 27.4361 24.617 27.4361 25.5282 28.0982L28.5978 30.3284L27.4254 26.7199C27.0773 25.6486 27.4586 24.4751 28.3699 23.813L31.4394 21.5828H27.6452C26.5188 21.5828 25.5206 20.8575 25.1725 19.7862L24 16.1777ZM24.9511 13.9271C24.6517 13.0058 23.3483 13.0058 23.0489 13.9271L21.3058 19.2918C21.172 19.7038 20.788 19.9828 20.3548 19.9828H14.714C13.7452 19.9828 13.3425 21.2224 14.1262 21.7918L18.6897 25.1074C19.0402 25.3621 19.1868 25.8134 19.053 26.2254L17.3099 31.5902C17.0105 32.5115 18.065 33.2776 18.8487 32.7082L23.4122 29.3926C23.7627 29.138 24.2373 29.138 24.5878 29.3926L29.1513 32.7082C29.935 33.2776 30.9895 32.5115 30.6902 31.5902L28.947 26.2254C28.8132 25.8134 28.9598 25.3621 29.3103 25.1074L33.8738 21.7918C34.6576 21.2224 34.2548 19.9828 33.2861 19.9828H27.6452C27.212 19.9828 26.828 19.7038 26.6942 19.2918L24.9511 13.9271Z" fill="black"/>
</svg>
