<svg width="40" height="40" viewBox="0 0 48 48" fill="none" xmlns="http://www.w3.org/2000/svg">
<path fill-rule="evenodd" clip-rule="evenodd" d="M8.55716 12C8.55716 10.4536 9.81076 9.20001 11.3572 9.20001H25C26.5464 9.20001 27.8 10.4536 27.8 12V42.8H3.20001V30.579C3.20001 29.0326 4.45362 27.779 6.00001 27.779H8.55716V12ZM8.55716 29.379H6.00001C5.33727 29.379 4.80001 29.9162 4.80001 30.579V41.2H8.55716V29.379ZM10.1572 41.2H26.2V12C26.2 11.3373 25.6628 10.8 25 10.8H11.3572C10.6944 10.8 10.1572 11.3373 10.1572 12V41.2Z" fill="black"/>
<path fill-rule="evenodd" clip-rule="evenodd" d="M31.2 24C31.2 22.4536 32.4536 21.2 34 21.2H42C43.5464 21.2 44.8 22.4536 44.8 24V41.2H47C47.4418 41.2 47.8 41.5582 47.8 42C47.8 42.4418 47.4418 42.8 47 42.8H31.2V24ZM43.2 41.2V24C43.2 23.3373 42.6628 22.8 42 22.8H34C33.3373 22.8 32.8 23.3373 32.8 24V41.2H43.2Z" fill="black"/>
<path fill-rule="evenodd" clip-rule="evenodd" d="M37 27.8H35V26.2H37V27.8ZM41 27.8H39V26.2H41V27.8ZM37 31.8H35V30.2H37V31.8ZM41 31.8H39V30.2H41V31.8Z" fill="black"/>
<path fill-rule="evenodd" clip-rule="evenodd" d="M16.5 15.8H13.5V14.2H16.5V15.8ZM23 15.8H20V14.2H23V15.8ZM16.5 19.8H13.5V18.2H16.5V19.8ZM23 19.8H20V18.2H23V19.8ZM16.5 23.8H13.5V22.2H16.5V23.8ZM23 23.8H20V22.2H23V23.8ZM16.5 27.8H13.5V26.2H16.5V27.8ZM23 27.8H20V26.2H23V27.8ZM16.5 31.8H13.5V30.2H16.5V31.8ZM23 31.8H20V30.2H23V31.8Z" fill="black"/>
</svg>
