<svg width="48" height="48" viewBox="0 0 48 48" fill="none" xmlns="http://www.w3.org/2000/svg">
<path fill-rule="evenodd" clip-rule="evenodd" d="M10.4091 6.19995C10.4061 6.19995 10.403 6.19995 10.4 6.19995V6.19995H9.00001C7.45361 6.19995 6.20001 7.45356 6.20001 8.99996V39C6.20001 40.5463 7.45362 41.7999 9.00002 41.7999H38.9999C40.5463 41.7999 41.7999 40.5463 41.7999 38.9999V8.99995C41.7999 7.45355 40.5463 6.19995 38.9999 6.19995H10.4091ZM10.4086 7.79995H9.00001C8.33727 7.79995 7.80001 8.33721 7.80001 8.99996V39C7.80001 39.6627 8.33727 40.1999 9.00002 40.1999H38.9999C39.1581 40.1999 39.3091 40.1694 39.4473 40.1138C37.2921 36.915 34.3501 34.2665 30.9128 32.5479L30.9128 32.5479C26.1851 30.184 22.9994 25.5614 22.4735 20.3019C22.1138 16.7051 20.8263 13.5737 18.7803 11.3535C16.7478 9.14786 13.9335 7.80215 10.4086 7.79995ZM40.1999 38.4033V33.2647H35.1104C37.0509 34.7106 38.7676 36.4515 40.1999 38.4033ZM32.6572 31.6647H35.9676V26.9161H26.6573C27.9361 28.6655 29.6282 30.1168 31.6283 31.1168C31.9762 31.2908 32.3193 31.4735 32.6572 31.6647ZM25.6481 25.3161H31.7352V20.5676H24.1147C24.336 22.2529 24.8627 23.8584 25.6481 25.3161ZM23.9152 18.9676H27.5029V14.219H22.5307C23.1869 15.6792 23.6507 17.2788 23.9152 18.9676ZM21.7005 12.619C21.1944 11.7683 20.6126 10.9808 19.9569 10.2692C19.0494 9.28442 18.0054 8.45107 16.8351 7.79995H23.2705V12.619H21.7005ZM24.8705 12.619H31.7352V7.79995H24.8705V12.619ZM33.3352 7.79995V12.619H40.1999V8.99995C40.1999 8.33721 39.6627 7.79995 38.9999 7.79995H33.3352ZM40.1999 14.219H37.5676V18.9676H40.1999V14.219ZM40.1999 20.5676H33.3352V25.3161H40.1999V20.5676ZM40.1999 26.9161H37.5676V31.6647H40.1999V26.9161ZM35.9676 18.9676V14.219H29.1029V18.9676H35.9676Z" fill="black"/>
</svg>
