<svg width="70" height="70" viewBox="0 0 70 70" fill="none" xmlns="http://www.w3.org/2000/svg">
<circle cx="35" cy="35" r="35" fill="#D6D6D6"/>
<path d="M46.085 43.5262L40.312 42.0826L39.8207 40.1175C41.3653 38.588 42.4232 36.4872 42.7366 34.3323C43.5925 34.0912 44.2556 33.3573 44.3701 32.4366L44.7468 29.4227C44.8267 28.7867 44.6308 28.1433 44.2088 27.661C43.9617 27.3777 43.6497 27.1637 43.3047 27.0326L43.4433 24.195L44.007 23.6299C44.8554 22.7272 45.5591 21.1796 44.0883 18.9343C42.9581 17.2089 41.0383 16.3334 38.3801 16.3334C37.3312 16.3334 34.9171 16.3334 32.6688 17.8433C26.2491 17.9775 25.3751 20.9597 25.3751 23.8681C25.3751 24.5448 25.5394 26.0683 25.6479 26.9875C25.2606 27.1096 24.9095 27.3356 24.6352 27.6475C24.2057 28.1343 24.0068 28.7808 24.0867 29.4242L24.4634 32.4381C24.587 33.4206 25.3329 34.1937 26.2763 34.3776C26.5882 36.4496 27.5918 38.4825 29.0475 39.9864L28.5231 42.0856L22.75 43.5292C18.9706 44.471 16.3335 47.8496 16.3335 51.7465C16.3335 52.1625 16.6711 52.5 17.087 52.5H51.7467C52.1626 52.5 52.5002 52.1595 52.5002 51.7436C52.5001 47.8496 49.863 44.471 46.085 43.5262Z" fill="#F0F0F0"/>
</svg>
