<svg width="40" height="40" viewBox="0 0 40 40" fill="none" xmlns="http://www.w3.org/2000/svg">
<path d="M30.1251 10.9627L25.625 6.48132L6.50001 6.48133M30.1251 10.9627L30.1251 15.5933M30.1251 10.9627H13.25M2.3 37.9999H17.45M30.1251 15.5933L38 22.3153H22.25L30.1251 15.5933ZM13.25 10.9627H6.50001M13.25 10.9627V6.48133V2H6.50001V6.48133M13.25 10.9627V17.7127M6.50001 10.9627H2V6.48132L6.50001 6.48133M6.50001 10.9627L13.25 17.7127M6.50001 10.9627V24.4627M6.50001 10.9627V6.48133M13.25 17.7127L6.50001 24.4627M13.25 17.7127V31.2127M6.50001 24.4627V37.9999H13.25V31.2127M6.50001 24.4627L13.25 31.2127M23.375 38H36.8751V26.7967H23.375V38ZM27.875 38H32.3751V31.278H27.875V38Z" stroke="#7BC696" stroke-width="2" stroke-miterlimit="22.926" stroke-linecap="round" stroke-linejoin="round"/>
</svg>
