<svg xmlns="http://www.w3.org/2000/svg"  viewBox="0 0 40 40" width="40" height="40" fill="none">
 <path stroke="#7BC696" stroke-linecap="round" stroke-linejoin="round" stroke-miterlimit="22.926" stroke-width="2" d="m30.125 10.963-4.5-4.482H6.5m23.625 4.482v4.63m0-4.63H13.25M2.3 38h15.15m12.675-22.407L38 22.315H22.25l7.875-6.722Zm-16.875-4.63H6.5m6.75 0V2H6.5v4.481m6.75 4.482v6.75m-6.75-6.75H2V6.48h4.5m0 4.482 6.75 6.75m-6.75-6.75v13.5m0-13.5V6.48m6.75 11.232-6.75 6.75m6.75-6.75v13.5m-6.75-6.75V38h6.75v-6.787m-6.75-6.75 6.75 6.75M23.375 38h13.5V26.797h-13.5V38Zm4.5 0h4.5v-6.722h-4.5V38Z"/>
</svg>