<svg xmlns="http://www.w3.org/2000/svg" width="40" height="40" viewBox="0 0 40 40" fill="none">
 <path fill="#7BC696" d="M9.026 14.056v1-1Zm0-8.187-.27-.963a1 1 0 0 0-.73.963h1ZM26.42 1h1a1 1 0 0 0-1.27-.963l.27.963ZM3 14.056v-1a1 1 0 0 0-1 1h1Zm12.119 0h1a1 1 0 0 0-1-1v1ZM3 38H2a1 1 0 0 0 1 1v-1Zm7.06-19.106a1 1 0 1 0-2 0h2Zm-2 3.68a1 1 0 1 0 2 0h-2Zm2 4.866a1 1 0 0 0-2 0h2Zm-2 3.68a1 1 0 0 0 2 0h-2ZM25.42 17.5a1 1 0 1 0 2 0h-2ZM37 26.073h1a1 1 0 0 0-1-1v1Zm-16.926 0v-1a1 1 0 0 0-1 1h1Zm11.637 0v1a1 1 0 0 0 1-1h-1Zm-6.347 0h-1a1 1 0 0 0 1 1v-1Zm4.895 4.741h1a1 1 0 0 0-1-1v1Zm-3.444 0v-1a1 1 0 0 0-1 1h1Zm-16.79-16.758V5.87h-2v8.187h2Zm-.73-7.224L26.69 1.963 26.151.037 8.756 4.906l.54 1.926ZM3 15.056h6.026v-2H3v2Zm6.026 0h6.093v-2H9.026v2Zm5.093-1V38h2V14.056h-2Zm1 22.944H3v2h12.119v-2ZM4 38V14.056H2V38h2Zm4.06-19.106v3.68h2v-3.68h-2Zm0 8.547v3.68h2v-3.68h-2ZM15.119 39h11.302v-2H15.119v2ZM25.421 1v16.5h2V1h-2ZM37 25.073H20.074v2H37v-2Zm-17.926 1v9.808h2v-9.808h-2Zm0 9.808c0 1.7 1.35 3.119 3.068 3.119v-2c-.567 0-1.068-.478-1.068-1.119h-2ZM22.142 39h12.79v-2h-12.79v2Zm12.79 0C36.65 39 38 37.58 38 35.881h-2c0 .641-.501 1.119-1.067 1.119v2ZM38 35.881v-9.808h-2v9.808h2Zm-6.29-10.808h-6.346v2h6.347v-2Zm-5.346 1V24.46h-2v1.613h2Zm0-1.613c0-.376.291-.64.6-.64v-2c-1.46 0-2.6 1.206-2.6 2.64h2Zm.6-.64h3.147v-2h-3.147v2Zm3.147 0c.308 0 .6.264.6.64h2c0-1.434-1.141-2.64-2.6-2.64v2Zm.6.64v1.613h2V24.46h-2Zm-11.637 1.613c0 3.817 3.46 6.703 7.585 7.359l.313-1.976c-3.571-.567-5.898-2.92-5.898-5.383h-2Zm11.342 7.359C34.54 32.776 38 29.89 38 26.073h-2c0 2.463-2.327 4.816-5.898 5.383l.314 1.976Zm-1.157-.853c0 .446-.346.764-.722.764v2c1.527 0 2.722-1.26 2.722-2.764h-2Zm-.722.764c-.375 0-.721-.319-.721-.764h-2c0 1.503 1.195 2.764 2.721 2.764v-2Zm-1.721-1.529h3.443v-2h-3.444v2Zm1 .765v-.135h-2v.135h2Zm0-.135v-1.63h-2v1.63h2Zm1.443-1.63v1.63h2v-1.63h-2Zm0 1.63v.135h2v-.135h-2Z"/>
</svg>