<svg width="40" height="40" viewBox="0 0 40 40" fill="none" xmlns="http://www.w3.org/2000/svg">
<path d="M9.02594 14.0564L9.02594 15.0564L9.02594 15.0564L9.02594 14.0564ZM9.02594 5.86855L8.75641 4.90555C8.32452 5.02643 8.02594 5.42006 8.02594 5.86855H9.02594ZM26.4206 1H27.4206C27.4206 0.687158 27.2742 0.392344 27.025 0.203279C26.7757 0.0142139 26.4524 -0.0473122 26.1511 0.0370077L26.4206 1ZM3 14.0564L3 13.0564C2.73478 13.0564 2.48043 13.1617 2.29289 13.3493C2.10536 13.5368 2 13.7911 2 14.0564H3ZM15.119 14.0564H16.119C16.119 13.7911 16.0136 13.5368 15.8261 13.3493C15.6386 13.1617 15.3842 13.0564 15.119 13.0564L15.119 14.0564ZM3 37.9999H2C2 38.5522 2.44772 38.9999 3 38.9999V37.9999ZM10.0595 18.894C10.0595 18.3417 9.61178 17.894 9.0595 17.894C8.50721 17.894 8.0595 18.3417 8.0595 18.894H10.0595ZM8.0595 22.5736C8.0595 23.1259 8.50721 23.5736 9.0595 23.5736C9.61178 23.5736 10.0595 23.1259 10.0595 22.5736H8.0595ZM10.0595 27.4405C10.0595 26.8883 9.61178 26.4405 9.0595 26.4405C8.50721 26.4405 8.0595 26.8883 8.0595 27.4405H10.0595ZM8.0595 31.1202C8.0595 31.6724 8.50721 32.1202 9.0595 32.1202C9.61178 32.1202 10.0595 31.6724 10.0595 31.1202H8.0595ZM25.4206 17.5C25.4206 18.0523 25.8683 18.5 26.4206 18.5C26.9729 18.5 27.4206 18.0523 27.4206 17.5H25.4206ZM37 26.0733H38C38 25.521 37.5523 25.0733 37 25.0733V26.0733ZM20.0744 26.0733V25.0733C19.5221 25.0733 19.0744 25.521 19.0744 26.0733H20.0744ZM31.7107 26.0733V27.0733C32.263 27.0733 32.7107 26.6255 32.7107 26.0733H31.7107ZM25.3636 26.0733H24.3636C24.3636 26.6255 24.8114 27.0733 25.3636 27.0733V26.0733ZM30.2589 30.8141H31.2589C31.2589 30.2618 30.8112 29.8141 30.2589 29.8141V30.8141ZM26.8155 30.8141V29.8141C26.2632 29.8141 25.8155 30.2618 25.8155 30.8141H26.8155ZM10.0259 14.0564V5.86855H8.02594V14.0564H10.0259ZM9.29546 6.83154L26.6901 1.96299L26.1511 0.0370077L8.75641 4.90555L9.29546 6.83154ZM3 15.0564L9.02594 15.0564L9.02594 13.0564L3 13.0564L3 15.0564ZM9.02594 15.0564L15.119 15.0564L15.119 13.0564L9.02594 13.0564L9.02594 15.0564ZM14.119 14.0564V37.9999H16.119V14.0564H14.119ZM15.119 36.9999H3V38.9999H15.119V36.9999ZM4 37.9999V14.0564H2V37.9999H4ZM8.0595 18.894V22.5736H10.0595V18.894H8.0595ZM8.0595 27.4405V31.1202H10.0595V27.4405H8.0595ZM15.119 38.9999L26.4206 39L26.4206 37L15.119 36.9999L15.119 38.9999ZM25.4206 1V17.5H27.4206V1H25.4206ZM37 25.0733H20.0744V27.0733H37V25.0733ZM19.0744 26.0733V35.881H21.0744V26.0733H19.0744ZM19.0744 35.881C19.0744 37.5802 20.4246 39 22.1418 39V37C21.5754 37 21.0744 36.5224 21.0744 35.881H19.0744ZM22.1418 39H34.9326V37H22.1418V39ZM34.9326 39C36.6498 39 38 37.5802 38 35.881H36C36 36.5224 35.499 37 34.9326 37V39ZM38 35.881V26.0733H36V35.881H38ZM31.7107 25.0733H25.3636V27.0733H31.7107V25.0733ZM26.3636 26.0733V24.4605H24.3636V26.0733H26.3636ZM26.3636 24.4605C26.3636 24.0837 26.6554 23.8205 26.9637 23.8205V21.8205C25.5047 21.8205 24.3636 23.0259 24.3636 24.4605H26.3636ZM26.9637 23.8205H30.1106V21.8205H26.9637V23.8205ZM30.1106 23.8205C30.419 23.8205 30.7107 24.0837 30.7107 24.4605H32.7107C32.7107 23.0259 31.5697 21.8205 30.1106 21.8205V23.8205ZM30.7107 24.4605V26.0733H32.7107V24.4605H30.7107ZM19.0744 26.0733C19.0744 29.8896 22.5334 32.7763 26.6586 33.4318L26.9724 31.4565C23.401 30.889 21.0744 28.5361 21.0744 26.0733H19.0744ZM30.4158 33.4318C34.541 32.7763 38 29.8896 38 26.0733H36C36 28.5361 33.6734 30.889 30.102 31.4565L30.4158 33.4318ZM29.2589 32.5788C29.2589 33.0245 28.9127 33.3434 28.5372 33.3434V35.3434C30.0635 35.3434 31.2589 34.0823 31.2589 32.5788H29.2589ZM28.5372 33.3434C28.1616 33.3434 27.8155 33.0245 27.8155 32.5788H25.8155C25.8155 34.0823 27.0109 35.3434 28.5372 35.3434V33.3434ZM26.8155 31.8141H30.2589V29.8141H26.8155V31.8141ZM27.8155 32.5788V32.4441H25.8155V32.5788H27.8155ZM27.8155 32.4441V30.8141H25.8155V32.4441H27.8155ZM29.2589 30.8141V32.4441H31.2589V30.8141H29.2589ZM29.2589 32.4441V32.5788H31.2589V32.4441H29.2589Z" fill="#7BC696"/>
</svg>
