<svg width="40" height="40" viewBox="0 0 40 40" fill="none" xmlns="http://www.w3.org/2000/svg">
<path d="M1 21.8571L3.36515 20.148M39 12.4286L36.6349 10.5553M3.36515 36V20.148M36.6349 36V10.5553M17.6349 36V9.83643M8.09544 36V21.8571H17.6349M8.09546 26.5714H17.6349M17.6349 31.2857H8.09546M22.3651 36V21.8571H31.9046V36M1 36H39M3.36515 20.148L17.6349 9.83643M17.6349 9.83643L27.0954 3L36.6349 10.5553M29.4606 14.7857C29.4606 16.0875 28.4016 17.1429 27.0954 17.1429C25.7892 17.1429 24.7303 16.0875 24.7303 14.7857C24.7303 13.4839 25.7892 12.4286 27.0954 12.4286C28.4016 12.4286 29.4606 13.4839 29.4606 14.7857Z" stroke="#7BC696" stroke-width="2" stroke-miterlimit="10" stroke-linecap="round" stroke-linejoin="round"/>
</svg>
