<svg xmlns="http://www.w3.org/2000/svg" width="40" height="40" viewBox="0 0 40 40" fill="none">
 <path stroke="#7BC696" stroke-linecap="round" stroke-linejoin="round" stroke-miterlimit="10" stroke-width="2" d="m1 21.857 2.365-1.709M39 12.428l-2.365-1.873M3.365 36V20.148M36.635 36V10.555M17.635 36V9.836M8.095 36V21.857h9.54m-9.54 4.714h9.54m0 4.715h-9.54M22.365 36V21.857h9.54V36M1 36h38M3.365 20.148l14.27-10.312m0 0L27.095 3l9.54 7.555m-7.174 4.23a2.361 2.361 0 0 1-2.366 2.358 2.361 2.361 0 0 1-2.365-2.357 2.361 2.361 0 0 1 2.365-2.357 2.361 2.361 0 0 1 2.366 2.357Z"/>
</svg>