<svg xmlns="http://www.w3.org/2000/svg" width="40" height="40" viewBox="0 0 40 40" fill="none">
 <path stroke="#7BC696" stroke-miterlimit="10" stroke-width="2" d="M25.763 9.818 14.237 4m11.526 5.818 7.04-3.645a2.859 2.859 0 0 1 2.818.106c.421.26.77.624 1.01 1.06.242.434.369.924.369 1.422v19.643a2.93 2.93 0 0 1-.423 1.517 2.892 2.892 0 0 1-1.143 1.072L25.763 36m0-26.182V36M14.237 4l-9.67 5.007a2.892 2.892 0 0 0-1.144 1.072A2.93 2.93 0 0 0 3 11.596v19.643c0 .498.127.988.368 1.423.242.435.59.8 1.011 1.06a2.861 2.861 0 0 0 2.817.105l7.041-3.645m0-26.182v26.182m0 0L25.763 36"/>
</svg>