<svg xmlns="http://www.w3.org/2000/svg" width="40" height="40" viewBox="0 0 40 40" fill="none">
 <path stroke="#7BC696" stroke-linecap="round" stroke-linejoin="round" stroke-miterlimit="10" stroke-width="2" d="M7.985 23.462s2.063-2.308 4.606-2.308c.877 0 1.697.274 2.394.633a14.885 14.885 0 0 0 6.818 1.675 4.61 4.61 0 0 1 4.606 4.615h-9.212M7.985 23.46v9.231m0-9.23H1V35h6.985v-2.308m14.97-4.615h2.797a4.6 4.6 0 0 0 2.946-1.068l1.6-1.335c2.22-1.85 5.53-1.81 7.702.095L26.32 35c-3.49 0-9.9-.194-18.335-2.308m20.727-18.461a2.305 2.305 0 0 0 2.303-2.308 2.305 2.305 0 0 0-2.303-2.308 2.305 2.305 0 0 0-2.303 2.308 2.305 2.305 0 0 0 2.303 2.308Zm0-9.231c-2.999 0-5.531 1.935-6.485 4.615h-5.03V7.308h-4.606v2.307h-2.303v4.616h11.94c.953 2.68 3.485 4.615 6.484 4.615 3.81 0 6.908-3.105 6.908-6.923S32.521 5 28.712 5Z"/>
</svg>