<svg width="40" height="40" viewBox="0 0 40 40" fill="none" xmlns="http://www.w3.org/2000/svg">
<path d="M7.98548 23.4615C7.98548 23.4615 10.0476 21.1538 12.5913 21.1538C13.468 21.1538 14.2875 21.4279 14.985 21.7872C17.0981 22.8755 19.4271 23.4615 21.8029 23.4615C24.3466 23.4615 26.4087 25.5279 26.4087 28.0769H17.1971M7.98548 23.4615V32.6923M7.98548 23.4615L1 23.4615V35H7.98548V32.6923M22.9544 28.0769H25.7518C26.8283 28.0769 27.8708 27.699 28.6983 27.0089L30.2986 25.6742C32.5178 23.8232 35.8274 23.8635 38 25.7692L26.3207 35C22.8299 35 16.4205 34.8055 7.98548 32.6923M28.7116 14.2308C29.9834 14.2308 31.0145 13.1975 31.0145 11.9231C31.0145 10.6486 29.9834 9.61539 28.7116 9.61539C27.4398 9.61539 26.4087 10.6486 26.4087 11.9231C26.4087 13.1975 27.4398 14.2308 28.7116 14.2308ZM28.7116 5C25.7133 5 23.181 6.935 22.2273 9.61538H17.1971V7.30769H12.5913V9.61538H10.2884V14.2308H22.2273C23.181 16.9112 25.7133 18.8462 28.7116 18.8462C32.5213 18.8462 35.6203 15.7407 35.6203 11.9231C35.6203 8.10546 32.5213 5 28.7116 5Z" stroke="#7BC696" stroke-width="2" stroke-miterlimit="10" stroke-linecap="round" stroke-linejoin="round"/>
</svg>
