<svg width="40" height="40" viewBox="0 0 40 40" fill="none" xmlns="http://www.w3.org/2000/svg">
<path d="M15 24H8C7.44772 24 7 23.5523 7 23V10C7 9.44772 7.44772 9 8 9H15M15 24H24C24.5523 24 25 23.5523 25 23V10C25 9.44772 24.5523 9 24 9H15M15 24V9M13 17.5H11M2 36H38C38.5523 36 39 35.5523 39 35V5C39 4.44772 38.5523 4 38 4H2C1.44772 4 1 4.44772 1 5V35C1 35.5523 1.44772 36 2 36Z" stroke="#7BC696" stroke-width="2"/>
<path d="M34.9411 22.3382C35.1279 21.8184 34.8579 21.2457 34.3382 21.0589C33.8184 20.8721 33.2457 21.1421 33.0589 21.6618L34.9411 22.3382ZM33.0589 21.6618L31.4119 26.2451L33.294 26.9215L34.9411 22.3382L33.0589 21.6618ZM31.3529 26.5833V32H33.3529V26.5833H31.3529ZM32.3529 25.5833H28V27.5833H32.3529V25.5833ZM26 27.5833V32H28V27.5833H26ZM28 25.5833C26.8954 25.5833 26 26.4788 26 27.5833H28L28 27.5833V25.5833Z" fill="#7BC696"/>
</svg>
