<svg xmlns="http://www.w3.org/2000/svg" width="40" height="40" viewBox="0 0 40 40" fill="none">
 <path stroke="#7BC696" stroke-width="2" d="M15 24H8a1 1 0 0 1-1-1V10a1 1 0 0 1 1-1h7m0 15h9a1 1 0 0 0 1-1V10a1 1 0 0 0-1-1h-9m0 15V9m-2 8.5h-2M2 36h36a1 1 0 0 0 1-1V5a1 1 0 0 0-1-1H2a1 1 0 0 0-1 1v30a1 1 0 0 0 1 1Z"/>
 <path fill="#7BC696" d="M34.941 22.338a1 1 0 0 0-1.882-.676l1.882.676Zm-1.882-.676-1.647 4.583 1.882.677 1.647-4.584-1.882-.676Zm-1.706 4.921V32h2v-5.417h-2Zm1-1H28v2h4.353v-2Zm-6.353 2V32h2v-4.417h-2Zm2-2a2 2 0 0 0-2 2h2v-2Z"/>
</svg>