<svg width="30" height="30" viewBox="0 0 30 30" fill="none" xmlns="http://www.w3.org/2000/svg">
<rect width="30" height="30" fill="white"/>
<path d="M26 13.5605H21.1727C20.3176 13.5605 19.4788 13.7146 18.6796 14.0184L16.1306 14.9875C15.4849 15.2329 14.8072 15.3574 14.1165 15.3574H5.74023V13.7715H7.09962V12.4238H5.74023V5.89746C5.74023 5.04291 6.43549 4.34766 7.29004 4.34766C8.14459 4.34766 8.83984 5.04291 8.83984 5.89746V6.94751C8.05546 7.22562 7.49219 7.97501 7.49219 8.8535V10.8691H11.5352V8.8535C11.5352 7.97501 10.9719 7.22562 10.1875 6.94751V5.89746C10.1875 4.29981 8.88769 3 7.29004 3C5.69239 3 4.39258 4.29981 4.39258 5.89746V15.3574H3V16.7051H4.39258V20.2568C4.39258 22.4613 6.01587 24.2937 8.1299 24.6216V26H9.47755V24.6738H19.5225V26H20.8701V24.6216C22.9842 24.2937 24.6074 22.4612 24.6074 20.2568V14.9082H26V13.5605ZM10.1875 9.52149H8.83984V8.8535C8.83984 8.48195 9.14212 8.17967 9.51367 8.17967C9.88522 8.17967 10.1875 8.48195 10.1875 8.8535V9.52149ZM11.5801 16.7051V19.9199H9.7461V16.7051H11.5801ZM23.2598 20.2568C23.2598 21.9493 21.8829 23.3262 20.1904 23.3262H8.80957C7.11714 23.3262 5.74023 21.9493 5.74023 20.2568V16.7051H8.39844V21.2676H12.9277V16.7051H14.1164C14.9715 16.7051 15.8102 16.551 16.6095 16.2472L19.1584 15.2781C19.8041 15.0327 20.4818 14.9082 21.1726 14.9082H23.2598V20.2568Z" fill="#20A052"/>
</svg>
