<svg width="30" height="30" viewBox="0 0 30 30" fill="none" xmlns="http://www.w3.org/2000/svg">
<rect width="30" height="30" fill="white"/>
<path d="M25.9381 18.3448C25.9381 18.0327 25.691 16.7236 24.977 15.2949C25.1668 12.8535 25.4119 6.86691 23.6431 5.18108C23.4817 5.02715 23.2531 4.96599 23.0364 5.01841C20.6638 5.59304 18.7154 7.27411 17.7965 9.54261C16.2467 9.17773 14.7404 9.17031 13.2225 9.53797C13.1982 9.54384 12.0396 6.00078 7.98377 5.01841C7.767 4.96599 7.53851 5.02723 7.37704 5.18108C5.27135 7.18818 6.05215 15.2396 6.03641 15.2686C6.03641 15.3234 5.28722 16.5254 5.05979 18.3635C4.83191 20.0306 5.32887 21.2006 5.32887 21.2422C6.69254 25.0409 11.4549 26 15.5 26C19.5426 26 24.3141 25.0394 25.6712 21.2422C25.6712 21.2381 26.1712 19.9464 25.9381 18.3448ZM22.9491 6.40384C24.0234 8.16743 23.7678 13.432 23.7642 13.4279C22.4576 11.7922 20.788 10.6081 19.0527 9.93751C19.7924 8.19622 21.2427 6.93799 22.9491 6.40384ZM8.07088 6.4038C9.77902 6.93831 11.2265 8.19774 11.9649 9.93098C10.2198 10.6002 8.55112 11.7886 7.2507 13.4094C7.19253 11.6801 7.17306 7.87532 8.07088 6.4038ZM22.1405 23.3537C18.8908 25.1421 12.1117 25.1435 8.85959 23.3537C8.06146 22.9144 7.44943 22.373 7.02597 21.7344H8.94116C9.30338 21.7344 9.59705 21.4406 9.59705 21.0782C9.59705 20.7157 9.30338 20.4219 8.94116 20.4219H6.45412C6.34947 19.996 6.30737 19.5413 6.31926 19.1094H8.94116C9.30338 19.1094 9.59705 18.8156 9.59705 18.4531C9.59705 18.0907 9.30338 17.7969 8.94116 17.7969H6.48815C7.15633 14.8877 9.6915 11.9895 13.0048 10.9588C18.3145 9.30968 23.4857 13.3285 24.512 17.7969H22.0589C21.6967 17.7969 21.4031 18.0907 21.4031 18.4531C21.4031 18.8156 21.6967 19.1094 22.0589 19.1094H24.6808C24.6927 19.5409 24.6507 19.9956 24.546 20.4219H22.0589C21.6967 20.4219 21.4031 20.7157 21.4031 21.0782C21.4031 21.4406 21.6967 21.7344 22.0589 21.7344H23.9741C23.5506 22.373 22.9386 22.9144 22.1405 23.3537Z" fill="#20A052"/>
<path d="M19.1074 20.9141C18.7452 20.9141 18.4515 21.2079 18.4515 21.5703C18.4515 22.2036 17.9366 22.7188 17.3037 22.7188C16.7828 22.7188 16.3421 22.3697 16.2024 21.8931C17.3024 21.3509 17.8873 19.5925 17.1193 18.8301C16.6652 18.3793 16.0084 18.4579 15.3317 18.4522C14.8098 18.4486 14.2698 18.444 13.8808 18.8301C13.1042 19.6011 13.7088 21.3564 14.7977 21.8931C14.6579 22.3697 14.2172 22.7188 13.6963 22.7188C13.0635 22.7188 12.5485 22.2036 12.5485 21.5703C12.5485 21.2079 12.2549 20.9141 11.8927 20.9141C11.5304 20.9141 11.2368 21.2079 11.2368 21.5703C11.2368 23.8116 13.9888 24.8731 15.5 23.2411C17.0105 24.8723 19.7633 23.8133 19.7633 21.5703C19.7633 21.2079 19.4697 20.9141 19.1074 20.9141ZM16.1558 19.7769C16.1496 20.2398 15.7628 20.75 15.5 20.75C15.2372 20.75 14.8504 20.2398 14.8442 19.7769C14.9993 19.7582 16.0147 19.7599 16.1558 19.7769Z" fill="#20A052"/>
<path d="M12.3846 17.1406C13.0175 17.1406 13.5324 16.6255 13.5324 15.9922C13.5324 15.3589 13.0175 14.8438 12.3846 14.8438C11.7516 14.8438 11.2368 15.3589 11.2368 15.9922C11.2368 16.6255 11.7516 17.1406 12.3846 17.1406Z" fill="#20A052"/>
<path d="M18.6155 14.8438C17.9826 14.8438 17.4677 15.3589 17.4677 15.9922C17.4677 16.6255 17.9826 17.1406 18.6155 17.1406C19.2484 17.1406 19.7633 16.6255 19.7633 15.9922C19.7633 15.3589 19.2484 14.8438 18.6155 14.8438Z" fill="#20A052"/>
</svg>
