<svg width="30" height="30" viewBox="0 0 30 30" fill="none" xmlns="http://www.w3.org/2000/svg">
<rect width="30" height="30" fill="white"/>
<path d="M13.2824 16.311C13.2824 15.0303 12.243 13.9885 10.9654 13.9885C9.68787 13.9885 8.64846 15.0303 8.64846 16.311H10.0547C10.0547 15.8076 10.4633 15.3981 10.9654 15.3981C11.4676 15.3981 11.8761 15.8076 11.8761 16.311H13.2824Z" fill="#20A052"/>
<path d="M19.0346 13.9884C17.757 13.9884 16.7176 15.0303 16.7176 16.3109H18.1239C18.1239 15.8076 18.5324 15.3981 19.0346 15.3981C19.5367 15.3981 19.9453 15.8076 19.9453 16.3109H21.3515C21.3515 15.0303 20.3122 13.9884 19.0346 13.9884Z" fill="#20A052"/>
<path d="M15 20.4356C14.1109 20.4356 13.2773 19.9577 12.8244 19.1883L11.6133 19.9046C12.3179 21.1017 13.6156 21.8452 15 21.8452C16.3843 21.8452 17.682 21.1017 18.3867 19.9046L17.1755 19.1882C16.7227 19.9576 15.889 20.4356 15 20.4356Z" fill="#20A052"/>
<path d="M26.085 13.8144C25.6372 13.366 25.0748 13.0695 24.4644 12.9534C23.1461 8.86973 19.3219 6.05808 15 6.05808H14.5286C13.3965 6.05808 12.4755 5.13478 12.4755 4H11.0692C11.0692 4.77006 11.3212 5.48201 11.7464 6.05808H11.3009C10.1688 6.05808 9.24781 5.13478 9.24781 4H7.84156C7.84156 5.53161 8.83757 6.83356 10.2141 7.29143C8.03702 8.49121 6.33063 10.4908 5.53568 12.9534C4.92524 13.0695 4.3627 13.3661 3.91448 13.8149C3.32476 14.4067 3 15.193 3 16.029C3 16.8548 3.31779 17.6339 3.89489 18.2229C4.34591 18.6832 4.91552 18.9869 5.53568 19.1048C6.8539 23.1884 10.6781 26 15 26C19.3219 26 23.1461 23.1884 24.4643 19.1048C25.0845 18.9869 25.6541 18.6832 26.1051 18.2229C26.6822 17.6339 27 16.8548 27 16.029C27 15.193 26.6752 14.4067 26.085 13.8144ZM23.9103 17.7498L23.3826 17.7599L23.2449 18.2706C22.241 21.9915 18.8506 24.5903 15 24.5903C11.1493 24.5903 7.75893 21.9916 6.75514 18.2706L6.61736 17.7599L6.08968 17.7498C5.1614 17.7322 4.4062 16.9603 4.4062 16.029C4.4062 15.5692 4.58487 15.1367 4.90873 14.8117C5.22458 14.4954 5.64397 14.3166 6.08954 14.3082L6.61731 14.2983L6.7551 13.7875C7.75893 10.0666 11.1493 7.46778 15 7.46778C16.2709 7.46778 17.3049 8.50424 17.3049 9.77824C17.3049 11.0522 16.2709 12.0887 15 12.0887C13.7291 12.0887 12.6951 11.0523 12.6951 9.77829H11.2889C11.2889 11.8296 12.9537 13.4984 15 13.4984C17.0463 13.4984 18.7111 11.8296 18.7111 9.77829C18.7111 9.19452 18.5759 8.64198 18.3359 8.14978C20.6944 9.15543 22.5468 11.2 23.2449 13.7875L23.3826 14.2983L23.9104 14.3083C24.356 14.3166 24.7754 14.4954 25.0907 14.8111C25.4151 15.1367 25.5938 15.5693 25.5938 16.0291C25.5938 16.9604 24.8386 17.7323 23.9103 17.7498Z" fill="#20A052"/>
</svg>
