<svg width="30" height="30" viewBox="0 0 30 30" fill="none" xmlns="http://www.w3.org/2000/svg">
<rect width="30" height="30" fill="white"/>
<path d="M23.2196 6H6.78038C5.24725 6 4 7.21226 4 8.70238V14.9065H26V8.70238C26 7.21226 24.7527 6 23.2196 6ZM22.0898 13.6536H7.91016V12.4198H22.0898V13.6536ZM24.7109 13.6536H23.3789V11.1669H6.62109V13.6536H5.28906V8.70238C5.28906 7.90311 5.95804 7.2529 6.78038 7.2529H23.2197C24.042 7.2529 24.7109 7.90311 24.7109 8.70238V13.6536Z" fill="#20A052"/>
<path d="M12.4219 8.49945H17.5781V9.75235H12.4219V8.49945Z" fill="#20A052"/>
<path d="M22.0898 8.49945H23.3789V9.75235H22.0898V8.49945Z" fill="#20A052"/>
<path d="M9.15066 16.1812H7.8616V19.7156C7.8616 20.0595 7.57371 20.3394 7.21986 20.3394C6.86602 20.3394 6.57812 20.0595 6.57812 19.7156V19.0892H5.28906V19.7156C5.28906 20.7504 6.15523 21.5923 7.21986 21.5923C8.2845 21.5923 9.15066 20.7504 9.15066 19.7156V16.1812Z" fill="#20A052"/>
<path d="M13.0683 16.1812H14.3573V22.0099H13.0683V16.1812Z" fill="#20A052"/>
<path d="M23.4237 19.7156C23.4237 20.0595 23.1358 20.3394 22.782 20.3394C22.4281 20.3394 22.1402 20.0595 22.1402 19.7156V16.1812H20.8512V19.7156C20.8512 20.7504 21.7173 21.5923 22.782 21.5923C23.8466 21.5923 24.7128 20.7504 24.7128 19.7156V19.0892H23.4237V19.7156Z" fill="#20A052"/>
<path d="M19.5248 21.7275V19.2353H18.2358V21.7275C18.2358 22.9806 19.2846 24 20.5738 24H21.2184V22.7471H20.5738C19.9954 22.7471 19.5248 22.2897 19.5248 21.7275Z" fill="#20A052"/>
<path d="M10.4761 21.7275C10.4761 22.2897 10.0055 22.7471 9.42712 22.7471H8.78259V24H9.42712C10.7163 24 11.7652 22.9806 11.7652 21.7275V19.2353H10.4761V21.7275Z" fill="#20A052"/>
<path d="M15.6445 16.1812H16.9336V20.757H15.6445V16.1812Z" fill="#20A052"/>
</svg>
