<svg width="30" height="30" viewBox="0 0 30 30" fill="none" xmlns="http://www.w3.org/2000/svg">
<rect width="30" height="30" fill="white"/>
<path fill-rule="evenodd" clip-rule="evenodd" d="M22.1163 5H7.88372C6.84504 5 6 5.82396 6 6.83673V23.1633C6 24.176 6.84504 25 7.88372 25H22.1163C23.155 25 24 24.176 24 23.1633V6.83673C24 5.82396 23.155 5 22.1163 5ZM22.7442 23.1633C22.7442 23.5009 22.4625 23.7755 22.1163 23.7755H7.88372C7.53749 23.7755 7.25581 23.5009 7.25581 23.1633V18.8776L7.26419 12.6799C7.26142 12.6823 7.25866 12.6848 7.2559 12.6873V8.67347H11.9681C12.2272 9.38616 12.9256 9.89796 13.7443 9.89796H16.2559C17.0746 9.89796 17.7729 9.38616 18.032 8.67347H22.7442V12.6873V17.6531V18.8776V19.0816V23.1633ZM22.7442 7.44898H17.5116C17.1649 7.44898 16.8837 7.7231 16.8837 8.06122C16.8837 8.39882 16.602 8.67347 16.2558 8.67347H13.7442C13.398 8.67347 13.1163 8.39882 13.1163 8.06122C13.1163 7.7231 12.8351 7.44898 12.4884 7.44898H7.25581V6.83673C7.25581 6.49914 7.53749 6.22449 7.88372 6.22449H22.1163C22.4625 6.22449 22.7442 6.49914 22.7442 6.83673V7.44898Z" fill="#20A052"/>
<path fill-rule="evenodd" clip-rule="evenodd" d="M12 19C13.1046 19 14 18.1046 14 17C14 15.8954 13.1046 15 12 15C10.8954 15 10 15.8954 10 17C10 18.1046 10.8954 19 12 19ZM12 20C13.6569 20 15 18.6569 15 17C15 15.3431 13.6569 14 12 14C10.3431 14 9 15.3431 9 17C9 18.6569 10.3431 20 12 20Z" fill="#20A052"/>
<path fill-rule="evenodd" clip-rule="evenodd" d="M16.5 17C16.5 15.7855 15.7301 15 15 15V14C16.4791 14 17.5 15.453 17.5 17C17.5 18.547 16.4791 20 15 20V19C15.7301 19 16.5 18.2145 16.5 17Z" fill="#20A052"/>
<path fill-rule="evenodd" clip-rule="evenodd" d="M19.5 17C19.5 15.7855 18.7301 15 18 15V14C19.4791 14 20.5 15.453 20.5 17C20.5 18.547 19.4791 20 18 20V19C18.7301 19 19.5 18.2145 19.5 17Z" fill="#20A052"/>
</svg>
