<svg width="30" height="30" viewBox="0 0 30 30" fill="none" xmlns="http://www.w3.org/2000/svg">
<rect width="30" height="30" fill="white"/>
<path d="M18.75 22.5833H15.75V20.4584H14.25V22.5833H11.25V20.4584H9.75V23.2917C9.75 23.4795 9.82902 23.6597 9.96967 23.7925C10.1103 23.9254 10.3011 24 10.5 24H19.5C19.6989 24 19.8897 23.9254 20.0303 23.7925C20.171 23.6597 20.25 23.4795 20.25 23.2917V20.4584H18.75V22.5833Z" fill="#20A052"/>
<path d="M10.8188 17.496C11.885 18.3047 13.3701 18.75 15 18.75C16.6299 18.75 18.115 18.3047 19.1813 17.496C20.3713 16.5943 21 15.3134 21 13.7917C21 12.5531 20.1881 10.5788 19.2272 9.48051C19.1188 9.35661 18.969 9.27121 18.8024 9.23834C18.6358 9.20547 18.4624 9.22708 18.3105 9.29962L16.9368 9.95598L15.7116 6.48447C15.6635 6.34816 15.5727 6.22889 15.4511 6.14247C15.3296 6.05605 15.1831 6.00658 15.0311 6.00061C14.8792 5.99465 14.7288 6.03247 14.6001 6.10907C14.4714 6.18567 14.3704 6.29742 14.3106 6.42948L12.409 10.62L11.2668 9.93004C11.1053 9.83249 10.9104 9.79706 10.7221 9.83101C10.5338 9.86497 10.3664 9.96573 10.2543 10.1126C9.51506 11.0813 9 12.829 9 13.7917C9 15.3134 9.62869 16.5943 10.8188 17.496ZM13.5 15.9167C13.5 15.4652 14.2049 14.4107 15 13.4718C15.7951 14.4108 16.5 15.4652 16.5 15.9167C16.5 16.2924 16.342 16.6528 16.0607 16.9185C15.7794 17.1841 15.3978 17.3334 15 17.3334C14.6022 17.3334 14.2206 17.1841 13.9393 16.9185C13.658 16.6528 13.5 16.2924 13.5 15.9167ZM11.1212 11.5237L12.3458 12.2634C12.4376 12.3189 12.5409 12.3548 12.6488 12.3686C12.7567 12.3825 12.8665 12.374 12.9705 12.3438C13.0746 12.3136 13.1705 12.2623 13.2514 12.1936C13.3324 12.1248 13.3966 12.0403 13.4394 11.9458L14.9123 8.69994L15.7884 11.1824C15.8225 11.279 15.8782 11.3675 15.9517 11.4418C16.0253 11.5162 16.1149 11.5748 16.2145 11.6135C16.3142 11.6522 16.4215 11.6702 16.5291 11.6662C16.6368 11.6623 16.7423 11.6365 16.8384 11.5905L18.4159 10.8369C19.0474 11.7793 19.5 13.0923 19.5 13.7917C19.5 15.1588 18.8365 16.0638 17.9071 16.617C17.9689 16.3882 18.0001 16.1529 18 15.9167C18 14.5416 15.9656 12.3308 15.5582 11.902C15.4878 11.828 15.4018 11.7688 15.3056 11.7283C15.2094 11.6877 15.1053 11.6668 15 11.6668C14.8947 11.6668 14.7906 11.6877 14.6944 11.7283C14.5982 11.7688 14.5122 11.828 14.4418 11.902C14.0344 12.3308 12 14.5416 12 15.9167C11.9999 16.1529 12.0311 16.3882 12.0929 16.617C11.1635 16.0638 10.5 15.1588 10.5 13.7917C10.5 13.241 10.7571 12.2651 11.1212 11.5237Z" fill="#20A052"/>
</svg>
