<svg width="30" height="30" viewBox="0 0 30 30" fill="none" xmlns="http://www.w3.org/2000/svg">
<rect width="30" height="30" fill="white"/>
<path d="M4.41176 11.4348H3V24H4.41176V21.7826H9.35294V24H10.7647C10.7647 23.2708 10.7647 18.0995 10.7647 17.3478H4.41176V11.4348ZM9.35294 18.8261V20.3043H4.41176V18.8261H9.35294Z" fill="#20A052"/>
<path d="M25.5882 11.4348V17.3478H19.2353V24H20.6471V21.7826H25.5882V24H27C27 22.7386 27 12.6962 27 11.4348H25.5882ZM25.5882 20.3043H20.6471V18.8261H25.5882V20.3043Z" fill="#20A052"/>
<path d="M22.7647 15.1304V13.6522H21.3529V12.0468C22.1745 11.7417 22.7647 10.9201 22.7647 9.95652V7H18.5294V9.95652C18.5294 10.9201 19.1196 11.7416 19.9412 12.0468V13.6522H18.4584C18.177 12.2062 17.0868 11.0647 15.7059 10.77V9.21739H14.2941V10.77C12.9132 11.0647 11.823 12.2062 11.5416 13.6522H10.0588V12.0468C10.8804 11.7417 11.4706 10.9201 11.4706 9.95652V7H7.23529V9.95652C7.23529 10.9201 7.82546 11.7416 8.64706 12.0468V13.6522H7.23529V15.1304H14.2941V24H15.7059V15.1304H22.7647ZM19.9412 8.47826H21.3529V9.95652C21.3529 10.3641 21.0363 10.6957 20.6471 10.6957C20.2578 10.6957 19.9412 10.3641 19.9412 9.95652V8.47826ZM8.64706 8.47826H10.0588V9.95652C10.0588 10.3641 9.74217 10.6957 9.35294 10.6957C8.96372 10.6957 8.64706 10.3641 8.64706 9.95652V8.47826ZM15 12.1739C15.9202 12.1739 16.7048 12.7919 16.9962 13.6522H13.0038C13.2952 12.7919 14.0798 12.1739 15 12.1739Z" fill="#20A052"/>
</svg>
