<svg width="30" height="30" viewBox="0 0 30 30" fill="none" xmlns="http://www.w3.org/2000/svg">
<rect width="30" height="30" fill="white"/>
<path d="M16.1157 5.36334C16.3343 4.96995 16.9214 4.87584 17.253 5.18076C17.4528 5.34734 17.5461 5.62214 17.5037 5.87719C17.2502 7.83094 15.9892 10.7847 15.7376 12.7394C17.2434 12.7441 19.7501 12.7356 21.2559 12.7432C21.7939 12.7234 22.1821 13.3746 21.9117 13.8396C19.9225 17.0883 15.9202 22.3295 13.9263 25.5754C13.7661 25.8907 13.3845 26.0751 13.0406 25.9707C12.691 25.8822 12.446 25.5152 12.4969 25.1594C12.7258 23.1934 13.9548 19.2274 14.1913 17.2624C12.727 17.252 10.2637 17.2605 8.79935 17.2577C8.4083 17.2859 8.03422 16.9688 8.00501 16.5773C7.96637 16.2836 8.15954 16.0399 8.30088 15.8037C10.242 12.6585 14.1756 8.50854 16.1157 5.36334ZM15.5503 9.15885C14.3979 11.0194 11.254 13.8847 10.1072 15.7491C11.4274 15.7585 13.7485 15.7453 15.0695 15.7557C15.4851 15.7566 15.8422 16.1632 15.7847 16.5754C15.6538 17.6953 14.5331 20.8171 14.3833 21.9333L14.4116 21.922C15.5583 20.0238 18.74 16.1453 19.8886 14.248C18.5553 14.2424 16.221 14.2489 14.8877 14.2452C14.4712 14.2631 14.1046 13.8866 14.1225 13.4725C14.2563 12.3677 15.4156 10.2647 15.5503 9.15885Z" fill="#20A052"/>
</svg>
