<svg width="30" height="30" viewBox="0 0 30 30" fill="none" xmlns="http://www.w3.org/2000/svg">
<rect width="30" height="30" fill="white"/>
<path d="M14.6426 6.07334C14.8473 5.97256 15.0944 5.97724 15.2982 6.07756C17.7118 7.13041 20.1258 8.18233 22.5394 9.23566C22.8109 9.33878 23.0042 9.60598 22.9989 9.89428C23.0004 11.7525 23.0004 13.6111 22.9989 15.4693C22.998 17.0402 22.5203 18.5965 21.7024 19.9419C21.5278 20.2377 21.1193 20.3675 20.8044 20.2203C20.5152 20.0956 20.3296 19.7708 20.3806 19.4633C20.4236 19.2973 20.5195 19.152 20.603 19.0034C21.2229 17.914 21.5765 16.6722 21.5707 15.4215C21.5717 13.7804 21.5683 12.1387 21.5722 10.4976C21.5617 10.4432 21.5946 10.3495 21.5216 10.3274C19.359 9.38332 17.1945 8.4425 15.0329 7.49605C14.9532 7.4459 14.8749 7.5148 14.8015 7.54106C12.6823 8.47719 10.5627 9.41144 8.44113 10.3415C8.43254 10.4085 8.42729 10.476 8.42872 10.544C8.43588 12.2639 8.42204 13.9833 8.4354 15.7033C8.53418 18.1779 9.98433 20.5658 12.1641 21.8146C13.2129 22.4184 14.4579 22.7053 15.669 22.5543C16.5761 22.4526 17.4498 22.117 18.208 21.6205C18.4051 21.4888 18.6079 21.32 18.8627 21.3365C19.2235 21.3252 19.5542 21.6313 19.568 21.9848C19.5904 22.2285 19.4673 22.4737 19.2636 22.612C18.4328 23.204 17.4799 23.6358 16.4744 23.8448C15.2681 24.1059 13.9907 24.0352 12.8193 23.6503C11.5094 23.2204 10.3384 22.4263 9.41505 21.4227C7.90716 19.7998 7.00052 17.6252 7.00147 15.4215C6.99957 13.5929 7.00243 11.7637 7.00052 9.93459C6.99145 9.69692 7.10121 9.45035 7.30782 9.3191C7.48868 9.20753 7.69291 9.14284 7.8833 9.05049C10.137 8.05905 12.3907 7.06854 14.6426 6.07334Z" fill="#20A052"/>
<path d="M14.0699 10.3865C14.6364 10.1132 15.3283 10.1076 15.899 10.371C16.4706 10.6246 16.9072 11.1445 17.0709 11.737C17.1988 12.2039 17.1067 12.691 17.1535 13.1663C17.9809 13.2699 18.6857 13.9876 18.7096 14.8149C18.7167 15.9231 18.7105 17.0318 18.7129 18.1399C18.7129 18.3668 18.7372 18.6162 18.5941 18.8117C18.45 19.0376 18.1737 19.13 17.9131 19.1309C17.2604 19.1375 16.6066 19.1459 15.9548 19.1154C15.6842 19.1525 15.4137 19.0962 15.1436 19.1323C14.7938 19.1 14.4445 19.1511 14.0938 19.1361C13.7908 19.1539 13.4887 19.0962 13.1872 19.1328C13.0435 19.144 12.9013 19.1145 12.7582 19.1211C12.5029 19.1515 12.2476 19.1014 11.9918 19.115C11.6158 19.1328 11.2732 18.7939 11.2889 18.4249C11.2885 17.2511 11.287 16.0769 11.2889 14.9031C11.2861 14.4287 11.4946 13.9585 11.8496 13.6374C12.1192 13.3763 12.4805 13.2282 12.8503 13.1663C12.8927 12.6891 12.8011 12.1992 12.9323 11.7309C13.0908 11.1496 13.5188 10.6471 14.0699 10.3865ZM14.7919 11.6081C14.5175 11.6897 14.299 11.9465 14.2933 12.2325C14.2899 12.54 14.2875 12.848 14.2918 13.156C14.7642 13.156 15.2362 13.156 15.7086 13.1564C15.7153 12.8635 15.7119 12.5705 15.711 12.278C15.7133 12.0839 15.6298 11.8908 15.4805 11.7628C15.2996 11.5922 15.0291 11.5523 14.7919 11.6081ZM12.7687 14.7263C12.7066 14.8206 12.719 14.9378 12.7162 15.0442C12.7224 15.94 12.7071 16.8358 12.7267 17.7307C14.2427 17.7288 15.7582 17.7283 17.2737 17.7312C17.2985 16.8049 17.2742 15.8776 17.2837 14.9509C17.309 14.7418 17.1272 14.5463 16.9115 14.5609C15.6537 14.5595 14.3954 14.5609 13.1375 14.5595C12.9977 14.551 12.8398 14.5993 12.7687 14.7263Z" fill="#20A052"/>
</svg>
