<svg width="30" height="30" viewBox="0 0 30 30" fill="none" xmlns="http://www.w3.org/2000/svg">
<rect width="30" height="30" fill="white"/>
<path d="M14.6568 5.08179C14.9506 4.91546 15.2881 5.03061 15.5615 5.18031L23.5329 10.5195C23.8537 10.6564 24 11.0108 23.9654 11.3435L22.4857 11.6378L15.0071 6.54166L7.51049 11.6442L6.08349 11.0774C6.0514 10.8138 6.26956 10.6091 6.49029 10.5093L14.6568 5.08179Z" fill="#20A052"/>
<path d="M9.89451 12.6997C10.2782 11.7989 11.206 11.1477 12.1942 11.1451C14.0767 11.1426 15.9606 11.1387 17.8432 11.1477C18.7979 11.1617 19.6885 11.7861 20.0786 12.6459C20.4675 13.5351 20.8371 14.4321 21.2195 15.3238C21.7803 15.3494 22.3667 15.2458 22.907 15.4416C23.5525 15.6885 24.0106 16.3513 23.9965 17.0434C23.9952 18.0286 24.008 19.0138 23.9914 19.999C23.9683 20.7155 23.4357 21.336 22.7645 21.5523C22.8018 22.256 22.7851 23.0736 22.1845 23.5598C21.53 24.1701 20.5817 23.9551 19.7719 23.9922C19.061 24.0319 18.3513 23.5994 18.087 22.9367C17.8958 22.5196 17.9509 22.0538 17.9458 21.6099C15.9798 21.6086 14.0126 21.6073 12.0466 21.6099C12.0466 22.137 12.103 22.7153 11.7912 23.1746C11.4575 23.7389 10.7902 24.037 10.146 23.9935C9.34013 23.9666 8.37896 24.1573 7.75785 23.5047C7.20347 23.0147 7.20476 22.233 7.23812 21.5561C6.56312 21.3335 6.02542 20.7091 6.0036 19.9875C5.99719 19.0049 6.00104 18.0222 6.00232 17.0396C5.98436 16.2681 6.56312 15.5337 7.32153 15.3725C7.80148 15.2816 8.29426 15.3379 8.77934 15.3251C9.15406 14.4512 9.51851 13.5723 9.89451 12.6997ZM11.2574 13.2639C10.9571 13.9446 10.6683 14.6317 10.3873 15.3213C13.4646 15.3277 16.5432 15.3226 19.6218 15.3238C19.3318 14.6496 19.0533 13.9702 18.7594 13.2984C18.59 12.8903 18.1704 12.5947 17.7225 12.6101C15.9195 12.6063 14.1165 12.6088 12.3148 12.6088C11.8682 12.5832 11.4344 12.857 11.2574 13.2639ZM7.59744 16.8234C7.57049 16.8554 7.51659 16.9193 7.48964 16.9513C7.455 17.9186 7.47938 18.8897 7.47681 19.8595C7.43446 20.0527 7.64364 20.173 7.81431 20.1423C12.6626 20.1359 17.5121 20.1525 22.3603 20.1333C22.3962 20.1026 22.4694 20.0425 22.5066 20.0131C22.5502 19.0317 22.5181 18.0453 22.522 17.0626C22.5605 16.8016 22.2653 16.7837 22.0818 16.8003C17.2541 16.8183 12.4226 16.7709 7.59744 16.8234ZM8.70363 21.6111C8.75111 21.8977 8.57017 22.32 8.86019 22.508C9.37222 22.5349 9.88938 22.5311 10.4027 22.5119C10.7248 22.3609 10.5156 21.8926 10.5747 21.6086C9.95098 21.6086 9.3273 21.606 8.70363 21.6111ZM19.4254 21.6073C19.4216 21.8862 19.4254 22.1664 19.4383 22.4453C19.9965 22.5925 20.6022 22.5234 21.1733 22.4927C21.403 22.2803 21.2464 21.8875 21.2913 21.6086C20.6689 21.6086 20.0478 21.6099 19.4254 21.6073Z" fill="#20A052"/>
<path d="M12.3661 17.7561C14.0549 17.7024 15.7501 17.7433 17.4402 17.7356C17.8714 17.7139 18.2423 18.1412 18.1717 18.5634C18.1332 18.9601 17.7315 19.248 17.3414 19.2006C15.7103 19.1942 14.0793 19.216 12.4495 19.1891C11.6796 19.1264 11.6154 17.9135 12.3661 17.7561Z" fill="#20A052"/>
<path d="M9.39275 17.8367C9.84831 17.5296 10.4887 17.925 10.4938 18.4521C10.5439 19.0343 9.75078 19.4399 9.31319 19.0432C8.90895 18.7515 8.93205 18.0606 9.39275 17.8367Z" fill="#20A052"/>
<path d="M19.8143 17.8776C20.2159 17.5386 20.882 17.829 20.959 18.3331C21.1091 18.8782 20.4521 19.3874 19.9529 19.1405C19.4562 18.9396 19.3446 18.1706 19.8143 17.8776Z" fill="#20A052"/>
</svg>
