<svg width="30" height="30" viewBox="0 0 30 30" fill="none" xmlns="http://www.w3.org/2000/svg">
<rect width="30" height="30" fill="white"/>
<path d="M21.4004 9.80804H14.9551V14.0016H21.4004V9.80804ZM20.1113 12.7313H16.2441V11.0784H20.1113V12.7313Z" fill="#20A052"/>
<path d="M17.5332 15.8153H18.8223V17.0856H17.5332V15.8153Z" fill="#20A052"/>
<path d="M17.5332 18.3572H18.8223V19.6275H17.5332V18.3572Z" fill="#20A052"/>
<path d="M14.9551 15.8153H16.2441V17.0856H14.9551V15.8153Z" fill="#20A052"/>
<path d="M14.9551 18.3572H16.2441V19.6275H14.9551V18.3572Z" fill="#20A052"/>
<path d="M20.1113 15.8153H21.4004V17.0856H20.1113V15.8153Z" fill="#20A052"/>
<path d="M20.1113 18.3572H21.4004V19.6275H20.1113V18.3572Z" fill="#20A052"/>
<path fill-rule="evenodd" clip-rule="evenodd" d="M24 7.27039H7.40039V8.54074H8H12.3555V20.8949H8H7.4668V22.1652L24 22.1652V7.27039ZM22.7109 20.8949H13.6445V8.54074H22.7109V20.8949Z" fill="#20A052"/>
<path d="M7.40039 8.54074V7.27039H6.5V20.8949H7.4668H8V8.54074H7.40039Z" fill="#20A052"/>
<path d="M7.4668 22.1652V20.8949H6.5V22.1652H7.4668Z" fill="#20A052"/>
<path d="M9.17773 22.1652V23.0945C9.17773 24.1452 10.0451 25 11.1113 25H15.8887C16.9549 25 17.8223 24.1452 17.8223 23.0945V22.1652L16.5332 22.1652V23.0945C16.5332 23.4447 16.2441 23.7297 15.8887 23.7297H11.1113C10.7559 23.7297 10.4668 23.4447 10.4668 23.0945V22.1652L9.17773 22.1652Z" fill="#20A052"/>
</svg>
