<svg width="30" height="30" viewBox="0 0 30 30" fill="none" xmlns="http://www.w3.org/2000/svg">
<rect width="30" height="30" fill="white"/>
<path d="M5 4.01666C6.28807 3.98385 7.57823 4.01119 8.86734 4.00244C8.86734 5.02822 8.86838 6.05291 8.8663 7.0776C9.76285 7.0776 10.6594 7.0776 11.5559 7.0776C11.5559 7.46145 11.5559 7.8453 11.5559 8.22915C12.717 8.25868 13.9009 8.1176 15.0349 8.45224C17.6152 9.12698 19.7654 11.3448 20.4225 14.0558C20.7141 15.3998 20.8578 16.7733 21.1098 18.125C21.3784 18.3558 21.6262 18.697 22.0084 18.6893C22.5957 18.7516 22.8893 18.1184 23.3433 17.856C23.8306 17.5071 24.4377 17.5323 25 17.5454C25 20.0289 24.999 22.5136 25 24.9982C18.3358 25.0015 11.6715 24.9993 5.00729 24.9993C5.00208 18.0047 5.0177 11.0101 5 4.01666ZM6.1777 5.23382C6.18082 11.4115 6.17666 17.5902 6.17978 23.7679C6.68585 23.7668 7.19295 23.7756 7.70006 23.7624C7.69173 17.5859 7.69798 11.4093 7.69589 5.23163C7.18983 5.23382 6.68376 5.23163 6.1777 5.23382ZM8.8663 8.30898C8.86838 9.61363 8.8663 10.9194 8.86734 12.224C9.37341 12.224 9.87843 12.224 10.3845 12.224C10.3845 10.9194 10.3855 9.61363 10.3845 8.30898C9.87843 8.30898 9.37236 8.30789 8.8663 8.30898ZM11.5559 9.47037C11.5559 9.99857 11.557 10.5279 11.5549 11.0572C11.9204 11.0615 12.2859 11.0615 12.6514 11.055C12.6462 10.5257 12.6555 9.99748 12.6451 9.46928C12.2817 9.46818 11.9183 9.466 11.5559 9.47037ZM13.8166 9.49443C13.8155 10.0314 13.8145 10.5694 13.8176 11.1075C15.4785 11.3666 16.8457 12.9316 16.9248 14.6977C16.9467 15.9991 16.9248 17.3015 16.9363 18.604C17.2112 18.7057 17.5423 18.7473 17.7995 18.569C18.1244 18.3404 18.3701 18.0014 18.7179 17.8057C19.048 17.5979 19.4374 17.5421 19.8165 17.5388C19.6884 16.6837 19.5499 15.8307 19.4145 14.9777C19.2198 13.7288 18.6773 12.5401 17.8609 11.6083C16.8269 10.4043 15.3525 9.64316 13.8166 9.49443ZM11.558 13.451C10.6604 13.4576 9.76389 13.451 8.86734 13.4532C8.8663 15.017 8.86942 16.5809 8.86526 18.1458C9.55251 17.4295 10.7354 17.3322 11.506 17.9544C11.8746 18.2114 12.1422 18.7123 12.6378 18.6915C13.1075 18.7276 13.3865 18.2781 13.7208 18.0146C14.281 17.5137 15.0922 17.4306 15.7721 17.6832C15.7596 16.7187 15.7877 15.7541 15.7575 14.7907C15.7086 13.5254 14.6829 12.4077 13.4823 12.3071C12.843 12.271 12.2015 12.306 11.5622 12.2885C11.5487 12.6757 11.557 13.0628 11.558 13.451ZM8.86734 19.7085C8.86734 20.1164 8.86421 20.5243 8.87046 20.9322C9.56917 20.287 10.6771 20.1492 11.4487 20.7332C11.8465 20.9869 12.1141 21.5239 12.6326 21.5118C13.1283 21.5512 13.4063 21.0613 13.7656 20.7977C14.4778 20.2028 15.5784 20.2192 16.2782 20.8273C16.6041 21.0821 16.8665 21.514 17.3174 21.5118C17.788 21.5643 18.0723 21.1225 18.4024 20.8557C19.0053 20.3056 19.9269 20.2105 20.6339 20.5878C20.9754 20.7682 21.2326 21.0711 21.5263 21.3216C21.8407 21.5971 22.3499 21.5731 22.6477 21.2789C23.0038 20.9454 23.3579 20.5812 23.8306 20.439C23.8275 19.959 23.8286 19.4789 23.8286 18.9999C23.5307 19.2886 23.2319 19.5981 22.8508 19.7643C22.1573 20.0585 21.3055 19.9436 20.7391 19.4165C20.4267 19.1617 20.1549 18.7451 19.7123 18.7746C19.2156 18.7429 18.9387 19.2427 18.5732 19.5029C17.8537 20.088 16.7488 20.0585 16.0574 19.4373C15.7378 19.1858 15.4743 18.7571 15.0286 18.7746C14.5569 18.7287 14.2695 19.1792 13.9374 19.4461C13.2355 20.0705 12.1162 20.0825 11.3998 19.4767C11.0613 19.2252 10.801 18.7691 10.3397 18.7746C9.69933 18.7363 9.39527 19.4581 8.86734 19.7085ZM8.8663 22.53C8.86734 22.9433 8.86734 23.3556 8.8663 23.769C13.8572 23.7603 18.847 23.7887 23.8369 23.7548C23.8181 23.1096 23.8358 22.4654 23.8265 21.8213C23.5828 22.0532 23.3475 22.3003 23.0611 22.4742C22.3458 22.8996 21.3794 22.8176 20.7547 22.2489C20.434 21.9919 20.1632 21.5611 19.7103 21.5939C19.2021 21.5643 18.922 22.0805 18.5471 22.3452C17.8235 22.904 16.7416 22.8734 16.0585 22.2577C15.7378 22.0083 15.4785 21.5796 15.0349 21.5939C14.5236 21.5457 14.2352 22.0554 13.8655 22.3255C13.147 22.9018 12.0506 22.8821 11.3602 22.2631C11.0405 22.0193 10.7875 21.5928 10.3501 21.595C9.70349 21.549 9.39736 22.2752 8.8663 22.53Z" fill="#20A052"/>
</svg>
