<svg width="30" height="30" viewBox="0 0 30 30" fill="none" xmlns="http://www.w3.org/2000/svg">
<rect width="30" height="30" fill="white"/>
<path d="M7 4.00135C12.3333 3.99955 17.6667 3.99955 23 4.00135C22.9988 11.6672 22.9988 19.3325 23 26.9984C17.6667 27.0002 12.3333 27.0008 7 26.9984C7.00182 19.3325 7.00121 11.6666 7 4.00135ZM8.35912 5.34837C8.36337 5.76344 8.35669 6.17791 8.36276 6.59298C10.0695 6.59597 11.7763 6.58759 13.4831 6.59657C13.7823 6.5828 14.062 6.6942 14.335 6.79902C15.04 7.13742 15.5521 7.83579 15.6334 8.60783C15.6462 8.83543 15.6401 9.06363 15.6419 9.29122C15.9599 9.39364 16.2687 9.53619 16.5296 9.74642C17.0526 10.1483 17.3633 10.776 17.4379 11.4199C17.4579 11.9715 17.441 12.5237 17.4507 13.076C15.8294 13.0772 14.2076 13.0789 12.5863 13.0766C12.5863 12.5866 12.5857 12.0973 12.5857 11.6073C12.5766 10.994 12.8284 10.3795 13.2695 9.94707C13.5347 9.65119 13.8963 9.47211 14.2555 9.31758C14.3144 9.05764 14.3022 8.75577 14.2052 8.49882C14.0692 8.16461 13.721 7.93162 13.3563 7.92863C11.6908 7.92623 10.0259 7.92863 8.36033 7.92863C8.35912 10.2208 8.35912 12.5135 8.36033 14.8063C8.78809 14.8045 9.21585 14.8123 9.643 14.8015C9.71399 15.2393 9.65332 15.6891 9.67637 16.1318C9.23951 16.1521 8.80144 16.136 8.36458 16.1414C8.35427 16.5169 8.36033 16.8924 8.36033 17.2686C8.78749 17.2662 9.21524 17.2716 9.6424 17.2632C9.70428 17.489 9.66303 17.725 9.67395 17.9562C9.66242 18.1814 9.71035 18.4167 9.62965 18.6342C9.20554 18.6264 8.78202 18.6288 8.35791 18.633C8.36155 20.9718 8.35912 23.3113 8.35912 25.6508C11.7715 25.6532 15.1845 25.652 18.5968 25.6514C18.5938 18.8845 18.5956 12.1176 18.5956 5.35077C15.1838 5.34418 11.7715 5.34897 8.35912 5.34837ZM19.9578 15.6957C20.5184 15.6987 21.0784 15.6969 21.6391 15.6969C21.6421 12.2476 21.6397 8.79889 21.6403 5.34957C21.079 5.35077 20.5172 5.34358 19.9559 5.35017C19.9584 8.79829 19.9553 12.247 19.9578 15.6957ZM13.9576 11.4151C13.9497 11.5145 13.943 11.6133 13.9358 11.7128C14.6457 11.7631 15.3616 11.7253 16.0733 11.7331C16.083 11.5445 16.0418 11.36 15.9878 11.1803C15.8088 10.8455 15.4666 10.5802 15.0752 10.5616C14.5546 10.5179 14.0559 10.915 13.9576 11.4151ZM19.9559 25.6496C20.5178 25.6562 21.079 25.6484 21.6403 25.6502C21.6385 22.7789 21.6445 19.9075 21.6372 17.0362C21.0778 17.0356 20.5178 17.0326 19.9578 17.0368C19.9547 19.9075 19.9584 22.7783 19.9559 25.6496Z" fill="#20A052"/>
</svg>
