<svg width="30" height="30" viewBox="0 0 30 30" fill="none" xmlns="http://www.w3.org/2000/svg">
<rect width="30" height="30" fill="white"/>
<path d="M10.3009 6.98291C12.1608 6.05268 14.3286 5.77291 16.3628 6.18557C18.2494 6.55327 20.0064 7.53445 21.3358 8.93229C22.88 10.528 23.8342 12.6882 23.9767 14.9143C24.0975 16.8157 23.759 18.8071 22.7058 20.4178C21.8426 21.7606 20.436 22.7748 18.8552 23.0176C17.6229 23.2214 16.2945 22.9137 15.3294 22.0974C14.5345 21.4549 14.0366 20.5037 13.8109 19.5135C13.3308 19.3726 12.8033 19.2717 12.3707 18.9799C11.2927 18.3315 10.5929 17.0945 10.6068 15.8246C10.6137 14.9923 10.587 14.158 10.6196 13.3256C10.6473 13.2977 10.7038 13.2417 10.7315 13.2137C11.1235 13.1898 11.5164 13.2097 11.9094 13.2037C11.9134 12.4434 11.9035 11.684 11.9134 10.9246C11.9173 10.494 12.2846 10.1063 12.7152 10.1043C13.1586 10.0783 13.5694 10.476 13.5595 10.9246C13.5625 11.68 13.5704 12.4354 13.5536 13.1898C14.1801 13.2217 14.8087 13.1938 15.4353 13.2047C15.4422 12.4454 15.4313 11.687 15.4402 10.9286C15.4283 10.482 15.8322 10.0853 16.2737 10.1043C16.7102 10.0993 17.0854 10.494 17.0864 10.9296C17.0953 11.687 17.0864 12.4454 17.0903 13.2037C17.4823 13.2097 17.8743 13.1898 18.2653 13.2127C18.294 13.2417 18.3514 13.2977 18.3801 13.3266C18.4128 13.7943 18.385 14.2639 18.394 14.7335C18.3811 15.4978 18.4652 16.2902 18.195 17.0226C17.7951 18.2296 16.731 19.1788 15.4947 19.4306C15.6936 20.121 16.143 20.7545 16.7854 21.0852C17.7199 21.5948 18.8899 21.4739 19.7966 20.9593C20.9814 20.3048 21.7515 19.0659 22.0841 17.77C22.5226 16.0454 22.4355 14.1669 21.7397 12.5223C20.9399 10.6059 19.367 9.0352 17.4595 8.24886C15.8421 7.57841 14 7.4815 12.3212 7.97509C10.4761 8.50964 8.84878 9.7636 7.83814 11.4092C6.8661 12.946 6.47412 14.8374 6.71861 16.6409C7.0225 19.0259 8.47362 21.2221 10.5296 22.4331C10.9463 22.6479 11.1116 23.2344 10.8374 23.6251C10.6186 23.9738 10.1306 24.1067 9.77133 23.9059C7.83814 22.7958 6.31772 20.9703 5.56741 18.8561C4.80126 16.7348 4.81017 14.3378 5.59909 12.2236C6.43056 9.95844 8.15588 8.05002 10.3009 6.98291Z" fill="#20A052"/>
</svg>
