<svg width="30" height="30" viewBox="0 0 30 30" fill="none" xmlns="http://www.w3.org/2000/svg">
<rect width="30" height="30" fill="white"/>
<path d="M27 14.5201C27 13.8067 26.7075 13.136 26.1762 12.6316C25.815 12.2887 25.3728 12.0508 24.8906 11.9335V10.3383C24.8906 8.49756 23.3135 7 21.375 7H17.8125C16.6637 7 15.642 7.52602 15 8.33763C14.358 7.52602 13.3363 7 12.1875 7H8.625C6.68648 7 5.10938 8.49756 5.10938 10.3383V11.9339C3.8977 12.2311 3 13.2779 3 14.52V21.6862H5.10938V23H6.51562V21.6863H23.4844V23H24.8906V21.6863H27V14.5201ZM17.8125 8.33536H21.375C22.5381 8.33536 23.4844 9.23389 23.4844 10.3383V11.934C22.2727 12.2312 21.375 13.278 21.375 14.5201V14.983H15.7031V10.3383C15.7031 9.23389 16.6494 8.33536 17.8125 8.33536ZM8.625 16.3183H14.2969V17.6804H8.625V16.3183ZM15.7031 16.3183H21.375V17.6804H15.7031V16.3183ZM8.625 8.33536H12.1875C13.3506 8.33536 14.2969 9.23389 14.2969 10.3383V14.983H8.625V14.5201C8.625 13.8068 8.33245 13.1361 7.80122 12.6317C7.44005 12.2887 6.99778 12.0509 6.51562 11.9335V10.3383C6.51562 9.23389 7.46189 8.33536 8.625 8.33536ZM25.5938 20.351H4.40625V14.5201C4.40625 13.7838 5.03709 13.1848 5.8125 13.1848C6.18816 13.1848 6.54127 13.3236 6.80686 13.5758C7.07245 13.828 7.21875 14.1634 7.21875 14.5201V19.0156H22.7812V14.5201C22.7812 13.7838 23.4121 13.1848 24.1875 13.1848C24.5632 13.1848 24.9163 13.3236 25.1819 13.5758C25.4475 13.828 25.5938 14.1634 25.5938 14.5201V20.351Z" fill="#20A052"/>
<path d="M9.70312 10.1039H11.1094V11.4392H9.70312V10.1039Z" fill="#20A052"/>
<path d="M18.8906 10.1039H20.2969V11.4392H18.8906V10.1039Z" fill="#20A052"/>
</svg>
