<svg width="30" height="30" viewBox="0 0 30 30" fill="none" xmlns="http://www.w3.org/2000/svg">
<rect width="30" height="30" fill="white"/>
<path d="M18.1899 5.20861C18.5761 5.08342 18.9761 4.9621 19.3861 5.01115C20.2474 5.07826 21.0099 5.77647 21.2011 6.64247C21.4249 7.49556 21.0399 8.46351 20.3261 8.94103C19.9599 9.19141 19.5224 9.27659 19.1099 9.40436C17.9486 9.75282 16.7862 10.0935 15.6262 10.4459C16.5162 11.992 17.4949 13.484 18.3486 15.0495C18.0999 14.2532 18.0061 13.3794 18.3174 12.5844C18.6974 11.5158 19.6536 10.6834 20.7474 10.5104C21.9461 10.3013 23.2373 10.8718 23.9073 11.921C24.8098 13.2813 24.4898 15.3115 23.2036 16.2949C21.9361 17.3622 19.9061 17.1325 18.8661 15.8367C19.5099 16.9454 20.1924 18.0295 20.8336 19.1407C22.6161 19.1626 24.3911 18.8722 26.1136 18.4154C26.466 18.3069 26.886 18.547 26.9723 18.92C27.0823 19.2891 26.8535 19.7266 26.4848 19.8131C24.1348 20.4636 21.6799 20.7475 19.2499 20.5474C16.0474 20.3203 12.9675 19.1988 9.755 19.0684C7.80752 18.969 5.85504 19.2452 3.98256 19.7911C3.63257 19.9318 3.19007 19.7666 3.05383 19.3949C2.90633 19.0374 3.08257 18.5793 3.44132 18.4463C4.6238 18.0592 5.86004 17.8733 7.07752 17.6655C8.97875 16.4562 10.88 15.2443 12.7687 14.0131C12.1112 12.9187 11.4437 11.8307 10.8 10.7285C10.2162 9.67281 10.4912 8.22604 11.4037 7.46329C11.7475 7.15484 12.1787 6.98577 12.615 6.86832C14.4737 6.31595 16.3324 5.76357 18.1899 5.20861ZM12.7387 8.34478C12.0312 8.51514 11.665 9.45599 12.0637 10.0832C12.8037 11.3325 13.5587 12.5728 14.3037 13.8195C14.5449 14.1422 14.4549 14.6623 14.1124 14.8675C12.7 15.7993 11.2475 16.6705 9.85124 17.6281C12.9987 17.73 16.0137 18.818 19.1436 19.0736C17.4162 16.1749 15.6649 13.2904 13.9349 10.393C13.6712 10.0006 13.9112 9.39791 14.3662 9.31015C16.0574 8.79262 17.7599 8.31251 19.4486 7.78336C20.1336 7.53428 19.8661 6.35596 19.1374 6.45404C16.9974 7.05288 14.8724 7.71754 12.7387 8.34478ZM20.6774 12.0269C19.8961 12.3005 19.3899 13.2013 19.5524 14.0389C19.6899 14.9565 20.5999 15.6535 21.4936 15.5102C22.5011 15.4095 23.2536 14.2725 22.9573 13.2671C22.7398 12.2669 21.5998 11.6513 20.6774 12.0269Z" fill="#20A052"/>
<path d="M6.84003 21.1063C9.57 20.7475 12.3125 21.1953 14.9799 21.7813C17.5824 22.3556 20.2599 22.7415 22.9211 22.4227C23.9973 22.2988 25.0623 22.0807 26.1123 21.8071C26.5023 21.6793 26.9498 21.9865 26.9923 22.4033C27.0435 22.7402 26.8335 23.0951 26.516 23.1906C23.9986 23.8966 21.3561 24.1715 18.7574 23.8927C15.8124 23.6075 12.9687 22.6343 10.01 22.4691C7.98376 22.3388 5.94379 22.6034 3.99381 23.1777C3.62631 23.3339 3.16257 23.139 3.03882 22.7428C2.90632 22.3698 3.12632 21.9206 3.49631 21.8148C4.5888 21.4831 5.71004 21.2521 6.84003 21.1063Z" fill="#20A052"/>
</svg>
