<svg width="30" height="30" viewBox="0 0 30 30" fill="none" xmlns="http://www.w3.org/2000/svg">
<rect width="30" height="30" fill="white"/>
<path d="M14.25 11.3333H8V10H13.55V7.33333H13.2V8H11.8V6.66667C11.8 6.48986 11.8737 6.32029 12.005 6.19526C12.1363 6.07024 12.3143 6 12.5 6H18.1C18.2857 6 18.4637 6.07024 18.595 6.19526C18.7263 6.32029 18.8 6.48986 18.8 6.66667V8H17.4V7.33333H17.05V10H18.1C19.2135 10.0012 20.2811 10.423 21.0685 11.1729C21.8558 11.9228 22.2987 12.9395 22.3 14V17.3333H23V18.6667H17.4V17.3333H18.1V14H8V12.6667H18.1C18.4712 12.6671 18.827 12.8077 19.0895 13.0577C19.3519 13.3076 19.4996 13.6465 19.5 14V17.3333H20.9V14C20.8992 13.293 20.6039 12.6152 20.079 12.1153C19.5541 11.6153 18.8424 11.3341 18.1 11.3333H16.35C16.1643 11.3333 15.9863 11.2631 15.855 11.1381C15.7237 11.013 15.65 10.8435 15.65 10.6667V7.33333H14.95V10.6667C14.95 10.8435 14.8763 11.013 14.745 11.1381C14.6137 11.2631 14.4357 11.3333 14.25 11.3333Z" fill="#20A052"/>
<path d="M19.7188 19.5161C19.8488 19.3987 20.0211 19.3333 20.2003 19.3333C20.3794 19.3333 20.5517 19.3987 20.6818 19.5161C21.0612 19.8588 22.3 21.0507 22.3 22C22.3 22.5304 22.0788 23.0391 21.6849 23.4142C21.2911 23.7893 20.757 24 20.2 24C19.643 24 19.1089 23.7893 18.7151 23.4142C18.3212 23.0391 18.1 22.5304 18.1 22C18.1 21.0507 19.3388 19.8588 19.7188 19.5161ZM20.2 22.6667C20.3854 22.6664 20.5632 22.5963 20.6944 22.4715C20.8256 22.3467 20.8995 22.1775 20.9 22.0009C20.8906 21.8265 20.5898 21.3949 20.2 20.9661C19.8098 21.3953 19.5087 21.8269 19.5 22C19.5002 22.1768 19.574 22.3462 19.7053 22.4712C19.8365 22.5962 20.0144 22.6665 20.2 22.6667Z" fill="#20A052"/>
</svg>
