<svg width="30" height="30" viewBox="0 0 30 30" fill="none" xmlns="http://www.w3.org/2000/svg">
<rect width="30" height="30" fill="white"/>
<path d="M5.01138 12.8102C4.97697 12.6381 5.0215 12.4596 5.13279 12.3239C5.24408 12.1881 5.41037 12.1094 5.58591 12.1094C17.5899 12.1094 12.9014 12.1094 24.4141 12.1094C24.5896 12.1094 24.7559 12.1881 24.8672 12.3239C24.9785 12.4596 25.0231 12.6381 24.9886 12.8102C24.8961 13.2728 22.6948 24.2795 22.6448 24.529C22.5901 24.8029 22.3496 25 22.0703 25H7.92967C7.65037 25 7.40986 24.8029 7.35513 24.529C7.27162 24.1115 5.06857 13.0963 5.01138 12.8102ZM22.7618 17.9688H7.23814L7.47252 19.1406H22.5275L22.7618 17.9688ZM20.2178 13.2812L20.0362 15.0973C20.0059 15.3995 19.7512 15.625 19.4538 15.625C19.4343 15.625 19.4146 15.6241 19.3948 15.6221C19.0728 15.5899 18.8379 15.3027 18.8701 14.9807L19.04 13.2812H15.5997V15.0391C15.5997 15.3703 15.3312 15.6388 15 15.6388C14.6688 15.6388 14.4003 15.3703 14.4003 15.0391V13.2812H10.9738L11.1436 14.9794C11.1766 15.3089 10.9361 15.6029 10.6065 15.6358C10.5862 15.6378 10.5661 15.6388 10.5462 15.6388C10.2418 15.6388 9.98108 15.408 9.95014 15.0987L9.76834 13.2812H6.30064L7.00377 16.7969H22.9962L23.6993 13.2812H20.2178ZM8.41002 23.8281H10.823L10.6532 22.13C10.6203 21.8004 10.8607 21.5065 11.1903 21.4736C11.5199 21.4408 11.8138 21.6811 11.8467 22.0107L12.0285 23.8281H14.4003V22.0703C14.4003 21.7391 14.6688 21.4706 15 21.4706C15.3312 21.4706 15.5997 21.7391 15.5997 22.0703V23.8281H17.9853L18.167 22.012C18.1992 21.69 18.4862 21.4551 18.8083 21.4873C19.1303 21.5195 19.3652 21.8066 19.333 22.1286L19.1631 23.8281H21.59L22.2931 20.3125H7.70689L8.41002 23.8281Z" fill="#20A052"/>
<path d="M19.4709 10.7863C19.1962 10.9693 18.8236 10.8966 18.6392 10.62C18.4554 10.3444 18.5299 9.97203 18.8055 9.78828C19.0344 9.6357 19.1656 9.39047 19.1656 9.11539C19.1656 8.84035 19.0344 8.59508 18.8055 8.44254C18.2456 8.06926 17.9113 7.44461 17.9113 6.77164C17.9113 6.09867 18.2456 5.47406 18.8055 5.10078C19.0811 4.91707 19.4534 4.99152 19.6372 5.26711C19.8209 5.54269 19.7464 5.91504 19.4709 6.09879C19.242 6.25137 19.1107 6.4966 19.1107 6.77164C19.1107 7.04668 19.242 7.29195 19.4709 7.44453C20.0308 7.81781 20.3651 8.44246 20.3651 9.11539C20.3651 9.78832 20.0308 10.413 19.4709 10.7863Z" fill="#20A052"/>
<path d="M15.3693 10.7863C15.0947 10.9693 14.722 10.8966 14.5376 10.62C14.3539 10.3444 14.4284 9.97203 14.7039 9.78828C14.9328 9.6357 15.0641 9.39047 15.0641 9.11539C15.0641 8.84035 14.9328 8.59508 14.7039 8.44254C14.144 8.06926 13.8097 7.44461 13.8097 6.77164C13.8097 6.09867 14.144 5.47406 14.7039 5.10078C14.9795 4.91707 15.3519 4.99152 15.5356 5.26711C15.7194 5.54269 15.6449 5.91504 15.3693 6.09879C15.1405 6.25137 15.0092 6.4966 15.0092 6.77164C15.0092 7.04668 15.1404 7.29195 15.3693 7.44453C15.9292 7.81781 16.2635 8.44246 16.2635 9.11539C16.2635 9.78832 15.9292 10.413 15.3693 10.7863Z" fill="#20A052"/>
<path d="M11.2677 10.7863C10.9931 10.9693 10.6205 10.8966 10.436 10.62C10.2523 10.3444 10.3268 9.97203 10.6024 9.78828C10.8312 9.6357 10.9625 9.39047 10.9625 9.11539C10.9625 8.84035 10.8312 8.59508 10.6024 8.44254C10.0424 8.06926 9.70815 7.44461 9.70815 6.77164C9.70815 6.09867 10.0424 5.47406 10.6024 5.10078C10.8779 4.91707 11.2503 4.99152 11.434 5.26711C11.6178 5.54269 11.5433 5.91504 11.2677 6.09879C11.0389 6.25137 10.9076 6.4966 10.9076 6.77164C10.9076 7.04668 11.0389 7.29195 11.2677 7.44453C11.8276 7.81781 12.1619 8.44246 12.1619 9.11539C12.1619 9.78832 11.8276 10.413 11.2677 10.7863Z" fill="#20A052"/>
</svg>
