<svg width="30" height="30" viewBox="0 0 30 30" fill="none" xmlns="http://www.w3.org/2000/svg">
<rect width="30" height="30" fill="white"/>
<path d="M18.544 3.08084C18.785 2.9377 19.1141 2.9891 19.3048 3.19978C19.5284 3.4266 19.5561 3.83302 19.3582 4.08644C18.6943 5.0224 18.0204 5.9503 17.3559 6.88566C17.002 7.38054 16.6504 7.87751 16.293 8.3697C18.676 8.38314 20.1069 8.37268 22.4899 8.37567C22.8144 8.37956 23.1424 8.35475 23.4632 8.419C24.1479 8.56125 24.7351 9.12636 24.9239 9.83132C25.0251 10.1582 24.9961 10.5058 24.9963 10.8438C24.9998 14.3408 24.998 16.881 24.9961 20.3777C24.9798 21.2527 24.3413 22.0578 23.5294 22.2514C23.2165 22.3285 22.8931 22.3109 22.5746 22.3088C21.8074 22.313 21.0403 22.3022 20.2732 22.3145C20.5447 22.9017 20.8384 23.4773 21.1022 24.0681C21.2955 24.4844 20.9351 25.0441 20.4913 24.9951C20.2312 25.0157 20.0168 24.8062 19.9007 24.5821C19.5494 23.8203 19.1821 23.0667 18.8224 22.3094C15.6521 22.3124 14.3862 22.3025 11.2155 22.3145C10.9067 22.974 10.5904 23.63 10.2773 24.2874C10.184 24.467 10.1219 24.6714 9.97471 24.8137C9.75968 25.0447 9.37241 25.0635 9.13742 24.8555C8.96203 24.7106 8.85937 24.4682 8.89245 24.2345C8.92039 24.0621 9.00652 23.9091 9.0801 23.7549C9.31166 23.2747 9.53781 22.7917 9.77195 22.3127C8.94207 22.3037 8.11219 22.3127 7.28231 22.3085C7.03363 22.3082 6.78096 22.3264 6.53685 22.2655C6.07 22.1609 5.63596 21.8782 5.36047 21.4673C5.15856 21.1753 5.0385 20.8242 5.00171 20.4668C5.00029 16.7704 5.00171 14.0306 5.00114 10.3343C4.99145 10.1355 5.04506 9.94159 5.09982 9.75362C5.27007 9.20017 5.68957 8.74414 6.20176 8.52629C6.43475 8.42498 6.68685 8.37986 6.93838 8.37627C9.42346 8.37149 10.9561 8.38434 13.4409 8.3697C12.9002 7.79682 12.3541 7.22933 11.8108 6.65884C11.425 6.27483 11.0628 5.86572 10.6801 5.47843C10.4534 5.22681 10.4491 4.78094 10.6963 4.54246C10.9168 4.301 11.318 4.27889 11.559 4.49883C12.6852 5.66789 13.7923 6.85667 14.927 8.01617C15.2561 7.59062 15.5556 7.14117 15.8715 6.70516C16.6361 5.64399 17.3944 4.57773 18.157 3.51476C18.2719 3.35846 18.3729 3.17797 18.544 3.08084ZM6.72649 9.76139C6.5839 9.81189 6.46641 9.92127 6.37458 10.0432C6.32895 10.155 6.28931 10.2733 6.28931 10.3964C6.27662 14.0228 6.27788 16.6933 6.29016 20.3197C6.29615 20.6804 6.6301 20.9817 6.96975 20.9557C9.95389 20.9518 11.9859 20.9581 14.9701 20.9566C17.9745 20.9581 20.0265 20.9515 23.0309 20.956C23.3825 20.9858 23.7216 20.6592 23.7099 20.2872C23.7104 16.7026 23.6721 14.0718 23.7187 10.4876C23.723 10.2395 23.6289 9.96998 23.419 9.8358C23.2305 9.69983 22.9912 9.72553 22.7748 9.72762C16.8615 9.72792 12.8531 9.72792 6.94009 9.72762C6.86794 9.73121 6.79551 9.73868 6.72649 9.76139Z" fill="#20A052"/>
</svg>
