<svg width="30" height="30" viewBox="0 0 30 30" fill="none" xmlns="http://www.w3.org/2000/svg">
<rect width="30" height="30" fill="white"/>
<path d="M8.91237 7.48181H14.1861V8.71204H8.91237V7.48181Z" fill="#20A052"/>
<path d="M18.2132 7.48181H19.4598V8.71204H18.2132V7.48181Z" fill="#20A052"/>
<path d="M15.7199 7.48181H16.9666V8.71204H15.7199V7.48181Z" fill="#20A052"/>
<path d="M14.1861 12.3741C11.7611 12.3741 9.78816 14.3211 9.78816 16.7142C9.78816 19.1073 11.7611 21.0542 14.1861 21.0542C16.6111 21.0542 18.584 19.1073 18.584 16.7142C18.584 14.321 16.6111 12.3741 14.1861 12.3741ZM14.1861 13.6043C15.5165 13.6043 16.6569 14.4221 17.1184 15.575C16.9125 15.7014 16.7546 15.7759 16.4224 15.7759C16.0455 15.7759 15.8929 15.68 15.6401 15.5212C15.323 15.3219 14.9283 15.0738 14.1882 15.0738C13.448 15.0738 13.0534 15.3219 12.7363 15.5212C12.4836 15.6801 12.3311 15.776 11.9543 15.776C11.6201 15.776 11.4623 15.7006 11.2547 15.5727C11.7167 14.421 12.8566 13.6043 14.1861 13.6043ZM14.1861 19.824C12.4928 19.824 11.1072 18.4992 11.0375 16.8448C11.274 16.9382 11.5668 17.0061 11.9542 17.0061C12.6944 17.0061 13.089 16.7581 13.406 16.5588C13.6588 16.3999 13.8113 16.304 14.1881 16.304C14.565 16.304 14.7176 16.3999 14.9704 16.5588C15.2875 16.7581 15.6822 17.0061 16.4224 17.0061C16.8073 17.0061 17.0988 16.939 17.3345 16.8466C17.264 18.5002 15.8787 19.824 14.1861 19.824Z" fill="#20A052"/>
<path d="M25 21.6756C25 20.6546 24.1583 19.824 23.1238 19.824H22.3721V7.60749C22.3721 6.16972 21.1868 5 19.7299 5H8.64227C7.18536 5 6 6.16972 6 7.60749V25.9955L23.1237 26C24.1583 26 25 25.1694 25 24.1485C25 23.6737 24.8179 23.2401 24.5191 22.912C24.818 22.5839 25 22.1504 25 21.6756ZM7.24661 7.60749C7.24661 6.84804 7.8727 6.23018 8.64227 6.23018H19.7299C20.4994 6.23018 21.1255 6.84804 21.1255 7.60749V9.92081H7.24661V7.60749ZM7.24661 24.7653V23.5351H18.132C18.0634 23.7272 18.0262 23.9336 18.0262 24.1484C18.0262 24.3646 18.0639 24.5723 18.1333 24.7653H7.24661V24.7653ZM18.1378 22.3049H7.24661V11.151H21.1255V19.824H19.9024C18.8678 19.824 18.0262 20.6546 18.0262 21.6756C18.0262 21.8964 18.0656 22.1084 18.1378 22.3049ZM23.1237 24.7698L19.827 24.7653C19.5152 24.7285 19.2728 24.4659 19.2728 24.1485C19.2728 23.8059 19.5552 23.5271 19.9024 23.5271H23.1237C23.4709 23.5271 23.7533 23.8059 23.7533 24.1485C23.7533 24.4911 23.471 24.7698 23.1237 24.7698ZM23.1237 22.2969H19.9024C19.5553 22.2969 19.2728 22.0182 19.2728 21.6756C19.2728 21.333 19.5553 21.0542 19.9024 21.0542H23.1237C23.4709 21.0542 23.7533 21.333 23.7533 21.6756C23.7534 22.0182 23.471 22.2969 23.1237 22.2969Z" fill="#20A052"/>
</svg>
