<svg width="30" height="30" viewBox="0 0 30 30" fill="none" xmlns="http://www.w3.org/2000/svg">
<rect width="30" height="30" fill="white"/>
<path d="M14.2187 7.02194C16.6314 6.88622 19.0855 7.38083 21.2208 8.48904C22.5019 9.14485 23.6671 10.012 24.6665 11.0305C24.7384 11.1024 24.8146 11.172 24.8724 11.2564C25.0584 11.5267 25.042 11.916 24.8169 12.1608C24.6145 12.4053 24.2465 12.4995 23.9472 12.3824C23.7815 12.3292 23.6596 12.203 23.5416 12.0851C22.6797 11.2073 21.6803 10.4553 20.5804 9.88201C17.7324 8.37043 14.23 8.11039 11.1672 9.13725C9.35309 9.73489 7.71011 10.7914 6.39808 12.1452C6.22656 12.3372 5.96516 12.46 5.70104 12.4281C5.40214 12.4053 5.13919 12.1924 5.03994 11.9205C4.96922 11.7152 4.99384 11.4829 5.10246 11.2948C5.17787 11.1704 5.29196 11.075 5.39354 10.9716C6.95446 9.39083 8.93072 8.19783 11.0887 7.56179C12.1045 7.25917 13.1587 7.08277 14.2187 7.02194Z" fill="#20A052"/>
<path d="M14.0855 11.4544C15.7011 11.2997 17.3554 11.562 18.8362 12.2106C19.8744 12.6569 20.8261 13.2869 21.6529 14.0427C21.81 14.1993 22.0057 14.3347 22.0909 14.5449C22.2241 14.8498 22.119 15.2323 21.8459 15.4303C21.6291 15.5965 21.3173 15.6379 21.0645 15.5284C20.9316 15.4748 20.8254 15.3786 20.7238 15.2832C19.643 14.2453 18.279 13.4751 16.7971 13.1379C15.1209 12.7425 13.3134 12.9234 11.7474 13.623C10.9218 13.9845 10.1623 14.4844 9.49491 15.0794C9.34488 15.2106 9.21204 15.3627 9.04403 15.4737C8.75802 15.6558 8.35206 15.6162 8.10357 15.3896C7.79412 15.125 7.76638 14.6171 8.0516 14.3259C9.643 12.7333 11.8041 11.6654 14.0855 11.4544Z" fill="#20A052"/>
<path d="M14.2843 15.9074C15.9254 15.6736 17.6125 16.3294 18.7854 17.4392C19.0148 17.6456 19.0867 17.9912 18.9687 18.271C18.8307 18.6128 18.4158 18.8215 18.0509 18.7177C17.7953 18.6615 17.6289 18.452 17.4351 18.2991C16.8412 17.8258 16.116 17.4981 15.3526 17.3996C14.3508 17.2833 13.3412 17.6502 12.5593 18.2471C12.3999 18.3611 12.2706 18.5098 12.1077 18.6193C11.9033 18.7512 11.6337 18.7805 11.4051 18.6922C11.0742 18.5771 10.8546 18.2231 10.9101 17.884C10.9324 17.6798 11.0558 17.4989 11.2156 17.37C12.0576 16.6005 13.1391 16.0717 14.2843 15.9074Z" fill="#20A052"/>
<path d="M14.6649 20.5296C14.9865 20.4582 15.3346 20.5076 15.6179 20.6734C15.9152 20.8425 16.1336 21.1337 16.2125 21.4596C16.2879 21.7801 16.2364 22.1317 16.0527 22.41C15.8062 22.805 15.319 23.0415 14.8462 22.994C14.2386 22.9556 13.7131 22.437 13.6803 21.8454C13.6174 21.2478 14.0636 20.6585 14.6649 20.5296Z" fill="#20A052"/>
</svg>
