<svg xmlns="http://www.w3.org/2000/svg" version="1.1" xmlns:xlink="http://www.w3.org/1999/xlink" width="30" height="30" x="0" y="0" viewBox="0 0 512 512" style="enable-background: new 0 0 512 512" xml:space="preserve">
    <g>
        <path
            d="M432.734 80.334H352.4c-8.284 0-15 6.716-15 15v321.334c0 36.024-29.309 65.332-65.333 65.332-8.284 0-15 6.716-15 15s6.716 15 15 15h160.667c8.284 0 15-6.716 15-15V95.334c0-8.284-6.715-15-15-15z" fill="#b8e9ff" data-original="#b8e9ff">
        </path>
        <path
            d="M287.067 322.513V95.334c0-8.284-6.716-15-15-15h-192.8c-8.284 0-15 6.716-15 15V497c0 8.284 6.716 15 15 15h192.8c52.567 0 95.333-42.766 95.333-95.332 0-47.466-34.865-86.94-80.333-94.155z" fill="#8adbff" data-original="#8adbff">
        </path>
        <path
            d="M287.067 322.513V95.334c0-8.284-6.716-15-15-15h-15V512h15c52.567 0 95.333-42.766 95.333-95.332 0-47.466-34.865-86.94-80.333-94.155z" fill="#35cbff" data-original="#35cbff">
        </path>
        <path
            d="M352.394 401.668h-7.5l-66.131-132.263c4.915-2.463 8.298-7.533 8.298-13.405 0-8.284-6.716-15-15-15H159.594c-8.284 0-15 6.716-15 15v160.668c0 8.284 6.716 15 15 15h192.8c8.284 0 15-6.716 15-15s-6.716-15-15-15z" fill="#f63a79" data-original="#f63a79">
        </path>
         <path
            d="M352.394 401.668h-7.5l-66.131-132.263c4.915-2.463 8.298-7.533 8.298-13.405 0-8.284-6.716-15-15-15h-14.993v190.668h95.326c8.284 0 15-6.716 15-15s-6.716-15-15-15z" fill="#c8366d" data-original="#c8366d">
        </path>
            <path
            d="M272.067 190.668H159.594c-8.284 0-15-6.716-15-15s6.716-15 15-15h112.474c8.284 0 15 6.716 15 15-.001 8.284-6.716 15-15.001 15z" fill="#fff4f4" data-original="#fff4f4">
        </path>
            <path d="M272.061 0c-8.284 0-15 6.716-15 15v321.334c0 8.284 6.716 15 15 15 36.025 0 65.333 29.309 65.333 65.334 0 8.284 6.716 15 15 15s15-6.716 15-15V95.334C367.394 42.767 324.627 0 272.061 0z" fill="#0065a3" data-original="#0065a3">
        </path>
    </g>
</svg>