<svg viewBox="0 0 1920 1080" class="gen-plan__layer">
              <g><polygon points="0,0 0,1080 1920,1080 1920,0" opacity="0"></polygon></g>
              <g class="able polygon-bk-1235">
                <polygon
                  points="1249.2,376.2 1237.6,377.4 1231.9,377.4 1226.7,374.6 1222.7,368.7 1193.2,305.1
              1193.2,301.6 1195.6,298.9 1199.6,297.2 1203.6,297.2 1207.8,254.2 1250.3,251.4 1254,213.9 1344.4,205.5 1356.8,227.9
              1351.9,261.7 1358.5,261.3 1359.7,264.2 1369.5,263.3 1373.6,269.3 1375.8,269.3 1387.5,188.1 1412.7,185.3 1416.9,191.9
              1421,191.7 1424.7,198.9 1424.7,203.2 1430.9,213.2 1424.6,254.3 1431.8,265.2 1435.6,265.4 1436.7,259.8 1452.4,259.8
              1467.5,168.7 1484.5,168 1485.2,162.2 1509.4,158.7 1511.7,158.7 1513.9,158.7 1515.5,159.9 1522.2,170 1522.2,176.7 1528,184.6
              1516.8,241.4 1526.5,257.2 1518.4,303 1525.7,326.4 1480.8,331.5 1478.3,327.6 1464.5,329.5 1464.5,332.8 1444.3,334.6
              1440.9,355.1 1406.3,358.7 1401.6,351.7 1398.1,351.7 1393.1,343 1366.6,345.9 1364.1,362.8 1357,363.7 1357.7,359.7 1348.9,343.9
              1339.2,344.7 1337.8,341.2 1323.6,342.8 1323.6,347 1251.2,354.6"
                ></polygon>
              </g>
              <g class="able polygon-bk-1235">
                <polygon
                  points="1306.8,487.2 1289.4,489.2 1283,489.2 1279.3,488.2 1275.7,484.5 1233.9,394.8
              1233.2,391.6 1234,388.8 1236.1,386.7 1239.1,385.9 1248.4,384.7 1251.2,354.6 1323.6,347 1323.6,342.8 1337.8,341.2 1339.2,344.7
              1348.9,343.9 1357.7,359.7 1354.4,378.6 1361.8,378 1366.6,345.9 1393.1,343 1398.1,351.7 1401.6,351.7 1406.3,358.7 1406.3,364.2
              1409.2,371.7 1438.6,369.2 1444.3,334.6 1464.5,332.8 1464.5,329.5 1478.3,327.6 1480.8,331.5 1532.8,325.6 1548.6,350.1
              1542.7,379.1 1544.1,386.9 1556.2,390.1 1563.7,392.6 1568.7,396 1571.7,402.4 1579.5,431.2 1583.1,447.1 1570.9,449.4 1563,436.7
              1508.5,443.2 1504.5,462.7 1464.6,467.7 1456.5,453.5 1427.2,457.2 1424.4,472.4 1415.2,473.3 1404.9,455.1 1310,466.4"
                ></polygon>
              </g>
              <g class="able polygon-bk-1235">
                <polygon
                  points="1330.8,606.4 1292.1,521.2 1290.9,517.2 1291.6,514.5 1294.5,512.2 1300.3,510.4
              1303.2,510.4 1310,466.4 1404.9,455.1 1415.2,473.3 1412.6,494.3 1420.5,493.8 1427.2,457.2 1456.5,453.5 1476.3,488.6
              1499.6,486.2 1508.5,443.2 1563,436.7 1574.3,454.8 1573.5,459.3 1601.9,456 1619.9,485.1 1606.4,541.1 1618.5,576.1 1598.7,588.6
              1571.9,590 1576.3,570.4 1562.6,548.9 1513.6,554.7 1506.1,592.9 1357.2,612.3 1346.3,614.2 1341.8,614.2 1337.5,613 1333.3,609.5"
                ></polygon>
              </g>
              <g class="able polygon-bk-1235">
                <polygon
                  points="1023,225.2 1115.9,216 1122.9,230.5 1121.4,260.9 1160.3,256.4 1193.2,328.3 1193.2,334.8
              1210.5,373.1 1211.5,377.4 1210.1,380.7 1206.1,382.5 1164.1,386.1 1164.4,380.9 1156.5,362.4 1140.5,364 1136.5,354.1 1078,360
              1076.9,372.5 1055.8,374.1 1054.4,399.3 1024.8,401.6 999.5,406.5 979.1,412.1 968.8,416.1 945.9,427.1 931,435.4 912.4,422.5
              901.9,431.4 866.6,412.7 866.3,399.1 765.7,346.5 767.5,346.2 774.4,345.8 775.9,342.6 778.7,339.6 783.3,337.7 788.7,337.3
              790.1,337.4 785.9,265.2 823.4,241 855.8,256.3 857.2,286.1 878.8,271.6 879,240.8 925,235.9 930,251.5 930.2,281.3 973.8,278.1
              988.4,319.7 1020.8,317.8"
                ></polygon>
              </g>
              <g class="able polygon-bk-6">
                <polygon
                  points="1294.1,586.2 1312.6,631.2 1123.3,675.2 1036,416 1053.6,414.9 1055.8,374.1 1076.9,372.5
              1078,360 1136.5,354.1 1140.5,364 1156.5,362.4 1164.4,380.9 1163.1,401 1179.8,399.7 1181.1,388.3 1211.2,384.6 1239.7,447.8
              1239,461.9 1251.9,495.4 1263.7,494.3 1295.9,565.8"
                ></polygon>
              </g>
              <g class="able polygon-bk-79">
                <polygon
                  points="624.9,347.2 685,308.7 704.2,318.2 705.1,337 723.6,324.6 866.3,399.1 867.2,440.3
              880.2,448 817.5,493.6 817.9,517.6 797.5,532.4 780.2,522 679.9,599.3 681.6,620.6 669.3,629.4 666.1,630.9 662.7,631.5
              659.6,631.5 656.6,630.5 495.6,532.2 492.5,529.2 491.5,523.5 493.1,520.3 496.7,517.5 484.5,437 549,395.7 568.3,407.1
              570.9,425.4 593.9,409.7 628.6,429.9 634,425.4"
                ></polygon>
              </g>
              <g class="able polygon-bk-79">
                <polygon
                  points="155.2,649.4 234.5,598.5 254.3,612.5 259.3,631.4 292.4,608.6 322.6,629.5 321.6,621.2
              335.8,611.4 317.3,534.5 367.3,502.1 399.9,521.9 411.4,575.7 418.7,569.9 401.7,481.3 448.7,450.4 481.2,469.3 494.4,545.1
              633.4,631.5 581.2,670.3 580.6,663.6 556.9,648.4 521.7,673.7 531.7,735.5 405.9,830.4 310.6,849.9 172.9,746.1 171.1,743.6
              170.9,740 172.3,736.8 175.8,733.1 179.7,730.1"
                ></polygon>
              </g>
              <g opacity="0.1">
                <polygon
                  points="444.8,698.9 565.3,613.2 612.7,643.2 581,667.4 580.6,663.6 556.9,648.4 521.7,673.7
              527.1,706.9 492.8,733.1"
                ></polygon>
              </g>
              <g opacity="0.1">
                <polygon
                  points="1314,670.9 1352.4,664.4 1461.8,875.6 1455.7,904.4 1385.7,917.9
              1327.5,798.8 1330.1,782.2 1314,785 1244.7,886 1230.7,879.3 1221.6,892.6 1185.7,877.2 1186.7,857.1 1190.9,851.4 1182.1,844.6
              1182.1,820.3 1221.3,802.6 1245.7,768.9 1253.9,772.7 1257,768.5 1251.7,759.7 1171.6,773.3 1164.9,757.3 1148.1,745.8 1148.6,725
              1181.4,694.5 1206.2,708.1 1312,690"
                ></polygon>
              </g>
              <g><polygon points="1490.3,544.5 1489,553.6 1491.4,553.6 1492.9,546.2"></polygon></g>
            </svg>