<svg xmlns="http://www.w3.org/2000/svg" version="1.1" xmlns:xlink="http://www.w3.org/1999/xlink" width="18" height="18" viewBox="0 0 512 512">
  <g>
    <path d="M476.389 246.231c-1.317 2.634-4.028 4.26-6.972 4.26h-80.094C384.21 430.51 203.727 547.631 39.975 488.218c-3.098-1.084-5.112-4.028-5.112-7.281s2.092-6.197 5.112-7.281c94.502-34.082 158.717-123.085 161.893-223.164h-79.862a7.651 7.651 0 0 1-6.894-4.26 7.728 7.728 0 0 1 .775-8.133L289.631 11.216c1.472-1.937 3.718-3.021 6.119-3.021s4.725 1.085 6.197 3.021l173.59 226.882c1.781 2.323 2.091 5.5.852 8.133z" fill="gold" opacity="1" data-original="#000000">
    </path>
  </g>
</svg>
