<svg height="48" viewBox="0 0 165.173 48" width="165.173" xmlns="http://www.w3.org/2000/svg"><g fill="#6a3180"><path d="m339.744 439.222a7.046 7.046 0 0 1 -5.205-2.433 6.8 6.8 0 0 1 10.41 0 7.019 7.019 0 0 1 -5.205 2.433m-.02 12.393a12.709 12.709 0 0 1 -13.764-13.764 12.694 12.694 0 0 1 13.764 13.764m14.785-33.863a59.125 59.125 0 0 1 -27.071 14.616c-16.5 4-18.82 16.013-17.884 25.328a2.186 2.186 0 0 0 2.182 1.96h43.582v-41.556a.48.48 0 0 0 -.808-.35" transform="translate(-307.317 -411.656)"/><path d="m346.528 409.98h-39.79v28.982a.48.48 0 0 0 .824.333 40.314 40.314 0 0 1 12.7-8.447 9.743 9.743 0 0 1 8.968-11.893 10.1 10.1 0 0 1 -1.691 8.067 9.263 9.263 0 0 1 -1.834 1.824c.855-.262 1.711-.524 2.618-.756a28.96 28.96 0 0 0 19.5-16.083 1.423 1.423 0 0 0 -1.293-2.026" transform="translate(-306.738 -409.98)"/><path d="m389.767 431.485a9.883 9.883 0 0 1 -1.789.144 5.05 5.05 0 0 1 -2.337-.495 3.336 3.336 0 0 1 -1.454-1.474 5.505 5.505 0 0 1 -.511-2.522 5.865 5.865 0 0 1 .511-2.633 3.323 3.323 0 0 1 1.454-1.49 5.059 5.059 0 0 1 2.337-.495 9.981 9.981 0 0 1 1.921.161 11.54 11.54 0 0 1 1.688.482.651.651 0 0 0 .083.032l.209.2-.023-2.311-.074-.031a9.009 9.009 0 0 0 -1.6-.488 8.9 8.9 0 0 0 -1.866-.193 6.574 6.574 0 0 0 -3.254.742 4.66 4.66 0 0 0 -1.988 2.264 9.4 9.4 0 0 0 -.659 3.745 9.081 9.081 0 0 0 .66 3.684 4.675 4.675 0 0 0 1.987 2.236 6.532 6.532 0 0 0 3.236.742 9.079 9.079 0 0 0 1.895-.194 9.442 9.442 0 0 0 1.662-.506l.073-.03.064-2.178-.623.2a12.77 12.77 0 0 1 -1.606.413" transform="translate(-323.342 -412.259)"/><path d="m406.174 422.82v3.713q0 1.562-.009 3.314t-.029 3.659v.123h1.276v-.123c0-.34 0-.7-.009-1.082s-.01-.783-.01-1.207c-.012-1.459-.019-3.438-.019-5.885 0-1.414.02-2.942.058-4.538v-.125h-2.311l-6.464 10.778v-5.224c0-1.6.013-3.427.038-5.43v-.124h-1.275v.123c0 .255 0 .517.009.784s.009.55.009.853q.019 1.108.019 2.26v5.6q0 .743-.009 1.552t-.028 1.66v.125h2.293z" transform="translate(-326.633 -412.325)"/><path d="m414.9 427.754v-5.077h3.578a3.843 3.843 0 0 1 1.6.307 2.374 2.374 0 0 1 1.027.855 2.83 2.83 0 0 1 -.376 3.29 3.129 3.129 0 0 1 -2.058.625zm.058 5.749q-.019-.6-.029-1.287t-.009-1.452v-1.875h3.654a6.107 6.107 0 0 0 2.365-.409 3.108 3.108 0 0 0 1.507-1.315 4.522 4.522 0 0 0 .523-2.3 4.031 4.031 0 0 0 -1.183-3.105 4.755 4.755 0 0 0 -3.326-1.086h-4.8v.122q0 .656.01 1.311t.009 1.289c.013.9.019 2.168.019 3.777v2.061q0 1.062-.019 2.13c-.013.365-.02.726-.02 1.085s-.006.708-.019 1.058v.126h1.322z" transform="translate(-330.191 -412.325)"/><path d="m436.778 431.513h-7.495v-4.1q1.54 0 3.1.009 1.62.008 3.224.009h.123v-1.3h-.124q-1.6.018-3.222.027-1.559.008-3.1.009v-3.389h7.266v-2.116h-8.53l.007.13c.013.228.02.471.02.729v.828c.025 1.679.038 3.3.038 4.83 0 1.79-.013 3.2-.038 4.2q0 .581-.009 1.115t-.029 1v.128h8.775z" transform="translate(-333.343 -412.325)"/><path d="m443.2 432.417c0-.376-.007-.765-.019-1.165q-.02-1.016-.02-2.059v-1.467h7.212v1.374q0 .988-.019 1.969l-.041 2.558h1.32v-.126q-.019-.526-.019-1.1c0-.382-.007-.774-.02-1.174q-.02-1.015-.019-2.041v-4.1q0-1.034.019-2.048c.012-.4.02-.793.02-1.175s.006-.738.019-1.077v-.127h-1.32l.022 1.215q.018 1.253.028 2.6 0 .577.006 1.149h-7.209v-.541q0-1.042.02-2.058c.012-.4.019-.789.019-1.165s.006-.729.02-1.068v-.127h-1.319l.005.128c.026.606.041 1.3.048 2.076s.01 1.564.01 2.351v3.969c0 .683-.007 1.358-.02 2.021q-.019.6-.02 1.184t-.019 1.1v.126h1.322v-.126q-.02-.526-.02-1.086" transform="translate(-336.393 -412.325)"/><path d="m466.561 431.513h-7.495v-4.1q1.54 0 3.1.009 1.62.008 3.224.009h.123v-1.3h-.124q-1.6.018-3.222.027-1.56.008-3.1.009v-3.389h7.266v-2.116h-8.533l.007.13c.013.228.02.471.02.729v.828c.025 1.679.038 3.3.038 4.83 0 1.79-.013 3.2-.038 4.2q0 .581-.009 1.115t-.029 1v.128h8.775z" transform="translate(-339.878 -412.325)"/><path d="m479.327 425.429a1.927 1.927 0 0 1 -.718.717 2.264 2.264 0 0 1 -1.168.283h-4.474v-3.679h4.512a2.311 2.311 0 0 1 1.568.468 1.655 1.655 0 0 1 .521 1.317 1.826 1.826 0 0 1 -.242.894m.014 5.582a2.37 2.37 0 0 1 -1.671.539h-4.7v-4.041h4.55a2.544 2.544 0 0 1 1.767.576 1.9 1.9 0 0 1 .628 1.481 1.871 1.871 0 0 1 -.571 1.445m1 1.681a3.318 3.318 0 0 0 1.091-2.635 3.207 3.207 0 0 0 -.745-2.151 3.051 3.051 0 0 0 -1.528-.959 2.712 2.712 0 0 0 1.256-.91 3.126 3.126 0 0 0 .635-1.956 3.194 3.194 0 0 0 -1.014-2.525 4.289 4.289 0 0 0 -2.9-.884h-5.424v.123q0 .528.009 1.11c.007.387.01.786.01 1.2q.017 1.016.019 2.041v4.051q0 1.025-.019 2.039-.02.6-.02 1.176t-.019 1.1v.126h5.677a4.418 4.418 0 0 0 2.98-.937" transform="translate(-342.928 -412.325)"/><path d="m501.647 433.507q0-.509-.01-1.064c-.006-.369-.009-.753-.009-1.155-.013-.664-.022-1.347-.028-2.041s-.009-1.395-.009-2.1 0-1.389.009-2.1.016-1.395.028-2.063q0-.6.009-1.151c.007-.369.01-.719.01-1.047v-.123h-1.293v.123c0 .172 0 .348.009.532s.009.367.009.561q.019 1.27.028 2.632t.01 2.633v1.916q0 .988-.02 1.967-.019.655-.028 1.273c-.007.412-.009.812-.009 1.2v.123h1.293z" transform="translate(-349.217 -412.325)"/><path d="m494.271 431.01a3.385 3.385 0 0 1 -2.016.5h-4.112v-4.332h4a3.2 3.2 0 0 1 2.087.6 2.065 2.065 0 0 1 .71 1.676 1.786 1.786 0 0 1 -.666 1.554m.964 1.635a3.709 3.709 0 0 0 1.129-2.934 3.433 3.433 0 0 0 -1.14-2.764 4.87 4.87 0 0 0 -3.216-.955h-3.844v-1.637q.018-.818.019-1.7t.019-1.859v-.125h-1.3v.127c.012.4.019.8.019 1.213s.006.832.019 1.254v7.875c-.026.414-.036.82-.029 1.208s0 .769-.029 1.153l-.009.13h5.089a4.83 4.83 0 0 0 3.266-.984" transform="translate(-346.261 -412.325)"/><path d="m515.52 420.67h-2.311l-6.464 10.778v-5.224c0-1.6.013-3.427.037-5.43v-.124h-1.276v.123q0 .383.009.784t.01.853q.018 1.108.019 2.26v5.6c0 .5 0 1.014-.01 1.552s-.016 1.091-.028 1.661v.125h2.294l6.464-10.811v3.713q0 1.563-.01 3.314t-.029 3.66v.123h1.275v-.123q0-.509-.01-1.083c-.006-.382-.009-.783-.009-1.207-.012-1.459-.019-3.438-.019-5.884 0-1.415.02-2.942.057-4.539z" transform="translate(-350.347 -412.325)"/><path d="m510.34 418.351a2.64 2.64 0 0 0 1.34.3 2.582 2.582 0 0 0 1.332-.3 1.644 1.644 0 0 0 .71-.862 3.876 3.876 0 0 0 .18-1.4v-.12h-.882l-.009.112a2 2 0 0 1 -.159.7.732.732 0 0 1 -.379.35 1.994 1.994 0 0 1 -.789.126 2.022 2.022 0 0 1 -.808-.127.73.73 0 0 1 -.379-.343 1.74 1.74 0 0 1 -.14-.7v-.119h-.906v.12a3.873 3.873 0 0 0 .18 1.4 1.631 1.631 0 0 0 .72.863" transform="translate(-351.21 -411.294)"/><path d="m390.216 454.67a3.23 3.23 0 0 1 -1.948.493h-4.588v-4.063h4.474a3.155 3.155 0 0 1 2.021.562 1.9 1.9 0 0 1 .679 1.568 1.67 1.67 0 0 1 -.638 1.436m-2.234-4.81h-4.3v-3.5h7.228v-2.08h-8.466v.123q0 .529.01 1.119c.006.394.009.8.009 1.209q.019 1 .02 2.031v4.041q0 1.026-.02 2.04-.02.6-.02 1.176t-.019 1.1v.126h5.448a4.966 4.966 0 0 0 3.293-.965 3.914 3.914 0 0 0 .049-5.471 4.806 4.806 0 0 0 -3.228-.947" transform="translate(-323.342 -417.506)"/><path d="m405.59 444.406q0 .492.009.948c.006.3.009.586.009.858.013.215.02.411.02.583v.518a2.863 2.863 0 0 1 -.54 1.672 3.8 3.8 0 0 1 -1.461 1.223 4.363 4.363 0 0 1 -1.939.451 5.25 5.25 0 0 1 -2.086-.344 2.184 2.184 0 0 1 -1.1-.97 3.426 3.426 0 0 1 -.339-1.6q0-.979.009-1.7t.029-1.643v-.125h-1.3v.124c.012.9.02 1.987.02 3.233a7.386 7.386 0 0 0 .447 2.77 3.289 3.289 0 0 0 1.475 1.678 5.555 5.555 0 0 0 2.682.56 4.57 4.57 0 0 0 1.774-.373 4.922 4.922 0 0 0 1.574-1.052 4.069 4.069 0 0 0 .746-1v1.361a3.653 3.653 0 0 1 -1.11 2.966 4.489 4.489 0 0 1 -2.944.926 11.926 11.926 0 0 1 -2-.17c-.672-.116-1.349-.265-1.991-.436a.464.464 0 0 0 -.134-.037l-.175-.081v2.1l.083.028a11.184 11.184 0 0 0 1.976.442 16.086 16.086 0 0 0 2.22.165 5.9 5.9 0 0 0 2.99-.68 4.17 4.17 0 0 0 1.728-1.927 7.17 7.17 0 0 0 .554-2.948c0-1.373.02-3.9.057-7.518v-.124h-1.3z" transform="translate(-326.522 -417.506)"/><path d="m422.365 446.731c0-.41 0-.816.009-1.215s.016-.767.029-1.105l.006-.127h-8.151v.127c.012.315.023.625.029.934s.009.624.009.952q.019 1.109.029 2.243t.009 2.279a16.605 16.605 0 0 1 -.188 2.9 2.061 2.061 0 0 1 -.6 1.26 2.229 2.229 0 0 1 -1.356.329h-.162a.816.816 0 0 1 -.162-.018 2.134 2.134 0 0 1 -.323-.017l-.143-.023v2.144l.108.012a8.533 8.533 0 0 0 1.006.055 3.2 3.2 0 0 0 1.873-.468 2.608 2.608 0 0 0 .907-1.654 18.12 18.12 0 0 0 .241-3.431v-2.879q0-1.362-.018-2.685h5.61q.018.926.018 1.93v4.387c0 .756-.007 1.5-.02 2.24q-.019.6-.02 1.158c0 .368-.006.72-.019 1.058v.128h1.322v-.128c-.013-.373-.019-.76-.019-1.158s-.007-.807-.02-1.219c-.013-.677-.019-1.353-.019-2.023v-4.051q0-.989.019-1.935" transform="translate(-329.701 -417.506)"/><path d="m436.556 454.625a3.383 3.383 0 0 1 -2.024.5h-4.36v-4.325h4.245a3.19 3.19 0 0 1 2.1.6 2.079 2.079 0 0 1 .7 1.677 1.8 1.8 0 0 1 -.656 1.555m-2.272-5.019h-4.093v-1.637q.019-.818.02-1.7t.019-1.859v-.125h-1.3v.127c.013.4.02.8.02 1.213s.006.831.02 1.254v7.875c-.026.415-.036.821-.029 1.208s0 .769-.029 1.153l-.009.13h5.338a4.87 4.87 0 0 0 3.275-.984 3.7 3.7 0 0 0 1.139-2.935 3.417 3.417 0 0 0 -1.15-2.764 4.906 4.906 0 0 0 -3.225-.955" transform="translate(-333.542 -417.506)"/><path d="m451.079 454.624a2.367 2.367 0 0 1 -1.671.539h-4.7v-4.041h4.549a2.543 2.543 0 0 1 1.767.576 1.9 1.9 0 0 1 .628 1.481 1.87 1.87 0 0 1 -.572 1.445m-.013-5.583a1.933 1.933 0 0 1 -.719.717 2.267 2.267 0 0 1 -1.167.283h-4.474v-3.679h4.511a2.312 2.312 0 0 1 1.568.468 1.658 1.658 0 0 1 .522 1.317 1.832 1.832 0 0 1 -.242.894m-.165 1.518a2.71 2.71 0 0 0 1.255-.911 3.119 3.119 0 0 0 .635-1.955 3.194 3.194 0 0 0 -1.014-2.525 4.284 4.284 0 0 0 -2.9-.885h-5.424v.123q0 .529.01 1.11c.006.388.009.787.009 1.2q.019 1.016.02 2.041v4.05q0 1.026-.02 2.04-.02.6-.02 1.176t-.019 1.1v.126h5.667a4.424 4.424 0 0 0 2.98-.937 3.318 3.318 0 0 0 1.091-2.636 3.206 3.206 0 0 0 -.745-2.151 3.048 3.048 0 0 0 -1.528-.959" transform="translate(-336.727 -417.506)"/><path d="m460.266 452 1.91-5.476h.99l1.934 5.476zm6.83 1.916q-.562-1.582-1.134-3.177-.554-1.6-1.126-3.2t-1.144-3.179l-.03-.081h-1.962l-.029.081q-.4 1.126-.8 2.243c-.272.758-.536 1.519-.783 2.262q-.725 2.051-1.5 4.2c-.514 1.432-1.005 2.78-1.459 4l-.061.165h1.369l1.14-3.269h6.211l1.152 3.269h1.327l-.056-.163q-.554-1.58-1.116-3.161" transform="translate(-339.72 -417.506)"/><path d="m481.2 448.8a2.4 2.4 0 0 1 -.738 1.94 3.121 3.121 0 0 1 -2.057.625h-3.765v-5.077h3.577a3.846 3.846 0 0 1 1.6.307 2.379 2.379 0 0 1 1.026.855 2.428 2.428 0 0 1 .361 1.35m-3.005-4.519h-4.8v.123q0 .655.01 1.31t.009 1.29c.012.9.019 2.167.019 3.777v2.061q0 1.063-.019 2.131c-.013.365-.02.725-.02 1.084s-.006.708-.019 1.059v.127h1.321v-.127q-.019-.6-.029-1.287c-.006-.459-.009-.944-.009-1.451v-1.878h3.654a6.12 6.12 0 0 0 2.365-.409 3.108 3.108 0 0 0 1.507-1.315 4.535 4.535 0 0 0 .523-2.3 4.028 4.028 0 0 0 -1.184-3.105 4.752 4.752 0 0 0 -3.325-1.087" transform="translate(-343.299 -417.506)"/></g></svg>