<svg xmlns="http://www.w3.org/2000/svg" viewBox="0 0 83.03 44.97"><defs><style>.cls-1{fill:#1f305b;}</style></defs><g id="Слой_2" data-name="Слой 2"><g id="Слой_1-2" data-name="Слой 1"><rect class="cls-1" x="34.18" y="7.11" width="3.12" height="14.02"/><rect class="cls-1" x="45.73" y="7.11" width="3.12" height="14.02"/><rect class="cls-1" x="31.06" width="20.9" height="3.12"/><rect class="cls-1" x="39.96" y="7.11" width="3.12" height="14.02"/><rect class="cls-1" x="32.6" y="4.45" width="17.82" height="1.33"/><path class="cls-1" d="M11.48,38.07c0,3.76-1.81,5.46-4,5.46s-4-1.7-4-5.46V36.83c0-3.76,1.8-5.46,4-5.46a3.55,3.55,0,0,1,2.85,1.32,6.44,6.44,0,0,1,1.19,4.14Zm-4-8a7.45,7.45,0,1,0,7.44,7.44,7.44,7.44,0,0,0-7.44-7.44"/><polygon class="cls-1" points="20.3 30.47 20.79 31.81 15.53 44.49 17.27 44.49 21.59 34 25.4 44.49 29.2 44.49 24.11 30.47 20.3 30.47"/><polygon class="cls-1" points="69.96 30.47 69.96 44.49 73.08 44.49 73.08 31.8 79.91 31.8 79.91 44.49 83.03 44.49 83.03 30.47 69.96 30.47"/><polygon class="cls-1" points="41.4 31.8 34.55 40.56 34.55 30.47 31.43 30.47 31.43 44.49 34.55 44.49 34.55 43.16 41.4 34.36 41.4 44.49 44.51 44.49 44.51 30.47 41.4 30.47 41.4 31.8"/><polygon class="cls-1" points="59.84 30.47 60.2 31.85 60.2 31.85 56.99 40.09 53.91 30.47 50.11 30.47 50.49 31.65 47.19 44.49 48.84 44.49 51.39 34.47 54.6 44.49 55.28 44.49 57.04 44.49 57.78 42.55 60.86 34.43 63.44 44.49 67.24 44.49 63.64 30.47 59.84 30.47"/></g></g></svg>