<svg viewBox="0 0 83.03 44.97" xmlns="http://www.w3.org/2000/svg"><g fill="#1f305b"><path d="m34.18 7.11h3.12v14.02h-3.12z"/><path d="m45.73 7.11h3.12v14.02h-3.12z"/><path d="m31.06 0h20.9v3.12h-20.9z"/><path d="m39.96 7.11h3.12v14.02h-3.12z"/><path d="m32.6 4.45h17.82v1.33h-17.82z"/><path d="m11.48 38.07c0 3.76-1.81 5.46-4 5.46s-4-1.7-4-5.46v-1.24c0-3.76 1.8-5.46 4-5.46a3.55 3.55 0 0 1 2.85 1.32 6.44 6.44 0 0 1 1.19 4.14zm-4-8a7.45 7.45 0 1 0 7.44 7.44 7.44 7.44 0 0 0 -7.44-7.44"/><path d="m20.3 30.47.49 1.34-5.26 12.68h1.74l4.32-10.49 3.81 10.49h3.8l-5.09-14.02z"/><path d="m69.96 30.47v14.02h3.12v-12.69h6.83v12.69h3.12v-14.02z"/><path d="m41.4 31.8-6.85 8.76v-10.09h-3.12v14.02h3.12v-1.33l6.85-8.8v10.13h3.11v-14.02h-3.11z"/><path d="m59.84 30.47.36 1.38-3.21 8.24-3.08-9.62h-3.8l.38 1.18-3.3 12.84h1.65l2.55-10.02 3.21 10.02h.68 1.76l.74-1.94 3.08-8.12 2.58 10.06h3.8l-3.6-14.02z"/></g></svg>