<svg width="8" height="14" viewBox="0 0 8 14" fill="none" xmlns="http://www.w3.org/2000/svg">
<path d="M0.217211 6.45372L6.27705 0.223657C6.4172 0.0794465 6.6043 0 6.8038 0C7.00329 0 7.19039 0.0794465 7.33055 0.223657L7.77681 0.682352C8.0672 0.981244 8.0672 1.46703 7.77681 1.76547L2.68822 6.9971L7.78246 12.2345C7.92261 12.3787 8 12.571 8 12.776C8 12.9812 7.92261 13.1734 7.78246 13.3178L7.33619 13.7763C7.19593 13.9206 7.00894 14 6.80944 14C6.60995 14 6.42285 13.9206 6.28269 13.7763L0.217211 7.54059C0.0767224 7.39592 -0.000441009 7.20277 1.82352e-06 6.99744C-0.000441009 6.79131 0.0767224 6.59827 0.217211 6.45372Z" fill="#20A052"/>
</svg>
