<svg fill="none" height="50" viewBox="0 0 50 50" width="50" xmlns="http://www.w3.org/2000/svg"><circle cx="25" cy="25" fill="#fff" r="25"/><path d="m34.2778 16.3607h-3.5833v-1.1945c0-1.3167-1.0722-2.3889-2.3889-2.3889h-13.1389c-1.3167 0-2.3889 1.0722-2.3889 2.3889v15.5278c0 1.3167 1.0722 2.3889 2.3889 2.3889h3.5834v1.1944c0 1.3168 1.0721 2.3889 2.3888 2.3889h13.1389c1.3167 0 2.3889-1.0721 2.3889-2.3889v-15.5277c0-1.3167-1.0722-2.3889-2.3889-2.3889zm-15.5277 2.3889v11.9444h-3.5834v-15.5278h13.1389v1.1945h-7.1667c-1.3167 0-2.3888 1.0722-2.3888 2.3889zm9.5555 13.1389h-5.9722c-.6584 0-1.1945-.5361-1.1945-1.1945 0-.6583.5361-1.1944 1.1945-1.1944h5.9722c.6584 0 1.1945.5361 1.1945 1.1944 0 .6584-.5361 1.1945-1.1945 1.1945zm4.7778-4.7778h-10.75c-.6584 0-1.1945-.5361-1.1945-1.1945 0-.6583.5361-1.1944 1.1945-1.1944h10.75c.6583 0 1.1944.5361 1.1944 1.1944 0 .6584-.5361 1.1945-1.1944 1.1945zm0-4.7778h-10.75c-.6584 0-1.1945-.5361-1.1945-1.1944 0-.6584.5361-1.1945 1.1945-1.1945h10.75c.6583 0 1.1944.5361 1.1944 1.1945 0 .6583-.5361 1.1944-1.1944 1.1944z" fill="#82ca9e"/></svg>