<svg width="66" height="66" viewBox="0 0 66 66" fill="none" xmlns="http://www.w3.org/2000/svg">
<path d="M64.9 63.8H58.3V27.5C58.3 26.8925 57.8075 26.4 57.2 26.4H41.8V1.1C41.8 0.492525 41.3075 0 40.7 0H12.1C11.4925 0 11 0.492525 11 1.1V63.8H1.1C0.492525 63.8 0 64.2925 0 64.9C0 65.5075 0.492525 66 1.1 66H64.9C65.5075 66 66 65.5075 66 64.9C66 64.2925 65.5075 63.8 64.9 63.8ZM23.1 63.8H18.7V53.9C18.7 53.2925 19.1925 52.8 19.8 52.8H22C22.6075 52.8 23.1 53.2925 23.1 53.9V63.8ZM27.5 27.5V63.8H25.3V53.9C25.3 52.0774 23.8226 50.6 22 50.6H19.8C17.9774 50.6 16.5 52.0774 16.5 53.9V63.8H13.2V2.2H39.6V26.4H28.6C27.9925 26.4 27.5 26.8925 27.5 27.5ZM56.1 63.8H29.7V28.6H56.1V63.8Z" fill="#7FCB9C"/>
<path d="M35.2 15.4H28.6C27.9925 15.4 27.5 15.8925 27.5 16.5V23.1C27.5 23.7075 27.9925 24.2 28.6 24.2H35.2C35.8075 24.2 36.3 23.7075 36.3 23.1V16.5C36.3 15.8925 35.8075 15.4 35.2 15.4ZM34.1 22H29.7V17.6H34.1V22Z" fill="#7FCB9C"/>
<path d="M35.2 4.4H28.6C27.9925 4.4 27.5 4.89252 27.5 5.5V12.1C27.5 12.7075 27.9925 13.2 28.6 13.2H35.2C35.8075 13.2 36.3 12.7075 36.3 12.1V5.5C36.3 4.89252 35.8075 4.4 35.2 4.4ZM34.1 11H29.7V6.6H34.1V11Z" fill="#7FCB9C"/>
<path d="M24.2 15.4H17.6C16.9925 15.4 16.5 15.8925 16.5 16.5V23.1C16.5 23.7075 16.9925 24.2 17.6 24.2H24.2C24.8075 24.2 25.3 23.7075 25.3 23.1V16.5C25.3 15.8925 24.8075 15.4 24.2 15.4ZM23.1 22H18.7V17.6H23.1V22Z" fill="#7FCB9C"/>
<path d="M24.2 4.4H17.6C16.9925 4.4 16.5 4.89252 16.5 5.5V12.1C16.5 12.7075 16.9925 13.2 17.6 13.2H24.2C24.8075 13.2 25.3 12.7075 25.3 12.1V5.5C25.3 4.89252 24.8075 4.4 24.2 4.4ZM23.1 11H18.7V6.6H23.1V11Z" fill="#7FCB9C"/>
<path d="M24.2 26.4H17.6C16.9925 26.4 16.5 26.8925 16.5 27.5V34.1C16.5 34.7075 16.9925 35.2 17.6 35.2H24.2C24.8075 35.2 25.3 34.7075 25.3 34.1V27.5C25.3 26.8925 24.8075 26.4 24.2 26.4ZM23.1 33H18.7V28.6H23.1V33Z" fill="#7FCB9C"/>
<path d="M24.2 37.4H17.6C16.9925 37.4 16.5 37.8925 16.5 38.5V45.1C16.5 45.7075 16.9925 46.2 17.6 46.2H24.2C24.8075 46.2 25.3 45.7075 25.3 45.1V38.5C25.3 37.8925 24.8075 37.4 24.2 37.4ZM23.1 44H18.7V39.6H23.1V44Z" fill="#7FCB9C"/>
<path d="M45.1 50.6H51.7C52.3075 50.6 52.8 50.1075 52.8 49.5V42.9C52.8 42.2925 52.3075 41.8 51.7 41.8H45.1C44.4925 41.8 44 42.2925 44 42.9V49.5C44 50.1075 44.4925 50.6 45.1 50.6ZM46.2 44H50.6V48.4H46.2V44Z" fill="#7FCB9C"/>
<path d="M45.1 39.6H51.7C52.3075 39.6 52.8 39.1075 52.8 38.5V31.9C52.8 31.2925 52.3075 30.8 51.7 30.8H45.1C44.4925 30.8 44 31.2925 44 31.9V38.5C44 39.1075 44.4925 39.6 45.1 39.6ZM46.2 33H50.6V37.4H46.2V33Z" fill="#7FCB9C"/>
<path d="M45.1 61.6H51.7C52.3075 61.6 52.8 61.1075 52.8 60.5V53.9C52.8 53.2925 52.3075 52.8 51.7 52.8H45.1C44.4925 52.8 44 53.2925 44 53.9V60.5C44 61.1075 44.4925 61.6 45.1 61.6ZM46.2 55H50.6V59.4H46.2V55Z" fill="#7FCB9C"/>
<path d="M34.1 50.6H40.7C41.3075 50.6 41.8 50.1075 41.8 49.5V42.9C41.8 42.2925 41.3075 41.8 40.7 41.8H34.1C33.4925 41.8 33 42.2925 33 42.9V49.5C33 50.1075 33.4925 50.6 34.1 50.6ZM35.2 44H39.6V48.4H35.2V44Z" fill="#7FCB9C"/>
<path d="M34.1 39.6H40.7C41.3075 39.6 41.8 39.1075 41.8 38.5V31.9C41.8 31.2925 41.3075 30.8 40.7 30.8H34.1C33.4925 30.8 33 31.2925 33 31.9V38.5C33 39.1075 33.4925 39.6 34.1 39.6ZM35.2 33H39.6V37.4H35.2V33Z" fill="#7FCB9C"/>
<path d="M34.1 61.6H40.7C41.3075 61.6 41.8 61.1075 41.8 60.5V53.9C41.8 53.2925 41.3075 52.8 40.7 52.8H34.1C33.4925 52.8 33 53.2925 33 53.9V60.5C33 61.1075 33.4925 61.6 34.1 61.6ZM35.2 55H39.6V59.4H35.2V55Z" fill="#7FCB9C"/>
</svg>
