<svg width="19" height="19" viewBox="0 0 19 19" fill="none" xmlns="http://www.w3.org/2000/svg">
<path d="M14.7403 6.00298C14.6333 4.96527 14.4627 4.1573 14.1929 3.83972C13.0805 2.53392 5.28808 2.43836 4.40334 3.83972C4.18692 4.18305 4.03513 4.98816 3.93327 6.0047C3.60459 6.04304 3.34863 6.31742 3.34863 6.65331V7.92449C3.34863 8.20716 3.52927 8.44549 3.78148 8.53847C3.72175 10.5407 3.77023 12.6295 3.85968 13.6684C3.85968 14.4704 4.40305 14.3373 4.40305 14.3373H4.91237V15.2031C4.91237 15.5464 5.26933 15.8242 5.7091 15.8242C6.14945 15.8242 6.50641 15.5464 6.50641 15.2031V14.3373H12.4318V15.2031C12.4318 15.5464 12.7885 15.8242 13.2288 15.8242C13.6686 15.8242 14.0256 15.5464 14.0256 15.2031V14.3373H14.1929C14.1929 14.3373 14.8324 14.4243 14.8734 14.0466C14.8734 13.0106 14.9392 10.7146 14.8849 8.54734C15.153 8.46409 15.3486 8.21918 15.3486 7.92449V6.65331C15.3489 6.3094 15.0806 6.03045 14.7403 6.00298ZM6.30643 4.02597H12.2898V4.9235H6.30643V4.02597ZM6.39185 13.315C5.92206 13.315 5.54144 12.9374 5.54144 12.4716C5.54144 12.0061 5.92206 11.6287 6.39185 11.6287C6.86163 11.6287 7.24254 12.0061 7.24254 12.4716C7.24254 12.9374 6.86192 13.315 6.39185 13.315ZM12.2578 13.315C11.7883 13.315 11.4068 12.9374 11.4068 12.4716C11.4068 12.0061 11.788 11.6287 12.2578 11.6287C12.7276 11.6287 13.1082 12.0061 13.1082 12.4716C13.1085 12.9374 12.7276 13.315 12.2578 13.315ZM13.3391 9.62425H5.25721V5.42132H13.3391V9.62425Z" fill="#999999"/>
</svg>
