<svg width="32" height="32" viewBox="0 0 32 32" fill="none" xmlns="http://www.w3.org/2000/svg">
<path d="M21.9367 13.8738C22.713 13.6996 23.429 13.0265 23.5457 11.5336C23.6418 10.3117 23.3431 9.68223 22.9021 9.36146C24.1264 4.12624 20.7496 3.10139 20.7496 3.10139C20.7496 3.10139 18.2259 -1.39007 13.3023 1.76182C12.676 2.16262 11.7023 2.93058 11.1222 3.72343C10.1908 4.76308 9.55682 6.45301 9.45746 9.18998C8.85619 9.43073 8.38376 10.04 8.50107 11.5329C8.62414 13.0937 9.40041 13.7581 10.2171 13.8939C11.3196 16.7109 13.4965 19.0323 16.0727 19.0323C18.6547 19.0323 20.8361 16.7002 21.9367 13.8738ZM16.0727 17.719C13.0939 17.719 10.6953 13.4757 10.6953 9.96198C10.6953 9.48049 10.71 9.03397 10.7382 8.61972C15.0952 8.81945 17.6721 6.98695 19.0746 5.39722C20.4047 6.7879 21.0957 8.5444 21.4489 9.84833C21.4489 9.88599 21.4496 9.92298 21.4496 9.96131C21.4502 13.4757 19.0522 17.719 16.0727 17.719Z" fill="#20A052"/>
<path d="M14.3664 23.0315L14.7112 21.5339C14.751 21.3611 14.8362 21.2132 14.9516 21.0995C14.9163 21.0733 14.8817 21.0457 14.8478 21.0168L11.767 18.341L9.89207 18.801C6.71712 19.5844 4.47998 22.3974 4.47998 25.6239V29.8605C4.47998 30.6944 5.18702 31.3595 6.03316 31.3595H13.9696L15.1798 24.1223C14.6362 24.1149 14.2381 23.5883 14.3664 23.0315Z" fill="#20A052"/>
<path d="M22.1406 18.801L20.2913 18.341L17.2137 21.0168C17.1798 21.0457 17.1464 21.0733 17.1112 21.0995C17.2272 21.2132 17.3125 21.3611 17.3528 21.5339L17.6971 23.0315C17.8259 23.5877 17.4278 24.1149 16.8836 24.123L18.0939 31.3601H26.0303C26.8764 31.3601 27.52 30.6957 27.52 29.8612V25.6246C27.5213 22.3974 25.3155 19.5844 22.1406 18.801Z" fill="#20A052"/>
</svg>
