<svg width="19" height="19" viewBox="0 0 40 40" fill="none" xmlns="http://www.w3.org/2000/svg">
<path d="M5.27327 6H7.53949M3 30.7451C2.99991 31.0412 3.05846 31.3344 3.1723 31.6079C3.28615 31.8815 3.45306 32.1301 3.66351 32.3395C3.87395 32.5489 4.12381 32.715 4.39881 32.8283C4.6738 32.9417 4.96855 33 5.26622 33H34.7338C35.9854 33 37 31.9908 37 30.7459V12.7128C37 12.115 36.7612 11.5416 36.3362 11.1189C35.9112 10.6962 35.3348 10.4587 34.7338 10.4586H31.1402C30.8426 10.4587 30.5479 10.4004 30.2729 10.2871C29.998 10.1738 29.7481 10.0078 29.5377 9.79847L26.3826 6.66024C26.1722 6.45092 25.9224 6.28488 25.6474 6.1716C25.3725 6.05831 25.0778 6.00001 24.7802 6H15.2269C14.9293 6 14.6346 6.05831 14.3597 6.17159C14.0847 6.28488 13.8349 6.45092 13.6245 6.66024C12.5728 7.70626 11.5211 8.75234 10.4695 9.79847C10.0445 10.2212 9.46807 10.4586 8.86705 10.4586H5.2725C4.02127 10.4586 3.00677 11.4674 3.00628 12.712L3 30.7451ZM20.0035 13.8398C23.7558 13.8398 26.8021 16.87 26.8021 20.6022C26.8021 24.3345 23.7558 27.3646 20.0035 27.3646C16.2513 27.3646 13.2049 24.3345 13.2049 20.6022C13.2049 16.87 16.2513 13.8398 20.0035 13.8398Z" stroke="white" stroke-width="3.6" stroke-miterlimit="10" stroke-linecap="round" stroke-linejoin="round"/>
</svg>
