<svg width="17" height="10" viewBox="0 0 17 10" fill="none" xmlns="http://www.w3.org/2000/svg">
  <path d="M10.14 0H1.85996C0.83698 0 0 0.837989 0 1.8622V8.1378C0 9.16201 0.83698 10 1.85996 10H10.14C11.163 10 12 9.16201 12 8.1378V1.8622C12 0.819367 11.163 0 10.14 0Z" fill="#ffffff"/>
  <path d="M15.6236 1.02421C15.512 1.04283 15.4004 1.0987 15.3074 1.15456L13 3V7L15.326 8.82682C15.8654 9.14339 16.535 8.95717 16.8512 8.41713C16.9442 8.24953 17 8.06331 17 7.85847V2.10428C17 1.41527 16.349 0.856611 15.6236 1.02421Z" fill="#ffffff"/>
</svg>
