<svg fill="none" height="50" viewBox="0 0 50 50" width="50" xmlns="http://www.w3.org/2000/svg"><circle cx="25" cy="25" fill="#fff" r="25"/><g fill="#82ca9e"><path d="m13.6091 22.3396c-.1725-.0994-.3852-.0989-.5556.0016l-.2864.1663c-1.0505.6128-1.4129 1.9742-.8063 3.0341l.8899 1.5564c.0998.176.2864.2798.4818.2798.0477 0 .0954-.006.1432-.0185.2431-.0652.4123-.2857.4123-.5378v-3.9995c0-.1988-.1063-.383-.2789-.4824z"/><path d="m20.0897 19.434h14.119c.1986 0 .3809-.1053.4808-.2771.0998-.1716.0998-.3835.0011-.5557l-2.7043-4.7296c-.5849-1.0235-1.9945-1.407-3.0167-.8138l-9.1598 5.3391c-.2171.1266-.3223.3831-.2561.6259.0651.2428.2853.4112.536.4112z"/><path d="m36.1112 20.5551h-18.8889c-1.225 0-2.2222.9966-2.2222 2.2222v12.2222c0 1.2256.9972 2.2223 2.2222 2.2223h18.8889c1.225 0 2.2222-.9967 2.2222-2.2223v-12.2222c0-1.2256-.9972-2.2222-2.2222-2.2222zm-14.444 4.4539c1.2251 0 2.2223.9974 2.2223 2.2239 0 1.2266-.9973 2.224-2.2223 2.224-1.2251 0-2.2223-.9974-2.2223-2.224 0-1.2265.9972-2.2239 2.2223-2.2239zm4.4446 7.8185c0 .594-.4981 1.0772-1.1111 1.0772h-6.667c-.6131 0-1.1112-.4832-1.1112-1.0772v-.2542c0-.7394.4308-1.4067 1.1253-1.7412.7769-.3735 1.9825-.8193 3.3194-.8193 1.3368 0 2.5424.4458 3.3193.8193.6945.3345 1.1253 1.0018 1.1253 1.7412zm9.4438-1.1613h-6.6669c-.3071 0-.5556-.2485-.5556-.5556 0-.307.2485-.5555.5556-.5555h6.6669c.3071 0 .5556.2485.5556.5555 0 .3071-.2485.5556-.5556.5556zm.001-3.3333h-8.8892c-.3071 0-.5556-.2485-.5556-.5556s.2485-.5556.5556-.5556h8.8892c.3071 0 .5556.2485.5556.5556s-.2485.5556-.5556.5556z"/></g></svg>