<svg width="18" height="18" viewBox="0 0 18 18" fill="none" xmlns="http://www.w3.org/2000/svg">
<path fill-rule="evenodd" clip-rule="evenodd" d="M13.3264 1.10103C12.0034 0.377179 10.5195 -0.00146623 9.01174 2.52886e-05C7.66606 -0.00316792 6.33683 0.296085 5.12209 0.875712C3.90734 1.45534 2.83807 2.30055 1.99314 3.34902C1.1482 4.39748 0.549154 5.62245 0.240182 6.93358C-0.0687904 8.2447 -0.0798073 9.60854 0.207944 10.9245C0.495694 12.2405 1.07487 13.475 1.90276 14.537C2.73065 15.599 3.78612 16.4614 4.99135 17.0606C6.19657 17.6598 7.52079 17.9805 8.86635 17.9991C10.2119 18.0177 11.5445 17.7337 12.7657 17.168C13.2138 16.9684 13.721 16.947 14.1842 17.108L16.6816 17.948C16.8582 18.0058 17.0473 18.0135 17.2281 17.9702C17.4088 17.927 17.574 17.8344 17.7054 17.7029C17.8368 17.5714 17.9292 17.406 17.9724 17.2251C18.0156 17.0442 18.008 16.8548 17.9502 16.678L17.1111 14.178C16.9502 13.7142 16.9717 13.2066 17.1711 12.758C17.8035 11.3879 18.081 9.88031 17.9781 8.37446C17.8752 6.86861 17.3951 5.41296 16.5821 4.14179C15.7692 2.87063 14.6495 1.82488 13.3264 1.10103ZM9.71876 10.115C9.72308 10.1048 9.80272 9.91668 10.3531 9.55103H10.3541C10.8075 9.29067 11.1698 8.89679 11.3916 8.42297C11.6134 7.94916 11.684 7.41844 11.5938 6.90303C11.4758 6.25871 11.1216 5.68177 10.6006 5.28545C10.0796 4.88913 9.42948 4.70205 8.77778 4.76091C8.12608 4.81978 7.51989 5.12034 7.07817 5.60362C6.63646 6.08689 6.39112 6.71798 6.3903 7.37303C6.3903 7.57194 6.46924 7.7627 6.60974 7.90336C6.75024 8.04401 6.94081 8.12303 7.13951 8.12303C7.33821 8.12303 7.52877 8.04401 7.66927 7.90336C7.80978 7.7627 7.88871 7.57194 7.88871 7.37303C7.88832 7.20884 7.92389 7.04656 7.99293 6.89763C8.06197 6.7487 8.16279 6.61673 8.28829 6.51103C8.43854 6.38479 8.61917 6.30008 8.81223 6.26532C9.0053 6.23055 9.20409 6.24694 9.38887 6.31284C9.57366 6.37875 9.73801 6.49188 9.86562 6.64102C9.99324 6.79016 10.0797 6.97012 10.1163 7.16303C10.156 7.39124 10.1196 7.62617 10.0127 7.83163C9.90585 8.03709 9.73447 8.20167 9.52497 8.30003C8.98555 8.60531 8.5565 9.07368 8.29927 9.63803C8.2374 9.82329 8.25132 10.0256 8.33799 10.2006C8.42466 10.3756 8.57703 10.5091 8.76178 10.572C8.8086 10.589 8.91963 10.601 8.98389 10.6079C9.00656 10.6104 9.02341 10.6122 9.02956 10.6134L9.02753 10.6148C9.02928 10.6148 9.03125 10.6145 9.03125 10.6145C9.03575 10.6144 9.04024 10.6145 9.04471 10.6142C9.1888 10.6076 9.32115 10.5597 9.4404 10.476C9.56761 10.3867 9.66468 10.2608 9.71876 10.115ZM9.01574 10.615L9.02753 10.6148C9.02486 10.615 9.02097 10.615 9.01574 10.615ZM9.0295 13.5C8.76456 13.5014 8.50995 13.3973 8.32168 13.2107C8.1334 13.0241 8.02689 12.7702 8.02557 12.505C8.02424 12.2398 8.12822 11.9849 8.31462 11.7965C8.50102 11.608 8.75457 11.5014 9.01951 11.5H9.0295C9.29443 11.5 9.54852 11.6054 9.73585 11.7929C9.92319 11.9805 10.0284 12.2348 10.0284 12.5C10.0284 12.7652 9.92319 13.0196 9.73585 13.2071C9.54852 13.3947 9.29443 13.5 9.0295 13.5Z" fill="#20A052"/>
</svg>
