<svg width="50" height="50" viewBox="0 0 50 50" fill="none" xmlns="http://www.w3.org/2000/svg">
<circle cx="25" cy="25" r="25" fill="white"/>
<path d="M33.4445 14.4443H20.7778C19.6167 14.4443 18.6667 15.3943 18.6667 16.5554V29.2221C18.6667 30.3832 19.6167 31.3332 20.7778 31.3332H33.4445C34.6056 31.3332 35.5556 30.3832 35.5556 29.2221V16.5554C35.5556 15.3943 34.6056 14.4443 33.4445 14.4443ZM25.4961 27.111L21.8333 23.4166L23.3111 21.9282L25.4961 24.1238L30.9111 18.6666L32.3889 20.1549L25.4961 27.111ZM16.5556 18.6666H14.4445V33.4443C14.4445 34.6054 15.3945 35.5554 16.5556 35.5554H31.3333V33.4443H16.5556V18.6666Z" fill="#82CA9E"/>
</svg>
