<svg width="24" height="24" viewBox="0 0 18 18" xmlns="http://www.w3.org/2000/svg">
<path d="M13.7785 4.22908C13.7083 4.15877 13.625 4.10298 13.5332 4.06492C13.4415 4.02686 13.3431 4.00726 13.2438 4.00726C13.1444 4.00726 13.0461 4.02686 12.9543 4.06492C12.8625 4.10298 12.7792 4.15877 12.709 4.22908L9 7.93053L5.29097 4.2215C5.22075 4.15127 5.13738 4.09557 5.04563 4.05756C4.95388 4.01956 4.85554 4 4.75623 4C4.65692 4 4.55859 4.01956 4.46683 4.05756C4.37508 4.09557 4.29172 4.15127 4.2215 4.2215C4.15127 4.29172 4.09557 4.37508 4.05756 4.46683C4.01956 4.55859 4 4.65692 4 4.75623C4 4.85554 4.01956 4.95388 4.05756 5.04563C4.09557 5.13738 4.15127 5.22075 4.2215 5.29097L7.93053 9L4.2215 12.709C4.15127 12.7793 4.09557 12.8626 4.05756 12.9544C4.01956 13.0461 4 13.1445 4 13.2438C4 13.3431 4.01956 13.4414 4.05756 13.5332C4.09557 13.6249 4.15127 13.7083 4.2215 13.7785C4.29172 13.8487 4.37508 13.9044 4.46683 13.9424C4.55859 13.9804 4.65692 14 4.75623 14C4.85554 14 4.95388 13.9804 5.04563 13.9424C5.13738 13.9044 5.22075 13.8487 5.29097 13.7785L9 10.0695L12.709 13.7785C12.7793 13.8487 12.8626 13.9044 12.9544 13.9424C13.0461 13.9804 13.1445 14 13.2438 14C13.3431 14 13.4414 13.9804 13.5332 13.9424C13.6249 13.9044 13.7083 13.8487 13.7785 13.7785C13.8487 13.7083 13.9044 13.6249 13.9424 13.5332C13.9804 13.4414 14 13.3431 14 13.2438C14 13.1445 13.9804 13.0461 13.9424 12.9544C13.9044 12.8626 13.8487 12.7793 13.7785 12.709L10.0695 9L13.7785 5.29097C14.0667 5.00274 14.0667 4.51731 13.7785 4.22908Z"/>
</svg>
