<svg width="40" height="40" viewBox="0 0 40 40" fill="none" xmlns="http://www.w3.org/2000/svg">
<path d="M10.9424 22.027L16.0245 23.8337C16.7248 24.0828 17.3584 24.4876 17.8769 25.017C18.3953 25.5464 18.785 26.1864 19.016 26.8881L21.4354 34.4443C21.7842 35.5024 22.9306 36.0789 23.997 35.7328C25.951 35.1001 27.1929 33.299 27.1929 31.3645C27.1929 30.8905 27.1185 30.4088 26.9619 29.9348L25.2856 24.6339H33.4425C35.9619 24.6339 37.8725 22.3786 37.4382 19.9161L35.6931 11.099C35.2554 8.6155 33.0826 6.80335 30.5421 6.80335H19.8014C19.0982 6.80335 18.4095 6.94224 17.7719 7.20348C17.1282 7.46771 16.5435 7.85541 16.0512 8.34434C15.5586 8.83329 14.9738 9.22114 14.3301 9.48573C13.6865 9.75033 12.9966 9.88649 12.2998 9.88644H10.9424M2.5 6.66666H10.9424V25.4055H2.5V6.66666Z" stroke="black" stroke-width="1.6" stroke-miterlimit="10" stroke-linecap="round" stroke-linejoin="round"/>
</svg>
