<svg width="32" height="32" viewBox="0 0 32 32" fill="none" xmlns="http://www.w3.org/2000/svg">
<path d="M26.015 13.5884H23.8372C24.0592 14.1986 24.1805 14.8572 24.1805 15.5435V27.9837C24.1805 28.2699 24.1308 28.5446 24.0406 28.8H27.641C28.9859 28.8 30.08 27.7015 30.08 26.3512V17.6698C30.08 15.4194 28.2565 13.5884 26.015 13.5884Z" fill="#20A052"/>
<path d="M7.81956 15.5436C7.81956 14.8572 7.94084 14.1987 8.16282 13.5885H5.98503C3.74356 13.5885 1.91998 15.4194 1.91998 17.6699V26.3513C1.91998 27.7016 3.0141 28.8001 4.35901 28.8001H7.95943C7.86917 28.5446 7.81956 28.27 7.81956 27.9838V15.5436Z" fill="#20A052"/>
<path d="M18.4894 11.4621H13.5106C11.2692 11.4621 9.4456 13.2931 9.4456 15.5435V27.9838C9.4456 28.4346 9.80959 28.8001 10.2586 28.8001H21.7414C22.1904 28.8001 22.5544 28.4346 22.5544 27.9838V15.5435C22.5544 13.2931 20.7308 11.4621 18.4894 11.4621Z" fill="#20A052"/>
<path d="M16 0.640137C13.3043 0.640137 11.1113 2.84203 11.1113 5.54859C11.1113 7.38442 12.1205 8.98777 13.6109 9.82956C14.3178 10.2288 15.1328 10.457 16 10.457C16.8672 10.457 17.6822 10.2288 18.3892 9.82956C19.8796 8.98777 20.8887 7.38436 20.8887 5.54859C20.8887 2.84208 18.6957 0.640137 16 0.640137Z" fill="#20A052"/>
<path d="M7.41548 5.21517C5.39945 5.21517 3.75935 6.86187 3.75935 8.88601C3.75935 10.9101 5.39945 12.5568 7.41548 12.5568C7.92687 12.5568 8.41384 12.4505 8.8562 12.2593C9.62104 11.9287 10.2517 11.3435 10.6419 10.6104C10.9158 10.0959 11.0716 9.50896 11.0716 8.88601C11.0716 6.86193 9.4315 5.21517 7.41548 5.21517Z" fill="#20A052"/>
<path d="M24.5845 5.21517C22.5685 5.21517 20.9284 6.86187 20.9284 8.88601C20.9284 9.50901 21.0842 10.096 21.3581 10.6104C21.7484 11.3435 22.379 11.9288 23.1438 12.2593C23.5862 12.4505 24.0732 12.5568 24.5845 12.5568C26.6006 12.5568 28.2407 10.9101 28.2407 8.88601C28.2407 6.86187 26.6006 5.21517 24.5845 5.21517Z" fill="#20A052"/>
</svg>
