<svg width="32" height="32" viewBox="0 0 32 32" fill="none" xmlns="http://www.w3.org/2000/svg">
<path d="M2.56 13.9225C2.56 14.2452 2.81361 14.5092 3.12364 14.5092H3.47822V30.7731C3.47822 31.1016 3.72677 31.3598 4.04186 31.3598H7.64972C7.8808 31.3598 8.08937 31.2131 8.17335 30.9902L8.75952 29.4473H23.2338L23.82 30.9902C23.9051 31.2131 24.1137 31.3598 24.3447 31.3598H27.9577C28.2733 31.3598 28.5213 31.1016 28.5213 30.7731V14.5092H28.8764C29.1864 14.5092 29.44 14.2452 29.44 13.9225C29.44 13.5999 29.1864 13.3359 28.8764 13.3359H3.12364C2.81361 13.3359 2.56 13.5999 2.56 13.9225Z" fill="#20A052"/>
<path d="M24.5695 8.0147L25.2008 11.3997H26.0582C27.3038 11.3997 28.3127 10.3437 28.3127 9.05307V3.62644C28.3127 2.33581 27.3038 1.27979 26.0582 1.27979H17.9135C16.6735 1.27979 15.659 2.33581 15.659 3.62644V9.05307C15.659 10.3437 16.6735 11.3997 17.9135 11.3997H18.7697L19.401 8.0147C19.5475 7.23443 20.2076 6.66538 20.9735 6.66538H22.992C23.7641 6.66538 24.4236 7.23443 24.5695 8.0147Z" fill="#20A052"/>
<path d="M22.9917 7.83885H20.9738C20.749 7.83885 20.5511 8.00313 20.5122 8.23781L19.7789 12.1626H24.1922L23.4595 8.23781C23.42 8.00313 23.2177 7.83885 22.9917 7.83885Z" fill="#20A052"/>
<path d="M12.9592 4.72357C12.9592 3.01639 11.6228 1.626 9.98265 1.626C8.34247 1.626 7.00664 3.01639 7.00664 4.72357C7.00664 6.43077 8.34247 7.82116 9.98265 7.82116C11.6228 7.82116 12.9592 6.43077 12.9592 4.72357Z" fill="#20A052"/>
<path d="M5.1584 12.1626H14.808C14.0301 10.1738 12.147 8.7834 9.98261 8.7834C7.8188 8.7834 5.93623 10.1738 5.1584 12.1626Z" fill="#20A052"/>
</svg>
