<svg width="50" height="50" viewBox="0 0 50 50" fill="none" xmlns="http://www.w3.org/2000/svg">
<circle cx="25" cy="25" r="25" fill="white"/>
<path d="M24.3125 36.6673V26.9365L18.2195 34.488C20.0078 35.7836 22.1056 36.538 24.3125 36.6673Z" fill="#82CA9E"/>
<path d="M25.6787 25.6858V36.6673C28.517 36.5011 31.1763 35.3021 33.2288 33.2475C35.2817 31.1925 36.4805 28.5292 36.6466 25.6858H25.6787Z" fill="#82CA9E"/>
<path d="M31.8195 19.8363H33.5257V24.3162H31.8195V19.8363Z" fill="#82CA9E"/>
<path d="M16.767 16.7542C14.5527 18.9729 13.3333 21.9017 13.3333 25.001C13.3333 28.1002 14.5527 31.029 16.767 33.2477C16.8955 33.3764 17.0266 33.5015 17.1598 33.6235L24.3125 24.7586V13.334C21.4734 13.5007 18.8168 14.7004 16.767 16.7542Z" fill="#82CA9E"/>
<path d="M25.6787 18.4758H27.3808V24.3162H25.6787V18.4758Z" fill="#82CA9E"/>
<path d="M28.747 15.1803H30.4533V24.3162H28.747V15.1803Z" fill="#82CA9E"/>
<path d="M34.892 21.6675H36.6666V24.3162H34.892V21.6675Z" fill="#82CA9E"/>
</svg>
