<svg width="24" height="24" viewBox="0 0 24 24" fill="none" xmlns="http://www.w3.org/2000/svg">
<path d="M11.8782 10.1155L14.1686 12.2708L14.1795 12.1579C14.1795 11.0255 13.2015 10.1053 11.9982 10.1053L11.8782 10.1155Z" fill="#999999"/>
<path d="M11.9982 8.73687C14.005 8.73687 15.6337 10.2695 15.6337 12.1579C15.6337 12.5992 15.5392 13.02 15.3756 13.4066L17.5024 15.4079C18.6003 14.5458 19.4656 13.4306 20 12.1579C18.7385 9.15426 15.6374 7.02635 11.9982 7.02635C10.9803 7.02635 10.006 7.19739 9.1007 7.50529L10.6713 8.97975C11.082 8.82923 11.5292 8.73687 11.9982 8.73687Z" fill="#999999"/>
<path d="M4.72709 6.87237L6.71574 8.7437C5.51602 9.62633 4.56714 10.7998 4 12.1579C5.2579 15.1616 8.36264 17.2895 11.9982 17.2895C13.1252 17.2895 14.2013 17.0842 15.1865 16.7113L17.6151 19L18.5422 18.1311L5.65415 6L4.72709 6.87237ZM8.74801 10.6526L9.87139 11.7098C9.83867 11.8569 9.81686 12.004 9.81686 12.1579C9.81686 13.2903 10.7948 14.2105 11.9982 14.2105C12.1618 14.2105 12.3181 14.19 12.4708 14.1592L13.5942 15.2163C13.1106 15.4421 12.5726 15.579 11.9982 15.579C9.99136 15.579 8.36264 14.0463 8.36264 12.1579C8.36264 11.6174 8.50807 11.1111 8.74801 10.6526Z" fill="#999999"/>
</svg>
