<svg width="20" height="18" viewBox="0 0 20 18" fill="none" xmlns="http://www.w3.org/2000/svg">
<path d="M2.82653 0.649301C3.79039 0.11841 4.91778 -0.087403 6.00629 0.033622C7.14688 0.156406 8.24719 0.63171 9.12563 1.37897C9.43812 1.64037 9.70755 1.94856 9.99956 2.23248C10.2864 1.95524 10.5506 1.65409 10.8554 1.39656C11.7981 0.585974 13.0015 0.092727 14.2355 0.0125128C15.222 -0.0536288 16.2292 0.146203 17.1056 0.614119C18.1104 1.14149 18.9274 2.01294 19.4284 3.03849C19.9881 4.17767 20.143 5.51246 19.8655 6.75297C19.7013 7.4946 19.3878 8.20245 18.9441 8.81567C18.6621 9.21568 18.3094 9.55519 17.9694 9.90349C17.0667 10.8186 16.1622 11.7319 15.2671 12.6547C13.5317 14.4145 11.8016 16.1792 10.0707 17.9439C10.0409 17.9654 9.99991 18.0333 9.96762 17.9801C9.04508 17.0485 8.13087 16.1088 7.21319 15.173C6.3976 14.3455 5.582 13.5184 4.76744 12.6899C3.71366 11.6006 2.64182 10.5294 1.58317 9.44472C0.74188 8.58312 0.192246 7.4362 0.0446815 6.23334C-0.0990637 5.104 0.106138 3.9307 0.629732 2.92239C1.12416 1.97108 1.89115 1.16119 2.82653 0.649301ZM4.47683 2.38305C3.79977 2.58113 3.20291 3.0304 2.80778 3.62004C2.32447 4.3191 2.12795 5.21201 2.26475 6.05391C2.37169 6.75262 2.70813 7.41051 3.20569 7.90587C4.62231 9.34445 6.03719 10.7848 7.44964 12.2276C8.30205 13.0909 9.1541 13.9543 10.0003 14.8236C11.3745 13.4097 12.7689 12.0158 14.1428 10.6015C15.0306 9.69451 15.9254 8.79421 16.8129 7.88652C17.1906 7.50234 17.4771 7.02563 17.6326 6.50599C17.8455 5.8094 17.8229 5.04244 17.5729 4.3585C17.3392 3.72172 16.9122 3.15494 16.3539 2.77568C15.94 2.49352 15.4556 2.32219 14.9602 2.27118C14.0501 2.17267 13.112 2.45869 12.3939 3.0304C12.1537 3.21616 11.9523 3.44589 11.7367 3.65909C11.1565 4.24944 10.5728 4.83627 9.99886 5.43295C9.28083 4.70153 8.57009 3.96236 7.84616 3.23691C6.96528 2.39748 5.64484 2.03581 4.47683 2.38305Z" fill="#A6D9BA"/>
</svg>
