<svg width="18" height="18" viewBox="0 0 18 18" fill="none" xmlns="http://www.w3.org/2000/svg">
<path d="M16 2.77876C16 2.34866 15.6566 2 15.2329 2H2.76716C2.60919 2 2.45504 2.04954 2.32584 2.14179C1.97931 2.38922 1.896 2.87503 2.13972 3.22683L6.65949 9.75035L6.67218 14.4963C6.67298 14.7925 6.75974 15.082 6.92159 15.3285C7.37653 16.0213 8.29858 16.2085 8.98103 15.7466L10.5953 14.6541C11.0242 14.3638 11.2809 13.8742 11.2785 13.3509L11.2621 9.77904L15.8577 3.23066C15.9503 3.09869 16 2.94074 16 2.77876ZM9.72565 9.28415L9.74435 13.3581L8.2062 14.3991L8.19243 9.25553L4.24461 3.55752H13.7445L9.72565 9.28415Z" fill="#20A052"/>
</svg>
