<svg width="40" height="40" viewBox="0 0 40 40" fill="none" xmlns="http://www.w3.org/2000/svg">
<path d="M17.2881 20H36M17.2881 20C17.2881 22.2593 15.4669 24.0909 13.2203 24.0909C10.9738 24.0909 9.15254 22.2593 9.15254 20M17.2881 20C17.2881 17.7407 15.4669 15.9091 13.2203 15.9091C10.9738 15.9091 9.15254 17.7407 9.15254 20M4 20H9.15254M22.7119 9.09091H4M22.7119 9.09091C22.7119 11.3502 24.5331 13.1818 26.7797 13.1818C29.0262 13.1818 30.8475 11.3502 30.8475 9.09091M22.7119 9.09091C22.7119 6.83156 24.5331 5 26.7797 5C29.0262 5 30.8475 6.83156 30.8475 9.09091M36 9.09091H30.8475M22.7119 30.9091H4M22.7119 30.9091C22.7119 33.1684 24.5331 35 26.7797 35C29.0262 35 30.8475 33.1684 30.8475 30.9091M22.7119 30.9091C22.7119 28.6498 24.5331 26.8182 26.7797 26.8182C29.0262 26.8182 30.8475 28.6498 30.8475 30.9091M36 30.9091H30.8475" stroke="black" stroke-width="1.6" stroke-miterlimit="10" stroke-linecap="round" stroke-linejoin="round"/>
</svg>
