<svg width="50" height="50" viewBox="0 0 50 50" fill="none" xmlns="http://www.w3.org/2000/svg">
<circle cx="25" cy="25" r="25" fill="white"/>
<path d="M35 15.5099C35 13.7072 33.5106 12.2227 31.7021 12.2227H23.2979C22.4468 12.2227 21.5957 12.5408 21.0638 13.177L16.0638 17.8428C15.4255 18.373 15 19.3273 15 20.2817V34.491C15 36.2937 16.4894 37.7782 18.2979 37.7782H31.7021C33.5106 37.7782 35 36.2937 35 34.491V15.5099ZM17.1277 20.1756C17.1277 19.8575 17.3404 19.5394 17.5532 19.3273L22.4468 14.6616C22.5532 14.5555 22.8723 14.3434 23.2979 14.3434H23.4043V18.373C23.4043 19.4334 22.5532 20.3877 21.383 20.3877L17.1277 20.1756ZM31.4894 28.8709L27.4468 33.4306C27.234 33.6427 26.9149 33.7487 26.7021 33.7487H26.5957C26.2766 33.7487 25.9574 33.5366 25.7447 33.3245L23.5106 29.9313L20.1064 33.5366C19.6809 33.9608 19.0426 33.9608 18.617 33.5366C18.1915 33.1125 18.1915 32.4762 18.617 32.0521L22.9787 27.4924C23.1915 27.2803 23.5106 27.1742 23.8298 27.1742C24.1489 27.1742 24.4681 27.3863 24.6809 27.5984L26.9149 30.9917L30 27.4924C30.4255 27.0682 31.0638 27.0682 31.4894 27.3863C31.9149 27.7044 31.9149 28.4467 31.4894 28.8709ZM31.1702 22.4025H26.5957C25.9574 22.4025 25.5319 21.9783 25.5319 21.3421C25.5319 20.7058 25.9574 20.2817 26.5957 20.2817H31.1702C31.7021 20.2817 32.234 20.7058 32.234 21.3421C32.234 21.9783 31.8085 22.4025 31.1702 22.4025ZM31.1702 18.1609H26.5957C25.9574 18.1609 25.5319 17.7367 25.5319 17.1005C25.5319 16.4642 25.9574 16.0401 26.5957 16.0401H31.1702C31.7021 16.0401 32.234 16.4642 32.234 17.1005C32.234 17.7367 31.8085 18.1609 31.1702 18.1609Z" fill="#82CA9E"/>
</svg>
