<svg width="25" height="25" viewBox="0 0 18 18" fill="none" xmlns="http://www.w3.org/2000/svg">
<path d="M3.6199 2.73698C4.34279 2.33881 5.18834 2.18445 6.00472 2.27522C6.86016 2.3673 7.68539 2.72378 8.34422 3.28423C8.57859 3.48028 8.78067 3.71142 8.99967 3.92436C9.21477 3.71643 9.41294 3.49057 9.64157 3.29742C10.3486 2.68948 11.2512 2.31955 12.1766 2.25938C12.9165 2.20978 13.6719 2.35965 14.3292 2.71059C15.0828 3.10612 15.6955 3.75971 16.0713 4.52887C16.4911 5.38325 16.6072 6.38435 16.3992 7.31473C16.276 7.87095 16.0408 8.40184 15.708 8.86175C15.4966 9.16176 15.232 9.41639 14.9771 9.67761C14.3 10.3639 13.6216 11.0489 12.9503 11.741C11.6488 13.0609 10.3512 14.3844 9.05305 15.7079C9.03066 15.724 8.99993 15.7749 8.97571 15.7351C8.28381 15.0364 7.59815 14.3316 6.90989 13.6297C6.2982 13.0091 5.6865 12.3888 5.07558 11.7674C4.28524 10.9505 3.48136 10.147 2.68738 9.33354C2.05641 8.68734 1.64418 7.82715 1.53351 6.925C1.4257 6.078 1.5796 5.19802 1.9723 4.44179C2.34312 3.72831 2.91836 3.1209 3.6199 2.73698ZM4.85762 4.03729C4.34982 4.18584 3.90218 4.5228 3.60584 4.96503C3.24335 5.48933 3.09596 6.15901 3.19856 6.79043C3.27877 7.31446 3.5311 7.80789 3.90427 8.1794C4.96673 9.25834 6.02789 10.3386 7.08723 11.4207C7.72653 12.0682 8.36558 12.7157 9.00019 13.3677C10.0309 12.3073 11.0767 11.2618 12.1071 10.2011C12.773 9.52088 13.4441 8.84566 14.1097 8.16489C14.393 7.87675 14.6078 7.51922 14.7245 7.12949C14.8841 6.60705 14.8672 6.03183 14.6797 5.51888C14.5044 5.04129 14.1841 4.6162 13.7654 4.33176C13.455 4.12014 13.0917 3.99164 12.7201 3.95338C12.0376 3.8795 11.334 4.09402 10.7954 4.5228C10.6152 4.66212 10.4642 4.83442 10.3025 4.99432C9.86735 5.43708 9.4296 5.8772 8.99915 6.32471C8.46062 5.77614 7.92757 5.22177 7.38462 4.67768C6.72396 4.04811 5.73363 3.77686 4.85762 4.03729Z" fill="#ffffff"/>
</svg>
