<!-- <svg xmlns="http://www.w3.org/2000/svg" version="1.1" xmlns:xlink="http://www.w3.org/1999/xlink" width="512" height="512" x="0" y="0" viewBox="0 0 254000 254000" style="enable-background:new 0 0 512 512" xml:space="preserve" fill-rule="evenodd">
  <g>
    <path fill="#006aff" d="M127000 0c70129 0 127000 56871 127000 127000s-56871 127000-127000 127000S0 197129 0 127000 56871 0 127000 0zm60366 143888h33v57158c0 2248-1834 4082-4082 4082h-36923c-2248 0-4082-1834-4082-4082v-31078c0-2248-1833-4082-4081-4082h-22457c-2248 0-4082 1834-4082 4082v31078c0 2248-1833 4082-4081 4082H70688c-2248 0-4082-1834-4082-4082v-57158h-3l30109-30620 27199-27659c797-810 1775-1221 2912-1221 1135 0 2113 411 2910 1221l27199 27659zm-54527-92575 42150 42865 34314 34897c2355 2396 3006 5781 1707 8880-1300 3099-4169 5008-7530 5008h-204c-2273 0-4229-819-5822-2441l-34149-34729-30727-31250c-1594-1620-3549-2441-5822-2441s-4228 821-5822 2441l-30730 31250c-11381 11576-22766 23154-34147 34729-112 115-223 214-332 298-1421 1253-3286 2013-5329 2013-4452 0-8064-3611-8064-8065 0-2459 1102-4661 2840-6141l33873-34449 42150-42865c1594-1621 3549-2441 5823-2441 2272 0 4228 821 5821 2441z" opacity="1" data-original="#178feb">
    </path>
  </g>
</svg> -->

<svg xmlns="http://www.w3.org/2000/svg" version="1.1" xmlns:xlink="http://www.w3.org/1999/xlink" width="512" height="512" x="0" y="0" viewBox="0 0 16 16" style="enable-background:new 0 0 512 512" xml:space="preserve" class="">
  <g transform="matrix(1.0000000000000004,0,0,1.0000000000000004,-3.552713678800501e-15,-3.552713678800501e-15)">
    <path fill="#20a052" d="M15.8 7.1 13 4.8V.5c0-.3-.2-.5-.5-.5h-2c-.3 0-.5.2-.5.5v1.8L8.6 1.2c-.4-.3-.9-.3-1.3 0L.2 7.1c-.2.2-.3.5-.1.7.1.1.3.2.4.2s.2 0 .3-.1l1.3-1.1L3.4 15H1.5c-.3 0-.5.2-.5.5s.2.5.5.5h3c.3 0 .5-.2.5-.5s-.2-.5-.5-.5h-.1L3 6.1 8 2l2.2 1.8c.1.1.4.1.5.1.2-.1.3-.3.3-.5V1h1v4c0 .1.1.3.2.4l.8.7-1.4 8.9H6.5c-.3 0-.5.2-.5.5s.2.5.5.5h8c.3 0 .5-.2.5-.5s-.2-.5-.5-.5h-1.9l1.3-8.2 1.3 1.1c.2.2.5.1.7-.1s.1-.5-.1-.7z" opacity="1" data-original="#1689fc" class=""></path><path fill="#3e5959" d="M8 12c-1.7 0-3-1.3-3-3s1.3-3 3-3 3 1.3 3 3-1.3 3-3 3zm0-5c-1.1 0-2 .9-2 2s.9 2 2 2 2-.9 2-2-.9-2-2-2z" opacity="1" data-original="#3e5959" class="">
    </path>
  </g>
</svg>
