<svg id="genplan-svg" width="100%" height="100%" viewBox="0 0 1440 1080">
  <path class="_7a3fb80146--polygon--vYhnT" d="M 16.7318416746 118.1522277094, 281.3952969069 110.66172652, 287.3876770253 144.6186652453, 281.3952969069 168.5882690513, 15.233746645 179.5743374624, 6.2451764673 141.1230980235 Z"></path>
  <path class="_7a3fb80146--polygon--vYhnT" d="M 311.303990807 110.0504932013, 436.644608285 103.0593587579, 517.5417398843 123.5333953422, 522.0360249731 159.9871677973, 499.5645995289 178.4637373978, 425.6585780678 166.4789354947, 314.3001808663 168.9757692245, 309.8058957774 131.0238965316 Z"></path>
  <path class="_7a3fb80146--polygon--vYhnT" d="M 671.2992857443 124.1589479102, 921.4511937897 177.33151902, 922.0554254516 220.2321161654, 830.8164444979 319.9306869962, 560.1206599463 257.0903756846, 557.7037332986 222.0448174532 Z"></path>
  <path class="_7a3fb80146--polygon--vYhnT" d="M 332.7668816679 409.5791172801, 518.0448368365 253.8689309439, 718.2035391407 305.04370491, 719.8543325617 339.7104872741, 671.1559266403 398.313857461, 640.2382774302 388.479137746, 638.3778791345 380.10731631, 619.7738961773 379.4871813888, 618.2235642642 352.8213797778, 536.6761056353 332.0468599181, 452.9581823281 408.3234552239, 501.3285380167 421.96642349, 504.4292018429 466.926205276, 474.6628291115 497.0027489535, 337.3034216111 456.0738441552 Z"></path>
  <path class="_7a3fb80146--polygon--vYhnT" d="M 571.737192384 383.0958406104, 638.0913982646 381.2354358469, 643.3625267691 430.8462295417, 643.0524603865 483.2476303819, 574.217723445 486.6583724484, 571.4271260014 441.3885232019 Z"></path>
</svg>
