<svg width="18" height="18" viewBox="0 0 18 18" fill="none" xmlns="http://www.w3.org/2000/svg">
<path d="M14.9779 3H3.02209C1.90713 3 1 4.00621 1 5.24295V11.7571C1 12.9938 1.90713 14 3.02209 14H14.9779C16.0929 14 17 12.9938 17 11.7571V5.24295C17 4.00621 16.0929 3 14.9779 3ZM14.662 4.44681L9 7.29836L3.338 4.44681H14.662ZM14.9779 12.5533H3.02209C2.62635 12.5533 2.30435 12.1961 2.30435 11.7571V5.38936L8.6013 8.78501C8.7187 8.88561 8.85939 8.93586 9 8.93586C9.14061 8.93586 9.2813 8.88561 9.3987 8.78501L15.6957 5.38936V11.7571C15.6957 12.1961 15.3737 12.5533 14.9779 12.5533Z" fill="#20A052"/>
</svg>
