<svg width="40" height="40" viewBox="0 0 40 40" fill="none" xmlns="http://www.w3.org/2000/svg">
<path fill-rule="evenodd" clip-rule="evenodd" d="M14.2327 3.1015L25.7581 8.91968L32.4361 5.46214C32.9978 5.17132 33.6246 5.03084 34.2563 5.05465C34.888 5.07847 35.5025 5.26574 36.041 5.59791C36.5794 5.93005 37.0234 6.39571 37.331 6.94956C37.6387 7.50336 37.8 8.12714 37.8 8.76115V28.4043C37.8 29.0852 37.614 29.7533 37.2618 30.3353C36.9096 30.9173 36.4045 31.391 35.8013 31.7033L25.7673 36.8985L14.2419 31.0803L7.56396 34.5378C7.00223 34.8287 6.3754 34.9691 5.74371 34.9453C5.11202 34.9215 4.49748 34.7342 3.95903 34.4021C3.42063 34.0699 2.97666 33.6043 2.66898 33.0504C2.36132 32.4966 2.20001 31.8728 2.20001 31.2388V11.5956C2.2 10.9148 2.386 10.2467 2.7382 9.66468C3.09044 9.08265 3.59553 8.60897 4.19871 8.29669L14.2327 3.1015ZM15.0373 29.6895L24.9627 34.7V10.3105L15.0373 5.29999V29.6895ZM13.4373 5.31506V29.6951L6.82831 33.117C6.51155 33.281 6.15887 33.3598 5.80399 33.3465C5.4491 33.3331 5.10308 33.2279 4.79908 33.0403C4.49503 32.8528 4.24292 32.5889 4.06764 32.2734C3.89234 31.9579 3.80001 31.6016 3.80001 31.2388V11.5956C3.80001 11.2061 3.90648 10.8245 4.10705 10.4931C4.30758 10.1617 4.59413 9.89368 4.93435 9.71754L13.4373 5.31506ZM26.5627 10.3048V34.6849L35.0657 30.2824C35.4059 30.1063 35.6924 29.8382 35.893 29.5069C36.0935 29.1755 36.2 28.7939 36.2 28.4043V8.76115C36.2 8.39839 36.1077 8.04211 35.9324 7.72656C35.7571 7.41105 35.505 7.14721 35.2009 6.95964C34.8969 6.7721 34.5509 6.6669 34.196 6.65352C33.8412 6.64014 33.4885 6.71899 33.1717 6.88299L26.5627 10.3048Z" fill="black"/>
</svg>
