<svg width="40" height="40" viewBox="0 0 40 40" fill="none" xmlns="http://www.w3.org/2000/svg">
<path d="M25.7627 9.81818L14.2373 4M25.7627 9.81818L32.8039 6.17258C33.2431 5.94517 33.7329 5.8355 34.2262 5.8541C34.7195 5.8727 35.1997 6.01894 35.621 6.27879C36.0422 6.53864 36.3902 6.9034 36.6317 7.33807C36.8732 7.77275 37 8.26278 37 8.76116V28.4044C37 28.9396 36.8538 29.4644 36.5774 29.9211C36.301 30.3778 35.9052 30.7487 35.4335 30.9929L25.7627 36M25.7627 9.81818V36M14.2373 4L4.56652 9.00713C4.09482 9.25134 3.699 9.6222 3.42261 10.0789C3.14623 10.5356 2.99999 11.0604 3 11.5956V31.2388C3 31.7372 3.12682 32.2272 3.3683 32.6619C3.60978 33.0966 3.95782 33.4614 4.37904 33.7212C4.80026 33.9811 5.28055 34.1273 5.77384 34.1459C6.26712 34.1645 6.75687 34.0548 7.19612 33.8274L14.2373 30.1818M14.2373 4V30.1818M14.2373 30.1818L25.7627 36" stroke="black" stroke-width="1.6" stroke-miterlimit="10"/>
</svg>
