<svg width="40" height="40" viewBox="0 0 40 40" fill="none" xmlns="http://www.w3.org/2000/svg">
<path d="M28.8069 28.6163V31.9771C28.8069 33.6466 27.4745 35 25.831 35H7.14254C5.49905 35 4.16669 33.6466 4.16669 31.9771V8.02288C4.16669 6.35342 5.49905 5 7.14254 5H25.831C27.4745 5 28.8069 6.35342 28.8069 8.02288V8.9572M21.8291 29.074L17.452 29.9632L18.3274 25.517C18.4426 24.9318 18.7258 24.3943 19.1412 23.9723L31.5865 11.3303C32.7487 10.1498 34.6329 10.1498 35.7951 11.3303C36.9572 12.5108 36.9572 14.4248 35.7951 15.6053L23.3497 28.2473C22.9342 28.6693 22.4052 28.9569 21.8291 29.074Z" stroke="black" stroke-width="1.6" stroke-miterlimit="10" stroke-linecap="round" stroke-linejoin="round"/>
</svg>
