<svg width="32" height="32" viewBox="0 0 32 32" fill="none" xmlns="http://www.w3.org/2000/svg">
<rect x="5.12" y="1.91992" width="20.48" height="26.88" rx="4" fill="#20A052"/>
<path d="M14.6017 7.96351L11.4431 5.21075C11.3045 5.0899 11.0954 5.08992 10.9568 5.21074L7.79822 7.96353C7.68716 8.06032 7.65047 8.20945 7.70473 8.34345C7.759 8.47745 7.89114 8.56402 8.04138 8.56402H8.54587V11.3221C8.54587 11.4314 8.63857 11.5201 8.7529 11.5201H10.4842C10.5985 11.5201 10.6912 11.4315 10.6912 11.3221V9.64748H11.7088V11.3221C11.7088 11.4315 11.8015 11.5201 11.9158 11.5201H13.647C13.7614 11.5201 13.8541 11.4315 13.8541 11.3221V8.56402H14.3586C14.5089 8.56402 14.641 8.47743 14.6953 8.34345C14.7495 8.20944 14.7128 8.06032 14.6017 7.96351Z" fill="white"/>
<path d="M13.8 5.51537H12.4096L14.007 6.9046V5.71337C14.007 5.60402 13.9143 5.51537 13.8 5.51537Z" fill="white"/>
<rect x="8.32001" y="15.3599" width="14.08" height="1.28" rx="0.64" fill="white"/>
<rect x="8.32001" y="17.9199" width="14.08" height="1.28" rx="0.64" fill="white"/>
<rect x="8.32001" y="20.48" width="8.32" height="1.28" rx="0.64" fill="white"/>
<path d="M27.52 7.67969L27.52 24.7197C27.52 28.0334 24.8337 30.7197 21.52 30.7197L10.88 30.7197" stroke="#20A052" stroke-width="2" stroke-linecap="round"/>
</svg>
