<svg width="18" height="18" viewBox="0 0 18 18" fill="none" xmlns="http://www.w3.org/2000/svg">
<path d="M9 1C5.69169 1 3 3.73375 3 7.09375C3 8.42344 3.41354 9.68688 4.19692 10.7469L8.63015 16.811C8.64123 16.8257 8.65815 16.8313 8.67046 16.8444C8.892 17.0853 9.21169 17.0247 9.36954 16.811C10.6462 15.081 12.9862 11.85 13.8858 10.6313C13.8858 10.6313 13.8862 10.6303 13.8865 10.6297L13.892 10.6222C14.6169 9.58781 15 8.36781 15 7.09375C15 3.73375 12.3083 1 9 1ZM9 10.3813C7.21877 10.3813 5.76308 8.90281 5.76308 7.09375C5.76308 5.28469 7.21877 3.80625 9 3.80625C10.7812 3.80625 12.2369 5.28469 12.2369 7.09375C12.2369 8.90281 10.7812 10.3813 9 10.3813Z" fill="white"/>
</svg>
