<svg width="50" height="50" viewBox="0 0 50 50" fill="none" xmlns="http://www.w3.org/2000/svg">
<circle cx="25" cy="25" r="25" fill="white"/>
<path d="M33.4848 15.5557H16.5151C15.6712 15.5557 14.8619 15.8893 14.2652 16.4832C13.6685 17.077 13.3333 17.8825 13.3333 18.7223V33.5001C13.3333 34.34 13.6685 35.1454 14.2652 35.7393C14.8619 36.3331 15.6712 36.6668 16.5151 36.6668H33.4848C34.3286 36.6668 35.1379 36.3331 35.7347 35.7393C36.3314 35.1454 36.6666 34.34 36.6666 33.5001V18.7223C36.6666 17.8825 36.3314 17.077 35.7347 16.4832C35.1379 15.8893 34.3286 15.5557 33.4848 15.5557ZM21.8181 18.7223H23.9393V20.8334H21.8181V18.7223ZM17.5757 18.7223H19.6969V20.8334H17.5757V18.7223ZM34.5454 33.5001C34.5454 33.7801 34.4336 34.0485 34.2347 34.2465C34.0358 34.4445 33.7661 34.5557 33.4848 34.5557H16.5151C16.2338 34.5557 15.964 34.4445 15.7651 34.2465C15.5662 34.0485 15.4545 33.7801 15.4545 33.5001V24.0001H34.5454V33.5001ZM17.5757 31.389V27.1668C17.5757 26.8868 17.6874 26.6183 17.8863 26.4204C18.0852 26.2224 18.355 26.1112 18.6363 26.1112H22.8787C23.16 26.1112 23.4298 26.2224 23.6287 26.4204C23.8276 26.6183 23.9393 26.8868 23.9393 27.1668V31.389C23.9393 31.6689 23.8276 31.9374 23.6287 32.1354C23.4298 32.3333 23.16 32.4446 22.8787 32.4446H18.6363C18.355 32.4446 18.0852 32.3333 17.8863 32.1354C17.6874 31.9374 17.5757 31.6689 17.5757 31.389ZM32.4242 28.2223H26.0605V26.1112H32.4242V28.2223ZM32.4242 32.4446H26.0605V30.3334H32.4242V32.4446Z" fill="#82CA9E"/>
</svg>
