<svg width="18" height="18" viewBox="0 0 18 18" fill="none" xmlns="http://www.w3.org/2000/svg">
<path d="M9 9C7.80653 9 6.66193 8.5259 5.81802 7.68198C4.97411 6.83807 4.5 5.69347 4.5 4.5C4.5 3.30653 4.97411 2.16193 5.81802 1.31802C6.66193 0.474106 7.80653 0 9 0C10.1935 0 11.3381 0.474106 12.182 1.31802C13.0259 2.16193 13.5 3.30653 13.5 4.5C13.5 5.69347 13.0259 6.83807 12.182 7.68198C11.3381 8.5259 10.1935 9 9 9ZM9 11.3162C12.5843 11.3162 15.8006 11.9586 18 14.7621V18H0V14.7621C2.19938 11.9574 5.41575 11.3162 9 11.3162Z" fill="white"/>
</svg>
