<svg width="14" height="12" viewBox="0 0 14 12" fill="none" xmlns="http://www.w3.org/2000/svg">
<path d="M10.5955 1.94169L10.7347 2.21429H11.0408H12.2499C12.9487 2.21429 13.5 2.76894 13.5 3.42855C13.5 3.42856 13.5 3.42856 13.5 3.42857V10.2857C13.5 10.9453 12.9488 11.5 12.2499 11.5H1.75006C1.05145 11.5 0.500086 10.9452 0.5 10.2854C0.5 10.2854 0.5 10.2853 0.5 10.2853L0.5047 3.43113C0.5047 3.43109 0.5047 3.43106 0.5047 3.43103C0.505335 2.77287 1.05606 2.21846 1.75262 2.21724L2.96005 2.21513L3.26574 2.2146L3.40461 1.94227L4.14008 0.5H9.85926L10.5955 1.94169ZM7.88739 7.28355C7.39834 7.7626 6.60126 7.7626 6.11221 7.28355C5.62893 6.81014 5.62893 6.04697 6.11221 5.57356C6.60126 5.09451 7.39834 5.09451 7.88739 5.57356C8.37067 6.04697 8.37067 6.81014 7.88739 7.28355ZM2.99966 6.42855C2.99966 8.60487 4.80347 10.3571 6.99977 10.3571C9.19607 10.3571 10.9999 8.60487 10.9999 6.42855C10.9999 4.25223 9.19607 2.49997 6.99977 2.49997C4.80347 2.49997 2.99966 4.25223 2.99966 6.42855Z" fill="#333333" stroke="black"/>
</svg>
