<svg width="25" height="25" viewBox="0 0 48 48" fill="none" xmlns="http://www.w3.org/2000/svg">
<path d="M9.59322 18.8431V39C9.59322 40.1046 10.4887 41 11.5932 41H36.4068C37.5113 41 38.4068 40.1046 38.4068 39V26.5555M7 21.1186L22.0854 7.72805C22.5944 7.27517 23.2651 7 24 7C24.7349 7 25.4056 7.27517 25.9146 7.72805L41 21.1186" stroke="#20a052" stroke-width="2" stroke-miterlimit="10" stroke-linecap="round" stroke-linejoin="round"/>
<path d="M29.3333 22L18.6667 35M21.3333 24.6C21.3333 26.0359 20.1394 27.2 18.6667 27.2C17.1939 27.2 16 26.0359 16 24.6C16 23.1641 17.1939 22 18.6667 22C20.1394 22 21.3333 23.1641 21.3333 24.6ZM32 32.4C32 33.8359 30.8061 35 29.3333 35C27.8606 35 26.6667 33.8359 26.6667 32.4C26.6667 30.9641 27.8606 29.8 29.3333 29.8C30.8061 29.8 32 30.9641 32 32.4Z" stroke="#20a052" stroke-width="2" stroke-miterlimit="10" stroke-linecap="round" stroke-linejoin="round"/>
</svg>
