<svg width="40" height="40" viewBox="0 0 40 40" fill="none" xmlns="http://www.w3.org/2000/svg">
<path d="M22 21V33C22 34.1046 22.8954 35 24 35H32C33.1046 35 34 34.1046 34 33V21C34 19.8954 33.1046 19 32 19H24C22.8954 19 22 19.8954 22 21Z" stroke="black" stroke-width="1.6"/>
<path d="M6 8V20C6 21.1046 6.89543 22 8 22H16C17.1046 22 18 21.1046 18 20V8C18 6.89543 17.1046 6 16 6H8C6.89543 6 6 6.89543 6 8Z" stroke="black" stroke-width="1.6"/>
<path d="M6 33V27C6 25.8954 6.89543 25 8 25H16C17.1046 25 18 25.8954 18 27V33C18 34.1046 17.1046 35 16 35H8C6.89543 35 6 34.1046 6 33Z" stroke="black" stroke-width="1.6"/>
<path d="M22 14V8C22 6.89543 22.8954 6 24 6H32C33.1046 6 34 6.89543 34 8V14C34 15.1046 33.1046 16 32 16H24C22.8954 16 22 15.1046 22 14Z" stroke="black" stroke-width="1.6"/>
</svg>
