<svg width="32" height="32" viewBox="0 0 32 32" fill="none" xmlns="http://www.w3.org/2000/svg">
<circle cx="16" cy="16" r="16" fill="#F6F6F6"/>
<path d="M8.34778 16.6956H11.1304V23.6521H8.34778V16.6956Z" fill="#20A052"/>
<path d="M13.9131 8.34814H16.6957V23.6525H13.9131V8.34814Z" fill="#20A052"/>
<path d="M19.4781 13.9131H22.2608V23.6522H19.4781V13.9131Z" fill="#20A052"/>
<circle cx="25.739" cy="6.26087" r="6.26087" fill="#FF0000"/>
<path d="M26.064 2.92009L29.0839 6.02345C29.1701 6.11204 29.2174 6.23011 29.2174 6.356C29.2174 6.48204 29.17 6.60004 29.0839 6.68863L28.8096 6.97039C28.7236 7.05891 28.6086 7.10767 28.486 7.10767C28.3635 7.10767 28.2447 7.05891 28.1586 6.97039L26.3931 5.15993V9.27501C26.3931 9.53435 26.1955 9.73926 25.9431 9.73926H25.5554C25.3029 9.73926 25.0855 9.53435 25.0855 9.27501L25.0855 5.13939L23.31 6.97032C23.2238 7.05884 23.112 7.1076 22.9894 7.1076C22.867 7.1076 22.7535 7.05884 22.6674 6.97032L22.394 6.68856C22.3078 6.59997 22.2609 6.48197 22.2609 6.35593C22.2609 6.23004 22.3085 6.11197 22.3947 6.02338L25.4144 2.92002C25.5009 2.83122 25.6163 2.78239 25.7391 2.78274C25.8622 2.78246 25.9777 2.83122 26.064 2.92009Z" fill="white"/>
</svg>
