<svg width="32" height="32" viewBox="0 0 32 32" fill="none" xmlns="http://www.w3.org/2000/svg">
<circle cx="16" cy="16" r="16" fill="#F6F6F6"/>
<path d="M8.34784 16.6956H11.1304V23.6521H8.34784V16.6956Z" fill="#20A052"/>
<path d="M13.913 8.34814H16.6956V23.6525H13.913V8.34814Z" fill="#20A052"/>
<path d="M19.4783 13.9131H22.2609V23.6522H19.4783V13.9131Z" fill="#20A052"/>
<circle cx="25.7391" cy="6.26087" r="6.26087" fill="#20A052"/>
<path d="M26.0641 9.60164L29.0839 6.49828C29.1701 6.40969 29.2174 6.29162 29.2174 6.16572C29.2174 6.03969 29.1701 5.92169 29.0839 5.8331L28.8097 5.55134C28.7236 5.46282 28.6087 5.41406 28.4861 5.41406C28.3636 5.41406 28.2448 5.46282 28.1587 5.55134L26.3931 7.3618V3.24672C26.3931 2.98738 26.1956 2.78247 25.9431 2.78247H25.5554C25.303 2.78247 25.0855 2.98738 25.0855 3.24672L25.0855 7.38234L23.3101 5.55141C23.2239 5.46289 23.1121 5.41413 22.9895 5.41413C22.8671 5.41413 22.7536 5.46289 22.6675 5.55141L22.3941 5.83317C22.3079 5.92176 22.2609 6.03976 22.2609 6.16579C22.2609 6.29169 22.3085 6.40976 22.3947 6.49835L25.4145 9.60171C25.501 9.69051 25.6164 9.73934 25.7391 9.73899C25.8622 9.73927 25.9777 9.69051 26.0641 9.60164Z" fill="white"/>
</svg>
