<svg width="50" height="50" viewBox="0 0 50 50" fill="none" xmlns="http://www.w3.org/2000/svg">
<circle cx="25" cy="25" r="25" fill="white"/>
<path d="M37.2223 29.3203C37.2223 26.2869 35.4821 23.5798 32.8758 22.2629C32.7949 28.079 28.0795 32.7944 22.2634 32.8753C23.5803 35.4816 26.2874 37.2218 29.3208 37.2218C30.743 37.2218 32.1261 36.843 33.3413 36.1233L37.1878 37.1873L36.1238 33.3408C36.8435 32.1256 37.2223 30.7425 37.2223 29.3203Z" fill="#82CA9E"/>
<path d="M31.4454 22.1111C31.4454 16.9644 27.2583 12.7773 22.1116 12.7773C16.9649 12.7773 12.7778 16.9644 12.7778 22.1111C12.7778 23.7885 13.2243 25.4216 14.0721 26.8554L12.8121 31.4104L17.3673 30.1506C18.8011 30.9984 20.4343 31.4449 22.1116 31.4449C27.2583 31.4449 31.4454 27.2578 31.4454 22.1111ZM20.6793 19.9388H19.247C19.247 18.3592 20.532 17.0742 22.1116 17.0742C23.6912 17.0742 24.9762 18.3592 24.9762 19.9388C24.9762 20.7405 24.6368 21.5112 24.0446 22.0527L22.8277 23.1665V24.2834H21.3955V22.5358L23.0776 20.996C23.3783 20.721 23.5439 20.3456 23.5439 19.9388C23.5439 19.149 22.9014 18.5065 22.1116 18.5065C21.3218 18.5065 20.6793 19.149 20.6793 19.9388ZM21.3955 25.7157H22.8277V27.148H21.3955V25.7157Z" fill="#82CA9E"/>
</svg>
