<svg width="50" height="50" viewBox="0 0 50 50" fill="none" xmlns="http://www.w3.org/2000/svg">
<circle cx="25" cy="25" r="25" fill="white"/>
<path d="M15.136 17.5907H27.0993L28.4286 15.5608C28.8376 14.8503 29.6556 14.4443 30.4736 14.4443H34.7681C36.1997 14.4443 37.2222 15.5608 37.2222 16.9817V33.0181C37.2222 34.439 36.0974 35.5554 34.7681 35.5554H15.2382C13.909 35.5554 12.7842 34.439 12.7842 33.0181V20.0266C12.6819 18.7072 13.8067 17.5907 15.136 17.5907ZM23.2138 31.0896H31.8029C32.4164 31.0896 32.9276 30.5822 32.9276 29.9732C32.9276 29.3642 32.4164 28.8567 31.8029 28.8567H23.2138C22.6003 28.8567 22.089 29.3642 22.089 29.9732C22.089 30.5822 22.6003 31.0896 23.2138 31.0896ZM23.2138 25.5074H31.8029C32.4164 25.5074 32.9276 24.9999 32.9276 24.3909C32.9276 23.7819 32.4164 23.2745 31.8029 23.2745H23.2138C22.6003 23.2745 22.089 23.7819 22.089 24.3909C22.089 24.8984 22.6003 25.5074 23.2138 25.5074ZM18.1012 31.0896H18.408C19.0215 31.0896 19.5328 30.5822 19.5328 29.9732C19.5328 29.3642 19.0215 28.8567 18.408 28.8567H18.1012C17.4877 28.8567 16.9765 29.3642 16.9765 29.9732C16.9765 30.5822 17.4877 31.0896 18.1012 31.0896ZM18.1012 25.5074H18.408C19.0215 25.5074 19.5328 24.9999 19.5328 24.3909C19.5328 23.7819 19.0215 23.2745 18.408 23.2745H18.1012C17.4877 23.2745 16.9765 23.7819 16.9765 24.3909C16.9765 24.8984 17.4877 25.5074 18.1012 25.5074Z" fill="#82CA9E"/>
</svg>
