<svg xmlns="http://www.w3.org/2000/svg">
  <symbol id='unicredit__icon' width="30" height="30" viewBox="0 0 48 48" fill="none">
    <rect width="48" height="48" rx="24" fill="#E2001A"/>
    <path fill-rule="evenodd" clip-rule="evenodd" d="M24.5733 17.2305C24.5815 17.2188 24.5897 17.206 24.5991 17.1931C24.8155 16.8784 24.7254 16.6444 24.5804 16.5193C24.4891 16.4386 22.318 15.1237 22.318 15.1237C22.1612 15.0184 22.0571 14.8395 22.0571 14.6347C22.0571 14.313 22.2501 14.0697 22.6876 13.9492C24.0832 13.5655 28.9905 13.3643 30.6586 13.3643C31.2365 13.3643 32.2332 13.362 33.1281 13.3877L33.0883 13.3491C30.6434 11.261 27.4686 10 24.0013 10C16.2678 10 10 16.2666 10 24.0001C10 27.3996 11.2107 30.5147 13.2251 32.9409C14.9845 30.4106 19.3268 24.1768 20.2778 22.9029C21.3739 21.4348 23.875 18.171 24.2973 17.6177L24.3183 17.592L24.5733 17.2305Z" fill="white"/>
    <path fill-rule="evenodd" clip-rule="evenodd" d="M15.4641 35.0977C17.8271 36.9179 20.7867 38 24.0013 38C31.7336 38 38.0014 31.7322 38.0014 23.9999C38.0014 21.6591 37.427 19.454 36.4128 17.5157L36.414 17.5169C36.8959 17.0524 37.4516 16.3178 37.0866 15.396C36.972 15.1223 36.428 14.4999 36.2877 14.349L36.3075 14.4029C36.6479 15.4311 35.9741 16.0757 35.4899 16.5132C35.2243 16.7553 31.6693 20.1068 27.5001 23.7519C23.8246 26.9653 19.7151 30.2349 17.3334 32.0177C13.9843 34.5234 13.3327 34.8883 13.3327 34.8883C13.2438 34.9363 13.0964 34.9772 12.9888 34.9772C12.7841 34.9772 12.6063 34.886 12.494 34.7386L12.4905 34.7351C12.4729 34.7784 12.4671 34.8158 12.4823 34.8415C12.8414 35.4241 13.4368 36.0967 13.7843 36.0967C13.8919 36.0967 14.0404 36.0558 14.1294 36.009C14.1294 36.009 14.3926 35.8628 15.4641 35.0977Z" fill="white"/>
  </symbol>
  <symbol id='psbbank__icon' width="30" height="30" viewBox="0 0 48 48" fill="none">
    <rect width="48" height="48" rx="24" fill="#2C2D84"/>
    <path d="M27.9997 12L20.0002 20.0002H27.9997V35.9999L36 28.0189V12H27.9997Z" fill="#EA5616"/>
    <path d="M20.0003 36.0001L28.0005 27.9999H20.0003V12.0002L12 19.9812V36.0001H20.0003Z" fill="white"/>
  </symbol>
  <symbol id='spbbank__icon' width="30" height="30" viewBox="0 0 48 48" fill="none">
    <rect width="48" height="48" rx="24" fill="#F10D30"/>
    <path d="M32 17.875C32 22.2243 28.4183 25.75 24 25.75C19.5817 25.75 16 22.2243 16 17.875C16 13.5258 19.5817 10 24 10C28.4183 10 32 13.5258 32 17.875Z" fill="white"/>
    <path d="M23.9999 36.25C19.5776 36.25 16 36.5366 16 36.8228V37.4275C16 37.7137 19.5776 38 23.9999 38C28.4222 38 31.9999 37.7137 31.9999 37.4275V36.8228C32.0247 36.5366 28.4222 36.25 23.9999 36.25Z" fill="white"/>
    <path d="M16 31.4375V30.5625C16 29.1127 19.5817 27.9375 24 27.9375C28.4183 27.9375 32 29.1127 32 30.5625V31.4375C32 32.8873 28.4183 34.0625 24 34.0625C19.5817 34.0625 16 32.8873 16 31.4375Z" fill="white"/>
  </symbol>
  <symbol id='sovkombank__icon' width="30" height="30" viewBox="0 0 48 48" fill="none">
    <rect width="48" height="48" rx="24" fill="#003791"/>
    <path d="M26.5907 11.271V17.9129H23.9773C20.676 17.9129 18.016 20.5337 18.016 23.7872C18.016 27.0395 20.676 29.6602 23.9761 29.6602H26.5907V36.3022C32.5508 35.1727 37 30.022 37 23.786C37 17.5965 32.552 12.4458 26.5907 11.271Z" fill="white"/>
    <path d="M23.9773 31.7377C19.5293 31.7377 15.9054 28.169 15.9054 23.7872C15.9054 19.4054 19.5281 15.8355 23.9749 15.8355H24.4801V11H23.9761C16.824 11 11 16.7381 11 23.786C11 30.8805 16.824 36.6186 23.9773 36.6186H24.4813V31.7401H23.9773V31.7377Z" fill="#FC5055"/>
  </symbol>
  <symbol id='raiffaisen__icon' width="30" height="30" viewBox="0 0 48 48" fill="none">
    <rect width="48" height="48" rx="24" fill="#FEE600"/>
    <path d="M29.5922 22.108V18.3874L30.9413 17.0434V20.2672L32.1145 21.436L36.8366 16.7317L38 17.8907C37.9902 17.0141 37.8142 14.4721 35.6536 12.3586C33.3268 10.1185 30.8045 11.1314 29.9441 11.9885L25.2318 16.683L26.4344 17.881L24 20.3256L21.5656 17.9005L22.7682 16.7025L18.0559 12.0079C17.1955 11.1509 14.6732 10.1379 12.3464 12.378C10.1858 14.4916 10.0098 17.0336 10 17.9102L11.1634 16.7512L15.8855 21.4554L17.0587 20.2867V17.0628L18.4078 18.4069V22.1275L20.3045 24.0072L10.9581 33.3184L14.6536 36.9903L24 27.6889L33.3464 37L37.0419 33.3281L27.6955 24.0072L29.5922 22.108Z" fill="#2B2D33"/>
  </symbol>
  <symbol id='gazprombank__icon' width="30" height="30" viewBox="0 0 48 48" fill="none">
    <rect width="48" height="48" rx="24" fill="#476BF0"/>
    <path fill-rule="evenodd" clip-rule="evenodd" d="M15.9223 12.4256C20.5576 10.3587 26.2163 10.4932 29.2535 11.8491C30.2076 12.2943 30.8494 12.5634 31.1404 13.094C27.9891 12.2484 26.6352 12.0947 23.9978 12.1598C20.2452 12.2271 15.2539 13.7142 13.3467 14.8513L12.5077 15.8975C15.2539 14.2694 20.3806 13.2071 23.2217 13.1164C26.3932 13.0737 28.8548 13.3619 31.1191 14.184C30.9837 14.7605 30.6959 15.0498 30.2076 15.3402C21.1567 13.7612 15.8093 15.6274 10.9736 18.7833L10.6197 19.8263C16.0108 16.1174 22.6204 15.0968 28.988 16.2071C26.7045 17.0078 23.9754 17.184 21.6908 17.7146C19.7388 18.1609 18.6951 18.2943 16.0971 19.1634C13.4607 20.0303 11.9043 20.9185 10.9299 22.0523C10.464 22.5883 10.109 23.2086 10.0184 23.8737C9.97789 24.2719 9.99921 24.6317 10.1335 24.9872C10.2401 25.2979 10.4853 25.6086 10.7529 25.9192C10.4438 26.453 10.173 27.1438 10.6197 27.9445C10.819 28.3192 11.3286 28.6972 11.8201 29.057L11.6815 29.452C11.6154 29.9217 11.5514 30.4769 11.8627 30.9424C12.3925 31.7858 13.0354 32.3441 14.0567 32.878C14.2134 33.5666 14.4554 34.1207 14.9873 34.6128C16.1195 35.6548 18.6493 37.6555 23.1513 37.9683C26.5254 38.1925 28.9433 37.1676 29.8537 36.7224L30.9624 36.1459C29.0776 36.8997 25.906 37.3449 23.308 37.1228C19.5363 36.811 16.1675 34.3449 15.7453 33.6328C15.8764 33.7203 16.0545 33.7876 16.2069 33.8548C20.6237 35.989 26.325 37.1463 33.6244 34.1676L34.2256 33.589C27.5893 35.6538 21.7803 35.5897 15.5428 32.3228C15.6121 32.011 15.7453 31.7409 16.031 31.5221C17.6269 32.2299 19.1599 32.8118 21.0234 33.1876C23.1982 33.589 25.6822 33.6787 27.7247 33.589C29.7887 33.5004 33.8685 32.4776 35.7991 31.4559C35.975 31.3 36.0635 31.0352 36.2405 30.8559C32.473 32.2299 27.9891 32.878 25.2845 32.6751C22.6439 32.4776 20.2942 32.1648 17.1866 30.7427C17.7887 30.5028 18.4029 30.2947 19.0267 30.1192C21.0682 30.7427 23.1524 31.1185 25.615 31.2317C28.0574 31.3427 33.7576 30.4331 37.3503 28.2562C37.4633 27.9445 37.5731 27.6082 37.5731 27.6082C37.5731 27.6082 32.5807 30.2783 26.9263 30.2783C24.2845 30.2783 22.6662 29.8993 21.469 29.611C24.1289 29.121 27.4817 28.7196 31.2492 27.7651C33.1574 27.2751 35.5092 26.1637 36.5752 25.2317C37.4835 24.4064 38.1957 23.3388 37.9515 22.2541C37.9036 21.9616 37.5059 21.2762 37.0177 21.0306C37.4835 20.4295 37.4398 19.9182 37.3748 19.4772C37.329 19.1388 37.1733 18.7641 36.9772 18.431C36.6578 17.9919 36.2476 17.627 35.7746 17.3612C35.8652 16.8488 35.7991 16.4057 35.5977 15.984C35.1329 15.1833 34.2907 14.4957 32.8483 13.7612C32.7822 13.4708 32.6031 13.094 32.2939 12.7171C30.4763 10.916 27.5019 10.0491 24.9935 10.0043C24.8549 10.0013 24.7163 9.99991 24.5777 10C21.6439 10 19.29 10.6598 17.8306 11.3409C17.1587 11.6355 16.5192 11.999 15.9223 12.4256ZM32.6702 14.8513C33.2928 15.2516 34.0028 15.8516 34.0892 16.474C33.4261 16.2274 32.7161 15.9648 32.0285 15.7854C32.2523 15.5399 32.5818 15.163 32.6692 14.8513H32.6702ZM29.342 17.6303C30.0989 17.3388 30.6063 17.0292 31.053 16.6726C32.0477 16.9374 32.9794 17.2726 33.7384 17.6057C33.6073 17.7989 32.8472 18.5025 32.6159 18.5025C32.6038 18.5034 32.5917 18.5012 32.5807 18.4961C31.5189 18.2057 30.5871 17.8491 29.342 17.6303ZM35.312 18.5174C35.909 19.0288 36.0859 19.3844 35.7991 19.9406C35.4015 19.6523 34.9772 19.4954 34.5124 19.2733C34.8002 19.0513 35.0668 18.8089 35.312 18.5174ZM16.8764 20.563C19.6482 19.7388 22.8891 19.1196 25.8175 18.7641C27.8324 18.5174 28.9006 18.7427 30.8099 19.252C25.906 20.563 21.0682 20.9826 16.4532 22.3406C12.7326 23.4231 11.7465 24.7865 11.7305 24.7865C10.0866 22.5189 15.7869 20.8982 16.8764 20.563ZM19.4947 23.2961C23.5969 22.4078 27.4145 21.8527 28.9891 21.4534C30.8974 20.9836 32.2289 20.5406 33.1574 20.0975C33.2022 20.0303 34.7107 20.7626 34.8663 20.9377C34.3568 21.3626 33.6489 21.7203 32.8696 21.984C30.5413 22.8285 26.3047 23.7167 24.0639 24.0562C21.8017 24.432 19.9115 24.7182 17.4095 25.3833C15.9649 25.7634 14.9873 26.2075 14.2773 26.6751C13.7464 26.3644 13.4351 26.2769 12.948 25.8744C14.6782 24.4064 18.2069 23.5854 19.4947 23.2961ZM18.4713 26.8993C22.3763 25.9384 25.8175 25.7634 30.5647 24.4758C32.8483 23.8737 34.5124 23.2267 35.5561 22.4313C35.7107 22.2947 35.8652 22.1847 36.022 22.0523C37.3972 24.1854 32.2289 25.8306 28.6981 26.5897C26.7461 26.9858 24.0393 27.4737 23.1513 27.6328C20.8486 28.0096 20.0906 28.2103 18.4936 28.6769C17.6962 28.3651 16.8967 28.031 16.1675 27.652C16.8967 27.3424 17.6962 27.0968 18.4713 26.8993ZM13.0599 27.6082C12.9042 27.7416 12.7028 27.8762 12.5492 28.031C12.1964 27.8281 11.8382 27.3893 12.0162 26.9847C12.3712 27.21 12.6367 27.3893 13.0599 27.6082ZM14.6782 28.4335C15.3445 28.7452 16.031 29.0313 16.6739 29.3207C16.2418 29.4791 15.8267 29.6809 15.4351 29.9228C14.9021 29.6303 14.3903 29.3431 13.8584 29.0313C14.0812 28.8317 14.368 28.6331 14.6793 28.4335H14.6782ZM14.4138 30.7662C14.2582 30.9883 14.1452 31.1644 14.0812 31.3886C13.5258 30.921 13.2571 30.5431 13.2816 30.1192C13.658 30.3648 14.0343 30.5634 14.4138 30.7662Z" fill="white"/>
  </symbol>
  <symbol id='domrf__icon' width="30" height="30" viewBox="0 0 48 48" fill="none">
    <rect width="48" height="48" rx="24" fill="white"/>
    <path d="M33.8819 12V12.0044L31.7647 14.1224V12H29.6468L26.1178 15.5293V24.7056H27.5294V16.2354L30.3529 13.4118V24.7056H31.7647V16.2354L34.5877 13.4118V24.7056H35.9995V12H33.8819Z" fill="#252628"/>
    <path d="M12.0009 24.7056H17.6477V12H15.5298L12 15.5294L12.0009 15.5302V24.7056ZM16.2359 13.4118V23.2938H13.4126V16.2352L16.2359 13.4118Z" fill="#252628"/>
    <path d="M24.7059 12.0001H19.0592V24.7056H24.7059V12.0001ZM20.4708 13.4118H23.2941V23.294H20.4708V13.4118Z" fill="#252628"/>
    <path d="M12.0012 27.5298H35.9999V26.1179H12.0012V27.5298Z" fill="#252628"/>
    <path d="M12.0012 28.9414V36H13.4129V34.5884H21.8831V28.9414H12.0012ZM20.4713 33.1766H13.4129V30.3532H20.4713V33.1766Z" fill="#252628"/>
  <path d="M23.2947 28.9414V34.5884H28.9416V36H30.3532V34.5884H36V28.9414H23.2947ZM24.7063 30.3532H28.9414V33.1766H24.7063V30.3532ZM34.5882 33.1766H30.3532V30.3532H34.5882V33.1766Z" fill="#252628"/>
  </symbol>
  <symbol id='alfabank__icon' width="30" height="30" viewBox="0 0 48 48" fill="none">
    <rect width="48" height="48" rx="24" fill="#EF3124"/>
    <path fill-rule="evenodd" clip-rule="evenodd" d="M15 37V33.3132H33V37H15ZM21.4283 21.4618H26.4315L24.0469 14.0655H23.9531L21.4283 21.4618ZM27.2721 12.6999L32.5794 28.3045H28.6521L27.4598 24.5955H20.3531L19.067 28.305H15.3748L20.9443 12.7004C21.4835 11.1868 22.1133 10 24.1402 10C26.1671 10 26.7588 11.1911 27.2721 12.6999Z" fill="white"/>
  </symbol>
  <symbol id='absolutbank__icon' width="30" height="30" viewBox="0 0 48 48" fill="none">
    <rect width="48" height="48" rx="24" fill="#FF5001"/>
    <path d="M40.2447 15.0115C40.6037 14.981 40.9615 15.0172 41.3186 15.0501C42.2996 15.2151 43.2258 15.7061 43.8794 16.4497C44.139 16.7311 44.3515 17.0524 44.5287 17.3897C44.7051 17.7987 44.8884 18.2157 44.9279 18.6636C44.9598 18.9789 45.0438 19.2988 44.9713 19.6149C44.9318 19.7966 44.9337 19.9828 44.903 20.1652C44.7903 20.5889 44.6706 21.0191 44.437 21.3964C43.8249 22.5267 42.6609 23.3466 41.3799 23.5623C41.1993 23.5759 41.0202 23.5963 40.8422 23.6265C40.5074 23.6978 40.1749 23.5796 39.8404 23.5645C39.2379 23.4554 38.6481 23.2367 38.1445 22.8889C37.7046 22.6041 37.3345 22.2257 37.0154 21.8163C36.819 21.5195 36.6418 21.2079 36.5095 20.8782C36.4113 20.607 36.3323 20.3283 36.2721 20.0466C36.2399 19.667 36.1824 19.2837 36.2418 18.9034C36.345 17.4448 37.3065 16.0985 38.6297 15.4519C38.9384 15.3167 39.2556 15.1977 39.5831 15.1124C39.7975 15.0463 40.0245 15.0486 40.2447 15.0115Z" fill="#00F500"/>
    <path d="M8.88482 19.0843C9.14907 19.0054 9.42713 19.0182 9.69713 18.9755C10.7376 18.9336 11.8085 19.1568 12.6963 19.7071C13.0177 19.8929 13.3134 20.1214 13.5708 20.3872C13.8339 20.6327 14.0544 20.9194 14.2385 21.226C14.2814 21.2914 14.3156 21.3673 14.3842 21.4107C14.5277 21.4315 14.6738 21.4175 14.818 21.4088C14.8199 20.6954 14.8199 19.982 14.818 19.2682C15.7085 19.2671 16.5991 19.2671 17.4897 19.2678C17.5698 19.252 17.5951 19.3407 17.5855 19.4008C17.584 23.4561 17.5867 27.5111 17.584 31.5665C17.5974 31.6337 17.5564 31.7059 17.4793 31.6945C16.5926 31.6968 15.7055 31.693 14.8188 31.696C14.818 30.9894 14.8215 30.2824 14.8168 29.5758C14.6397 29.5698 14.3693 29.4791 14.2757 29.6857C13.9796 30.191 13.5857 30.6405 13.1144 30.9947C12.2154 31.6851 11.0629 32.0212 9.92917 31.9989C8.80927 32.0114 7.70394 31.6281 6.7923 30.9955C5.65015 30.2114 4.80831 29.0411 4.36648 27.7464C4.23225 27.3627 4.15286 26.9639 4.07807 26.5658C4.02207 26.0231 3.95803 25.4729 4.03665 24.929C4.06311 24.3614 4.19159 23.8013 4.3753 23.2639C4.84206 21.8654 5.79512 20.6259 7.05501 19.8298C7.6142 19.4782 8.23589 19.221 8.88482 19.0843ZM10.3633 21.5482C10.0569 21.5965 9.75045 21.6543 9.4559 21.7536C8.57302 22.0554 7.81478 22.6827 7.34534 23.4769C6.83985 24.3297 6.69565 25.3645 6.88204 26.329C7.06537 27.1614 7.493 27.9556 8.15689 28.5112C8.74484 29.026 9.49808 29.3405 10.2747 29.444C10.9451 29.515 11.6347 29.4459 12.2645 29.2027C12.8451 28.9912 13.3587 28.6275 13.7825 28.1868C14.1955 27.7162 14.5238 27.1633 14.6746 26.5556C14.7655 26.2958 14.7743 26.0201 14.813 25.7505C14.8744 24.7451 14.5445 23.7167 13.886 22.9425C13.2567 22.1925 12.3274 21.6977 11.3482 21.5735C11.0238 21.518 10.6909 21.5263 10.3633 21.5482Z" fill="#FFFFFE"/>
    <path d="M21.4883 19.2655C25.0639 19.2708 28.6403 19.2644 32.216 19.2689C32.3157 19.2466 32.3502 19.3626 32.3456 19.4392C32.3395 20.2021 32.3521 20.965 32.3391 21.7279C29.7138 21.732 27.089 21.7294 24.4637 21.729C24.3905 21.7294 24.318 21.7426 24.247 21.7577C24.2536 22.3846 24.2451 23.0116 24.2509 23.6381C24.2428 23.7091 24.3387 23.7227 24.3928 23.7223C25.9507 23.7238 27.5089 23.722 29.0672 23.7235C30.1162 23.7136 31.1854 24.0415 31.9908 24.7163C32.792 25.3648 33.2883 26.3539 33.347 27.3713C33.3489 27.6225 33.3497 27.874 33.3447 28.1255C33.2864 28.7355 33.0862 29.3352 32.7452 29.8499C32.1224 30.8122 31.0466 31.4445 29.9094 31.6136C29.6532 31.6325 29.4016 31.6975 29.1443 31.6952C26.6253 31.6937 24.1063 31.6967 21.5876 31.6941C21.5098 31.7081 21.4431 31.6405 21.4569 31.5649C21.4546 27.6244 21.4569 23.6838 21.4557 19.7436C21.4576 19.5839 21.44 19.4207 21.4883 19.2655ZM24.2536 26.1439C24.244 27.1595 24.2513 28.1754 24.2497 29.1909C24.4169 29.2385 24.5987 29.2038 24.7721 29.2132C25.0026 29.2038 25.2315 29.237 25.462 29.2321C26.4078 29.231 27.354 29.2317 28.2998 29.2317C28.564 29.2385 28.8275 29.2102 29.0921 29.206C29.4523 29.1566 29.8197 29.044 30.0939 28.7985C30.3957 28.5391 30.5423 28.1387 30.5403 27.7501C30.5572 27.3536 30.436 26.9359 30.1426 26.6534C29.8101 26.3041 29.3107 26.1726 28.8394 26.1515C27.311 26.1432 25.7819 26.1579 24.2536 26.1439Z" fill="#FFFFFE"/>
  </symbol>
  <symbol id='vtb__icon' width="30" height="30" viewBox="0 0 48 48" fill="none">
    <rect width="48" height="48" rx="24" fill="#0A2896"/>
    <path d="M6.65479 17L5.99068 18.7592H15.1938L15.8579 17H6.65479ZM5.65842 19.6383L4.99431 21.3971H14.1974L14.8615 19.6383H5.65842ZM4.66411 22.2767L4 24.0354H13.2031L13.8668 22.2767H4.66411Z" fill="#00AAFF"/>
    <path d="M23.5652 24.7057V24.7429C23.9858 24.8922 24.3875 25.1532 24.598 25.3208C25.2483 25.8429 25.5354 26.5326 25.5354 27.4276C25.5354 28.9008 24.7319 29.9633 23.412 30.299C23.0102 30.4108 22.5897 30.4483 21.805 30.4483H17.8076V19.6721H21.3463C22.0732 19.6721 22.5704 19.7092 23.0102 19.821C24.2921 20.1567 25.1337 21.0144 25.1337 22.3751C25.1337 23.1024 24.8658 23.7179 24.426 24.1278C24.2347 24.3142 23.9669 24.5381 23.5652 24.7057ZM20.0264 25.8429V28.6769H21.5568C22.0155 28.6769 22.4365 28.6397 22.7428 28.36C23.0488 28.0802 23.1827 27.7261 23.1827 27.2599C23.1827 26.9059 23.0868 26.5702 22.8956 26.3279C22.5704 25.9363 22.1686 25.8429 21.4803 25.8429H20.0264ZM20.0071 23.9785H21.2505C21.633 23.9785 21.8242 23.9785 22.0155 23.9226C22.5323 23.7733 22.8575 23.3263 22.8575 22.7108C22.8575 21.984 22.5131 21.6667 22.0155 21.5178C21.805 21.4619 21.5949 21.4431 21.1739 21.4431H20.0071V23.9785ZM28.8637 30.4483V21.4802H25.6694V19.6721H34.5452L33.9141 21.4802H31.0825V30.4483H28.8637ZM35.2336 30.4483V19.6721H42.4262L41.7951 21.4802H37.4336V23.8668H39.2126C40.6472 23.8668 41.3934 24.2024 41.9098 24.6311C42.3116 24.9668 43 25.7124 43 27.1857C43 28.6397 42.2923 29.4413 41.6993 29.8516C41.0109 30.3174 40.284 30.4483 38.8109 30.4483H35.2336ZM37.4336 28.6397H39.0979C39.729 28.6397 40.1115 28.4905 40.3794 28.1548C40.5133 27.9871 40.7045 27.6886 40.7045 27.1294C40.7045 26.5702 40.5133 26.1786 40.1308 25.8988C39.9015 25.7312 39.5951 25.6382 39.0787 25.6382H37.4336V28.6397Z" fill="white"/>
  </symbol>
  <symbol id='sberbank__icon' width="30" height="30" viewBox="0 0 48 48" fill="none">
    <rect width="48" height="48" rx="24" fill="#21A038"/>
    <path d="M30.054 15.1872L32.7845 13.1511C30.3847 11.2001 27.3234 10.0001 23.9858 10.0001V10.0285C20.3867 10.0358 17.1009 11.4236 14.6187 13.6943L14.606 13.6802C11.7758 16.2635 10.0141 19.9808 10.0001 24.1158L10 24.1371V24.1655C10.0071 27.8049 11.381 31.1266 13.6273 33.6347L13.614 33.6469C16.1792 36.5192 19.8758 38.3025 23.9858 38.3025C27.5918 38.2953 30.8852 36.9021 33.3674 34.6237L33.3916 34.6507C36.2072 32.0855 38 28.3203 38 24.1654C38 23.3009 37.9174 22.4647 37.778 21.6286L34.7711 23.8867V24.1654C34.7711 27.1802 33.5526 29.8987 31.5979 31.8581L31.5728 31.8327C29.6407 33.8405 26.9644 35.0404 23.9859 35.0404C23.8937 35.0404 23.8018 35.0393 23.7102 35.0369C23.6202 35.0334 23.5302 35.0263 23.4331 35.0121L23.4324 35.0262C20.6782 34.8845 18.2048 33.6914 16.3881 31.8435L16.3989 31.8327C14.4407 29.8816 13.2266 27.1771 13.2266 24.1654C13.2266 24.0724 13.2278 23.9796 13.2301 23.887C13.2337 23.7966 13.2407 23.7061 13.2549 23.608L13.2408 23.6072C13.3817 20.8442 14.5617 18.3271 16.388 16.4872L16.3989 16.4982C18.331 14.5188 21.0333 13.2905 23.9858 13.2905C24.1795 13.2905 24.3449 13.2905 24.5386 13.3189L24.5404 13.2826C26.5906 13.4085 28.4844 14.086 30.054 15.1872Z" fill="white"/>
    <path d="M36.7576 18.3383C36.2899 17.3344 35.7372 16.3872 35.0758 15.5227L23.9858 23.7474L18.6617 20.3744V24.4443L24.0142 27.8456L36.7576 18.3383Z" fill="white"/>
  </symbol>
  <symbol id='rosselhozbank__icon' width="30" height="30" viewBox="0 0 48 48" fill="none">
    <rect width="48" height="48" rx="24" fill="#42AB44"/>
    <path fill-rule="evenodd" clip-rule="evenodd" d="M14.996 5.00319H15.5213C15.5213 6.18022 15.5213 7.35725 15.5213 8.53428L16.0046 9.00541C16.0143 7.67187 16.0046 6.33674 16.0046 5.00319H16.5443C16.5443 6.38784 16.5443 7.77249 16.5443 9.15554C16.4799 9.51008 16.7956 9.72888 16.9906 9.97323C17.0276 8.32028 17.0019 6.66253 17.0115 5.00319H17.5351C17.5351 6.82703 17.5351 8.6498 17.5351 10.4715L18.0426 10.9778C18.0426 8.98625 18.0426 6.99472 18.0426 5.00479H18.5872C18.5872 7.90611 18.5872 10.8085 18.5872 13.7119C17.4175 12.618 16.3123 11.4601 15.1442 10.3581C14.9557 10.2288 15.0202 9.98601 14.9992 9.79436C15.0057 8.1973 15.0057 6.60025 14.9992 5.00319H14.996ZM19.0464 5.00319H19.5893C19.6054 6.99632 19.57 8.99583 19.6054 10.9794C20.208 10.5466 20.0453 9.79436 20.0549 9.15554C20.0549 7.76929 20.0549 6.38465 20.0549 5.00319H20.5721C20.5721 6.66573 20.5721 8.32826 20.5721 9.9908C20.7332 9.77839 21.0554 9.62347 21.0409 9.32483C21.0651 7.88748 21.0409 6.45013 21.0409 5.0016H21.5855C21.5855 6.32875 21.5855 7.6575 21.5855 8.98465L22.0543 8.49595C22.0543 7.3301 22.0543 6.16425 22.0543 5H22.5989C22.5989 6.7344 22.5989 8.4704 22.5989 10.2048C21.4174 11.376 20.2305 12.5413 19.0383 13.7008C19.0383 10.8005 19.0383 7.90025 19.0383 5L19.0464 5.00319ZM23.2353 9.27053C23.2353 9.63146 23.2353 9.99399 23.2353 10.3549C26.5459 10.1159 29.8427 10.9761 32.6056 12.7999C35.3684 14.6237 37.4402 17.3073 38.4942 20.4276C39.4182 23.2074 39.4908 26.1963 38.7029 29.0171C37.9149 31.8378 36.3017 34.364 34.0668 36.2767C31.3818 38.5669 27.96 39.8316 24.4178 39.843C21.3928 39.9175 18.4159 39.0823 15.8789 37.4474C12.9319 35.5512 10.757 32.6822 9.73962 29.3486C8.72225 26.015 8.92805 22.4321 10.3206 19.2346C11.2131 17.1408 12.6776 15.3154 14.3757 13.803C14.3757 13.3574 14.3757 12.9134 14.3757 12.4694C11.6764 14.4842 9.68989 17.2943 8.70081 20.4971C7.71174 23.6998 7.77093 27.1307 8.8699 30.2981C9.96886 33.4654 12.0512 36.2066 14.8184 38.1287C17.5856 40.0507 20.8957 41.0551 24.2741 40.9977C27.6526 40.9403 30.926 39.8241 33.6251 37.8092C36.3243 35.7943 38.3107 32.984 39.2995 29.7812C40.2884 26.5784 40.2289 23.1475 39.1298 19.9802C38.0306 16.8129 35.9481 14.0719 33.1807 12.15C30.3194 10.0994 26.7443 9.16352 23.2353 9.27532V9.27053ZM19.1044 14.346C18.9626 15.0742 19.0802 15.8488 19.0496 16.5946C20.2311 15.4415 21.4126 14.2959 22.5941 13.1578C22.615 12.4087 22.6069 11.6581 22.6102 10.9091C21.4711 12.0845 20.2096 13.145 19.1028 14.346H19.1044ZM14.9976 10.9123C14.9976 11.6581 14.9976 12.4039 14.9976 13.1482C16.1818 14.306 17.4143 15.4144 18.563 16.6074C18.534 15.86 18.6227 15.103 18.5195 14.3619C17.4288 13.137 16.1319 12.1053 14.9976 10.9123ZM19.3992 16.9284C20.4948 15.9143 21.5259 14.8363 22.6118 13.811C22.6118 14.5456 22.6118 15.2808 22.6118 16.0165C21.4421 17.1967 20.2499 18.3514 19.0432 19.4965C19.056 18.8193 19.0238 18.1406 19.0528 17.4634C19.0254 17.2223 19.2607 17.0849 19.3992 16.9284ZM15.0009 13.87C16.1995 14.964 17.3547 16.1059 18.5228 17.235C18.6194 17.9777 18.5357 18.7331 18.5663 19.4805C17.4535 18.4392 16.3547 17.383 15.2699 16.3119C15.1507 16.181 14.988 16.0516 15.0057 15.8552C14.9735 15.194 15.0057 14.5312 15.0057 13.87H15.0009ZM19.048 20.1752C20.2295 19.0126 21.4185 17.8584 22.615 16.7128C22.5908 17.4331 22.6488 18.1502 22.5876 18.8736C22.4179 19.1167 22.22 19.3391 21.9979 19.5364C20.9974 20.4755 20.0437 21.4529 19.0512 22.4111C19.0415 21.6685 19.0512 20.9258 19.0512 20.1848L19.048 20.1752ZM14.9976 16.7463C16.1802 17.8914 17.3789 19.019 18.5566 20.1752C18.5646 20.9194 18.5566 21.6637 18.5566 22.4111C17.3595 21.2708 16.2221 20.0762 14.996 18.9726C14.996 18.23 14.996 17.489 14.996 16.7463H14.9976ZM24.3856 18.8752C24.9189 17.917 26.3576 17.6455 27.1809 18.3961C27.9156 18.9551 28.0026 19.9932 27.5982 20.7917C30.4611 20.7805 33.3273 20.7741 36.1903 20.7917C36.6833 20.7645 36.6897 21.3267 36.7397 21.6701C36.2402 22.1045 35.5394 21.9 34.9368 21.9495C34.9465 22.0454 34.9642 22.2386 34.9739 22.3344L35.5958 22.3488V22.8966C35.3767 22.8966 35.1592 22.8966 34.94 22.9062L34.9594 23.4508L35.5909 23.4683C35.5909 23.8101 35.5909 24.1535 35.5909 24.4968H34.9465C34.9465 24.3771 34.9465 24.1391 34.9465 24.0177H34.0088C34.0088 24.1375 34.0088 24.3755 34.0088 24.4968H33.3644C33.3644 24.1503 33.3644 23.8037 33.3644 23.4588H34.0088V22.8902H33.3644C33.3644 22.7513 33.3644 22.4734 33.3644 22.3344H34.0088C34.0088 22.2402 34.0169 22.0502 34.0201 21.9559C31.8902 21.9559 29.7587 21.9559 27.6288 21.9559C27.8866 22.6315 27.951 23.43 27.4822 24.0321C26.8845 24.8738 25.5231 25.0287 24.7658 24.3148C24.4868 24.0851 24.2863 23.7754 24.192 23.4283C24.0977 23.0811 24.1141 22.7135 24.239 22.376C24.5129 21.8777 24.1053 21.3283 24.4001 20.8364C24.1085 20.2263 23.9748 19.4773 24.3792 18.8816L24.3856 18.8752ZM25.2395 19.0876C25.7051 18.8225 26.3318 18.7283 26.7185 19.1818C27.1664 19.6865 26.8103 20.3477 26.6138 20.8779C26.1611 21.7371 27.3146 22.6059 26.7749 23.4444C26.4333 24.0832 25.3732 23.9842 25.1203 23.3214C24.8641 22.8615 25.1912 22.3951 25.4038 21.9943C25.1461 21.5822 25.2588 21.1335 25.3394 20.6927C25.0832 20.1784 24.9382 19.6194 25.2443 19.0956L25.2395 19.0876ZM19.0512 22.9844C20.2574 21.8569 21.4443 20.7076 22.6118 19.5364C22.5957 20.2822 22.6408 21.0296 22.5941 21.7723C22.5941 22.0086 22.3621 22.1476 22.2235 22.3121C21.1376 23.307 20.1033 24.3515 19.0496 25.38C19.0496 24.5815 19.0496 23.783 19.0496 22.9844H19.0512ZM11.7577 19.6578C12.2716 20.9945 13.2222 22.0933 14.2791 23.0435C15.2747 23.9783 16.257 24.9259 17.2258 25.8863C17.8161 26.4877 18.2015 27.2573 18.3278 28.087C18.4889 29.2401 18.3778 30.4076 18.4422 31.5654C18.1584 31.0123 17.7844 30.5094 17.3354 30.077C16.2173 29.0021 15.1523 27.8714 14.0068 26.8254C13.2222 26.1386 12.5165 25.3209 12.1798 24.3212C11.5853 22.8391 11.7899 21.2165 11.7577 19.661V19.6578ZM14.9928 19.554C15.916 20.426 16.7876 21.3538 17.743 22.1939C18.0255 22.4319 18.2844 22.6961 18.5163 22.9828C18.6291 23.7814 18.5308 24.5911 18.563 25.3944C17.4079 24.2078 16.1979 23.0755 14.996 21.9352C14.996 21.1366 14.996 20.3477 14.996 19.554H14.9928ZM11.7706 25.6228C12.4859 27.1368 13.7974 28.226 14.9541 29.3966C15.895 30.3293 16.9745 31.1534 17.7478 32.2314C18.7145 33.7869 18.3375 35.6858 18.4309 37.4154C18.1239 36.7195 17.6865 36.0876 17.142 35.5533C16.0143 34.4353 14.8317 33.3685 13.7152 32.2394C12.993 31.5736 12.4526 30.7373 12.1444 29.8087C11.6513 28.4687 11.7706 27.0202 11.7786 25.6228H11.7706ZM19.1817 26.6082C20.2982 26.6401 21.4228 26.5283 22.5312 26.6752C23.166 26.7551 23.6461 27.231 23.8701 27.8044C24.1327 27.3715 24.4533 26.9164 24.9785 26.7854C26.0692 26.5363 27.4403 26.5012 28.2185 27.4434C28.175 27.2837 28.0896 26.9723 28.0461 26.8158C31.3456 26.7902 34.6517 26.8158 37.9432 26.8014C37.9319 26.9962 37.9222 27.1911 37.9109 27.3859C36.4964 27.3859 35.0818 27.3859 33.6656 27.3859C33.6656 29.9955 33.6656 32.6051 33.6656 35.2115C33.2661 35.5581 32.8601 35.8934 32.4621 36.2432C32.4267 34.9081 32.5089 33.5713 32.417 32.2394C32.4009 31.7698 31.9933 31.4904 31.6485 31.2428C31.9031 29.9652 32.2044 28.6875 32.4541 27.3939C31.9514 27.3939 31.4487 27.3939 30.9461 27.4035C30.8204 28.8616 30.8478 30.3341 30.6367 31.7842C30.4756 31.3961 30.4756 30.9729 30.4563 30.5625C30.4176 29.5052 30.329 28.4528 30.2855 27.3971H28.8355C29.0369 28.6859 29.3189 29.9524 29.5347 31.246C29.1803 31.5047 28.7534 31.805 28.7727 32.2969C28.7147 34.266 28.7727 36.2384 28.7485 38.206C28.4601 38.2938 28.1734 38.3864 27.8882 38.4775C27.8769 36.446 27.8882 34.4146 27.8882 32.3831C27.4048 32.3831 26.936 32.3831 26.4623 32.3831C26.4495 34.5248 26.4623 36.6664 26.4511 38.8081L25.8324 38.8959C25.8324 35.4441 25.8324 31.9929 25.8324 28.5422L26.4575 28.5198C26.4575 29.6074 26.4575 30.695 26.4575 31.7826C26.9344 31.7826 27.4118 31.7826 27.8898 31.7826C27.8898 30.7349 27.9172 29.6873 27.8785 28.6396C27.8543 28.1829 27.7706 27.584 27.2663 27.4099C26.5612 27.2135 25.816 27.2069 25.1074 27.3907C24.4807 27.6095 24.4146 28.3729 24.4098 28.9335V39.0205L23.8072 39.046C23.8072 37.8977 23.7879 36.7511 23.8249 35.6044C23.456 36.3055 22.6746 36.5754 21.9222 36.6009C21.9093 37.3547 21.9125 38.107 21.9222 38.8608L21.2971 38.7873C21.2971 37.8562 21.2971 36.9267 21.2971 35.9956C21.8642 35.9669 22.5071 36.0452 22.9952 35.6906C23.3819 35.3712 23.3481 34.825 23.3738 34.3746C23.3738 32.4582 23.3738 30.5513 23.3738 28.6396C23.3883 28.095 23.1821 27.4147 22.5586 27.3141C21.6677 27.1384 20.7493 27.2486 19.8471 27.2182C19.8535 30.9362 19.8535 34.6541 19.8471 38.3721L19.1994 38.2219C19.1688 34.3491 19.1994 30.4746 19.1849 26.6002L19.1817 26.6082ZM32.9068 27.6415C33.0099 28.9894 32.9406 30.3453 32.9551 31.6964C32.7192 31.4931 32.4989 31.2726 32.2962 31.0368C32.4573 29.8981 32.7264 28.777 32.9068 27.6415ZM21.281 34.7499C21.281 32.6472 21.281 30.5444 21.281 28.4416H21.9061C21.9061 30.5444 21.9061 32.6482 21.9061 34.7531L21.281 34.7499ZM35.3203 28.5214C36.0904 28.5214 36.8621 28.5214 37.6338 28.5118C37.5484 28.8153 37.4614 29.1203 37.3857 29.427C36.7719 29.0261 36.0211 29.0692 35.3187 29.0724C35.3187 28.8888 35.3187 28.7051 35.3187 28.5214H35.3203ZM35.3203 30.2111L36.0243 30.2191C36.0098 30.9186 36.0678 31.6213 35.9969 32.3176C35.8358 32.6977 35.5539 33.0187 35.3251 33.3621C35.317 32.3128 35.3251 31.262 35.3251 30.2111H35.3203ZM30.263 32.4725L30.9074 32.447C30.8977 34.044 30.9203 35.6523 30.8945 37.2557L30.263 37.5656C30.2614 35.8647 30.2646 34.167 30.263 32.4725Z" fill="white"/>
  </symbol>
  <symbol id='rosbank__icon' width="30" height="30" viewBox="0 0 48 48" fill="none">
    <rect width="48" height="48" rx="24" fill="#00234D"/>
    <path d="M33 11L16.125 13.25V18.3125L33 16.625V11Z" fill="#E40038"/>
    <path d="M29.9235 22.7289L16.1091 13.25V18.3691L20.4162 21.3298L21.263 21.8326C19.7199 21.8503 18.9753 22.1692 18.2308 22.6154C16.1091 23.9186 15 26.212 15 29.6013C15 35.3016 18.0996 38 23.9922 38C29.8849 38 33 35.3016 33 29.6013C33 26.3138 31.9391 24.0575 29.9235 22.7289ZM23.9922 33.8476C21.0624 33.8476 20.1481 32.7674 20.1481 29.6561C20.1481 26.5447 21.0624 25.4684 23.9922 25.4684C26.9222 25.4684 27.8191 26.5349 27.8191 29.66C27.8191 32.7851 26.9376 33.8476 23.9922 33.8476Z" fill="white"/>
  </symbol>
  <symbol id='arr__right' width="8" height="14" viewBox="0 0 8 14" fill="none">
    <path d="M7.78279 6.45372L1.72295 0.223657C1.5828 0.0794465 1.3957 0 1.1962 0C0.996706 0 0.809609 0.0794465 0.669453 0.223657L0.223188 0.682352C-0.0671998 0.981244 -0.0671998 1.46703 0.223188 1.76547L5.31178 6.9971L0.217542 12.2345C0.0773851 12.3787 0 12.571 0 12.776C0 12.9812 0.0773851 13.1734 0.217542 13.3178L0.663807 13.7763C0.804074 13.9206 0.99106 14 1.19056 14C1.39005 14 1.57715 13.9206 1.71731 13.7763L7.78279 7.54059C7.92328 7.39592 8.00044 7.20277 8 6.99744C8.00044 6.79131 7.92328 6.59827 7.78279 6.45372Z" fill="#20A052"/>
  </symbol>
  <symbol id="arr__left" width="8" height="14" viewBox="0 0 8 14" fill="none">
    <path d="M0.217211 6.45372L6.27705 0.223657C6.4172 0.0794465 6.6043 0 6.8038 0C7.00329 0 7.19039 0.0794465 7.33055 0.223657L7.77681 0.682352C8.0672 0.981244 8.0672 1.46703 7.77681 1.76547L2.68822 6.9971L7.78246 12.2345C7.92261 12.3787 8 12.571 8 12.776C8 12.9812 7.92261 13.1734 7.78246 13.3178L7.33619 13.7763C7.19593 13.9206 7.00894 14 6.80944 14C6.60995 14 6.42285 13.9206 6.28269 13.7763L0.217211 7.54059C0.0767224 7.39592 -0.000441009 7.20277 1.82352e-06 6.99744C-0.000441009 6.79131 0.0767224 6.59827 0.217211 6.45372Z" fill="#20A052"/>
  </symbol>
  <symbol id='camera__icon' width="17" height="10" viewBox="0 0 17 10" fill="none">
    <path d="M10.14 0H1.85996C0.83698 0 0 0.837989 0 1.8622V8.1378C0 9.16201 0.83698 10 1.85996 10H10.14C11.163 10 12 9.16201 12 8.1378V1.8622C12 0.819367 11.163 0 10.14 0Z" fill="#777777"/>
    <path d="M15.6236 1.02421C15.512 1.04283 15.4004 1.0987 15.3074 1.15456L13 3V7L15.326 8.82682C15.8654 9.14339 16.535 8.95717 16.8512 8.41713C16.9442 8.24953 17 8.06331 17 7.85847V2.10428C17 1.41527 16.349 0.856611 15.6236 1.02421Z" fill="#777777"/>
  </symbol>
  <symbol id="price__bottom" width="35" height="35" viewBox="0 0 32 32" fill="none">
    <circle cx="16" cy="16" r="16" fill="#F6F6F6"/>
    <path d="M8.34784 16.6956H11.1304V23.6521H8.34784V16.6956Z" fill="#20A052"/>
    <path d="M13.913 8.34814H16.6956V23.6525H13.913V8.34814Z" fill="#20A052"/>
    <path d="M19.4783 13.9131H22.2609V23.6522H19.4783V13.9131Z" fill="#20A052"/>
    <circle cx="25.7391" cy="6.26087" r="6.26087" fill="#20A052"/>
    <path d="M26.0641 9.60164L29.0839 6.49828C29.1701 6.40969 29.2174 6.29162 29.2174 6.16572C29.2174 6.03969 29.1701 5.92169 29.0839 5.8331L28.8097 5.55134C28.7236 5.46282 28.6087 5.41406 28.4861 5.41406C28.3636 5.41406 28.2448 5.46282 28.1587 5.55134L26.3931 7.3618V3.24672C26.3931 2.98738 26.1956 2.78247 25.9431 2.78247H25.5554C25.303 2.78247 25.0855 2.98738 25.0855 3.24672L25.0855 7.38234L23.3101 5.55141C23.2239 5.46289 23.1121 5.41413 22.9895 5.41413C22.8671 5.41413 22.7536 5.46289 22.6675 5.55141L22.3941 5.83317C22.3079 5.92176 22.2609 6.03976 22.2609 6.16579C22.2609 6.29169 22.3085 6.40976 22.3947 6.49835L25.4145 9.60171C25.501 9.69051 25.6164 9.73934 25.7391 9.73899C25.8622 9.73927 25.9777 9.69051 26.0641 9.60164Z" fill="white"/>
  </symbol>
  <symbol id="price__top" width="35" height="35" viewBox="0 0 32 32" fill="none">
    <circle cx="16" cy="16" r="16" fill="#F6F6F6" />
    <path d="M8.34778 16.6956H11.1304V23.6521H8.34778V16.6956Z" fill="#20A052" />
    <path d="M13.9131 8.34814H16.6957V23.6525H13.9131V8.34814Z" fill="#20A052" />
    <path d="M19.4781 13.9131H22.2608V23.6522H19.4781V13.9131Z" fill="#20A052" />
    <circle cx="25.739" cy="6.26087" r="6.26087" fill="#FF0000" />
    <path d="M26.064 2.92009L29.0839 6.02345C29.1701 6.11204 29.2174 6.23011 29.2174 6.356C29.2174 6.48204 29.17 6.60004 29.0839 6.68863L28.8096 6.97039C28.7236 7.05891 28.6086 7.10767 28.486 7.10767C28.3635 7.10767 28.2447 7.05891 28.1586 6.97039L26.3931 5.15993V9.27501C26.3931 9.53435 26.1955 9.73926 25.9431 9.73926H25.5554C25.3029 9.73926 25.0855 9.53435 25.0855 9.27501L25.0855 5.13939L23.31 6.97032C23.2238 7.05884 23.112 7.1076 22.9894 7.1076C22.867 7.1076 22.7535 7.05884 22.6674 6.97032L22.394 6.68856C22.3078 6.59997 22.2609 6.48197 22.2609 6.35593C22.2609 6.23004 22.3085 6.11197 22.3947 6.02338L25.4144 2.92002C25.5009 2.83122 25.6163 2.78239 25.7391 2.78274C25.8622 2.78246 25.9777 2.83122 26.064 2.92009Z"
        fill="white"/>
  </symbol>
  <symbol id="eye__hide" width="21" height="21" viewBox="0 0 40 40" fill="none">
    <path d="M7.8782 4.11553L10.1686 6.27079L10.1795 6.1579C10.1795 5.02552 9.20155 4.10527 7.99818 4.10527L7.8782 4.11553Z" fill="#999999"/>
    <path d="M7.99818 2.73687C10.005 2.73687 11.6337 4.26951 11.6337 6.15793C11.6337 6.59925 11.5392 7.02004 11.3756 7.40661L13.5024 9.40792C14.6003 8.54582 15.4656 7.43056 16 6.15793C14.7385 3.15426 11.6374 1.02635 7.99821 1.02635C6.98025 1.02635 6.00595 1.19739 5.1007 1.50529L6.67125 2.97975C7.08202 2.82923 7.52919 2.73687 7.99818 2.73687Z" fill="#999999"/>
    <path d="M0.727095 0.872369L2.71574 2.7437C1.51602 3.62633 0.567143 4.79976 0 6.1579C1.2579 9.16158 4.36264 11.2895 7.99818 11.2895C9.1252 11.2895 10.2013 11.0842 11.1865 10.7113L13.6151 13L14.5422 12.1311L1.65415 0L0.727095 0.872369ZM4.74801 4.65265L5.87139 5.70975C5.83867 5.85687 5.81686 6.00395 5.81686 6.1579C5.81686 7.29028 6.79481 8.21053 7.99818 8.21053C8.16178 8.21053 8.31811 8.19001 8.47081 8.15922L9.59418 9.21632C9.11065 9.44211 8.57261 9.57897 7.99818 9.57897C5.99136 9.57897 4.36264 8.04632 4.36264 6.1579C4.36264 5.61738 4.50807 5.11106 4.74801 4.65265Z" fill="#999999"/>
  </symbol>
  <symbol id="sort" width="21" height="21" viewBox="0 0 40 40" fill="none">
    <path d="M13.2132 6.78679L13.2132 33.2132M13.2132 6.78679L20.5 13.7868M13.2132 6.78679L6 13.7868" stroke-width="2.6" stroke-linecap="round"/>
    <path d="M27.2132 34.2132L27.2132 7.78679M27.2132 34.2132L34.5 27.2132M27.2132 34.2132L20 27.2132" stroke-width="2.6" stroke-linecap="round"/>
  </symbol>
  <symbol id="mail__icon__large" width="21" height="21" viewBox="0 0 40 40" fill="none">
    <path d="M3 10.3096C2.99999 10.6585 3.08606 11.002 3.25056 11.3096C3.41507 11.6172 3.65292 11.8793 3.94297 12.0727C6.81881 13.9924 15.4843 19.7751 18.7426 21.9501C19.115 22.1987 19.5525 22.3313 20 22.3313C20.4476 22.3313 20.8851 22.1987 21.2574 21.9501C24.5157 19.7751 33.1813 13.9924 36.0571 12.0727C36.6465 11.6796 37 11.0181 37 10.3096M3 10.3096V9.26788C3 8.01538 4.01436 7 5.26559 7H34.7345C35.9856 7 37 8.01538 37 9.26788V10.3096M3 10.3096L3 29.7309C2.99992 30.0289 3.05854 30.324 3.1725 30.5992C3.28646 30.8745 3.45352 31.1246 3.66413 31.3352M37 10.3096L37 29.7309C37.0001 30.0289 36.9415 30.324 36.8275 30.5992C36.7135 30.8745 36.5465 31.1246 36.3359 31.3352M3.66413 31.3352C3.87447 31.546 4.12428 31.7132 4.39926 31.8273C4.67424 31.9414 4.96899 32.0001 5.26665 32H34.7333C35.031 32.0001 35.3258 31.9414 35.6007 31.8273C35.8757 31.7132 36.1255 31.546 36.3359 31.3352M3.66413 31.3352L13.303 23.6855M36.3359 31.3352L26.697 23.6855" stroke-width="2.6" stroke-miterlimit="10" stroke-linecap="round" stroke-linejoin="round"/>
  </symbol>
  <symbol id="mail__icon" width="19" height="19" viewBox="0 0 40 40" fill="none">
    <path d="M3 10.3096C2.99999 10.6585 3.08606 11.002 3.25056 11.3096C3.41507 11.6172 3.65292 11.8793 3.94297 12.0727C6.81881 13.9924 15.4843 19.7751 18.7426 21.9501C19.115 22.1987 19.5525 22.3313 20 22.3313C20.4476 22.3313 20.8851 22.1987 21.2574 21.9501C24.5157 19.7751 33.1813 13.9924 36.0571 12.0727C36.6465 11.6796 37 11.0181 37 10.3096M3 10.3096V9.26788C3 8.01538 4.01436 7 5.26559 7H34.7345C35.9856 7 37 8.01538 37 9.26788V10.3096M3 10.3096L3 29.7309C2.99992 30.0289 3.05854 30.324 3.1725 30.5992C3.28646 30.8745 3.45352 31.1246 3.66413 31.3352M37 10.3096L37 29.7309C37.0001 30.0289 36.9415 30.324 36.8275 30.5992C36.7135 30.8745 36.5465 31.1246 36.3359 31.3352M3.66413 31.3352C3.87447 31.546 4.12428 31.7132 4.39926 31.8273C4.67424 31.9414 4.96899 32.0001 5.26665 32H34.7333C35.031 32.0001 35.3258 31.9414 35.6007 31.8273C35.8757 31.7132 36.1255 31.546 36.3359 31.3352M3.66413 31.3352L13.303 23.6855M36.3359 31.3352L26.697 23.6855" stroke-width="2.6" stroke-miterlimit="10" stroke-linecap="round" stroke-linejoin="round"/>
  </symbol>
  <symbol id="on__map__large" width="21" height="21" viewBox="0 0 40 40" fill="none">
    <path d="M25.7627 9.81818L14.2373 4M25.7627 9.81818L32.8039 6.17258C33.2431 5.94517 33.7329 5.8355 34.2262 5.8541C34.7195 5.8727 35.1997 6.01894 35.621 6.27879C36.0422 6.53864 36.3902 6.9034 36.6317 7.33807C36.8732 7.77275 37 8.26278 37 8.76116V28.4044C37 28.9396 36.8538 29.4644 36.5774 29.9211C36.301 30.3778 35.9052 30.7487 35.4335 30.9929L25.7627 36M25.7627 9.81818V36M14.2373 4L4.56652 9.00713C4.09482 9.25134 3.699 9.6222 3.42261 10.0789C3.14623 10.5356 2.99999 11.0604 3 11.5956V31.2388C3 31.7372 3.12682 32.2272 3.3683 32.6619C3.60978 33.0966 3.95782 33.4614 4.37904 33.7212C4.80026 33.9811 5.28055 34.1273 5.77384 34.1459C6.26712 34.1645 6.75687 34.0548 7.19612 33.8274L14.2373 30.1818M14.2373 4V30.1818M14.2373 30.1818L25.7627 36" stroke-width="2.6" stroke-miterlimit="10"/>
  </symbol>
  <symbol id="on__map" width="20" height="20" viewBox="0 0 40 40" fill="none">
    <path d="M25.7627 9.81818L14.2373 4M25.7627 9.81818L32.8039 6.17258C33.2431 5.94517 33.7329 5.8355 34.2262 5.8541C34.7195 5.8727 35.1997 6.01894 35.621 6.27879C36.0422 6.53864 36.3902 6.9034 36.6317 7.33807C36.8732 7.77275 37 8.26278 37 8.76116V28.4044C37 28.9396 36.8538 29.4644 36.5774 29.9211C36.301 30.3778 35.9052 30.7487 35.4335 30.9929L25.7627 36M25.7627 9.81818V36M14.2373 4L4.56652 9.00713C4.09482 9.25134 3.699 9.6222 3.42261 10.0789C3.14623 10.5356 2.99999 11.0604 3 11.5956V31.2388C3 31.7372 3.12682 32.2272 3.3683 32.6619C3.60978 33.0966 3.95782 33.4614 4.37904 33.7212C4.80026 33.9811 5.28055 34.1273 5.77384 34.1459C6.26712 34.1645 6.75687 34.0548 7.19612 33.8274L14.2373 30.1818M14.2373 4V30.1818M14.2373 30.1818L25.7627 36" stroke-width="2.6" stroke-miterlimit="10"/>
  </symbol>
  <symbol id="filter__icon" width="19" height="19" viewBox="0 0 40 40" fill="none">
    <path d="M17.2881 20H36M17.2881 20C17.2881 22.2593 15.4669 24.0909 13.2203 24.0909C10.9738 24.0909 9.15254 22.2593 9.15254 20M17.2881 20C17.2881 17.7407 15.4669 15.9091 13.2203 15.9091C10.9738 15.9091 9.15254 17.7407 9.15254 20M4 20H9.15254M22.7119 9.09091H4M22.7119 9.09091C22.7119 11.3502 24.5331 13.1818 26.7797 13.1818C29.0262 13.1818 30.8475 11.3502 30.8475 9.09091M22.7119 9.09091C22.7119 6.83156 24.5331 5 26.7797 5C29.0262 5 30.8475 6.83156 30.8475 9.09091M36 9.09091H30.8475M22.7119 30.9091H4M22.7119 30.9091C22.7119 33.1684 24.5331 35 26.7797 35C29.0262 35 30.8475 33.1684 30.8475 30.9091M22.7119 30.9091C22.7119 28.6498 24.5331 26.8182 26.7797 26.8182C29.0262 26.8182 30.8475 28.6498 30.8475 30.9091M36 30.9091H30.8475" stroke-width="2.6" stroke-miterlimit="10" stroke-linecap="round" stroke-linejoin="round"/>
  </symbol>
  <symbol id="logo-mobile" height="19" viewBox="0 0 75 19" fill="none">
    <path d="M0.0629883 0.226562H5.94678C7.28141 0.226562 8.40853 0.430013 9.32812 0.836914C10.2559 1.24382 10.9598 1.84603 11.4399 2.64355C11.9282 3.43294 12.1724 4.40544 12.1724 5.56104C12.1724 6.37484 12.0055 7.11947 11.6719 7.79492C11.3464 8.46224 10.8743 9.0319 10.2559 9.50391C9.64551 9.96777 8.91309 10.3136 8.05859 10.5415L7.39941 10.7979H1.86963L1.84521 8.88135H6.02002C6.86637 8.88135 7.57031 8.73486 8.13184 8.44189C8.69336 8.14079 9.11654 7.73796 9.40137 7.2334C9.6862 6.72884 9.82861 6.17139 9.82861 5.56104C9.82861 4.87744 9.69434 4.2793 9.42578 3.7666C9.15723 3.25391 8.73405 2.85921 8.15625 2.58252C7.58659 2.29769 6.8501 2.15527 5.94678 2.15527H2.41895V18H0.0629883V0.226562ZM10.4512 18L6.12988 9.94336L8.5835 9.93115L12.9658 17.8535V18H10.4512ZM20.6074 18.2441C19.6878 18.2441 18.8537 18.0895 18.105 17.7803C17.3644 17.4629 16.7256 17.0194 16.1885 16.4497C15.6595 15.88 15.2526 15.2046 14.9678 14.4233C14.6829 13.6421 14.5405 12.7876 14.5405 11.8599V11.3472C14.5405 10.2729 14.6992 9.31673 15.0166 8.47852C15.334 7.63216 15.7653 6.91602 16.3105 6.33008C16.8558 5.74414 17.4743 5.30062 18.166 4.99951C18.8577 4.6984 19.5739 4.54785 20.3145 4.54785C21.2585 4.54785 22.0723 4.71061 22.7559 5.03613C23.4476 5.36165 24.0132 5.81738 24.4526 6.40332C24.8921 6.98112 25.2176 7.66471 25.4292 8.4541C25.6408 9.23535 25.7466 10.0898 25.7466 11.0176V12.0308H15.8833V10.1875H23.4883V10.0166C23.4557 9.43066 23.3337 8.861 23.1221 8.30762C22.9186 7.75423 22.5931 7.2985 22.1455 6.94043C21.6979 6.58236 21.0876 6.40332 20.3145 6.40332C19.8018 6.40332 19.3298 6.51318 18.8984 6.73291C18.4671 6.9445 18.0968 7.26188 17.7876 7.68506C17.4784 8.10824 17.2383 8.625 17.0674 9.23535C16.8965 9.8457 16.811 10.5496 16.811 11.3472V11.8599C16.811 12.4865 16.8965 13.0765 17.0674 13.6299C17.2464 14.1751 17.5028 14.6553 17.8364 15.0703C18.1782 15.4854 18.5892 15.8109 19.0693 16.0469C19.5576 16.2829 20.111 16.4009 20.7295 16.4009C21.527 16.4009 22.2025 16.2381 22.7559 15.9126C23.3092 15.5871 23.7935 15.1517 24.2085 14.6064L25.5757 15.6929C25.2909 16.1242 24.9287 16.5352 24.4893 16.9258C24.0498 17.3164 23.5086 17.6338 22.8657 17.8779C22.231 18.1221 21.4782 18.2441 20.6074 18.2441ZM30.6294 7.4165V18H28.3589V4.79199H30.5073L30.6294 7.4165ZM30.1655 10.8955L29.1157 10.8589C29.1239 9.95557 29.2419 9.12142 29.4697 8.35645C29.6976 7.58333 30.0353 6.91195 30.4829 6.34229C30.9305 5.77262 31.488 5.33317 32.1553 5.02393C32.8226 4.70654 33.5957 4.54785 34.4746 4.54785C35.0931 4.54785 35.6628 4.63737 36.1836 4.81641C36.7044 4.9873 37.1561 5.25993 37.5386 5.63428C37.9211 6.00863 38.2181 6.48877 38.4297 7.07471C38.6413 7.66064 38.7471 8.36865 38.7471 9.19873V18H36.4888V9.30859C36.4888 8.61686 36.3708 8.06348 36.1348 7.64844C35.9069 7.2334 35.5814 6.93229 35.1582 6.74512C34.735 6.5498 34.2386 6.45215 33.6689 6.45215C33.0016 6.45215 32.4442 6.57015 31.9966 6.80615C31.549 7.04215 31.1909 7.36768 30.9224 7.78271C30.6538 8.19775 30.4585 8.67383 30.3364 9.21094C30.2225 9.73991 30.1655 10.3014 30.1655 10.8955ZM38.7227 9.65039L37.209 10.1143C37.2171 9.38997 37.3351 8.69417 37.563 8.02686C37.799 7.35954 38.1367 6.76546 38.5762 6.24463C39.0238 5.7238 39.5731 5.31283 40.2241 5.01172C40.8752 4.70247 41.6198 4.54785 42.458 4.54785C43.166 4.54785 43.7926 4.64144 44.3379 4.82861C44.8913 5.01579 45.3551 5.30469 45.7295 5.69531C46.112 6.0778 46.4009 6.57015 46.5962 7.17236C46.7915 7.77458 46.8892 8.49072 46.8892 9.3208V18H44.6187V9.29639C44.6187 8.55583 44.5007 7.9821 44.2646 7.5752C44.0368 7.16016 43.7113 6.87126 43.2881 6.7085C42.873 6.5376 42.3766 6.45215 41.7988 6.45215C41.3024 6.45215 40.863 6.5376 40.4805 6.7085C40.098 6.87939 39.7765 7.1154 39.5161 7.4165C39.2557 7.70947 39.0563 8.0472 38.918 8.42969C38.7878 8.81217 38.7227 9.21908 38.7227 9.65039ZM49.709 11.5425V11.2617C49.709 10.3096 49.8473 9.4266 50.124 8.61279C50.4007 7.79085 50.7995 7.07878 51.3203 6.47656C51.8411 5.86621 52.4718 5.39421 53.2124 5.06055C53.953 4.71875 54.783 4.54785 55.7026 4.54785C56.6304 4.54785 57.4645 4.71875 58.2051 5.06055C58.9538 5.39421 59.5885 5.86621 60.1094 6.47656C60.6383 7.07878 61.0412 7.79085 61.3179 8.61279C61.5946 9.4266 61.7329 10.3096 61.7329 11.2617V11.5425C61.7329 12.4946 61.5946 13.3776 61.3179 14.1914C61.0412 15.0052 60.6383 15.7173 60.1094 16.3276C59.5885 16.9299 58.9578 17.4019 58.2173 17.7437C57.4849 18.0773 56.6548 18.2441 55.7271 18.2441C54.7993 18.2441 53.9652 18.0773 53.2246 17.7437C52.484 17.4019 51.8493 16.9299 51.3203 16.3276C50.7995 15.7173 50.4007 15.0052 50.124 14.1914C49.8473 13.3776 49.709 12.4946 49.709 11.5425ZM51.9673 11.2617V11.5425C51.9673 12.2017 52.0446 12.8242 52.1992 13.4102C52.3538 13.988 52.5858 14.5007 52.895 14.9482C53.2124 15.3958 53.6071 15.7498 54.0791 16.0103C54.5511 16.2625 55.1004 16.3887 55.7271 16.3887C56.3455 16.3887 56.8867 16.2625 57.3506 16.0103C57.8226 15.7498 58.2132 15.3958 58.5225 14.9482C58.8317 14.5007 59.0636 13.988 59.2183 13.4102C59.381 12.8242 59.4624 12.2017 59.4624 11.5425V11.2617C59.4624 10.6107 59.381 9.99626 59.2183 9.41846C59.0636 8.83252 58.8276 8.31576 58.5103 7.86816C58.201 7.41243 57.8104 7.05436 57.3384 6.79395C56.8745 6.53353 56.3293 6.40332 55.7026 6.40332C55.0841 6.40332 54.5389 6.53353 54.0669 6.79395C53.603 7.05436 53.2124 7.41243 52.895 7.86816C52.5858 8.31576 52.3538 8.83252 52.1992 9.41846C52.0446 9.99626 51.9673 10.6107 51.9673 11.2617ZM72.2554 14.4966C72.2554 14.1711 72.1821 13.87 72.0356 13.5933C71.8973 13.3084 71.6084 13.0521 71.1689 12.8242C70.7376 12.5882 70.0866 12.3848 69.2158 12.2139C68.4834 12.0592 67.8201 11.8761 67.2261 11.6646C66.6401 11.453 66.1396 11.1966 65.7246 10.8955C65.3177 10.5944 65.0044 10.2404 64.7847 9.8335C64.5649 9.4266 64.4551 8.95052 64.4551 8.40527C64.4551 7.88444 64.569 7.39209 64.7969 6.92822C65.0329 6.46436 65.3625 6.05339 65.7856 5.69531C66.217 5.33724 66.7337 5.05648 67.3359 4.85303C67.9382 4.64958 68.6095 4.54785 69.3501 4.54785C70.408 4.54785 71.3114 4.73503 72.0601 5.10938C72.8088 5.48372 73.3825 5.98421 73.7812 6.61084C74.18 7.22933 74.3794 7.91699 74.3794 8.67383H72.1211C72.1211 8.30762 72.0112 7.95361 71.7915 7.61182C71.5799 7.26188 71.2666 6.97298 70.8516 6.74512C70.4447 6.51725 69.9442 6.40332 69.3501 6.40332C68.7235 6.40332 68.2148 6.50098 67.8242 6.69629C67.4417 6.88346 67.161 7.12354 66.9819 7.4165C66.811 7.70947 66.7256 8.01872 66.7256 8.34424C66.7256 8.58838 66.7663 8.80811 66.8477 9.00342C66.9372 9.19059 67.0918 9.36556 67.3115 9.52832C67.5312 9.68294 67.8405 9.82943 68.2393 9.96777C68.638 10.1061 69.1466 10.2445 69.7651 10.3828C70.8475 10.627 71.7386 10.9199 72.4385 11.2617C73.1383 11.6035 73.6592 12.0226 74.001 12.519C74.3428 13.0155 74.5137 13.6177 74.5137 14.3257C74.5137 14.9035 74.3916 15.4325 74.1475 15.9126C73.9115 16.3927 73.5656 16.8078 73.1099 17.1577C72.6623 17.4995 72.1252 17.7681 71.4985 17.9634C70.88 18.1506 70.1842 18.2441 69.4111 18.2441C68.2474 18.2441 67.2627 18.0366 66.457 17.6216C65.6514 17.2065 65.041 16.6694 64.626 16.0103C64.2109 15.3511 64.0034 14.6553 64.0034 13.9229H66.2739C66.3065 14.5413 66.4855 15.0337 66.811 15.3999C67.1366 15.758 67.5353 16.0143 68.0073 16.1689C68.4793 16.3154 68.9473 16.3887 69.4111 16.3887C70.0296 16.3887 70.5464 16.3073 70.9614 16.1445C71.3846 15.9818 71.7061 15.758 71.9258 15.4731C72.1455 15.1883 72.2554 14.8628 72.2554 14.4966Z"
    fill="#20a052"/>
  </symbol>
  <symbol id="arrow" class="nav__icon" width="18" height="18" viewBox="0 0 16 16">
    <path d="M7.99998 12C7.78492 12 7.56988 11.916 7.40591 11.7483L2.24617 6.46804C1.91794 6.13215 1.91794 5.58757 2.24617 5.25181C2.57426 4.91606 3.10632 4.91606 3.43458 5.25181L7.99998 9.92404L12.5654 5.25198C12.8936 4.91623 13.4256 4.91623 13.7537 5.25198C14.0821 5.58773 14.0821 6.13231 13.7537 6.4682L8.59405 11.7484C8.43 11.9162 8.21497 12 7.99998 12Z" />
  </symbol>
  <symbol id="arrow__small" width="16" height="16" viewBox="0 0 16 16">
    <path d="M7.99998 12C7.78492 12 7.56988 11.916 7.40591 11.7483L2.24617 6.46804C1.91794 6.13215 1.91794 5.58757 2.24617 5.25181C2.57426 4.91606 3.10632 4.91606 3.43458 5.25181L7.99998 9.92404L12.5654 5.25198C12.8936 4.91623 13.4256 4.91623 13.7537 5.25198C14.0821 5.58773 14.0821 6.13231 13.7537 6.4682L8.59405 11.7484C8.43 11.9162 8.21497 12 7.99998 12Z" />
  </symbol>
  <symbol id="login" style="width:2em; height:2em; vertical-align:middle; fill:currentColor; overflow:hidden" viewBox="0 0 1024 1024">
    <path d="M426.667 736V597.333H128V426.667h298.667V288l224 224-224 224M341.333 85.333h384c46.934 0 85.334 38.4 85.334 85.334v682.666c0 46.934-38.4 85.334-85.334 85.334h-384c-46.933 0-85.333-38.4-85.333-85.334V682.667h85.333v170.666h384V170.667h-384v170.666H256V170.667c0-46.934 38.4-85.334 85.333-85.334Z"/>
  </symbol>
  <symbol id="icon-heart"  width="20" height="20" viewBox="0 0 40 40" fill="none">
    <path d="M21.6473 9.47225C24.9306 6.17598 30.254 6.17598 33.5374 9.47225C36.8208 12.7685 36.8209 18.1127 33.5376 21.409L19.9995 35L6.46237 21.409C3.17914 18.1127 3.17921 12.7685 6.46257 9.47225C9.74594 6.17592 15.0694 6.17592 18.3527 9.47225L20 11.1259L21.6473 9.47225Z" stroke-width="3" stroke-miterlimit="10"/>
  </symbol>
  <symbol id="icon-plus"  width="17" height="17" viewBox="0 0 40 40" fill="none">
    <path d="M4 20H20.2132M20.2132 3.7868L20.2132 20M36.4264 20H20.2132M20.2132 36.2132L20.2132 20" stroke-width="4"/>
  </symbol>
  <symbol id="avatar-profile" width="25" height="25" viewBox="0 0 40 40" fill="none">
    <path d="M20.0001 23.366C24.8138 23.366 28.7158 19.4785 28.7158 14.683C28.7158 9.88757 24.8138 6 20.0001 6C15.1862 6 11.2843 9.88757 11.2843 14.683C11.2843 19.4785 15.1862 23.366 20.0001 23.366ZM20.0001 23.366C13.2513 23.366 7.69708 28.4603 7 34.9998M20.0001 23.366C26.7491 23.366 32.3032 28.4607 33 35" stroke-width="2.5" stroke-miterlimit="10" stroke-linecap="round" stroke-linejoin="round"/>
  </symbol>
  <symbol id="location" width="20" height="20" viewBox="0 0 16 16" fill="none">
    <path d="M12.9059 3.09459C12.8134 3.00195 12.6742 2.97446 12.5536 3.02503L2.19764 7.36625C2.0688 7.42025 1.98943 7.55128 2.00114 7.69062C2.01285 7.82996 2.11297 7.94586 2.24901 7.97756L6.76104 9.02873C6.84821 9.04904 6.91636 9.11693 6.93703 9.20403L8.01599 13.7521C8.04817 13.8878 8.16389 13.9874 8.30275 13.9989C8.31167 13.9996 8.32054 14 8.32937 14C8.45804 14 8.57555 13.9229 8.62606 13.8026L12.9748 3.44731C13.0255 3.32662 12.9983 3.18723 12.9059 3.09459Z"
      fill="#20a052" />
  </symbol>
  <symbol id="gallery" width="24" height="24" viewBox="0 0 40 40" fill="none">
    <path d="M4 36H28.4068V11.5932H4V36ZM4 36L12.1356 27.8644L14.8475 30.5763L22.9831 22.4407L28.4068 27.8644M12.1356 6.16949V4H36V27.8644H33.8305M14.8475 19.7288C14.8475 21.2265 13.6333 22.4407 12.1356 22.4407C10.6379 22.4407 9.42373 21.2265 9.42373 19.7288C9.42373 18.2311 10.6379 17.0169 12.1356 17.0169C13.6333 17.0169 14.8475 18.2311 14.8475 19.7288Z" stroke-width="2.6" stroke-miterlimit="10" stroke-linecap="round" stroke-linejoin="round"/>
  </symbol>
</svg>
