<svg xmlns="http://www.w3.org/2000/svg">
  <symbol id="hidden" width="20" height="20" viewBox="0 0 40 40" fill="none">
    <path d="M4.93003 5L35.07 35M26.028 20C26.028 23.3137 23.3292 26 20 26C16.6708 26 13.972 23.3137 13.972 20C13.972 16.6863 16.6708 14 20 14C23.3292 14 26.028 16.6863 26.028 20ZM37.5 20C37.5 20 29.9875 32 20 32C10.0125 32 2.5 20 2.5 20C2.5 20 10.0125 8 20 8C29.9875 8 37.5 20 37.5 20Z" stroke-width="2.6" stroke-miterlimit="10" stroke-linecap="round"/>
  </symbol>
  <symbol id="note" width="20" height="20" viewBox="0 0 40 40" fill="none">
    <path d="M28.8069 28.6163V31.9771C28.8069 33.6466 27.4745 35 25.831 35H7.14254C5.49905 35 4.16669 33.6466 4.16669 31.9771V8.02288C4.16669 6.35342 5.49905 5 7.14254 5H25.831C27.4745 5 28.8069 6.35342 28.8069 8.02288V8.9572M21.8291 29.074L17.452 29.9632L18.3274 25.517C18.4426 24.9318 18.7258 24.3943 19.1412 23.9723L31.5865 11.3303C32.7487 10.1498 34.6329 10.1498 35.7951 11.3303C36.9572 12.5108 36.9572 14.4248 35.7951 15.6053L23.3497 28.2473C22.9342 28.6693 22.4052 28.9569 21.8291 29.074Z" stroke-width="2.6" stroke-miterlimit="10" stroke-linecap="round" stroke-linejoin="round"/>
  </symbol>
  <symbol id="complain" width="20" height="20" viewBox="0 0 40 40" fill="none">
    <path d="M10.9424 22.027L16.0245 23.8337C16.7248 24.0828 17.3584 24.4876 17.8769 25.017C18.3953 25.5464 18.785 26.1864 19.016 26.8881L21.4354 34.4443C21.7842 35.5024 22.9306 36.0789 23.997 35.7328C25.951 35.1001 27.1929 33.299 27.1929 31.3645C27.1929 30.8905 27.1185 30.4088 26.9619 29.9348L25.2856 24.6339H33.4425C35.9619 24.6339 37.8725 22.3786 37.4382 19.9161L35.6931 11.099C35.2554 8.6155 33.0826 6.80335 30.5421 6.80335H19.8014C19.0982 6.80335 18.4095 6.94224 17.7719 7.20348C17.1282 7.46771 16.5435 7.85541 16.0512 8.34434C15.5586 8.83329 14.9738 9.22114 14.3301 9.48573C13.6865 9.75033 12.9966 9.88649 12.2998 9.88644H10.9424M2.5 6.66666H10.9424V25.4055H2.5V6.66666Z" stroke-width="2.6" stroke-miterlimit="10" stroke-linecap="round" stroke-linejoin="round"/>
  </symbol>
</svg>
