<svg xmlns="http://www.w3.org/2000/svg">
  <symbol id="sort" width="23" height="23" viewBox="0 0 40 40" fill="none">
    <path d="M13.2132 6.78679L13.2132 33.2132M13.2132 6.78679L20.5 13.7868M13.2132 6.78679L6 13.7868" stroke-width="2.6" stroke-linecap="round"/>
    <path d="M27.2132 34.2132L27.2132 7.78679M27.2132 34.2132L34.5 27.2132M27.2132 34.2132L20 27.2132" stroke-width="2.6" stroke-linecap="round"/>
  </symbol>
  <symbol id="mail__icon__large" width="23" height="23" viewBox="0 0 40 40" fill="none">
    <path d="M3 10.3096C2.99999 10.6585 3.08606 11.002 3.25056 11.3096C3.41507 11.6172 3.65292 11.8793 3.94297 12.0727C6.81881 13.9924 15.4843 19.7751 18.7426 21.9501C19.115 22.1987 19.5525 22.3313 20 22.3313C20.4476 22.3313 20.8851 22.1987 21.2574 21.9501C24.5157 19.7751 33.1813 13.9924 36.0571 12.0727C36.6465 11.6796 37 11.0181 37 10.3096M3 10.3096V9.26788C3 8.01538 4.01436 7 5.26559 7H34.7345C35.9856 7 37 8.01538 37 9.26788V10.3096M3 10.3096L3 29.7309C2.99992 30.0289 3.05854 30.324 3.1725 30.5992C3.28646 30.8745 3.45352 31.1246 3.66413 31.3352M37 10.3096L37 29.7309C37.0001 30.0289 36.9415 30.324 36.8275 30.5992C36.7135 30.8745 36.5465 31.1246 36.3359 31.3352M3.66413 31.3352C3.87447 31.546 4.12428 31.7132 4.39926 31.8273C4.67424 31.9414 4.96899 32.0001 5.26665 32H34.7333C35.031 32.0001 35.3258 31.9414 35.6007 31.8273C35.8757 31.7132 36.1255 31.546 36.3359 31.3352M3.66413 31.3352L13.303 23.6855M36.3359 31.3352L26.697 23.6855" stroke-width="2.6" stroke-miterlimit="10" stroke-linecap="round" stroke-linejoin="round"/>
  </symbol>
  <symbol id="mail__icon" width="19" height="19" viewBox="0 0 40 40" fill="none">
    <path d="M3 10.3096C2.99999 10.6585 3.08606 11.002 3.25056 11.3096C3.41507 11.6172 3.65292 11.8793 3.94297 12.0727C6.81881 13.9924 15.4843 19.7751 18.7426 21.9501C19.115 22.1987 19.5525 22.3313 20 22.3313C20.4476 22.3313 20.8851 22.1987 21.2574 21.9501C24.5157 19.7751 33.1813 13.9924 36.0571 12.0727C36.6465 11.6796 37 11.0181 37 10.3096M3 10.3096V9.26788C3 8.01538 4.01436 7 5.26559 7H34.7345C35.9856 7 37 8.01538 37 9.26788V10.3096M3 10.3096L3 29.7309C2.99992 30.0289 3.05854 30.324 3.1725 30.5992C3.28646 30.8745 3.45352 31.1246 3.66413 31.3352M37 10.3096L37 29.7309C37.0001 30.0289 36.9415 30.324 36.8275 30.5992C36.7135 30.8745 36.5465 31.1246 36.3359 31.3352M3.66413 31.3352C3.87447 31.546 4.12428 31.7132 4.39926 31.8273C4.67424 31.9414 4.96899 32.0001 5.26665 32H34.7333C35.031 32.0001 35.3258 31.9414 35.6007 31.8273C35.8757 31.7132 36.1255 31.546 36.3359 31.3352M3.66413 31.3352L13.303 23.6855M36.3359 31.3352L26.697 23.6855" stroke-width="2.6" stroke-miterlimit="10" stroke-linecap="round" stroke-linejoin="round"/>
  </symbol>
  <symbol id="on__map__large" width="23" height="23" viewBox="0 0 40 40" fill="none">
    <path d="M25.7627 9.81818L14.2373 4M25.7627 9.81818L32.8039 6.17258C33.2431 5.94517 33.7329 5.8355 34.2262 5.8541C34.7195 5.8727 35.1997 6.01894 35.621 6.27879C36.0422 6.53864 36.3902 6.9034 36.6317 7.33807C36.8732 7.77275 37 8.26278 37 8.76116V28.4044C37 28.9396 36.8538 29.4644 36.5774 29.9211C36.301 30.3778 35.9052 30.7487 35.4335 30.9929L25.7627 36M25.7627 9.81818V36M14.2373 4L4.56652 9.00713C4.09482 9.25134 3.699 9.6222 3.42261 10.0789C3.14623 10.5356 2.99999 11.0604 3 11.5956V31.2388C3 31.7372 3.12682 32.2272 3.3683 32.6619C3.60978 33.0966 3.95782 33.4614 4.37904 33.7212C4.80026 33.9811 5.28055 34.1273 5.77384 34.1459C6.26712 34.1645 6.75687 34.0548 7.19612 33.8274L14.2373 30.1818M14.2373 4V30.1818M14.2373 30.1818L25.7627 36" stroke-width="2.6" stroke-miterlimit="10"/>
  </symbol>
  <symbol id="on__map" width="19" height="19" viewBox="0 0 40 40" fill="none">
    <path d="M25.7627 9.81818L14.2373 4M25.7627 9.81818L32.8039 6.17258C33.2431 5.94517 33.7329 5.8355 34.2262 5.8541C34.7195 5.8727 35.1997 6.01894 35.621 6.27879C36.0422 6.53864 36.3902 6.9034 36.6317 7.33807C36.8732 7.77275 37 8.26278 37 8.76116V28.4044C37 28.9396 36.8538 29.4644 36.5774 29.9211C36.301 30.3778 35.9052 30.7487 35.4335 30.9929L25.7627 36M25.7627 9.81818V36M14.2373 4L4.56652 9.00713C4.09482 9.25134 3.699 9.6222 3.42261 10.0789C3.14623 10.5356 2.99999 11.0604 3 11.5956V31.2388C3 31.7372 3.12682 32.2272 3.3683 32.6619C3.60978 33.0966 3.95782 33.4614 4.37904 33.7212C4.80026 33.9811 5.28055 34.1273 5.77384 34.1459C6.26712 34.1645 6.75687 34.0548 7.19612 33.8274L14.2373 30.1818M14.2373 4V30.1818M14.2373 30.1818L25.7627 36" stroke-width="2.6" stroke-miterlimit="10"/>
  </symbol>
  <symbol id="filter__icon" width="19" height="19" viewBox="0 0 40 40" fill="none">
    <path d="M17.2881 20H36M17.2881 20C17.2881 22.2593 15.4669 24.0909 13.2203 24.0909C10.9738 24.0909 9.15254 22.2593 9.15254 20M17.2881 20C17.2881 17.7407 15.4669 15.9091 13.2203 15.9091C10.9738 15.9091 9.15254 17.7407 9.15254 20M4 20H9.15254M22.7119 9.09091H4M22.7119 9.09091C22.7119 11.3502 24.5331 13.1818 26.7797 13.1818C29.0262 13.1818 30.8475 11.3502 30.8475 9.09091M22.7119 9.09091C22.7119 6.83156 24.5331 5 26.7797 5C29.0262 5 30.8475 6.83156 30.8475 9.09091M36 9.09091H30.8475M22.7119 30.9091H4M22.7119 30.9091C22.7119 33.1684 24.5331 35 26.7797 35C29.0262 35 30.8475 33.1684 30.8475 30.9091M22.7119 30.9091C22.7119 28.6498 24.5331 26.8182 26.7797 26.8182C29.0262 26.8182 30.8475 28.6498 30.8475 30.9091M36 30.9091H30.8475" stroke-width="2.6" stroke-miterlimit="10" stroke-linecap="round" stroke-linejoin="round"/>
  </symbol>
  <symbol id="logo-mobile" height="19" viewBox="0 0 75 19" fill="none">
    <path d="M0.0629883 0.226562H5.94678C7.28141 0.226562 8.40853 0.430013 9.32812 0.836914C10.2559 1.24382 10.9598 1.84603 11.4399 2.64355C11.9282 3.43294 12.1724 4.40544 12.1724 5.56104C12.1724 6.37484 12.0055 7.11947 11.6719 7.79492C11.3464 8.46224 10.8743 9.0319 10.2559 9.50391C9.64551 9.96777 8.91309 10.3136 8.05859 10.5415L7.39941 10.7979H1.86963L1.84521 8.88135H6.02002C6.86637 8.88135 7.57031 8.73486 8.13184 8.44189C8.69336 8.14079 9.11654 7.73796 9.40137 7.2334C9.6862 6.72884 9.82861 6.17139 9.82861 5.56104C9.82861 4.87744 9.69434 4.2793 9.42578 3.7666C9.15723 3.25391 8.73405 2.85921 8.15625 2.58252C7.58659 2.29769 6.8501 2.15527 5.94678 2.15527H2.41895V18H0.0629883V0.226562ZM10.4512 18L6.12988 9.94336L8.5835 9.93115L12.9658 17.8535V18H10.4512ZM20.6074 18.2441C19.6878 18.2441 18.8537 18.0895 18.105 17.7803C17.3644 17.4629 16.7256 17.0194 16.1885 16.4497C15.6595 15.88 15.2526 15.2046 14.9678 14.4233C14.6829 13.6421 14.5405 12.7876 14.5405 11.8599V11.3472C14.5405 10.2729 14.6992 9.31673 15.0166 8.47852C15.334 7.63216 15.7653 6.91602 16.3105 6.33008C16.8558 5.74414 17.4743 5.30062 18.166 4.99951C18.8577 4.6984 19.5739 4.54785 20.3145 4.54785C21.2585 4.54785 22.0723 4.71061 22.7559 5.03613C23.4476 5.36165 24.0132 5.81738 24.4526 6.40332C24.8921 6.98112 25.2176 7.66471 25.4292 8.4541C25.6408 9.23535 25.7466 10.0898 25.7466 11.0176V12.0308H15.8833V10.1875H23.4883V10.0166C23.4557 9.43066 23.3337 8.861 23.1221 8.30762C22.9186 7.75423 22.5931 7.2985 22.1455 6.94043C21.6979 6.58236 21.0876 6.40332 20.3145 6.40332C19.8018 6.40332 19.3298 6.51318 18.8984 6.73291C18.4671 6.9445 18.0968 7.26188 17.7876 7.68506C17.4784 8.10824 17.2383 8.625 17.0674 9.23535C16.8965 9.8457 16.811 10.5496 16.811 11.3472V11.8599C16.811 12.4865 16.8965 13.0765 17.0674 13.6299C17.2464 14.1751 17.5028 14.6553 17.8364 15.0703C18.1782 15.4854 18.5892 15.8109 19.0693 16.0469C19.5576 16.2829 20.111 16.4009 20.7295 16.4009C21.527 16.4009 22.2025 16.2381 22.7559 15.9126C23.3092 15.5871 23.7935 15.1517 24.2085 14.6064L25.5757 15.6929C25.2909 16.1242 24.9287 16.5352 24.4893 16.9258C24.0498 17.3164 23.5086 17.6338 22.8657 17.8779C22.231 18.1221 21.4782 18.2441 20.6074 18.2441ZM30.6294 7.4165V18H28.3589V4.79199H30.5073L30.6294 7.4165ZM30.1655 10.8955L29.1157 10.8589C29.1239 9.95557 29.2419 9.12142 29.4697 8.35645C29.6976 7.58333 30.0353 6.91195 30.4829 6.34229C30.9305 5.77262 31.488 5.33317 32.1553 5.02393C32.8226 4.70654 33.5957 4.54785 34.4746 4.54785C35.0931 4.54785 35.6628 4.63737 36.1836 4.81641C36.7044 4.9873 37.1561 5.25993 37.5386 5.63428C37.9211 6.00863 38.2181 6.48877 38.4297 7.07471C38.6413 7.66064 38.7471 8.36865 38.7471 9.19873V18H36.4888V9.30859C36.4888 8.61686 36.3708 8.06348 36.1348 7.64844C35.9069 7.2334 35.5814 6.93229 35.1582 6.74512C34.735 6.5498 34.2386 6.45215 33.6689 6.45215C33.0016 6.45215 32.4442 6.57015 31.9966 6.80615C31.549 7.04215 31.1909 7.36768 30.9224 7.78271C30.6538 8.19775 30.4585 8.67383 30.3364 9.21094C30.2225 9.73991 30.1655 10.3014 30.1655 10.8955ZM38.7227 9.65039L37.209 10.1143C37.2171 9.38997 37.3351 8.69417 37.563 8.02686C37.799 7.35954 38.1367 6.76546 38.5762 6.24463C39.0238 5.7238 39.5731 5.31283 40.2241 5.01172C40.8752 4.70247 41.6198 4.54785 42.458 4.54785C43.166 4.54785 43.7926 4.64144 44.3379 4.82861C44.8913 5.01579 45.3551 5.30469 45.7295 5.69531C46.112 6.0778 46.4009 6.57015 46.5962 7.17236C46.7915 7.77458 46.8892 8.49072 46.8892 9.3208V18H44.6187V9.29639C44.6187 8.55583 44.5007 7.9821 44.2646 7.5752C44.0368 7.16016 43.7113 6.87126 43.2881 6.7085C42.873 6.5376 42.3766 6.45215 41.7988 6.45215C41.3024 6.45215 40.863 6.5376 40.4805 6.7085C40.098 6.87939 39.7765 7.1154 39.5161 7.4165C39.2557 7.70947 39.0563 8.0472 38.918 8.42969C38.7878 8.81217 38.7227 9.21908 38.7227 9.65039ZM49.709 11.5425V11.2617C49.709 10.3096 49.8473 9.4266 50.124 8.61279C50.4007 7.79085 50.7995 7.07878 51.3203 6.47656C51.8411 5.86621 52.4718 5.39421 53.2124 5.06055C53.953 4.71875 54.783 4.54785 55.7026 4.54785C56.6304 4.54785 57.4645 4.71875 58.2051 5.06055C58.9538 5.39421 59.5885 5.86621 60.1094 6.47656C60.6383 7.07878 61.0412 7.79085 61.3179 8.61279C61.5946 9.4266 61.7329 10.3096 61.7329 11.2617V11.5425C61.7329 12.4946 61.5946 13.3776 61.3179 14.1914C61.0412 15.0052 60.6383 15.7173 60.1094 16.3276C59.5885 16.9299 58.9578 17.4019 58.2173 17.7437C57.4849 18.0773 56.6548 18.2441 55.7271 18.2441C54.7993 18.2441 53.9652 18.0773 53.2246 17.7437C52.484 17.4019 51.8493 16.9299 51.3203 16.3276C50.7995 15.7173 50.4007 15.0052 50.124 14.1914C49.8473 13.3776 49.709 12.4946 49.709 11.5425ZM51.9673 11.2617V11.5425C51.9673 12.2017 52.0446 12.8242 52.1992 13.4102C52.3538 13.988 52.5858 14.5007 52.895 14.9482C53.2124 15.3958 53.6071 15.7498 54.0791 16.0103C54.5511 16.2625 55.1004 16.3887 55.7271 16.3887C56.3455 16.3887 56.8867 16.2625 57.3506 16.0103C57.8226 15.7498 58.2132 15.3958 58.5225 14.9482C58.8317 14.5007 59.0636 13.988 59.2183 13.4102C59.381 12.8242 59.4624 12.2017 59.4624 11.5425V11.2617C59.4624 10.6107 59.381 9.99626 59.2183 9.41846C59.0636 8.83252 58.8276 8.31576 58.5103 7.86816C58.201 7.41243 57.8104 7.05436 57.3384 6.79395C56.8745 6.53353 56.3293 6.40332 55.7026 6.40332C55.0841 6.40332 54.5389 6.53353 54.0669 6.79395C53.603 7.05436 53.2124 7.41243 52.895 7.86816C52.5858 8.31576 52.3538 8.83252 52.1992 9.41846C52.0446 9.99626 51.9673 10.6107 51.9673 11.2617ZM72.2554 14.4966C72.2554 14.1711 72.1821 13.87 72.0356 13.5933C71.8973 13.3084 71.6084 13.0521 71.1689 12.8242C70.7376 12.5882 70.0866 12.3848 69.2158 12.2139C68.4834 12.0592 67.8201 11.8761 67.2261 11.6646C66.6401 11.453 66.1396 11.1966 65.7246 10.8955C65.3177 10.5944 65.0044 10.2404 64.7847 9.8335C64.5649 9.4266 64.4551 8.95052 64.4551 8.40527C64.4551 7.88444 64.569 7.39209 64.7969 6.92822C65.0329 6.46436 65.3625 6.05339 65.7856 5.69531C66.217 5.33724 66.7337 5.05648 67.3359 4.85303C67.9382 4.64958 68.6095 4.54785 69.3501 4.54785C70.408 4.54785 71.3114 4.73503 72.0601 5.10938C72.8088 5.48372 73.3825 5.98421 73.7812 6.61084C74.18 7.22933 74.3794 7.91699 74.3794 8.67383H72.1211C72.1211 8.30762 72.0112 7.95361 71.7915 7.61182C71.5799 7.26188 71.2666 6.97298 70.8516 6.74512C70.4447 6.51725 69.9442 6.40332 69.3501 6.40332C68.7235 6.40332 68.2148 6.50098 67.8242 6.69629C67.4417 6.88346 67.161 7.12354 66.9819 7.4165C66.811 7.70947 66.7256 8.01872 66.7256 8.34424C66.7256 8.58838 66.7663 8.80811 66.8477 9.00342C66.9372 9.19059 67.0918 9.36556 67.3115 9.52832C67.5312 9.68294 67.8405 9.82943 68.2393 9.96777C68.638 10.1061 69.1466 10.2445 69.7651 10.3828C70.8475 10.627 71.7386 10.9199 72.4385 11.2617C73.1383 11.6035 73.6592 12.0226 74.001 12.519C74.3428 13.0155 74.5137 13.6177 74.5137 14.3257C74.5137 14.9035 74.3916 15.4325 74.1475 15.9126C73.9115 16.3927 73.5656 16.8078 73.1099 17.1577C72.6623 17.4995 72.1252 17.7681 71.4985 17.9634C70.88 18.1506 70.1842 18.2441 69.4111 18.2441C68.2474 18.2441 67.2627 18.0366 66.457 17.6216C65.6514 17.2065 65.041 16.6694 64.626 16.0103C64.2109 15.3511 64.0034 14.6553 64.0034 13.9229H66.2739C66.3065 14.5413 66.4855 15.0337 66.811 15.3999C67.1366 15.758 67.5353 16.0143 68.0073 16.1689C68.4793 16.3154 68.9473 16.3887 69.4111 16.3887C70.0296 16.3887 70.5464 16.3073 70.9614 16.1445C71.3846 15.9818 71.7061 15.758 71.9258 15.4731C72.1455 15.1883 72.2554 14.8628 72.2554 14.4966Z"
    fill="#20a052"/>
  </symbol>
  <symbol id="arrow" class="nav__icon" width="18" height="18" viewBox="0 0 16 16">
    <path d="M7.99998 12C7.78492 12 7.56988 11.916 7.40591 11.7483L2.24617 6.46804C1.91794 6.13215 1.91794 5.58757 2.24617 5.25181C2.57426 4.91606 3.10632 4.91606 3.43458 5.25181L7.99998 9.92404L12.5654 5.25198C12.8936 4.91623 13.4256 4.91623 13.7537 5.25198C14.0821 5.58773 14.0821 6.13231 13.7537 6.4682L8.59405 11.7484C8.43 11.9162 8.21497 12 7.99998 12Z" />
  </symbol>
  <symbol id="login" style="width:2em; height:2em; vertical-align:middle; fill:currentColor; overflow:hidden" viewBox="0 0 1024 1024">
    <path d="M426.667 736V597.333H128V426.667h298.667V288l224 224-224 224M341.333 85.333h384c46.934 0 85.334 38.4 85.334 85.334v682.666c0 46.934-38.4 85.334-85.334 85.334h-384c-46.933 0-85.333-38.4-85.333-85.334V682.667h85.333v170.666h384V170.667h-384v170.666H256V170.667c0-46.934 38.4-85.334 85.333-85.334Z"/>
  </symbol>
  <symbol id="icon-heart"  width="20" height="20" viewBox="0 0 40 40" fill="none">
    <path d="M21.6473 9.47225C24.9306 6.17598 30.254 6.17598 33.5374 9.47225C36.8208 12.7685 36.8209 18.1127 33.5376 21.409L19.9995 35L6.46237 21.409C3.17914 18.1127 3.17921 12.7685 6.46257 9.47225C9.74594 6.17592 15.0694 6.17592 18.3527 9.47225L20 11.1259L21.6473 9.47225Z" stroke-width="4" stroke-miterlimit="10"/>
  </symbol>
  <symbol id="icon-plus"  width="17" height="17" viewBox="0 0 40 40" fill="none">
    <path d="M4 20H20.2132M20.2132 3.7868L20.2132 20M36.4264 20H20.2132M20.2132 36.2132L20.2132 20" stroke-width="5"/>
  </symbol>
  <symbol id="avatar-profile" width="28" height="28" viewBox="0 0 40 40" fill="none">
    <path d="M20.0001 23.366C24.8138 23.366 28.7158 19.4785 28.7158 14.683C28.7158 9.88757 24.8138 6 20.0001 6C15.1862 6 11.2843 9.88757 11.2843 14.683C11.2843 19.4785 15.1862 23.366 20.0001 23.366ZM20.0001 23.366C13.2513 23.366 7.69708 28.4603 7 34.9998M20.0001 23.366C26.7491 23.366 32.3032 28.4607 33 35" stroke-width="3" stroke-miterlimit="10" stroke-linecap="round" stroke-linejoin="round"/>
  </symbol>
  <symbol id="region" width="20" height="20" viewBox="0 0 16 16" fill="none">
    <path d="M12.9059 3.09459C12.8134 3.00195 12.6742 2.97446 12.5536 3.02503L2.19764 7.36625C2.0688 7.42025 1.98943 7.55128 2.00114 7.69062C2.01285 7.82996 2.11297 7.94586 2.24901 7.97756L6.76104 9.02873C6.84821 9.04904 6.91636 9.11693 6.93703 9.20403L8.01599 13.7521C8.04817 13.8878 8.16389 13.9874 8.30275 13.9989C8.31167 13.9996 8.32054 14 8.32937 14C8.45804 14 8.57555 13.9229 8.62606 13.8026L12.9748 3.44731C13.0255 3.32662 12.9983 3.18723 12.9059 3.09459Z"
      fill="#20a052" />
  </symbol>
  <symbol id="gallery" width="24" height="24" viewBox="0 0 40 40" fill="none">
    <path d="M4 36H28.4068V11.5932H4V36ZM4 36L12.1356 27.8644L14.8475 30.5763L22.9831 22.4407L28.4068 27.8644M12.1356 6.16949V4H36V27.8644H33.8305M14.8475 19.7288C14.8475 21.2265 13.6333 22.4407 12.1356 22.4407C10.6379 22.4407 9.42373 21.2265 9.42373 19.7288C9.42373 18.2311 10.6379 17.0169 12.1356 17.0169C13.6333 17.0169 14.8475 18.2311 14.8475 19.7288Z" stroke-width="2.6" stroke-miterlimit="10" stroke-linecap="round" stroke-linejoin="round"/>
    </path>
  </symbol>
</svg>
