<svg xmlns="http://www.w3.org/2000/svg">
  <symbol id="hidden" width="20" height="20" viewBox="0 0 40 40" fill="none">
    <path d="M4.93003 5L35.07 35M26.028 20C26.028 23.3137 23.3292 26 20 26C16.6708 26 13.972 23.3137 13.972 20C13.972 16.6863 16.6708 14 20 14C23.3292 14 26.028 16.6863 26.028 20ZM37.5 20C37.5 20 29.9875 32 20 32C10.0125 32 2.5 20 2.5 20C2.5 20 10.0125 8 20 8C29.9875 8 37.5 20 37.5 20Z" stroke-width="2.6" stroke-miterlimit="10" stroke-linecap="round"/>
  </symbol>
  <symbol id="note" width="20" height="20" viewBox="0 0 40 40" fill="none">
    <path d="M28.8069 28.6163V31.9771C28.8069 33.6466 27.4745 35 25.831 35H7.14254C5.49905 35 4.16669 33.6466 4.16669 31.9771V8.02288C4.16669 6.35342 5.49905 5 7.14254 5H25.831C27.4745 5 28.8069 6.35342 28.8069 8.02288V8.9572M21.8291 29.074L17.452 29.9632L18.3274 25.517C18.4426 24.9318 18.7258 24.3943 19.1412 23.9723L31.5865 11.3303C32.7487 10.1498 34.6329 10.1498 35.7951 11.3303C36.9572 12.5108 36.9572 14.4248 35.7951 15.6053L23.3497 28.2473C22.9342 28.6693 22.4052 28.9569 21.8291 29.074Z" stroke-width="2.6" stroke-miterlimit="10" stroke-linecap="round" stroke-linejoin="round"/>
  </symbol>
  <symbol id="complain" width="20" height="20" viewBox="0 0 40 40" fill="none">
    <path d="M10.9424 22.027L16.0245 23.8337C16.7248 24.0828 17.3584 24.4876 17.8769 25.017C18.3953 25.5464 18.785 26.1864 19.016 26.8881L21.4354 34.4443C21.7842 35.5024 22.9306 36.0789 23.997 35.7328C25.951 35.1001 27.1929 33.299 27.1929 31.3645C27.1929 30.8905 27.1185 30.4088 26.9619 29.9348L25.2856 24.6339H33.4425C35.9619 24.6339 37.8725 22.3786 37.4382 19.9161L35.6931 11.099C35.2554 8.6155 33.0826 6.80335 30.5421 6.80335H19.8014C19.0982 6.80335 18.4095 6.94224 17.7719 7.20348C17.1282 7.46771 16.5435 7.85541 16.0512 8.34434C15.5586 8.83329 14.9738 9.22114 14.3301 9.48573C13.6865 9.75033 12.9966 9.88649 12.2998 9.88644H10.9424M2.5 6.66666H10.9424V25.4055H2.5V6.66666Z" stroke-width="2.6" stroke-miterlimit="10" stroke-linecap="round" stroke-linejoin="round"/>
  </symbol>
  <symbol id="subway__icon" width="18" height="13" viewBox="0 0 18 13">
    <path d="M9 12.6948L11.7622 7.88311L12.909 11.1419H11.9832V12.5762H17.5V11.1419H16.4472L12.484 0.694824L9 7.12716L5.51601 0.694824L1.5531 11.1419H0.5V12.5762H6.01702V11.1419H5.09096L6.2378 7.88311L9 12.6948Z"/>
  </symbol>
  <symbol id="dots" width="25" height="25" x="0" y="0" viewBox="0 0 32 32">
   <g>
      <path d="M13 16c0 1.654 1.346 3 3 3s3-1.346 3-3-1.346-3-3-3-3 1.346-3 3zM13 26c0 1.654 1.346 3 3 3s3-1.346 3-3-1.346-3-3-3-3 1.346-3 3zM13 6c0 1.654 1.346 3 3 3s3-1.346 3-3-1.346-3-3-3-3 1.346-3 3z" opacity="1" data-original="#000000">
      </path>
    </g>
  </symbol>
  <symbol id="top__icon" width="23" height="24" viewBox="0 0 21 22" fill="none">
    <path fill-rule="evenodd" clip-rule="evenodd" d="M10.5 20.5C15.7467 20.5 20 16.2467 20 11C20 5.75329 15.7467 1.5 10.5 1.5C5.25329 1.5 1 5.75329 1 11C1 16.2467 5.25329 20.5 10.5 20.5ZM10.5 21.5C16.299 21.5 21 16.799 21 11C21 5.20101 16.299 0.5 10.5 0.5C4.70101 0.5 0 5.20101 0 11C0 16.799 4.70101 21.5 10.5 21.5Z" fill="url(#paint0_linear_16136_7265)"/>
    <path d="M10.5 3.5C6.35478 3.5 3 6.8544 3 11C3 15.1452 6.3544 18.5 10.5 18.5C14.6452 18.5 18 15.1456 18 11C18 6.85478 14.6456 3.5 10.5 3.5ZM13.1355 14.0381L10.5 12.7333L7.86439 14.0381C7.44727 14.2447 6.99753 13.8158 7.18465 13.3892L10.0421 6.87582C10.2169 6.47738 10.7834 6.47823 10.9578 6.87582L13.8152 13.3892C14.0041 13.8197 13.5486 14.2426 13.1355 14.0381Z" fill="#FBCF33"/>
    <defs>
    <linearGradient id="paint0_linear_16136_7265" x1="19.5" y1="19" x2="1.5" y2="6" gradientUnits="userSpaceOnUse">
    <stop offset="0.336666" stop-color="#FBCF33"/>
    <stop offset="1" stop-color="white" stop-opacity="0"/>
    </linearGradient>
    </defs>
  </symbol>
  <!-- <symbol id="top__icon"  width="18" height="18" viewBox="0 0 512 512" fill="none">
    <g>
      <path d="M476.389 246.231c-1.317 2.634-4.028 4.26-6.972 4.26h-80.094C384.21 430.51 203.727 547.631 39.975 488.218c-3.098-1.084-5.112-4.028-5.112-7.281s2.092-6.197 5.112-7.281c94.502-34.082 158.717-123.085 161.893-223.164h-79.862a7.651 7.651 0 0 1-6.894-4.26 7.728 7.728 0 0 1 .775-8.133L289.631 11.216c1.472-1.937 3.718-3.021 6.119-3.021s4.725 1.085 6.197 3.021l173.59 226.882c1.781 2.323 2.091 5.5.852 8.133z" fill="gold" opacity="1" data-original="#000000">
      </path>
    </g>
  </symbol> -->
</svg>

