<svg xmlns="http://www.w3.org/2000/svg" version="1.1" xmlns:xlink="http://www.w3.org/1999/xlink" width="512" height="512" x="0" y="0" viewBox="0 0 512 512" style="enable-background:new 0 0 512 512" xml:space="preserve" class=""><g transform="matrix(0.12999999999999987,0,0,0.12999999999999987,222.71990707397464,222.719920349121)"><g fill-rule="evenodd" clip-rule="evenodd"><path fill="#4d5c7d" d="M347.48 33.915a8.962 8.962 0 0 1 5.414 17.086l-16.455 5.238a224.296 224.296 0 0 1 40.819 27.371c17.199 14.502 32.511 31.865 45.197 51.927 33.262 52.595 42.055 113.7 29.382 169.976-12.673 56.278-46.819 107.725-99.435 140.998-52.595 33.261-113.7 42.053-169.975 29.38-56.279-12.673-107.725-46.82-140.998-99.436C8.168 323.861-.623 262.757 12.049 206.481c12.674-56.277 46.82-107.723 99.436-140.996 23.057-14.582 47.748-24.459 72.951-29.889 26.127-5.629 52.814-6.471 78.805-2.811 4.912.679 8.344 5.212 7.664 10.124s-5.213 8.343-10.125 7.664c-23.932-3.369-48.523-2.591-72.617 2.601-23.186 4.994-45.902 14.082-67.115 27.498-48.408 30.613-79.827 77.953-91.49 129.746-11.664 51.795-3.565 108.047 27.061 156.474 30.613 48.409 77.955 79.827 129.748 91.491 51.795 11.664 108.047 3.565 156.475-27.061 48.408-30.613 79.826-77.955 91.49-129.748 11.664-51.795 3.564-108.047-27.063-156.476-11.653-18.429-25.752-34.407-41.611-47.778a206.098 206.098 0 0 0-35.393-24.025l6.728 14.26a8.98 8.98 0 0 1-16.242 7.664l-17.288-36.641.016-.007a8.961 8.961 0 0 1 5.398-12.367z" opacity="1" data-original="#4d5c7d" class=""></path><path fill="#fad808" d="M231.944 410.593c85.145 0 154.587-69.443 154.587-154.588s-69.443-154.59-154.587-154.59S77.355 170.86 77.355 256.005s69.444 154.588 154.589 154.588z" opacity="1" data-original="#fad808" class=""></path><path fill="#eff4f7" d="M231.944 374.593c65.316 0 118.589-53.271 118.589-118.588s-53.272-118.59-118.589-118.59-118.59 53.272-118.59 118.59c0 65.316 53.273 118.588 118.59 118.588z" opacity="1" data-original="#eff4f7" class=""></path><path fill="#4d5c7d" d="M240.944 243.308a8.966 8.966 0 0 1 9.543 4.321c2.465 4.29.986 9.769-3.305 12.233l-6.238 3.603v7.289a9.003 9.003 0 0 1-17.543 2.839l-40.246 23.236c-4.291 2.466-9.77.986-12.234-3.305a8.96 8.96 0 0 1 3.305-12.234l48.719-28.127v-82.117c0-4.971 4.029-9 9-9s9 4.029 9 9v72.262z" opacity="1" data-original="#4d5c7d" class=""></path><path fill="#1980f2" d="M421.661 461.21c46.171 0 83.826-37.656 83.826-83.826 0-46.171-37.655-83.828-83.826-83.828-46.17 0-83.826 37.657-83.826 83.828-.001 46.17 37.656 83.826 83.826 83.826z" opacity="1" data-original="#1980f2"></path><path fill="#eff4f7" d="M453.401 339.155c4.746-4.744 12.439-4.744 17.184 0 4.746 4.746 4.746 12.439 0 17.185l-59.271 59.272c-5.374 5.373-14.253 4.529-18.565-1.648l-24.938-31.381c-4.168-5.244-3.297-12.874 1.946-17.043 5.243-4.168 12.874-3.297 17.042 1.947l16.946 21.324z" opacity="1" data-original="#eff4f7" class=""></path></g></g></svg>
