<svg width="21" height="22" viewBox="0 0 21 22" fill="none" xmlns="http://www.w3.org/2000/svg">
<path fill-rule="evenodd" clip-rule="evenodd" d="M10.5 20.5C15.7467 20.5 20 16.2467 20 11C20 5.75329 15.7467 1.5 10.5 1.5C5.25329 1.5 1 5.75329 1 11C1 16.2467 5.25329 20.5 10.5 20.5ZM10.5 21.5C16.299 21.5 21 16.799 21 11C21 5.20101 16.299 0.5 10.5 0.5C4.70101 0.5 0 5.20101 0 11C0 16.799 4.70101 21.5 10.5 21.5Z" fill="url(#paint0_linear_16136_7265)"/>
<path d="M10.5 3.5C6.35478 3.5 3 6.8544 3 11C3 15.1452 6.3544 18.5 10.5 18.5C14.6452 18.5 18 15.1456 18 11C18 6.85478 14.6456 3.5 10.5 3.5ZM13.1355 14.0381L10.5 12.7333L7.86439 14.0381C7.44727 14.2447 6.99753 13.8158 7.18465 13.3892L10.0421 6.87582C10.2169 6.47738 10.7834 6.47823 10.9578 6.87582L13.8152 13.3892C14.0041 13.8197 13.5486 14.2426 13.1355 14.0381Z" fill="#FBCF33"/>
<defs>
<linearGradient id="paint0_linear_16136_7265" x1="19.5" y1="19" x2="1.5" y2="6" gradientUnits="userSpaceOnUse">
<stop offset="0.336666" stop-color="#FBCF33"/>
<stop offset="1" stop-color="white" stop-opacity="0"/>
</linearGradient>
</defs>
</svg>
