<svg width="25" height="25" viewBox="0 0 21 21" fill="none" xmlns="http://www.w3.org/2000/svg">
<path fill-rule="evenodd" clip-rule="evenodd" d="M10.5 20C15.7467 20 20 15.7467 20 10.5C20 5.25329 15.7467 1 10.5 1C5.25329 1 1 5.25329 1 10.5C1 15.7467 5.25329 20 10.5 20ZM10.5 21C16.299 21 21 16.299 21 10.5C21 4.70101 16.299 0 10.5 0C4.70101 0 0 4.70101 0 10.5C0 16.299 4.70101 21 10.5 21Z" fill="url(#paint0_angular_17941_7020)"/>
<path d="M10.5 3C6.35478 3 3 6.3544 3 10.5C3 14.6452 6.3544 18 10.5 18C14.6452 18 18 14.6456 18 10.5C18 6.35478 14.6456 3 10.5 3ZM13.1355 13.5381L10.5 12.2333L7.86439 13.5381C7.44727 13.7447 6.99753 13.3158 7.18465 12.8892L10.0421 6.37582C10.2169 5.97738 10.7834 5.97823 10.9578 6.37582L13.8152 12.8892C14.0041 13.3197 13.5486 13.7426 13.1355 13.5381Z" fill="#FBCF33"/>
<defs>
<radialGradient id="paint0_angular_17941_7020" cx="0" cy="0" r="1" gradientUnits="userSpaceOnUse" gradientTransform="translate(2.5 8) rotate(-45) scale(11.3137)">
<stop stop-color="#FBCF33"/>
<stop offset="1" stop-color="white" stop-opacity="0"/>
</radialGradient>
</defs>
</svg>
