<svg width="40" height="40" viewBox="0 0 40 40" fill="none" xmlns="http://www.w3.org/2000/svg">
<path d="M10.5534 32.7077C11.06 27.9379 15.096 24.2222 20 24.2222C24.9042 24.2222 28.9401 27.9382 29.4465 32.7079M35.8334 20C35.8334 28.7445 28.7445 35.8333 20 35.8333C11.2554 35.8333 4.16669 28.7445 4.16669 20C4.16669 11.2553 11.2554 4.16667 20 4.16667C28.7445 4.16667 35.8334 11.2553 35.8334 20ZM26.3334 17.8888C26.3334 21.3866 23.4979 24.2222 20 24.2222C16.502 24.2222 13.6666 21.3866 13.6666 17.8888C13.6666 14.3911 16.502 11.5556 20 11.5556C23.4979 11.5556 26.3334 14.3911 26.3334 17.8888Z" stroke="black" stroke-width="1.6" stroke-miterlimit="10" stroke-linecap="round" stroke-linejoin="round"/>
</svg>
