<svg width="37" height="37" viewBox="0 0 37 37" fill="none" xmlns="http://www.w3.org/2000/svg">
<path d="M30.0848 27.5261L24.3117 26.0825L23.8204 24.1174C25.3651 22.5879 26.4229 20.4872 26.7364 18.3322C27.5923 18.0911 28.2554 17.3572 28.3699 16.4365L28.7466 13.4226C28.8265 12.7867 28.6305 12.1432 28.2086 11.661C27.9614 11.3776 27.6495 11.1637 27.3044 11.0326L27.4431 8.19497L28.0067 7.62987C28.8551 6.72718 29.5588 5.17958 28.0881 2.93421C26.9579 1.20887 25.0381 0.333313 22.3798 0.333313C21.331 0.333313 18.9169 0.333313 16.6685 1.84327C10.2489 1.97741 9.3749 4.95961 9.3749 7.86806C9.3749 8.5447 9.53913 10.0682 9.64763 10.9874C9.26033 11.1095 8.90926 11.3355 8.63497 11.6475C8.20549 12.1342 8.00658 12.7807 8.08647 13.4242L8.46318 16.4381C8.58672 17.4206 9.33266 18.1936 10.276 18.3775C10.588 20.4495 11.5916 22.4824 13.0473 23.9864L12.5229 26.0855L6.74979 27.5292C2.97038 28.471 0.333252 31.8495 0.333252 35.7465C0.333252 36.1624 0.67083 36.5 1.08675 36.5H35.7464C36.1623 36.5 36.4999 36.1594 36.4999 35.7435C36.4999 31.8495 33.8627 28.471 30.0848 27.5261Z" fill="#F0F0F0"/>
</svg>
