<svg width="20" height="20" viewBox="0 0 40 40" fill="none" xmlns="http://www.w3.org/2000/svg">
<path d="M1 26V14C1 11.7909 2.79086 10 5 10H23C25.2091 10 27 11.7909 27 14V26C27 28.2091 25.2091 30 23 30H5C2.79086 30 1 28.2091 1 26Z" stroke="white" stroke-width="3.6"/>
<path d="M33.9237 26.657L32.4645 25.1978C31.5268 24.2601 31 22.9883 31 21.6623V18.3377C31 17.0117 31.5268 15.7399 32.4645 14.8022L33.9237 13.343C34.7836 12.4831 35.9498 12 37.1659 12C38.1789 12 39 12.8211 39 13.8341V26.1659C39 27.1789 38.1789 28 37.1659 28C35.9498 28 34.7836 27.5169 33.9237 26.657Z" stroke="white" stroke-width="3.6"/>
</svg>
