<svg width="19" height="19" viewBox="0 0 19 19" fill="none" xmlns="http://www.w3.org/2000/svg">
<path d="M11.608 4.88475C10.8921 4.88475 10.3118 4.30106 10.3118 3.58105C10.3118 2.86103 10.8921 2.27734 11.608 2.27734C12.3239 2.27734 12.9042 2.86103 12.9042 3.58105C12.9042 4.30106 12.3239 4.88475 11.608 4.88475Z" fill="#999999"/>
<path d="M3.45999 14.7737C5.00467 12.4549 6.77094 9.43445 7.06783 8.9246C7.09472 8.8321 7.13022 8.73824 7.17916 8.64385C7.53199 7.95223 7.90094 7.26847 8.27743 6.5893C7.87836 6.62067 7.4782 6.65178 7.07939 6.68288C6.80509 7.22654 6.53214 7.77047 6.25838 8.31386C5.81762 9.1894 4.51309 8.41908 4.95277 7.54598C5.30559 6.84463 5.72377 5.2672 6.6346 5.19607C7.60379 5.12033 8.57271 5.0446 9.54163 4.96914C9.56529 4.96724 9.58546 4.97049 9.60805 4.97049C10.3406 4.77331 11.1993 5.29317 11.3547 6.04429C11.85 7.12322 12.5613 7.96576 13.7548 8.31738C14.689 8.59218 14.291 10.0601 13.3528 9.78418C12.173 9.43689 11.3256 8.75691 10.6832 7.8619C10.2941 8.55973 9.91408 9.26189 9.54996 9.97378C10.3505 10.5291 11.05 11.2007 11.6629 11.9756C11.8339 12.1917 11.8632 12.414 11.8057 12.6096C11.8078 12.6826 11.8032 12.7584 11.7825 12.8406C11.5467 13.7797 11.3111 14.7172 11.075 15.6552C10.8246 16.6549 9.25119 16.3709 9.50371 15.3647C9.72826 14.4707 9.95308 13.5768 10.1776 12.6823C9.6145 12.0145 8.95054 11.4336 8.19192 10.9997C8.01335 10.8975 7.90094 10.7565 7.83855 10.6013C6.80079 12.2009 5.76276 14.4139 4.72553 15.7552C4.09249 16.5737 2.82615 15.5938 3.45999 14.7737Z" fill="#999999"/>
</svg>
