<svg width="50" height="50" viewBox="0 0 50 50" fill="none" xmlns="http://www.w3.org/2000/svg">
<circle cx="25" cy="25" r="25" fill="white"/>
<path fill-rule="evenodd" clip-rule="evenodd" d="M18.1429 12.7773H26.4286V18.0551C26.4286 19.7429 27.8354 21.1107 29.5714 21.1107H35V33.6107C35 35.2985 33.5931 36.6662 31.8571 36.6662H18.1429C17.3097 36.6662 16.5097 36.344 15.92 35.7718C15.3314 35.1985 15 34.4207 15 33.6107V15.8329C15 15.0229 15.3314 14.2451 15.92 13.6718C16.5097 13.0996 17.3097 12.7773 18.1429 12.7773ZM21.936 25.264L20.7006 26.6662L21.936 28.0685C22.2446 28.4173 22.2023 28.944 21.8434 29.2429C21.4846 29.5429 20.9429 29.5018 20.6354 29.1529L19.5714 27.9462L18.5074 29.1529C18.2 29.5018 17.6583 29.5429 17.2994 29.2429C16.9406 28.944 16.8983 28.4173 17.2069 28.0685L18.4423 26.6662L17.2069 25.264C16.8983 24.9151 16.9406 24.3885 17.2994 24.0896C17.6583 23.7896 18.2 23.8307 18.5074 24.1796L19.5714 25.3862L20.6354 24.1796C20.9429 23.8307 21.4846 23.7896 21.8434 24.0896C22.2023 24.3885 22.2446 24.9151 21.936 25.264ZM28.1429 18.0551V13.2696C28.1714 13.2951 28.1989 13.3207 28.2263 13.3473L34.4137 19.3629C34.4411 19.3896 34.4674 19.4162 34.4937 19.444H29.5714C28.7829 19.444 28.1429 18.8218 28.1429 18.0551ZM27.8571 24.7218C27.8571 24.3629 27.6206 24.0451 27.2709 23.9307C26.9211 23.8173 26.536 23.9351 26.3143 24.2218L25.2857 25.5551L24.2571 24.2218C24.0354 23.9351 23.6503 23.8173 23.3006 23.9307C22.9509 24.0451 22.7143 24.3629 22.7143 24.7218V28.6107C22.7143 29.0707 23.0983 29.444 23.5714 29.444C24.0446 29.444 24.4286 29.0707 24.4286 28.6107V27.2218L24.6 27.444C24.7623 27.654 25.016 27.7773 25.2857 27.7773C25.5554 27.7773 25.8091 27.654 25.9714 27.444L26.1429 27.2218V28.6107C26.1429 29.0707 26.5269 29.444 27 29.444C27.4731 29.444 27.8571 29.0707 27.8571 28.6107V24.7218ZM29.2857 29.444C28.8126 29.444 28.4286 29.0707 28.4286 28.6107V24.7218C28.4286 24.2618 28.8126 23.8885 29.2857 23.8885C29.7589 23.8885 30.1429 24.2618 30.1429 24.7218V27.7773H32.1429C32.616 27.7773 33 28.1507 33 28.6107C33 29.0707 32.616 29.444 32.1429 29.444H29.2857Z" fill="#82CA9E"/>
</svg>
